<svg width="60" height="53" viewBox="0 0 60 53" fill="none" xmlns="http://www.w3.org/2000/svg">
<path d="M59.5795 8.29334L45.7279 11.0427C41.0741 4.8224 33.7327 0.806641 25.4719 0.806641C11.4046 0.806641 0 12.4426 0 26.7954C0 41.1482 11.4046 52.7842 25.4719 52.7842C39.5393 52.7842 50.9439 41.1482 50.9439 26.7954C50.9439 24.1904 50.5655 21.6792 49.8653 19.3051L59.5795 8.29334Z" fill="#FFEE00"/>
<path d="M18.6633 21.3149V19.8349H20.1633V22.7949H13.9533V21.3849H14.6633V16.6049H13.9533V15.1949H17.4833V16.6049H16.5733V21.3149H18.6633ZM23.311 22.9549C21.461 22.9549 20.331 21.8749 20.331 20.2149C20.331 18.5249 21.411 17.5049 23.011 17.5049C24.571 17.5049 25.531 18.5149 25.531 20.0349C25.531 20.1649 25.521 20.3949 25.491 20.5449H22.091C22.201 21.1749 22.681 21.5649 23.471 21.5649C23.981 21.5649 24.361 21.3949 24.631 21.1149L25.531 22.1749C25.021 22.6649 24.241 22.9549 23.311 22.9549ZM23.081 18.7649C22.491 18.7649 22.131 19.1049 22.081 19.6649H23.961C23.921 19.1049 23.611 18.7649 23.081 18.7649ZM29.2536 21.2949L29.7636 22.4949C29.5236 22.6849 29.0336 22.8849 28.3936 22.8849C27.1136 22.8849 26.3536 22.2049 26.3536 20.7749V19.0249H25.5436V17.6649H26.3536V16.5049L28.0436 16.1149V17.6649H29.3336V19.0249H28.0536V20.6449C28.0536 21.1749 28.2736 21.4449 28.7236 21.4449C28.9436 21.4449 29.1236 21.3949 29.2536 21.2949ZM30.2848 18.4049L29.6548 17.6749C30.1248 17.3049 30.4648 16.9049 30.6148 16.5149C30.0848 16.4849 29.7348 16.1449 29.7348 15.6249C29.7348 15.0749 30.1448 14.6949 30.6948 14.6949C31.3348 14.6949 31.7648 15.2149 31.7648 15.9849C31.7648 16.9049 31.2148 17.7749 30.2848 18.4049ZM34.205 22.9549C33.475 22.9549 32.855 22.6949 32.565 22.2649V22.7949H31.375V21.0149H32.585V21.0649C32.585 21.5049 32.925 21.8749 33.695 21.8749C34.135 21.8749 34.455 21.7449 34.455 21.4349C34.455 21.1249 34.145 21.0049 33.255 20.8349L32.945 20.7749C31.755 20.5449 31.305 19.9249 31.305 19.1249C31.305 18.1149 32.085 17.5049 33.285 17.5049C34.005 17.5049 34.565 17.7849 34.815 18.1149V17.6649H36.005V19.4349H34.795V19.3549C34.795 18.8849 34.455 18.5849 33.825 18.5849C33.415 18.5849 33.055 18.7149 33.055 19.0449C33.055 19.3349 33.285 19.4149 34.265 19.5949L34.545 19.6449C35.695 19.8549 36.205 20.4149 36.205 21.2949C36.205 22.3649 35.435 22.9549 34.205 22.9549ZM11.2081 38.9549C8.88807 38.9549 7.32807 37.4049 7.32807 34.9449C7.32807 32.6349 8.69807 31.0349 10.7681 31.0349C11.7781 31.0349 12.5781 31.4149 12.9481 32.1249V31.1949H14.3781V34.5349H12.8381V34.4649C12.8381 33.3849 12.1681 32.7549 11.1581 32.7549C9.99807 32.7549 9.27807 33.5849 9.27807 34.9149C9.27807 36.3249 10.1281 37.2349 11.4581 37.2349C12.2281 37.2349 12.9481 36.8449 13.3581 36.3149L14.5081 37.4949C13.8581 38.3349 12.6881 38.9549 11.2081 38.9549ZM19.4809 37.3149V35.8349H20.9809V38.7949H14.7709V37.3849H15.4809V32.6049H14.7709V31.1949H18.3009V32.6049H17.3909V37.3149H19.4809ZM25.3854 38.7949H21.8354V37.3849H22.6654V35.8549L20.4054 32.6049H19.7854V31.1949H23.2354V32.5649H22.3954L23.7154 34.5049L25.0154 32.5649H24.1754V31.1949H27.4354V32.6049H26.8054L24.5554 35.8949V37.3849H25.3854V38.7949ZM32.3313 31.1949H35.5813V32.6049H34.8713V38.7949H32.9713L29.7913 33.8549V37.3849H30.6813V38.7949H27.4413V37.3849H28.1513V32.6049H27.4413V31.1949H30.0513L33.2213 36.0849V32.6049H32.3313V31.1949ZM39.5761 38.9549C37.2561 38.9549 35.6961 37.4049 35.6961 34.9449C35.6961 32.6349 37.0661 31.0349 39.1361 31.0349C40.1461 31.0349 40.9461 31.4149 41.3161 32.1249V31.1949H42.7461V34.5349H41.2061V34.4649C41.2061 33.3849 40.5361 32.7549 39.5261 32.7549C38.3661 32.7549 37.6461 33.5849 37.6461 34.9149C37.6461 36.3249 38.4961 37.2349 39.8261 37.2349C40.5961 37.2349 41.3161 36.8449 41.7261 36.3149L42.8761 37.4949C42.2261 38.3349 41.0561 38.9549 39.5761 38.9549Z" fill="black"/>
</svg>
