<svg width="139" height="92" viewBox="0 0 139 92" fill="none" xmlns="http://www.w3.org/2000/svg">
<path d="M138.024 50.8747C140.755 39.845 134.028 28.6887 123.004 25.9565C120.087 25.2313 117.162 25.1892 114.381 25.6951C113.26 15.3315 105.851 6.28338 95.1464 3.63556C86.549 1.50212 77.8842 4.00659 71.7902 9.55521C68.562 5.45699 64.0188 2.33695 58.5654 0.987737C45.5345 -2.24193 32.3603 5.70997 29.132 18.7467C29.0646 19.0165 29.0309 19.2864 28.9719 19.5562C16.3202 17.9878 4.19964 26.0746 1.0557 38.7656C-2.09667 51.4988 4.89923 64.3584 16.9018 68.8361C15.9494 77.4036 21.445 85.5663 30.0339 87.6913C36.1026 89.1923 42.2135 87.3034 46.3942 83.2389C49.7067 86.9829 54.1487 89.8079 59.3661 91.1065C68.8485 93.4592 78.4068 90.162 84.5176 83.3738C86.6164 84.6134 88.9175 85.5831 91.404 86.1987C105.101 89.597 118.958 81.2319 122.346 67.529C122.473 67.0062 122.557 66.4834 122.65 65.9521C129.966 64.2741 136.102 58.6496 138.024 50.8579V50.8747Z" fill="#0085D8"/>
<path d="M48.172 32.665V33.9434H45.1711L45.1642 42.5225H43.6672L43.6808 33.9434H40.6593V32.665H48.172ZM54.3676 42.5225H52.9252V41.374H52.8568C52.6745 41.7614 52.3646 42.0758 51.9271 42.3174C51.4896 42.5589 50.9838 42.6797 50.4095 42.6797C49.9174 42.6797 49.4821 42.584 49.1039 42.3926C48.7302 42.2012 48.4385 41.9323 48.2289 41.5859C48.0238 41.2396 47.9213 40.8408 47.9213 40.3896C47.9213 39.738 48.1765 39.2048 48.6869 38.79C49.1973 38.3708 49.906 38.0905 50.8129 37.9492C51.1547 37.8991 51.4714 37.8626 51.7631 37.8398C52.0547 37.8125 52.4261 37.7874 52.8773 37.7646C52.7953 37.2178 52.5993 36.8122 52.2894 36.5479C51.9841 36.2835 51.5375 36.1514 50.9496 36.1514C50.626 36.1514 50.2774 36.1901 49.9037 36.2676C49.5345 36.3405 49.1836 36.4408 48.851 36.5684L48.6117 35.4746C48.9854 35.3288 49.3933 35.2126 49.8353 35.126C50.2774 35.0394 50.6693 34.9961 51.0111 34.9961C51.8041 34.9961 52.4467 35.1237 52.9388 35.3789C53.431 35.6296 53.7911 36.0101 54.0189 36.5205C54.2468 37.0264 54.363 37.6712 54.3676 38.4551V42.5225ZM50.7172 41.5996C51.0772 41.5996 51.4099 41.5358 51.7152 41.4082C52.0205 41.2806 52.2758 41.1051 52.4808 40.8818C52.6905 40.6585 52.8386 40.4033 52.9252 40.1162V38.7627C52.4694 38.7855 52.098 38.8083 51.8109 38.8311C51.5284 38.8538 51.2185 38.8926 50.8812 38.9473C50.4118 39.0247 50.0404 39.1797 49.767 39.4121C49.4981 39.6445 49.3636 39.9613 49.3636 40.3623C49.3636 40.5993 49.4206 40.8135 49.5345 41.0049C49.6485 41.1917 49.808 41.3376 50.0131 41.4424C50.2181 41.5472 50.4528 41.5996 50.7172 41.5996ZM60.9322 42.5225L57.774 38.9746H57.2955V42.5225H55.8531V32.3848H57.2955V37.8672H57.6715L60.6588 35.1396H62.3131L58.8678 38.3662L62.5592 42.5225H60.9322ZM66.1707 42.666C65.3914 42.666 64.7215 42.5133 64.1609 42.208C63.6004 41.8981 63.172 41.4561 62.8758 40.8818C62.5796 40.3031 62.4314 39.6172 62.4314 38.8242C62.4269 38.0723 62.5636 37.4069 62.8416 36.8281C63.1196 36.2448 63.5115 35.7936 64.0174 35.4746C64.5278 35.1556 65.1157 34.9984 65.781 35.0029C66.4555 35.012 67.0434 35.167 67.5447 35.4678C68.046 35.7686 68.4311 36.1924 68.7 36.7393C68.9689 37.2816 69.1033 37.9128 69.1033 38.6328C69.1033 38.8561 69.0942 39.0703 69.076 39.2754H63.8601C63.8693 39.722 63.9718 40.1071 64.1678 40.4307C64.3637 40.7542 64.6394 41.0003 64.9949 41.1689C65.3504 41.3376 65.7628 41.4219 66.2322 41.4219C66.6059 41.4219 66.9865 41.374 67.3738 41.2783C67.7612 41.1826 68.1235 41.0368 68.4607 40.8408L68.7137 41.9482C68.3035 42.2035 67.8888 42.388 67.4695 42.502C67.0503 42.6113 66.6173 42.666 66.1707 42.666ZM67.6951 38.2842C67.6951 37.8831 67.6154 37.5299 67.4559 37.2246C67.2963 36.9147 67.0708 36.6755 66.7791 36.5068C66.492 36.3382 66.1593 36.2562 65.781 36.2607C65.4119 36.2653 65.0815 36.3542 64.7898 36.5273C64.4982 36.7005 64.2703 36.9398 64.1062 37.2451C63.9422 37.5505 63.8579 37.8968 63.8533 38.2842H67.6951ZM77.4475 32.6582C78.1584 32.6582 78.7873 32.7904 79.3342 33.0547C79.8856 33.319 80.3117 33.6882 80.6125 34.1621C80.9178 34.6361 81.0705 35.1829 81.0705 35.8027C81.0705 36.4316 80.9201 36.9899 80.6193 37.4775C80.3186 37.9606 79.897 38.3366 79.3547 38.6055C78.8124 38.8743 78.188 39.0088 77.4816 39.0088H75.4514V42.5225H73.9611V32.6582H77.4475ZM77.4406 37.7305C77.8599 37.7305 78.2313 37.653 78.5549 37.498C78.8785 37.3385 79.1291 37.1198 79.3068 36.8418C79.4891 36.5592 79.5803 36.2402 79.5803 35.8848C79.5803 35.502 79.4869 35.1647 79.3 34.873C79.1132 34.5768 78.8511 34.349 78.5139 34.1895C78.1766 34.0254 77.7915 33.9434 77.3586 33.9434H75.4719V37.7305H77.4406ZM88.0248 42.5225H86.5824V41.374H86.5141C86.3318 41.7614 86.0219 42.0758 85.5844 42.3174C85.1469 42.5589 84.641 42.6797 84.0668 42.6797C83.5746 42.6797 83.1394 42.584 82.7612 42.3926C82.3875 42.2012 82.0958 41.9323 81.8862 41.5859C81.6811 41.2396 81.5785 40.8408 81.5785 40.3896C81.5785 39.738 81.8337 39.2048 82.3442 38.79C82.8546 38.3708 83.5632 38.0905 84.4701 37.9492C84.8119 37.8991 85.1287 37.8626 85.4203 37.8398C85.712 37.8125 86.0834 37.7874 86.5346 37.7646C86.4526 37.2178 86.2566 36.8122 85.9467 36.5479C85.6414 36.2835 85.1947 36.1514 84.6069 36.1514C84.2833 36.1514 83.9347 36.1901 83.561 36.2676C83.1918 36.3405 82.8409 36.4408 82.5082 36.5684L82.269 35.4746C82.6427 35.3288 83.0505 35.2126 83.4926 35.126C83.9347 35.0394 84.3266 34.9961 84.6684 34.9961C85.4613 34.9961 86.1039 35.1237 86.5961 35.3789C87.0883 35.6296 87.4483 36.0101 87.6762 36.5205C87.9041 37.0264 88.0203 37.6712 88.0248 38.4551V42.5225ZM84.3744 41.5996C84.7345 41.5996 85.0671 41.5358 85.3725 41.4082C85.6778 41.2806 85.933 41.1051 86.1381 40.8818C86.3477 40.6585 86.4959 40.4033 86.5824 40.1162V38.7627C86.1267 38.7855 85.7553 38.8083 85.4682 38.8311C85.1856 38.8538 84.8757 38.8926 84.5385 38.9473C84.0691 39.0247 83.6977 39.1797 83.4242 39.4121C83.1554 39.6445 83.0209 39.9613 83.0209 40.3623C83.0209 40.5993 83.0779 40.8135 83.1918 41.0049C83.3057 41.1917 83.4653 41.3376 83.6703 41.4424C83.8754 41.5472 84.1101 41.5996 84.3744 41.5996ZM91.028 36.3906C91.2604 35.9622 91.5703 35.625 91.9576 35.3789C92.3496 35.1328 92.8235 35.0075 93.3795 35.0029V36.2949C92.7369 36.2949 92.2379 36.4089 91.8824 36.6367C91.5315 36.8646 91.29 37.1882 91.1578 37.6074C91.0257 38.0267 90.9573 38.5645 90.9528 39.2207V42.5225H89.5104V35.1396H90.9528V36.3906H91.028ZM96.5194 36.4863V40.0068C96.5194 40.3623 96.5467 40.6335 96.6014 40.8203C96.6606 41.0026 96.7563 41.1302 96.8885 41.2031C97.0252 41.2715 97.2212 41.3057 97.4764 41.3057H97.9686V42.5225H97.1073C96.4054 42.5225 95.8905 42.3356 95.5623 41.9619C95.2388 41.5882 95.077 41.0003 95.077 40.1982V36.4863H93.8875V35.2217H95.077V33.499L96.5194 32.9932V35.2217H98.0028V36.4863H96.5194ZM32.7164 60.5225H31.274V59.374H31.2056C31.0233 59.7614 30.7134 60.0758 30.2759 60.3174C29.8384 60.5589 29.3326 60.6797 28.7583 60.6797C28.2662 60.6797 27.8309 60.584 27.4527 60.3926C27.079 60.2012 26.7873 59.9323 26.5777 59.5859C26.3726 59.2396 26.2701 58.8408 26.2701 58.3896C26.2701 57.738 26.5253 57.2048 27.0357 56.79C27.5461 56.3708 28.2548 56.0905 29.1617 55.9492C29.5035 55.8991 29.8202 55.8626 30.1119 55.8398C30.4035 55.8125 30.7749 55.7874 31.2261 55.7646C31.1441 55.2178 30.9481 54.8122 30.6382 54.5479C30.3329 54.2835 29.8863 54.1514 29.2984 54.1514C28.9748 54.1514 28.6262 54.1901 28.2525 54.2676C27.8833 54.3405 27.5324 54.4408 27.1997 54.5684L26.9605 53.4746C27.3342 53.3288 27.7421 53.2126 28.1841 53.126C28.6262 53.0394 29.0181 52.9961 29.3599 52.9961C30.1529 52.9961 30.7955 53.1237 31.2876 53.3789C31.7798 53.6296 32.1399 54.0101 32.3677 54.5205C32.5956 55.0264 32.7118 55.6712 32.7164 56.4551V60.5225ZM29.066 59.5996C29.426 59.5996 29.7587 59.5358 30.064 59.4082C30.3693 59.2806 30.6246 59.1051 30.8296 58.8818C31.0393 58.6585 31.1874 58.4033 31.274 58.1162V56.7627C30.8182 56.7855 30.4468 56.8083 30.1597 56.8311C29.8772 56.8538 29.5673 56.8926 29.23 56.9473C28.7606 57.0247 28.3892 57.1797 28.1158 57.4121C27.8469 57.6445 27.7124 57.9613 27.7124 58.3623C27.7124 58.5993 27.7694 58.8135 27.8833 59.0049C27.9973 59.1917 28.1568 59.3376 28.3619 59.4424C28.5669 59.5472 28.8016 59.5996 29.066 59.5996ZM37.8318 52.9961C38.7296 52.9961 39.4132 53.2445 39.8826 53.7412C40.3565 54.238 40.5935 54.9648 40.5935 55.9219V60.5225H39.1443V56.2295C39.1443 55.5596 38.9962 55.0605 38.7 54.7324C38.4037 54.3997 37.9685 54.2334 37.3943 54.2334C37.0844 54.2334 36.8041 54.3086 36.5535 54.459C36.3028 54.6094 36.0977 54.8213 35.9382 55.0947C35.7787 55.3636 35.683 55.6712 35.6511 56.0176V60.5225H34.2019V53.1396H35.6511V54.2744H35.7195C35.9018 53.8643 36.182 53.5498 36.5603 53.3311C36.9386 53.1077 37.3624 52.9961 37.8318 52.9961ZM48.7783 50.1934V60.5225H47.3359V59.3809H47.2812C47.0442 59.7637 46.7275 60.0736 46.331 60.3105C45.9345 60.543 45.4606 60.6592 44.9091 60.6592C44.2939 60.6592 43.7425 60.5042 43.2548 60.1943C42.7672 59.8844 42.3844 59.4492 42.1064 58.8887C41.833 58.3236 41.6962 57.681 41.6962 56.9609C41.6962 56.1862 41.8352 55.498 42.1132 54.8965C42.3912 54.2949 42.7763 53.8278 43.2685 53.4951C43.7653 53.1624 44.3235 52.9961 44.9433 52.9961C45.4537 52.9961 45.9117 53.1146 46.3173 53.3516C46.7275 53.584 47.0533 53.9098 47.2949 54.3291H47.3359V50.1934H48.7783ZM45.1826 59.5723C45.611 59.5723 45.9824 59.4766 46.2968 59.2852C46.6158 59.0938 46.8619 58.8431 47.0351 58.5332C47.2083 58.2188 47.3086 57.8861 47.3359 57.5352V56.3525C47.3086 55.9287 47.1992 55.5505 47.0078 55.2178C46.8164 54.8805 46.5657 54.6185 46.2558 54.4316C45.9505 54.2448 45.6087 54.1514 45.2304 54.1514C44.8522 54.1514 44.5035 54.2721 44.1845 54.5137C43.8655 54.7507 43.6103 55.0833 43.4189 55.5117C43.2321 55.9355 43.1386 56.4186 43.1386 56.9609C43.1386 57.4668 43.2298 57.918 43.4121 58.3145C43.5989 58.7109 43.8473 59.0208 44.1572 59.2441C44.4716 59.4629 44.8134 59.5723 45.1826 59.5723ZM56.4867 59.3057V60.5225H56.0492C55.4978 60.5179 55.0785 60.4473 54.7914 60.3105C54.5088 60.1738 54.3106 59.9414 54.1967 59.6133C54.0873 59.2852 54.0326 58.8066 54.0326 58.1777V50.2822H55.475V57.9863C55.475 58.3783 55.4978 58.6654 55.5433 58.8477C55.5935 59.0254 55.6823 59.1462 55.8099 59.21C55.9421 59.2738 56.1495 59.3057 56.432 59.3057H56.4867ZM60.9049 60.666C60.1256 60.666 59.4556 60.5133 58.8951 60.208C58.3346 59.8981 57.9062 59.4561 57.6099 58.8818C57.3137 58.3031 57.1656 57.6172 57.1656 56.8242C57.1611 56.0723 57.2978 55.4069 57.5758 54.8281C57.8538 54.2448 58.2457 53.7936 58.7515 53.4746C59.262 53.1556 59.8499 52.9984 60.5152 53.0029C61.1897 53.012 61.7776 53.167 62.2789 53.4678C62.7802 53.7686 63.1653 54.1924 63.4342 54.7393C63.703 55.2816 63.8375 55.9128 63.8375 56.6328C63.8375 56.8561 63.8284 57.0703 63.8101 57.2754H58.5943C58.6034 57.722 58.706 58.1071 58.9019 58.4307C59.0979 58.7542 59.3736 59.0003 59.7291 59.1689C60.0846 59.3376 60.497 59.4219 60.9664 59.4219C61.3401 59.4219 61.7206 59.374 62.108 59.2783C62.4954 59.1826 62.8577 59.0368 63.1949 58.8408L63.4478 59.9482C63.0377 60.2035 62.623 60.388 62.2037 60.502C61.7844 60.6113 61.3515 60.666 60.9049 60.666ZM62.4293 56.2842C62.4293 55.8831 62.3495 55.5299 62.19 55.2246C62.0305 54.9147 61.8049 54.6755 61.5133 54.5068C61.2262 54.3382 60.8935 54.2562 60.5152 54.2607C60.1461 54.2653 59.8157 54.3542 59.524 54.5273C59.2323 54.7005 59.0045 54.9398 58.8404 55.2451C58.6763 55.5505 58.592 55.8968 58.5875 56.2842H62.4293ZM67.1551 54.4863V58.0068C67.1551 58.3623 67.1824 58.6335 67.2371 58.8203C67.2963 59.0026 67.3921 59.1302 67.5242 59.2031C67.6609 59.2715 67.8569 59.3057 68.1121 59.3057H68.6043V60.5225H67.743C67.0411 60.5225 66.5262 60.3356 66.198 59.9619C65.8745 59.5882 65.7127 59.0003 65.7127 58.1982V54.4863H64.5232V53.2217H65.7127V51.499L67.1551 50.9932V53.2217H68.6385V54.4863H67.1551ZM71.0605 50.6719L70.7324 53.9258H69.666L69.707 50.6719H71.0605ZM74.9592 60.666C74.4169 60.666 73.8746 60.5794 73.3322 60.4062C72.7899 60.2285 72.3228 59.9915 71.9309 59.6953L72.4231 58.7109C72.8104 58.9616 73.2229 59.1598 73.6604 59.3057C74.0979 59.4469 74.508 59.5176 74.8908 59.5176C75.1552 59.5176 75.3921 59.4766 75.6018 59.3945C75.8114 59.3079 75.9755 59.1917 76.094 59.0459C76.217 58.9001 76.2785 58.736 76.2785 58.5537C76.2785 58.3486 76.2193 58.1709 76.1008 58.0205C75.9823 57.8656 75.7932 57.7197 75.5334 57.583C75.2782 57.4463 74.925 57.2982 74.4738 57.1387C73.9543 56.9564 73.5419 56.7673 73.2365 56.5713C72.9312 56.3708 72.7056 56.1361 72.5598 55.8672C72.4139 55.5983 72.341 55.2702 72.341 54.8828C72.341 54.5091 72.4458 54.181 72.6555 53.8984C72.8697 53.6113 73.1659 53.3903 73.5441 53.2354C73.927 53.0804 74.369 53.0029 74.8703 53.0029C75.326 53.0029 75.743 53.0576 76.1213 53.167C76.4996 53.2718 76.855 53.4359 77.1877 53.6592V54.7119C76.4768 54.32 75.759 54.124 75.0344 54.124C74.647 54.124 74.3394 54.1901 74.1115 54.3223C73.8837 54.4544 73.7697 54.6481 73.7697 54.9033C73.7697 55.1904 73.8905 55.4342 74.132 55.6348C74.3781 55.8353 74.7928 56.029 75.3762 56.2158C76.9257 56.7171 77.7004 57.501 77.7004 58.5674C77.7004 58.9912 77.5887 59.3626 77.3654 59.6816C77.1421 59.9961 76.8231 60.2399 76.4084 60.4131C75.9982 60.5817 75.5152 60.666 74.9592 60.666ZM85.8531 59.4697C86.2587 59.4697 86.6324 59.3809 86.9742 59.2031C87.316 59.0208 87.6054 58.7497 87.8424 58.3896L88.7106 59.0527C88.4098 59.5859 88.0156 59.9893 87.528 60.2627C87.0403 60.5316 86.4821 60.666 85.8531 60.666C85.1285 60.666 84.4814 60.5042 83.9117 60.1807C83.3421 59.8571 82.8932 59.4059 82.5651 58.8271C82.2415 58.2438 82.0729 57.5807 82.0592 56.8379V56.8242V56.8174C82.0729 56.0745 82.2415 55.4137 82.5651 54.835C82.8932 54.2516 83.3421 53.7982 83.9117 53.4746C84.4814 53.151 85.1285 52.9893 85.8531 52.9893C87.1292 52.9893 88.0817 53.5111 88.7106 54.5547L87.8424 55.2178C87.3502 54.5296 86.6871 54.1855 85.8531 54.1855C85.3974 54.1855 84.9895 54.2972 84.6295 54.5205C84.274 54.7393 83.9938 55.0492 83.7887 55.4502C83.5836 55.8512 83.4765 56.3092 83.4674 56.8242C83.4765 57.3438 83.5836 57.804 83.7887 58.2051C83.9938 58.6061 84.274 58.9183 84.6295 59.1416C84.9895 59.3604 85.3974 59.4697 85.8531 59.4697ZM93.4227 52.9961C94.325 52.9961 95.0109 53.2445 95.4803 53.7412C95.9543 54.238 96.1912 54.9648 96.1912 55.9219V60.5225H94.742V56.2295C94.742 55.5641 94.5939 55.0651 94.2977 54.7324C94.006 54.3997 93.5754 54.2334 93.0057 54.2334C92.6912 54.2334 92.4064 54.3086 92.1512 54.459C91.9006 54.6094 91.6955 54.8213 91.536 55.0947C91.3765 55.3636 91.2808 55.6712 91.2489 56.0176V60.5225H89.7996V50.4463H91.2489V54.2949H91.3035C91.4858 53.8757 91.7661 53.5544 92.1444 53.3311C92.5272 53.1077 92.9533 52.9961 93.4227 52.9961ZM103.74 60.5225H102.298V59.374H102.23C102.047 59.7614 101.737 60.0758 101.3 60.3174C100.862 60.5589 100.356 60.6797 99.7823 60.6797C99.2901 60.6797 98.8549 60.584 98.4766 60.3926C98.1029 60.2012 97.8112 59.9323 97.6016 59.5859C97.3965 59.2396 97.294 58.8408 97.294 58.3896C97.294 57.738 97.5492 57.2048 98.0596 56.79C98.57 56.3708 99.2787 56.0905 100.186 55.9492C100.527 55.8991 100.844 55.8626 101.136 55.8398C101.427 55.8125 101.799 55.7874 102.25 55.7646C102.168 55.2178 101.972 54.8122 101.662 54.5479C101.357 54.2835 100.91 54.1514 100.322 54.1514C99.9987 54.1514 99.6501 54.1901 99.2764 54.2676C98.9073 54.3405 98.5564 54.4408 98.2237 54.5684L97.9844 53.4746C98.3581 53.3288 98.766 53.2126 99.2081 53.126C99.6501 53.0394 100.042 52.9961 100.384 52.9961C101.177 52.9961 101.819 53.1237 102.312 53.3789C102.804 53.6296 103.164 54.0101 103.392 54.5205C103.62 55.0264 103.736 55.6712 103.74 56.4551V60.5225ZM100.09 59.5996C100.45 59.5996 100.783 59.5358 101.088 59.4082C101.393 59.2806 101.648 59.1051 101.854 58.8818C102.063 58.6585 102.211 58.4033 102.298 58.1162V56.7627C101.842 56.7855 101.471 56.8083 101.184 56.8311C100.901 56.8538 100.591 56.8926 100.254 56.9473C99.7846 57.0247 99.4131 57.1797 99.1397 57.4121C98.8708 57.6445 98.7364 57.9613 98.7364 58.3623C98.7364 58.5993 98.7933 58.8135 98.9073 59.0049C99.0212 59.1917 99.1807 59.3376 99.3858 59.4424C99.5909 59.5472 99.8256 59.5996 100.09 59.5996ZM107.379 54.4863V58.0068C107.379 58.3623 107.406 58.6335 107.461 58.8203C107.52 59.0026 107.616 59.1302 107.748 59.2031C107.885 59.2715 108.081 59.3057 108.336 59.3057H108.828V60.5225H107.967C107.265 60.5225 106.75 60.3356 106.422 59.9619C106.099 59.5882 105.937 59.0003 105.937 58.1982V54.4863H104.747V53.2217H105.937V51.499L107.379 50.9932V53.2217H108.863V54.4863H107.379ZM111.866 50.7881V57.8291H110.41V50.7881H111.866ZM111.893 59.0117V60.5225H110.382V59.0117H111.893Z" fill="white"/>
</svg>
