<svg width="283" height="20" viewBox="0 0 283 20" fill="none" xmlns="http://www.w3.org/2000/svg">
<path d="M6.92873 15.2597C2.82473 15.2597 0.0707343 12.3797 0.0707343 8.05968C0.0707343 3.82968 2.53673 1.00368 6.29873 1.00368C8.45873 1.00368 10.2227 1.97568 10.9427 3.57768V1.29168H12.2207V7.06968H10.8887V6.87168C10.8887 4.20768 9.17874 2.49768 6.53273 2.49768C3.59873 2.49768 1.70873 4.69368 1.70873 8.04168C1.70873 11.4617 3.88673 13.7657 7.07273 13.7657C8.92674 13.7657 10.5107 12.9557 11.4287 11.6597L12.4547 12.6497C11.3747 14.2157 9.35873 15.2597 6.92873 15.2597ZM17.9866 14.9717H13.5586V13.7657H14.8726V1.95768H13.5046V0.751679H16.3126V7.42968C16.8346 6.42168 17.9326 5.84568 19.4626 5.84568C21.7666 5.84568 22.9906 7.05168 22.9906 9.51768V13.7657H24.3046V14.9717H19.8766V13.7657H21.5506V9.75168C21.5506 7.96968 20.6866 7.15968 19.1026 7.15968C17.3026 7.15968 16.3126 8.16768 16.3126 10.0217V13.7657H17.9866V14.9717ZM29.3413 15.2597C26.7853 15.2597 24.9493 13.4057 24.9493 10.5437C24.9493 7.75368 26.7493 5.84568 29.3593 5.84568C30.9433 5.84568 32.1133 6.54768 32.7073 7.68168V6.13368H35.4613V7.33968H34.1473V13.7657H35.4613V14.9717H32.7613V13.3337C32.1313 14.5577 30.9433 15.2597 29.3413 15.2597ZM29.6113 13.9457C31.5553 13.9457 32.7793 12.5597 32.7793 10.5437C32.7793 8.52768 31.5553 7.15968 29.6113 7.15968C27.6673 7.15968 26.4253 8.52768 26.4253 10.5437C26.4253 12.5597 27.6673 13.9457 29.6113 13.9457ZM42.128 13.4057L42.632 14.4497C42.182 14.8637 41.444 15.1337 40.58 15.1337C38.726 15.1337 37.682 14.0897 37.682 12.0557V7.33968H36.152V6.13368H37.682V3.81168L39.122 3.45168V6.13368H41.93V7.33968H39.122V11.9657C39.122 13.2257 39.68 13.8557 40.778 13.8557C41.336 13.8557 41.822 13.6397 42.128 13.4057ZM43.7598 18.3377L43.1118 17.6717C43.7058 17.1137 44.4438 16.1777 44.5338 15.1157C44.4798 15.1337 44.4078 15.1517 44.3178 15.1517C43.7418 15.1517 43.3278 14.6837 43.3278 14.0897C43.3278 13.4597 43.7778 13.0457 44.4078 13.0457C45.1458 13.0457 45.5958 13.6397 45.5958 14.6297C45.5958 16.1597 44.7858 17.4557 43.7598 18.3377ZM50.6187 1.29168H56.1627C59.6907 1.29168 61.3647 2.73168 61.3647 5.46768C61.3647 8.14968 59.6907 9.64368 56.1627 9.64368H53.8947V13.7117H56.0007V14.9717H50.6187V13.7117H52.2927V2.55168H50.6187V1.29168ZM53.8947 8.38368H55.9287C58.6647 8.38368 59.7447 7.41168 59.7447 5.46768C59.7447 3.50568 58.6647 2.55168 55.9287 2.55168H53.8947V8.38368ZM66.149 15.2597C63.593 15.2597 61.757 13.4057 61.757 10.5437C61.757 7.75368 63.557 5.84568 66.167 5.84568C67.751 5.84568 68.921 6.54768 69.515 7.68168V6.13368H72.269V7.33968H70.955V13.7657H72.269V14.9717H69.569V13.3337C68.939 14.5577 67.751 15.2597 66.149 15.2597ZM66.419 13.9457C68.363 13.9457 69.587 12.5597 69.587 10.5437C69.587 8.52768 68.363 7.15968 66.419 7.15968C64.475 7.15968 63.233 8.52768 63.233 10.5437C63.233 12.5597 64.475 13.9457 66.419 13.9457ZM74.3222 19.3817C73.6562 19.3817 73.1522 19.2377 72.7742 19.0037L73.2422 17.8517C73.4762 17.9417 73.8182 18.0677 74.3042 18.0677C75.5102 18.0677 76.3742 17.3837 77.0402 16.0157L77.4722 15.1157L74.0882 7.33968H72.9902V6.13368H77.2562V7.32168H75.6542L78.2282 13.4597L80.8382 7.32168H79.2542V6.13368H83.3762V7.33968H82.2782L78.5522 15.7817C77.4542 18.3197 76.2122 19.3817 74.3222 19.3817ZM82.712 18.3377L82.064 17.6717C82.658 17.1137 83.396 16.1777 83.486 15.1157C83.432 15.1337 83.36 15.1517 83.27 15.1517C82.694 15.1517 82.28 14.6837 82.28 14.0897C82.28 13.4597 82.73 13.0457 83.36 13.0457C84.098 13.0457 84.548 13.6397 84.548 14.6297C84.548 16.1597 83.738 17.4557 82.712 18.3377ZM95.3849 15.2597C93.3689 15.2597 91.7489 14.6297 90.9389 13.3877V14.9717H89.7329V10.4537H90.9929V10.8137C90.9929 12.5957 92.7209 13.8917 95.0789 13.8917C97.1849 13.8917 98.4989 13.0097 98.4989 11.5157C98.4989 10.0757 97.5629 9.31968 95.2589 8.90568L93.9629 8.67168C91.2449 8.18568 89.9669 6.85368 89.9669 4.74768C89.9669 2.51568 91.7849 1.00368 94.4669 1.00368C96.2489 1.00368 97.5989 1.66968 98.3369 2.76768V1.29168H99.5429V5.68368H98.3009V5.41368C98.3009 3.64968 96.8069 2.38968 94.7189 2.38968C92.7929 2.38968 91.5869 3.28968 91.5869 4.67568C91.5869 6.04368 92.4689 6.87168 94.7549 7.28568L95.9609 7.50168C98.8229 8.00568 100.119 9.24768 100.119 11.4257C100.119 13.7657 98.3009 15.2597 95.3849 15.2597ZM105.734 15.2597C103.178 15.2597 101.342 13.4057 101.342 10.5437C101.342 7.75368 103.142 5.84568 105.752 5.84568C107.336 5.84568 108.506 6.54768 109.1 7.68168V6.13368H111.854V7.33968H110.54V13.7657H111.854V14.9717H109.154V13.3337C108.524 14.5577 107.336 15.2597 105.734 15.2597ZM106.004 13.9457C107.948 13.9457 109.172 12.5597 109.172 10.5437C109.172 8.52768 107.948 7.15968 106.004 7.15968C104.06 7.15968 102.818 8.52768 102.818 10.5437C102.818 12.5597 104.06 13.9457 106.004 13.9457ZM118.269 14.9717H116.739L113.427 7.33968H112.347V6.13368H116.595V7.32168H115.011L117.549 13.5317L120.159 7.32168H118.575V6.13368H122.679V7.33968H121.599L118.269 14.9717ZM127.567 15.2597C124.525 15.2597 122.797 13.2977 122.797 10.5437C122.797 7.66368 124.543 5.84568 127.207 5.84568C129.655 5.84568 131.257 7.42968 131.257 10.1117C131.257 10.3277 131.221 10.6877 131.203 10.8857H124.291C124.381 12.7037 125.587 13.9817 127.675 13.9817C128.971 13.9817 129.853 13.4957 130.339 12.8657L131.185 13.7477C130.537 14.6117 129.169 15.2597 127.567 15.2597ZM127.207 7.08768C125.605 7.08768 124.489 8.20368 124.291 9.76968H129.835C129.745 8.20368 128.791 7.08768 127.207 7.08768ZM140.274 15.2597C137.502 15.2597 135.864 13.7477 135.864 11.5877C135.864 10.6517 136.152 9.84168 136.71 9.17568C137.268 8.50968 137.97 7.91568 138.78 7.42968C137.43 5.79168 136.926 5.01768 136.926 3.95568C136.926 2.33568 138.276 1.00368 140.328 1.00368C142.362 1.00368 143.64 2.24568 143.64 3.90168C143.64 5.17968 142.992 6.20568 140.796 7.60968L144.288 11.7317C144.774 10.8677 145.008 9.75168 145.008 8.45568V8.09568H147.834V9.44568H146.268C146.16 10.6877 145.782 11.7857 145.152 12.7397L145.908 13.6217H147.834V14.9717H145.17L144.198 13.8377C143.19 14.7197 141.858 15.2597 140.274 15.2597ZM138.366 3.95568C138.366 4.69368 138.762 5.23368 140.022 6.70968C141.822 5.55768 142.2 4.87368 142.2 4.00968C142.2 2.98368 141.462 2.28168 140.328 2.28168C139.176 2.28168 138.366 3.00168 138.366 3.95568ZM137.394 11.3897C137.394 12.8477 138.564 13.9457 140.526 13.9457C141.678 13.9457 142.632 13.5857 143.406 12.8837L139.572 8.36568C138.366 9.10368 137.394 10.0037 137.394 11.3897ZM152.791 1.29168H158.335C161.863 1.29168 163.537 2.73168 163.537 5.46768C163.537 8.14968 161.863 9.64368 158.335 9.64368H156.067V13.7117H158.173V14.9717H152.791V13.7117H154.465V2.55168H152.791V1.29168ZM156.067 8.38368H158.101C160.837 8.38368 161.917 7.41168 161.917 5.46768C161.917 3.50568 160.837 2.55168 158.101 2.55168H156.067V8.38368ZM168.486 14.9717H164.418V13.7657H165.732V1.95768H164.364V0.751679H167.172V13.7657H168.486V14.9717ZM173.767 15.2597C171.211 15.2597 169.375 13.4057 169.375 10.5437C169.375 7.75368 171.175 5.84568 173.785 5.84568C175.369 5.84568 176.539 6.54768 177.133 7.68168V6.13368H179.887V7.33968H178.573V13.7657H179.887V14.9717H177.187V13.3337C176.557 14.5577 175.369 15.2597 173.767 15.2597ZM174.037 13.9457C175.981 13.9457 177.205 12.5597 177.205 10.5437C177.205 8.52768 175.981 7.15968 174.037 7.15968C172.093 7.15968 170.851 8.52768 170.851 10.5437C170.851 12.5597 172.093 13.9457 174.037 13.9457ZM181.94 19.3817C181.274 19.3817 180.77 19.2377 180.392 19.0037L180.86 17.8517C181.094 17.9417 181.436 18.0677 181.922 18.0677C183.128 18.0677 183.992 17.3837 184.658 16.0157L185.09 15.1157L181.706 7.33968H180.608V6.13368H184.874V7.32168H183.272L185.846 13.4597L188.456 7.32168H186.872V6.13368H190.994V7.33968H189.896L186.17 15.7817C185.072 18.3197 183.83 19.3817 181.94 19.3817ZM197.58 10.6337H191.73V9.31968H197.58V10.6337ZM202.863 14.9717H198.003V13.7117H199.335L203.997 1.29168H205.905L210.603 13.7117H211.917V14.9717H206.841V13.7117H208.947L207.741 10.5257H202.053L200.883 13.7117H202.863V14.9717ZM204.879 2.87568L202.485 9.33768H207.309L204.879 2.87568ZM216.42 14.9717H212.352V13.7657H213.666V1.95768H212.298V0.751679H215.106V13.7657H216.42V14.9717ZM221.339 14.9717H217.271V13.7657H218.585V1.95768H217.217V0.751679H220.025V13.7657H221.339V14.9717ZM230.868 1.29168V2.55168H229.194V13.7117H230.868V14.9717H225.918V13.7117H227.592V2.55168H225.918V1.29168H230.868ZM241.458 9.51768V13.7657H242.772V14.9717H238.344V13.7657H240.018V9.75168C240.018 7.96968 239.154 7.15968 237.57 7.15968C235.77 7.15968 234.78 8.16768 234.78 10.0217V13.7657H236.454V14.9717H232.026V13.7657H233.34V7.33968H232.026V6.13368H234.708V7.53768C235.23 6.47568 236.328 5.84568 237.93 5.84568C240.234 5.84568 241.458 7.05168 241.458 9.51768ZM254.159 15.2597C250.037 15.2597 247.319 12.3077 247.319 8.13168C247.319 3.95568 250.037 1.00368 254.159 1.00368C258.281 1.00368 261.017 3.95568 261.017 8.13168C261.017 12.3077 258.281 15.2597 254.159 15.2597ZM254.159 13.7657C257.291 13.7657 259.379 11.3897 259.379 8.13168C259.379 4.87368 257.291 2.49768 254.159 2.49768C251.027 2.49768 248.957 4.87368 248.957 8.13168C248.957 11.3897 251.027 13.7657 254.159 13.7657ZM271.699 9.51768V13.7657H273.013V14.9717H268.585V13.7657H270.259V9.75168C270.259 7.96968 269.395 7.15968 267.811 7.15968C266.011 7.15968 265.021 8.16768 265.021 10.0217V13.7657H266.695V14.9717H262.267V13.7657H263.581V7.33968H262.267V6.13368H264.949V7.53768C265.471 6.47568 266.569 5.84568 268.171 5.84568C270.475 5.84568 271.699 7.05168 271.699 9.51768ZM278.427 15.2597C275.385 15.2597 273.657 13.2977 273.657 10.5437C273.657 7.66368 275.403 5.84568 278.067 5.84568C280.515 5.84568 282.117 7.42968 282.117 10.1117C282.117 10.3277 282.081 10.6877 282.063 10.8857H275.151C275.241 12.7037 276.447 13.9817 278.535 13.9817C279.831 13.9817 280.713 13.4957 281.199 12.8657L282.045 13.7477C281.397 14.6117 280.029 15.2597 278.427 15.2597ZM278.067 7.08768C276.465 7.08768 275.349 8.20368 275.151 9.76968H280.695C280.605 8.20368 279.651 7.08768 278.067 7.08768Z" fill="black"/>
</svg>
