<svg width="196" height="50" viewBox="0 0 196 50" fill="none" xmlns="http://www.w3.org/2000/svg">
<path d="M132.814 0.235646C130.836 0.320454 128.911 0.903408 127.219 1.93044C125.526 2.95747 124.12 4.39532 123.131 6.11065V0.51064H114.914V41.3107H123.129V15.0326C123.02 10.5176 126.012 6.54663 130.092 6.49163C138.361 6.05663 137.654 15.6857 137.654 15.6857V41.3646H150.384V15.3046C150.384 15.2506 150.384 -0.634354 132.812 0.235646" fill="#00E13F"/>
<path d="M59.1821 35.5971V0.454102H46.4531V41.1461H73.9801V35.5971H59.1821Z" fill="#00E13F"/>
<path d="M182.399 39.1339L178.428 34.5639C177.612 34.9449 169.071 38.5899 165.209 33.1499C160.531 26.6219 167.494 17.6999 170.109 15.4149C172.485 13.2916 175.285 11.697 178.324 10.7368C182.458 9.48583 185.885 10.0839 188.442 13.3479C192.848 19.5479 187.191 25.3159 187.191 25.3159L191.326 30.1029C197.364 23.3569 195.46 12.9119 192.526 9.81087C192.526 9.81087 186.379 3.61086 185.182 2.68486C185.182 2.68486 174.846 -5.14913 161.844 5.94887C149.604 16.2309 155.424 28.6339 155.424 28.6339C156.131 30.0479 161.463 36.8488 161.463 36.8488C164.563 40.9828 172.942 44.2489 182.407 39.1339" fill="#00E13F"/>
<path d="M100.498 0.454102V20.7981C100.607 25.2891 97.6152 29.2391 93.5352 29.2931C85.2662 29.7261 85.9731 20.1491 85.9731 20.1491V0.454102H73.2441V20.5271C73.2441 20.5271 73.2442 36.3271 90.8152 35.4601C92.7902 35.3784 94.7127 34.8003 96.4052 33.779C98.0976 32.7578 99.5053 31.3263 100.498 29.6171V32.3761C100.281 40.1671 97.3432 43.0351 89.6732 43.1971V49.9601C109.257 50.8261 108.713 35.1891 108.713 35.1891V0.454102H100.498Z" fill="#00E13F"/>
<path d="M37.66 9.91885L33.906 14.6519C34.45 15.4139 39.506 23.1389 34.831 27.8709C29.065 33.4709 19.218 28.3609 16.552 26.1839C14.0218 24.2335 11.959 21.743 10.514 18.8939C8.55601 15.0319 8.55597 11.5499 11.276 8.50387C16.607 3.06387 23.244 7.63385 23.244 7.63385L27.2149 2.73385C19.5449 -2.05315 9.53495 1.69987 7.03195 5.12787C7.03195 5.12787 2.03204 12.3089 1.32004 13.6139C1.32004 13.6139 -4.60897 25.2019 8.66403 35.9729C20.904 46.1999 32.111 38.3119 32.111 38.3119C33.417 37.3869 39.129 30.9118 39.129 30.9118C42.611 27.1578 44.351 18.3448 37.66 9.91183" fill="#00E13F"/>
</svg>
