<svg width="456" height="106" viewBox="0 0 456 106" fill="none" xmlns="http://www.w3.org/2000/svg">
<rect x="0.5" width="455" height="106" rx="5" fill="#1F1F1F"/>
<rect x="239.608" y="15" width="195" height="76" rx="5" fill="#00E13F"/>
<path d="M305.411 56.2H309.011C309.011 59.83 310.001 61.3 312.821 61.3C315.641 61.3 316.631 59.98 316.631 56.35V46.15H307.211V43H320.231V56.35C320.231 61.72 318.401 64.45 312.821 64.45C307.391 64.45 305.411 61.57 305.411 56.2ZM322.41 56.5C322.41 51.61 325.5 48.55 330.42 48.55C335.34 48.55 338.4 51.61 338.4 56.5C338.4 61.39 335.34 64.45 330.42 64.45C325.5 64.45 322.41 61.39 322.41 56.5ZM325.95 56.5C325.95 59.68 327.45 61.45 330.42 61.45C333.36 61.45 334.89 59.68 334.89 56.5C334.89 53.32 333.36 51.55 330.42 51.55C327.45 51.55 325.95 53.32 325.95 56.5ZM342.467 44.83C342.467 43.48 343.307 42.7 344.867 42.7C346.427 42.7 347.267 43.48 347.267 44.83C347.267 46.18 346.427 46.96 344.867 46.96C343.307 46.96 342.467 46.18 342.467 44.83ZM340.307 49H343.067C345.977 49 347.387 50.44 347.387 53.35V60.94H351.887V64H339.407V60.94H343.937V52.6C343.937 51.76 343.847 51.55 343.037 51.7L340.307 52.15V49ZM357.027 64H353.427V49H357.027L356.727 52.3H357.327C357.927 49.87 359.517 48.55 362.457 48.55C366.387 48.55 368.067 50.59 368.067 54.64V64H364.167L364.767 55.3C364.917 52.93 363.717 51.85 361.227 51.85C358.317 51.85 357.027 53.53 357.027 56.29V64Z" fill="black"/>
<path d="M139.615 36.3268C135.068 36.5495 132.365 39.8236 131.826 41.0343V36.5199H125.216V69.2584H131.826V48.1562C131.742 44.5255 134.123 41.3515 137.429 41.2852C144.071 40.9441 143.495 48.6763 143.495 48.6763V69.2767H153.709V48.3775C153.709 48.3775 153.709 35.6376 139.614 36.3268" fill="#00E13F"/>
<path d="M80.1407 64.6947V36.5059H69.9268V69.1556H77.1912H80.1407H92.009V64.6947H80.1407Z" fill="#00E13F"/>
<path d="M179.641 67.5423L176.445 63.8904C175.777 64.2076 168.95 67.1195 165.855 62.7347C162.108 57.4761 167.669 50.3274 169.773 48.5177C171.154 47.2055 173.64 45.5762 176.369 44.7629C179.692 43.7735 182.429 44.2485 184.479 46.8517C188.029 51.8299 183.47 56.443 183.47 56.443L186.797 60.2766C191.647 54.8799 190.106 46.4613 187.746 43.9807C187.746 43.9807 182.792 39.0208 181.867 38.2738C181.867 38.2738 173.566 31.9652 163.151 40.9081C153.343 49.1449 157.988 59.1251 157.988 59.1251C158.536 60.2682 162.847 65.7227 162.847 65.7227C165.334 69.0335 172.053 71.6579 179.643 67.5409" fill="#00E13F"/>
<path d="M113.472 36.5168V52.9143C113.555 56.545 111.175 59.719 107.869 59.7853C101.227 60.1264 101.804 52.3942 101.804 52.3942V36.4971H91.5898V52.6944C91.5898 52.6944 91.5898 65.4329 105.685 64.7451C110.232 64.5238 112.935 61.2497 113.473 60.0376V62.2786C113.296 68.5746 110.924 70.8691 104.786 71.003V76.4731C120.483 77.1665 120.084 64.5534 120.084 64.5534V36.5168H113.473H113.472Z" fill="#00E13F"/>
<path d="M62.6308 44.1047L59.5982 47.8947C60.028 48.4951 64.0949 54.7066 60.3239 58.5247C55.7158 63.0237 47.7932 58.9222 45.6428 57.1689C44.1082 56.0399 42.0676 53.8792 40.7867 51.3352C39.2295 48.2386 39.214 45.4592 41.4152 42.9828C45.6893 38.6121 51.033 42.2894 51.033 42.2894L54.222 38.3387C48.0568 34.5149 40.0426 37.5114 38.0162 40.2725C38.0162 40.2725 34.0056 46.0216 33.4348 47.066C33.4348 47.066 28.6858 56.3471 39.3211 65.0279C49.1531 73.2365 58.1594 66.9053 58.1594 66.9053C59.1881 66.1653 63.799 60.9603 63.799 60.9603C66.6202 57.9285 68.021 50.8517 62.6336 44.1033" fill="#00E13F"/>
<g clip-path="url(#clip0_398_5390)">
<path d="M399.751 52.4368V81.3586L406.608 76.2811L410.869 85.1717L414.823 84.8552L416.154 83.1056V80.4076L414.511 79.0338L414.097 75.7976L412.643 73.1562L419.976 73.0005V71.352L399.989 51.6367L399.751 52.4368Z" fill="#F9E94E"/>
<path d="M399.988 51.2832H396.642V83.5346H399.988V51.2832Z" fill="black"/>
<path d="M399.988 49.5537H398.306V51.6368H399.988V49.5537Z" fill="black"/>
<path d="M401.798 51.3955H399.75V53.4786H401.798V51.3955Z" fill="black"/>
<path d="M405.931 55.0225H403.883V57.1055H405.931V55.0225Z" fill="black"/>
<path d="M407.852 56.7139H405.804V58.7969H407.852V56.7139Z" fill="black"/>
<path d="M407.632 74.4395H405.584V76.5225H407.632V74.4395Z" fill="black"/>
<path d="M415.88 83.8145H412.313V85.8975H415.88V83.8145Z" fill="black"/>
<path d="M417.179 84.0183V79.6475H415.131V84.0183H417.179Z" fill="black"/>
<path d="M415.532 80.1687V75.7979H413.082V80.1687H415.532Z" fill="black"/>
<path d="M404.084 77.9922H401.579V80.0753H404.084V77.9922Z" fill="black"/>
<path d="M401.835 79.7773H399.33V82.1022H401.835V79.7773Z" fill="black"/>
<path d="M408.82 76.2812H403.627V78.1968H408.82V76.2812Z" fill="black"/>
<path d="M420.999 70.2734H418.951V74.57H420.999V70.2734Z" fill="black"/>
<path d="M419.263 76.4484V72.4307H411.235V76.4484H419.263Z" fill="black"/>
<path d="M404.066 53.3115H401.78V55.3946H404.066V53.3115Z" fill="black"/>
<path d="M409.241 58.6309H407.193V60.7139H409.241V58.6309Z" fill="black"/>
<path d="M413.319 62.4434H411.088V64.5264H413.319V62.4434Z" fill="black"/>
<path d="M415.294 63.9492H413.246V66.0323H415.294V63.9492Z" fill="black"/>
<path d="M411.508 60.5459H409.223V62.629H411.508V60.5459Z" fill="black"/>
<path d="M415.294 64.75H413.246V66.8331H415.294V64.75Z" fill="black"/>
<path d="M419.427 68.376H417.379V70.4591H419.427V68.376Z" fill="black"/>
<path d="M417.562 66.665H415.276V68.7481H417.562V66.665Z" fill="black"/>
<path d="M408.821 77.5088H405.778V81.9915H408.821V77.5088Z" fill="black"/>
<path d="M410.87 79.8701H408.017V85.5802H410.87V79.8701Z" fill="black"/>
<path d="M413.245 83.8145H409.753V87.4971H413.245V83.8145Z" fill="black"/>
<path d="M406.264 59.8965H405.02V61.1625H406.264V59.8965Z" fill="white"/>
<path d="M407.427 60.9697H406.183V62.2358H407.427V60.9697Z" fill="white"/>
<path d="M405.13 58.8564H403.741V60.1225H405.13V58.8564Z" fill="white"/>
<path fill-rule="evenodd" clip-rule="evenodd" d="M388.128 46.6285C388.371 46.238 388.879 46.1219 389.263 46.3692L393.611 49.1699C393.995 49.4172 394.109 49.9342 393.866 50.3247C393.622 50.7152 393.114 50.8312 392.73 50.5839L388.383 47.7833C387.999 47.536 387.885 47.0189 388.128 46.6285Z" fill="#F9E94E"/>
<path fill-rule="evenodd" clip-rule="evenodd" d="M392.943 42.3087C393.331 42.0683 393.837 42.1936 394.074 42.5884L396.75 47.0592C396.986 47.454 396.863 47.9688 396.475 48.2092C396.087 48.4495 395.58 48.3243 395.344 47.9295L392.668 43.4587C392.432 43.0639 392.555 42.549 392.943 42.3087Z" fill="#F9E94E"/>
<path fill-rule="evenodd" clip-rule="evenodd" d="M400.144 40.505C400.596 40.5553 400.922 40.9686 400.873 41.428L400.313 46.6309C400.263 47.0903 399.857 47.422 399.405 47.3717C398.953 47.3214 398.627 46.9081 398.677 46.4487L399.237 41.2459C399.286 40.7864 399.693 40.4547 400.144 40.505Z" fill="#F9E94E"/>
<path fill-rule="evenodd" clip-rule="evenodd" d="M408.049 82.0195V85.413H410.05L410.008 87.5003L409.643 87.4928L409.677 85.7846H407.684V82.0195H408.049Z" fill="#66DC59"/>
</g>
<defs>
<clipPath id="clip0_398_5390">
<rect width="33" height="47" fill="white" transform="translate(388 40.5)"/>
</clipPath>
</defs>
</svg>
