<svg width="175" height="117" viewBox="0 0 175 117" fill="none" xmlns="http://www.w3.org/2000/svg">
<path d="M174.122 64.2183C177.575 50.2734 169.071 36.1687 155.132 32.7144C151.445 31.7976 147.747 31.7442 144.231 32.3839C142.813 19.2813 133.446 7.8418 119.913 4.49418C109.043 1.7969 98.0881 4.96328 90.3835 11.9784C86.3021 6.79701 80.5582 2.85236 73.6635 1.14656C57.1886 -2.93668 40.5325 7.11684 36.4511 23.5991C36.3659 23.9402 36.3232 24.2814 36.2486 24.6226C20.2533 22.6396 4.9293 32.8637 0.954436 48.9088C-3.03108 65.0072 5.81379 81.2656 20.9886 86.9267C19.7844 97.7585 26.7324 108.079 37.5914 110.765C45.264 112.663 52.9899 110.275 58.2755 105.136C62.4635 109.87 68.0795 113.441 74.6758 115.083C86.6644 118.057 98.7488 113.889 106.475 105.307C109.128 106.874 112.037 108.1 115.181 108.878C132.498 113.175 150.017 102.599 154.301 85.2742C154.461 84.6132 154.567 83.9522 154.685 83.2806C163.934 81.159 171.692 74.048 174.122 64.197V64.2183Z" fill="#E6492D"/>
<g clip-path="url(#clip0_463_9567)">
<path d="M87.8051 73.26C85.2525 77.2356 83.3949 81.6133 82.3114 86.2071C82.3114 86.2071 73.2532 82.9912 70.5273 92.1378L85.0373 90.5089C85.0373 90.5089 86.8825 80.193 91.0761 75.2647C95.2697 70.3782 87.8051 73.26 87.8051 73.26Z" fill="black"/>
<path d="M94.7647 76.2245L92.7098 81.8628C92.0389 84.0346 92.7518 87.5846 96.4002 86.1646C98.0542 85.6006 99.5592 84.6727 100.804 83.4498C100.804 83.4498 105.626 92.3458 113.804 86.624L101.265 78.7722L97.5325 81.6957C97.5325 81.6957 96.2744 82.9069 96.9035 80.5681C97.3548 78.9642 97.9009 77.3883 98.539 75.8486L94.7647 76.2245Z" fill="black"/>
<path d="M107.976 67.4963C110.534 70.5869 114.602 71.1298 118.167 69.5845C122.235 67.8722 125.338 64.2804 127.309 60.438C128.399 58.3498 125.212 56.4703 124.122 58.6003C122.486 61.7327 120.18 64.531 116.993 66.118C115.924 66.6352 114.739 66.8655 113.554 66.7863C113.04 66.7015 112.544 66.5322 112.086 66.2851C111.478 65.9548 110.959 65.4817 110.576 64.9069C109.947 64.1551 108.605 64.2386 107.976 64.9069C107.643 65.2562 107.457 65.7197 107.457 66.2016C107.457 66.6835 107.643 67.147 107.976 67.4963Z" fill="black"/>
<path d="M78.3268 47.1146L81.9334 51.6252C81.4301 52.3352 76.5655 59.7276 81.0527 64.28C86.5463 69.6259 96.0239 64.7394 98.6239 62.6511C101.045 60.7955 103.021 58.4274 104.411 55.7181C106.256 52.0428 106.298 48.7016 103.656 45.7781C98.5401 40.5575 92.1657 44.9428 92.1657 44.9428L88.3496 40.2234C95.7303 35.671 105.292 39.221 107.724 42.5204C107.724 42.5204 112.505 49.3699 113.218 50.6228C113.218 50.6228 118.879 61.6905 106.172 72.0065C94.4303 81.7795 83.6527 74.2618 83.6527 74.2618C82.4366 73.3847 76.901 67.2035 76.901 67.2035C73.588 63.57 71.9106 55.1334 78.3268 47.1146Z" fill="black"/>
<path d="M92.0837 53.0037C91.3707 53.3796 90.6998 53.7554 89.9868 54.1313C89.6514 54.3402 89.2739 54.5072 88.9384 54.716C88.7288 54.8413 88.4771 54.9249 88.3513 55.1337C87.9739 55.8437 89.3159 56.3449 89.7352 56.5119L90.6159 56.8878C90.7104 56.9133 90.8111 56.9014 90.897 56.8547C90.983 56.8081 91.0475 56.7301 91.0772 56.6372C91.0935 56.5436 91.0776 56.4472 91.0319 56.3638C90.9862 56.2804 90.9135 56.2148 90.8256 56.1778C90.6159 56.0943 90.4062 56.0108 90.2385 55.9272C90.2385 55.9272 90.1127 55.8855 90.1965 55.9272C90.1546 55.9272 90.1126 55.8855 90.0707 55.8855C89.9942 55.8391 89.9082 55.8106 89.8191 55.8019C89.6513 55.7184 89.5255 55.6349 89.3578 55.5513C89.3159 55.5096 89.232 55.4678 89.19 55.426C89.1481 55.426 89.1481 55.3843 89.1062 55.3843L89.0643 55.3425C89.0223 55.259 89.0643 55.3007 89.0643 55.3425V55.4678C89.0643 55.426 89.0223 55.5096 89.0223 55.5096C89.0223 55.4678 89.0642 55.5096 88.9804 55.5513C88.8965 55.5931 89.0223 55.5096 88.9804 55.5513C89.1388 55.4767 89.2928 55.393 89.4417 55.3007C89.7352 55.1337 90.0707 54.9666 90.3643 54.7996C91.0772 54.4237 91.7901 54.0478 92.503 53.6301C92.8804 53.4213 92.503 52.7531 92.0837 53.0037Z" fill="black"/>
<path d="M99.1693 53.5463C97.8693 53.0869 96.5692 52.6274 95.2692 52.2098C95.0595 52.1263 94.8918 52.0845 94.724 52.001C94.6606 51.9873 94.5947 51.9896 94.5324 52.0079C94.4702 52.0261 94.4135 52.0596 94.3675 52.1053C94.3216 52.1511 94.288 52.2075 94.2697 52.2696C94.2514 52.3316 94.249 52.3972 94.2627 52.4604L95.0595 56.5116L95.1853 57.0963C95.2692 57.5557 95.9821 57.3469 95.8982 56.8875C95.6466 55.551 95.395 54.1727 95.1014 52.8363L94.9757 52.2516L94.5144 52.711C95.8144 53.1704 97.1144 53.6298 98.4144 54.0474C98.5821 54.131 98.7918 54.1727 98.9596 54.2563C99.0525 54.2788 99.1505 54.2648 99.2333 54.2172C99.3161 54.1697 99.3774 54.0922 99.4043 54.0008C99.4313 53.9095 99.422 53.8113 99.3782 53.7267C99.3344 53.642 99.2596 53.5774 99.1693 53.5463Z" fill="black"/>
<path d="M92.6285 46.9481L93.4252 50.9993C93.4671 51.2081 93.5091 51.3752 93.551 51.584L94.0123 51.1246C92.7123 50.6652 91.4123 50.2057 90.1123 49.7881C89.9445 49.7046 89.7348 49.6628 89.5671 49.5793C89.1058 49.4122 88.9381 50.1222 89.3574 50.2893C90.6574 50.7487 91.9575 51.2081 93.2575 51.6258C93.4672 51.7093 93.6349 51.751 93.8026 51.8346C93.8661 51.8483 93.932 51.8459 93.9943 51.8277C94.0565 51.8094 94.1132 51.7759 94.1591 51.7302C94.205 51.6845 94.2387 51.628 94.257 51.566C94.2753 51.504 94.2777 51.4383 94.2639 51.3752C94.0123 50.0387 93.7607 48.6604 93.4672 47.324C93.4252 47.1151 93.3833 46.9481 93.3414 46.7392C93.2575 46.3216 92.5446 46.4887 92.6285 46.9481Z" fill="black"/>
<path d="M91.4526 59.6024C90.2943 59.7393 89.124 59.4737 88.1396 58.8506C87.3567 58.2534 86.8198 57.392 86.6299 56.4283C86.546 55.9689 85.8331 56.1777 85.917 56.6371C86.1484 57.7718 86.7901 58.7824 87.7202 59.4771C88.8111 60.2224 90.1422 60.5352 91.4526 60.3542C91.9139 60.3124 91.9139 59.5606 91.4526 59.6024Z" fill="black"/>
<path d="M86.0029 56.2609C85.6974 56.6607 85.4698 57.114 85.332 57.5974C85.0399 58.3697 84.9532 59.2042 85.0804 60.0197C85.4997 61.7739 87.4707 62.1498 89.0223 61.7739C90.0366 61.5293 90.9558 60.9917 91.6643 60.2286C91.9998 59.8945 91.4547 59.3515 91.1611 59.7274C90.1966 60.7715 88.561 61.4815 87.1352 61.1474C86.8456 61.0989 86.575 60.9719 86.3531 60.7804C86.1312 60.5888 85.9665 60.3401 85.8771 60.0615C85.7078 59.3966 85.7518 58.6956 86.0029 58.0568C86.0963 57.7578 86.2084 57.4648 86.3384 57.1797C86.3874 57.0785 86.4434 56.9808 86.5061 56.8874C86.5105 56.8557 86.5253 56.8264 86.5481 56.8038C86.5062 56.8456 86.5901 56.7203 86.5481 56.8038C86.6156 56.7309 86.6522 56.6348 86.6501 56.5356C86.6481 56.4364 86.6077 56.3419 86.5372 56.2717C86.4668 56.2016 86.3718 56.1613 86.2723 56.1593C86.1727 56.1572 86.0762 56.1937 86.0029 56.2609Z" fill="black"/>
<path d="M88.8121 61.3146C88.6738 61.0862 88.4914 60.8875 88.2754 60.7298C88.0595 60.5721 87.8143 60.4585 87.554 60.3958C87.0878 60.2798 86.5951 60.3393 86.1702 60.5628C85.625 60.8969 87.6799 61.4817 87.6799 61.4817L88.8121 61.3146Z" fill="black"/>
<path d="M103.069 37.8013V22.9748C103.069 22.0142 103.153 21.0118 103.069 20.0512C103.016 19.4952 102.849 18.9559 102.578 18.467C102.306 17.9781 101.937 17.55 101.493 17.2092C101.048 16.8685 100.538 16.6224 99.9942 16.4862C99.4502 16.35 98.884 16.3267 98.3306 16.4177C97.7016 16.5012 97.0725 16.6265 96.4016 16.71C93.2144 17.1695 90.0272 17.6706 86.7982 18.13C82.5207 18.7565 78.2851 19.4248 74.0076 20.0512C70.485 20.5942 66.9204 21.0954 63.3977 21.6383C62.4751 21.7636 61.5525 21.9307 60.63 22.056C59.2461 22.2648 57.988 22.8495 57.2751 24.1024C56.5202 25.3971 56.7299 27.026 56.7299 28.446V95.8546C56.7352 96.4382 56.8659 97.0139 57.1132 97.543C57.3605 98.0721 57.7186 98.5424 58.1635 98.9222C58.6085 99.302 59.1299 99.5826 59.6927 99.745C60.2556 99.9075 60.8468 99.948 61.4268 99.864C61.93 99.7805 62.3913 99.7387 62.8945 99.6552C65.9139 99.1958 68.8914 98.7781 71.9108 98.3187L84.6174 96.4393C88.3078 95.8964 91.9982 95.3534 95.7305 94.7687C96.8209 94.6016 97.8693 94.4346 98.9597 94.3093C99.8823 94.184 100.763 94.0587 101.56 93.474C102.113 93.0767 102.556 92.547 102.85 91.9338C103.143 91.3206 103.276 90.6438 103.237 89.9657C103.195 89.2557 103.153 88.5457 103.069 87.8357C103.027 87.3763 102.315 87.3763 102.315 87.8357C102.356 88.5875 102.44 89.2975 102.482 90.0493C102.514 90.8086 102.287 91.5563 101.838 92.1706C101.388 92.7849 100.744 93.2296 100.008 93.4322C99.5048 93.5575 98.9177 93.5993 98.4145 93.6828L89.8595 94.9358C85.7078 95.5622 81.598 96.147 77.4464 96.7734C73.714 97.3164 69.9398 97.9011 66.2075 98.444C64.53 98.6946 62.8945 98.987 61.2171 99.1958C60.7393 99.2547 60.2543 99.2108 59.7951 99.0669C59.3358 98.923 58.9129 98.6825 58.5551 98.3618C58.1972 98.041 57.9127 97.6474 57.7208 97.2077C57.5289 96.7679 57.4341 96.2922 57.4428 95.8128V26.6919C57.3863 26.0063 57.5015 25.3174 57.7783 24.6871C58.0278 24.2047 58.3907 23.7894 58.8361 23.4767C59.2816 23.164 59.7963 22.9631 60.3364 22.8913C60.5042 22.8495 60.7138 22.8495 60.8816 22.8077C63.3558 22.4318 65.872 22.056 68.3462 21.6801C72.414 21.0536 76.4818 20.4689 80.5497 19.8424C84.4497 19.2577 88.3917 18.673 92.2918 18.0883C94.3467 17.7959 96.3596 17.4618 98.4145 17.1695C98.891 17.0942 99.3783 17.1217 99.8432 17.25C100.308 17.3783 100.74 17.6045 101.11 17.9133C101.479 18.2221 101.778 18.6063 101.986 19.04C102.194 19.4736 102.306 19.9467 102.315 20.4271V37.7596C102.356 38.2607 103.069 38.2608 103.069 37.8013Z" fill="black"/>
<path d="M77.2363 28.571C76.146 28.6963 75.0556 28.8216 73.9234 28.9469L71.7846 29.1975C71.3526 29.1958 70.9247 29.2811 70.5265 29.4481C69.6039 29.991 69.8556 31.4528 69.8556 32.3716C69.8556 33.9169 69.8556 35.4622 69.8975 37.0075C69.8975 37.8846 69.6459 39.3464 70.5265 39.9311C70.9813 40.1597 71.5071 40.2045 71.9943 40.0564C72.6653 39.9728 73.2944 39.8893 73.9653 39.8058C75.1815 39.6387 76.3976 39.5134 77.6138 39.3046C78.9557 39.054 78.788 37.7593 78.788 36.7569L78.746 32.2463V30.4504C78.7889 30.0306 78.7011 29.6077 78.4944 29.2393C78.3647 29.0252 78.1794 28.8501 77.9579 28.7324C77.7364 28.6148 77.4871 28.559 77.2363 28.571C76.775 28.6128 76.775 29.3228 77.2363 29.3228C77.8654 29.281 77.9912 29.7822 77.9912 30.2834V31.7452C77.9912 33.1234 77.9912 34.5016 78.0331 35.9216V37.4669C78.0331 37.9681 78.0331 38.3858 77.446 38.5111C76.5234 38.7199 75.5589 38.7617 74.6363 38.887C73.5696 39.1014 72.4915 39.2548 71.4072 39.3464C70.4007 39.3881 70.6524 37.9264 70.6524 37.2999C70.6524 35.9216 70.6524 34.5434 70.6104 33.1652C70.6104 32.3299 70.5266 31.4528 70.6104 30.6175C70.6524 29.9493 71.2395 29.9493 71.7008 29.9075C72.4137 29.824 73.0847 29.7404 73.7976 29.6987L77.2363 29.3228C77.6976 29.281 77.6976 28.5292 77.2363 28.571Z" fill="black"/>
<path d="M73.7148 29.5732C73.7568 32.3714 73.7987 35.1697 73.7987 37.9679V39.1791C73.7987 39.2788 73.8385 39.3744 73.9093 39.4449C73.9801 39.5154 74.0761 39.555 74.1762 39.555C74.2763 39.555 74.3723 39.5154 74.443 39.4449C74.5138 39.3744 74.5536 39.2788 74.5536 39.1791C74.5116 36.3808 74.4697 33.5826 74.4697 30.7843V29.5732C74.4697 29.4735 74.43 29.3779 74.3592 29.3074C74.2884 29.2369 74.1924 29.1973 74.0923 29.1973C73.9922 29.1973 73.8962 29.2369 73.8254 29.3074C73.7546 29.3779 73.7148 29.4735 73.7148 29.5732Z" fill="black"/>
<path d="M74.1352 32.9143C75.3513 32.789 76.6095 32.622 77.8256 32.4967C77.9933 32.4967 78.1611 32.4549 78.3708 32.4549C78.5805 32.4131 78.7482 32.2878 78.7482 32.079C78.7416 31.9815 78.6997 31.8896 78.6303 31.8205C78.5609 31.7514 78.4687 31.7097 78.3708 31.7031C77.1546 31.8284 75.8965 31.9955 74.6804 32.1208C74.5126 32.1208 74.3449 32.1625 74.1352 32.1625C73.9255 32.2043 73.7578 32.3296 73.7578 32.5384C73.7578 32.7472 73.9255 32.9561 74.1352 32.9143Z" fill="black"/>
<path d="M74.2993 36.5481C75.4735 36.4228 76.6477 36.2557 77.822 36.1304C77.9897 36.1304 78.1574 36.0887 78.3252 36.0887C78.5349 36.0469 78.7026 35.9216 78.7026 35.7128C78.696 35.6153 78.6542 35.5234 78.5848 35.4543C78.5154 35.3852 78.4231 35.3435 78.3252 35.3369C77.151 35.4622 75.9768 35.6293 74.8026 35.7546C74.6348 35.7546 74.4671 35.7963 74.2993 35.7963C74.0896 35.8381 73.9219 35.9634 73.9219 36.1722C73.9285 36.2697 73.9704 36.3616 74.0398 36.4307C74.1092 36.4998 74.2014 36.5415 74.2993 36.5481Z" fill="black"/>
<path d="M76.0206 26.7756C75.5593 26.0656 75.098 25.3556 74.6787 24.6038C74.5948 24.5203 74.5529 24.395 74.469 24.3115C74.4387 24.2546 74.3934 24.207 74.338 24.1738C74.2826 24.1406 74.2191 24.123 74.1545 24.123C74.0898 24.123 74.0264 24.1406 73.971 24.1738C73.9155 24.207 73.8703 24.2546 73.84 24.3115C73.2948 25.1468 72.7496 25.9821 72.2044 26.8591L71.9528 27.235C71.7012 27.6527 72.3303 27.9868 72.5819 27.6109C73.127 26.7756 73.6722 25.9403 74.2174 25.0632L74.469 24.6873H73.84C74.3013 25.3974 74.7625 26.1074 75.1819 26.8591C75.2658 26.9427 75.3077 27.0679 75.3916 27.1515C75.4156 27.1941 75.448 27.2315 75.4868 27.2614C75.5256 27.2913 75.57 27.3132 75.6174 27.3257C75.6649 27.3382 75.7143 27.3412 75.7629 27.3343C75.8115 27.3275 75.8582 27.311 75.9003 27.2859C75.9424 27.2607 75.9789 27.2274 76.0079 27.1879C76.0368 27.1485 76.0575 27.1036 76.0687 27.056C76.08 27.0085 76.0815 26.9591 76.0732 26.911C76.0649 26.8628 76.0471 26.8168 76.0206 26.7756Z" fill="black"/>
<path d="M79.9225 77.5193C75.9804 61.6486 80.845 42.4785 80.845 42.4785L66.4609 45.4856L71.7449 80.1505L79.9225 77.5193Z" fill="white"/>
<path d="M80.6315 77.8124C79.1218 71.7147 78.8703 65.3665 79.2477 59.1435C79.4987 54.5544 80.0873 49.9897 81.009 45.4864C81.1767 44.6511 81.3445 43.8158 81.5542 42.9805C81.5768 42.888 81.5627 42.7903 81.515 42.7079C81.4672 42.6254 81.3894 42.5644 81.2977 42.5375C81.206 42.5106 81.1074 42.52 81.0224 42.5636C80.9374 42.6072 80.8725 42.6817 80.8412 42.7717C80.241 45.2384 79.7651 47.7335 79.4154 50.2476C78.528 55.8677 78.2049 61.562 78.4509 67.2459C78.6041 70.8752 79.0954 74.4825 79.9186 78.0212C79.9499 78.1112 80.0148 78.1857 80.0998 78.2293C80.1848 78.2729 80.2834 78.2822 80.3751 78.2554C80.4668 78.2285 80.5446 78.1675 80.5924 78.085C80.6401 78.0026 80.6541 77.9049 80.6315 77.8124Z" fill="black"/>
<path d="M114.478 82.6147C115.543 82.9651 116.447 83.685 117.024 84.6432C117.601 85.6014 117.814 86.7342 117.623 87.8353C117.539 88.2947 118.252 88.5035 118.336 88.0441C118.588 86.7062 118.334 85.3226 117.623 84.16C116.938 83.0904 115.9 82.2927 114.687 81.9047C114.593 81.877 114.491 81.8878 114.405 81.9348C114.318 81.9818 114.254 82.0611 114.226 82.1553C114.198 82.2494 114.209 82.3507 114.256 82.4369C114.303 82.523 114.383 82.587 114.478 82.6147Z" fill="black"/>
<path d="M119.34 82.2811C120.236 83.7031 120.819 85.2984 121.05 86.9615C121.282 88.6246 121.156 90.3176 120.681 91.9288C120.663 92.02 120.679 92.1151 120.727 92.195C120.775 92.2749 120.852 92.3339 120.941 92.3602C121.031 92.3865 121.128 92.3782 121.212 92.3369C121.295 92.2957 121.361 92.2245 121.394 92.1376C121.886 90.4342 122.013 88.647 121.767 86.8916C121.522 85.1362 120.909 83.4517 119.969 81.947C119.717 81.5293 119.088 81.9052 119.34 82.2811Z" fill="black"/>
<path d="M76.3981 46.5303C74.996 48.0602 73.9736 49.8961 73.4128 51.8907C72.852 53.8854 72.7685 55.9831 73.169 58.0157C73.3787 59.1433 73.9239 60.1875 74.1335 61.3151C74.2891 61.9566 74.2302 62.6311 73.9658 63.2363C73.6848 63.7887 73.3623 64.3192 73.0013 64.8234C72.0951 66.4196 71.7692 68.2781 72.0787 70.0857C72.3521 72.1783 73.4356 74.0817 75.0981 75.3899C75.4755 75.6822 75.9787 75.1811 75.6013 74.8887C72.7077 72.6334 71.7851 68.2899 73.6723 65.1157C74.2174 64.2387 74.8465 63.3616 74.9303 62.3175C75.0142 61.1898 74.511 60.1039 74.1755 59.018C73.5751 57.0692 73.4742 55.0016 73.8819 53.0039C74.3254 50.777 75.3692 48.7124 76.9014 47.0315C76.9363 46.999 76.9642 46.9599 76.9835 46.9164C77.0029 46.8729 77.0133 46.826 77.0141 46.7785C77.0149 46.7309 77.0061 46.6837 76.9882 46.6396C76.9703 46.5955 76.9436 46.5554 76.9099 46.5218C76.8761 46.4882 76.8359 46.4617 76.7916 46.4438C76.7474 46.426 76.6999 46.4172 76.6522 46.418C76.6044 46.4188 76.5574 46.4292 76.5137 46.4485C76.4701 46.4677 76.4307 46.4956 76.3981 46.5303Z" fill="black"/>
</g>
<defs>
<clipPath id="clip0_463_9567">
<rect width="70.8294" height="83.5299" fill="white" transform="translate(56.7031 16.373)"/>
</clipPath>
</defs>
</svg>
