<svg width="1535" height="609" viewBox="0 0 1535 609" fill="none" xmlns="http://www.w3.org/2000/svg">
<path d="M1044.2 218.07C999.953 220.237 973.652 252.097 968.414 263.878V219.949H904.087V538.524H968.414V333.181C967.591 297.851 990.766 266.964 1022.94 266.32C1087.56 263.001 1081.96 338.242 1081.96 338.242V538.702H1181.35V335.334C1181.35 335.334 1181.35 211.363 1044.19 218.07" fill="black"/>
<path d="M465.468 494.128V219.825H366.077V537.536H436.767H465.468H580.957V494.128H465.468Z" fill="black"/>
<path d="M1433.7 521.833L1402.6 486.297C1396.1 489.383 1329.66 517.718 1299.55 475.05C1263.09 423.879 1317.2 354.316 1337.67 336.706C1351.11 323.937 1375.3 308.082 1401.86 300.169C1434.2 290.541 1460.83 295.163 1480.78 320.494C1515.32 368.936 1470.96 413.826 1470.96 413.826L1503.34 451.131C1550.52 398.616 1535.53 316.695 1512.57 292.557C1512.57 292.557 1464.37 244.293 1455.36 237.024C1455.36 237.024 1374.59 175.635 1273.24 262.658C1177.79 342.809 1222.99 439.926 1222.99 439.926C1228.33 451.049 1270.27 504.126 1270.27 504.126C1294.48 536.343 1359.86 561.881 1433.72 521.819" fill="black"/>
<path d="M789.817 219.921V379.483C790.626 414.813 767.466 445.7 735.295 446.344C670.667 449.664 676.275 374.422 676.275 374.422V219.729H576.885V377.344C576.885 377.344 576.885 501.301 714.04 494.608C758.292 492.455 784.593 460.595 789.831 448.799V470.607C788.103 531.872 765.025 554.2 705.292 555.503V608.732C858.039 615.479 854.158 492.743 854.158 492.743V219.921H789.831H789.817Z" fill="black"/>
<path d="M295.086 293.763L265.576 330.643C269.759 336.486 309.334 396.929 272.638 434.083C227.797 477.862 150.704 437.951 129.778 420.889C114.845 409.903 94.9887 388.878 82.5238 364.122C67.3711 333.99 67.2203 306.944 88.6397 282.846C130.231 240.316 182.23 276.098 182.23 276.098L213.262 237.655C153.268 200.446 75.2834 229.604 55.5644 256.472C55.5644 256.472 16.5377 312.416 10.984 322.579C10.984 322.579 -35.2282 412.893 68.2624 497.365C163.937 577.241 251.575 515.633 251.575 515.633C261.586 508.433 306.454 457.783 306.454 457.783C333.907 428.281 347.538 359.418 295.114 293.75" fill="black"/>
<path d="M740.584 39.7951C740.147 38.2 738.853 37.3573 737.242 37.1165C735.737 36.8908 734.442 37.3723 733.719 38.7417C732.982 40.1111 732.365 41.5558 731.793 43.0155C730.995 45.0621 730.287 47.1388 729.55 49.1854C729.384 49.1403 729.219 49.0951 729.068 49.05C729.58 45.7092 730.212 42.3684 730.558 38.9976C730.829 36.3189 730.89 33.6102 730.769 30.9165C730.679 28.9602 729.083 27.5456 727.202 27.365C725.275 27.1694 724.04 28.3131 723.468 29.9383C722.821 31.8194 722.475 33.8058 722.083 35.7621C721.707 37.6281 721.451 39.5243 721.15 41.4053C720.955 41.3752 720.759 41.3451 720.563 41.315C720.413 38.7417 720.277 36.1835 720.112 33.6102C720.036 32.3611 719.976 31.0971 719.78 29.848C719.434 27.7713 717.823 26.131 716.153 26.0107C714.316 25.8752 712.72 27.034 712.088 29.2762C711.697 30.6456 711.531 32.1204 711.486 33.55C711.396 36.8155 711.471 40.0961 711.426 43.3767C711.396 45.3932 711.426 47.4247 711.17 49.4111C710.854 51.9092 710.357 52.0747 708.174 50.8558C705.435 49.3359 702.56 48.6587 699.444 49.366C697.637 49.7723 696.087 50.5398 695.726 52.6165C695.394 54.5277 696.267 56.0777 698.315 57.1912C700.859 58.5757 703.448 59.8548 705.947 61.3145C707.888 62.4432 709.635 63.933 711.622 64.9563C712.645 65.483 713.052 65.9796 712.946 67.048C712.585 70.5544 712.434 74.0908 711.832 77.5369C710.327 86.0995 707.211 94 701.461 100.666C700.648 101.6 699.775 102.472 698.691 103.631C698.616 103.405 698.525 103.195 698.45 102.969C695.861 106.535 692.248 109.334 688.169 111.125C688.937 115.369 689.193 119.567 688.982 123.706H702.876C708.671 119.838 713.609 115.038 717.748 109.425C725.967 98.3039 729.896 85.6781 730.799 71.999C730.995 68.9291 731.702 66.1903 733.313 63.3461C736.835 57.1762 739.078 50.3743 740.825 43.467C741.111 42.3233 740.9 40.9388 740.584 39.765V39.7951Z" fill="black"/>
<path d="M573.39 257.954C575.889 257.006 577.198 254.854 576.731 252.1C576.51 250.807 576.126 249.551 575.741 248.288C575.628 247.919 575.516 247.55 575.407 247.179C574.504 244.034 574.94 241.055 576.656 238.301C576.987 237.774 577.65 237.052 578.116 237.097C578.598 237.127 579.245 237.895 579.426 238.466C579.976 240.214 580.437 241.992 580.897 243.768C581.004 244.178 581.11 244.588 581.217 244.997C581.714 246.909 582.918 248.037 584.574 247.992C586.396 247.947 587.419 246.758 587.585 245.148C587.63 244.709 587.677 244.27 587.723 243.83C588.092 240.339 588.461 236.839 588.368 233.35C588.247 229.272 586.441 225.735 583.43 222.831C582.858 222.289 582.572 221.13 582.632 220.303C582.963 215.909 583.415 211.529 583.927 207.165C584.118 205.508 584.399 203.858 584.697 202.115C584.82 201.389 584.947 200.647 585.071 199.882C585.286 200.068 585.472 200.216 585.634 200.345C585.891 200.549 586.088 200.706 586.245 200.89C590.475 205.826 595.427 209.663 600.997 212.538C601.434 208.234 601.765 203.915 601.991 199.581C594.193 194.194 589.135 186.669 587.073 177.053C584.83 166.61 585.252 156.136 588.563 146.053C585.056 144.428 581.473 142.788 577.845 141.479C577.304 143.149 576.822 144.849 576.43 146.595C575.437 151.049 574.699 155.639 574.534 160.184C574.394 163.933 573.428 167.458 572.464 170.977C571.973 172.768 571.483 174.559 571.102 176.376C567.88 191.846 564.749 207.316 564.268 223.192C564.222 224.787 563.59 226.488 562.822 227.917C559.887 233.335 558.412 239.083 558.021 245.223C557.719 249.948 560.775 252.326 563.982 254.674C564.268 254.879 564.687 254.883 565.115 254.887C565.408 254.89 565.706 254.892 565.969 254.96C566.065 254.985 566.165 255.009 566.268 255.034C566.841 255.174 567.481 255.329 567.775 255.712C569.506 257.954 571.312 258.722 573.42 257.924L573.39 257.954Z" fill="black"/>
<path d="M573.39 257.954C575.889 257.006 577.198 254.854 576.731 252.1C576.51 250.807 576.126 249.551 575.741 248.288C575.628 247.919 575.516 247.55 575.407 247.179C574.504 244.034 574.94 241.055 576.656 238.301C576.987 237.774 577.65 237.052 578.116 237.097C578.598 237.127 579.245 237.895 579.426 238.466C579.976 240.214 580.437 241.992 580.897 243.768C581.004 244.178 581.11 244.588 581.217 244.997C581.714 246.909 582.918 248.037 584.574 247.992C586.396 247.947 587.419 246.758 587.585 245.148C587.63 244.709 587.677 244.27 587.723 243.83C588.092 240.339 588.461 236.839 588.368 233.35C588.247 229.272 586.441 225.735 583.43 222.831C582.858 222.289 582.572 221.13 582.632 220.303C582.963 215.909 583.415 211.529 583.927 207.165C584.118 205.508 584.399 203.858 584.697 202.115C584.82 201.389 584.947 200.647 585.071 199.882C585.286 200.068 585.472 200.216 585.634 200.345C585.891 200.549 586.088 200.706 586.245 200.89C590.475 205.826 595.427 209.663 600.997 212.538C601.434 208.234 601.765 203.915 601.991 199.581C594.193 194.194 589.135 186.669 587.073 177.053C584.83 166.61 585.252 156.136 588.563 146.053C585.056 144.428 581.473 142.788 577.845 141.479C577.304 143.149 576.822 144.849 576.43 146.595C575.437 151.049 574.699 155.639 574.534 160.184C574.394 163.933 573.428 167.458 572.464 170.977C571.973 172.768 571.483 174.559 571.102 176.376C567.88 191.846 564.749 207.316 564.268 223.192C564.222 224.787 563.59 226.488 562.822 227.917C559.887 233.335 558.412 239.083 558.021 245.223C557.719 249.948 560.775 252.326 563.982 254.674C564.268 254.879 564.687 254.883 565.115 254.887C565.408 254.89 565.706 254.892 565.969 254.96C566.065 254.985 566.165 255.009 566.268 255.034C566.841 255.174 567.481 255.329 567.775 255.712C569.506 257.954 571.312 258.722 573.42 257.924L573.39 257.954Z" stroke="white"/>
<path d="M708.671 171.5L686.288 170.928C685.279 174.179 673.793 206.443 649.242 203.238C619.858 198.843 612.829 158.303 613.265 145.511C613.13 136.723 615.373 123.209 621.153 111.411C628.183 97.0551 638.359 89.2449 653.592 90.4338C681.576 93.9551 682.961 123.842 682.961 123.842L706.368 124.549C703.222 91.2313 669.85 70.1483 654.059 70.4042C654.059 70.4042 621.755 71.6983 616.321 72.511C616.321 72.511 568.964 80.9381 566.736 144.217C563.996 203.223 612.377 218.662 612.377 218.662C617.962 220.378 649.949 222.801 649.949 222.801C668.961 224.712 698.872 210.13 708.641 171.53" fill="black"/>
<path d="M665.455 120.305C660.457 119.568 655.204 121.885 652.298 126.054C649.107 130.613 649.649 136.332 651.741 141.223C654.135 146.821 657.913 151.711 660.066 157.46C660.833 159.492 662.805 164.051 661.285 165.993C659.087 168.792 653.999 167.272 651.305 166.354C649.423 165.707 648.61 168.686 650.477 169.333C654.677 170.778 661.962 171.937 664.386 166.88C665.425 164.728 664.597 161.839 664.01 159.672C663.212 156.723 661.962 153.893 660.593 151.17C658.034 146.113 654.029 141.192 653.202 135.459C652.268 128.973 657.732 122.292 664.642 123.315C666.584 123.601 667.427 120.636 665.47 120.335" fill="black"/>
<path d="M635.092 144.834C623.502 142.547 611.986 139.823 600.591 136.663C598.679 136.136 597.851 139.116 599.763 139.642C611.158 142.787 622.659 145.511 634.264 147.814C636.206 148.19 637.034 145.225 635.092 144.834Z" fill="black"/>
<path d="M669.278 176.316C660.411 182.922 648.233 184.607 637.997 180.243C636.191 179.476 634.61 182.124 636.432 182.907C647.646 187.677 660.998 186.308 670.828 178.979C672.409 177.805 670.858 175.127 669.263 176.316" fill="black"/>
<path d="M652.087 144.955C652.042 148.311 650.085 151.546 646.849 152.735C643.703 153.894 640.165 152.84 638.073 150.222C635.92 147.513 635.694 143.6 637.425 140.636C639.066 137.837 642.363 136.181 645.599 136.829C649.468 137.596 652.027 141.117 652.072 144.955C652.102 146.941 655.188 146.941 655.158 144.955C655.098 140.26 652.328 135.986 647.902 134.285C643.597 132.63 638.569 134.12 635.724 137.701C632.774 141.418 632.337 146.715 634.761 150.839C637.139 154.872 641.821 157.009 646.412 156.061C651.605 154.992 655.083 150.116 655.158 144.955C655.188 142.968 652.102 142.968 652.072 144.955" fill="black"/>
<path d="M673.312 141.719C673.267 145.135 671.159 148.31 667.908 149.484C664.596 150.673 660.833 149.65 658.605 146.911C656.452 144.247 656.211 140.41 657.958 137.49C659.704 134.586 663.166 132.976 666.523 133.593C670.452 134.33 673.267 137.761 673.312 141.734C673.342 143.721 676.428 143.721 676.398 141.734C676.337 136.994 673.417 132.78 668.976 131.095C664.566 129.424 659.327 130.824 656.332 134.466C653.321 138.138 652.825 143.42 655.278 147.528C657.732 151.636 662.519 153.698 667.2 152.87C672.529 151.907 676.322 147.046 676.398 141.734C676.428 139.748 673.342 139.748 673.312 141.734" fill="black"/>
<path d="M667.351 141.719C667.351 144.307 668.886 146.414 670.768 146.414C672.649 146.414 674.185 144.307 674.185 141.719C674.185 139.131 672.649 137.024 670.768 137.024C668.886 137.024 667.351 139.131 667.351 141.719Z" fill="black"/>
<path d="M645.523 144.954C645.523 147.543 647.059 149.65 648.94 149.65C650.822 149.65 652.358 147.543 652.358 144.954C652.358 142.366 650.822 140.259 648.94 140.259C647.059 140.259 645.523 142.366 645.523 144.954Z" fill="black"/>
<g clip-path="url(#clip0_2_2726)">
<path d="M638.15 209.789L683.459 203.167C693.752 201.421 701.557 199.953 710.865 206.766C720.991 214.142 723.131 250.013 723.131 250.013C723.131 250.013 756.223 232.037 771.075 257.432L709.755 278.533C709.755 278.533 708.805 215.339 688.858 217.577C665.144 220.225 652.768 219.705 652.768 219.705L638.15 209.789Z" fill="black"/>
<path d="M635.605 204.359L677.718 215.872C684.537 217.824 695.152 220.905 696.813 235.302C700.846 251.179 683.044 275.596 683.044 275.596C683.044 275.596 717.904 279.542 713.204 308.992L653.574 285.214C653.574 285.214 700.971 235.944 667.435 228.063C654.278 224.974 632.38 219.74 632.38 219.74L635.605 204.359Z" fill="black"/>
</g>
<g clip-path="url(#clip1_2_2726)">
<path d="M904.763 0H783.517C766.338 0 752.28 14.0513 752.28 31.2222V42.5089C752.28 46.846 753.168 50.9548 754.792 54.7086L730 96L773.139 71.9303C776.387 73.0716 779.863 73.731 783.492 73.731H904.737C921.916 73.731 935.975 59.6798 935.975 42.5089V31.2222C935.975 14.0513 921.916 0 904.737 0L904.763 0Z" fill="black"/>
</g>
<path d="M788.114 53V21H791.989V35.25H809.051V21H812.926V53H809.051V38.6875H791.989V53H788.114ZM829.839 53.5C827.526 53.5 825.531 52.9896 823.854 51.9688C822.188 50.9375 820.901 49.5 819.995 47.6562C819.099 45.8021 818.651 43.6458 818.651 41.1875C818.651 38.7292 819.099 36.5625 819.995 34.6875C820.901 32.8021 822.161 31.3333 823.776 30.2812C825.401 29.2187 827.297 28.6875 829.464 28.6875C830.714 28.6875 831.948 28.8958 833.167 29.3125C834.385 29.7292 835.495 30.4062 836.495 31.3438C837.495 32.2708 838.292 33.5 838.885 35.0312C839.479 36.5625 839.776 38.4479 839.776 40.6875V42.25H821.276V39.0625H836.026C836.026 37.7083 835.755 36.5 835.214 35.4375C834.682 34.375 833.922 33.5365 832.932 32.9219C831.953 32.3073 830.797 32 829.464 32C827.995 32 826.724 32.3646 825.651 33.0937C824.589 33.8125 823.771 34.75 823.198 35.9062C822.625 37.0625 822.339 38.3021 822.339 39.625V41.75C822.339 43.5625 822.651 45.099 823.276 46.3594C823.911 47.6094 824.792 48.5625 825.917 49.2188C827.042 49.8646 828.349 50.1875 829.839 50.1875C830.807 50.1875 831.682 50.0521 832.464 49.7812C833.255 49.5 833.938 49.0833 834.51 48.5312C835.083 47.9687 835.526 47.2708 835.839 46.4375L839.401 47.4375C839.026 48.6458 838.396 49.7083 837.51 50.625C836.625 51.5312 835.531 52.2396 834.229 52.75C832.927 53.25 831.464 53.5 829.839 53.5ZM848.665 21V53H844.977V21H848.665ZM858.698 21V53H855.011V21H858.698ZM874.794 53.5C872.628 53.5 870.727 52.9844 869.091 51.9531C867.466 50.9219 866.195 49.4792 865.279 47.625C864.372 45.7708 863.919 43.6042 863.919 41.125C863.919 38.625 864.372 36.4427 865.279 34.5781C866.195 32.7135 867.466 31.2656 869.091 30.2344C870.727 29.2031 872.628 28.6875 874.794 28.6875C876.961 28.6875 878.857 29.2031 880.482 30.2344C882.117 31.2656 883.388 32.7135 884.294 34.5781C885.211 36.4427 885.669 38.625 885.669 41.125C885.669 43.6042 885.211 45.7708 884.294 47.625C883.388 49.4792 882.117 50.9219 880.482 51.9531C878.857 52.9844 876.961 53.5 874.794 53.5ZM874.794 50.1875C876.44 50.1875 877.794 49.7656 878.857 48.9219C879.919 48.0781 880.706 46.9687 881.216 45.5937C881.727 44.2187 881.982 42.7292 881.982 41.125C881.982 39.5208 881.727 38.026 881.216 36.6406C880.706 35.2552 879.919 34.1354 878.857 33.2812C877.794 32.4271 876.44 32 874.794 32C873.148 32 871.794 32.4271 870.732 33.2812C869.669 34.1354 868.883 35.2552 868.372 36.6406C867.862 38.026 867.607 39.5208 867.607 41.125C867.607 42.7292 867.862 44.2187 868.372 45.5937C868.883 46.9687 869.669 48.0781 870.732 48.9219C871.794 49.7656 873.148 50.1875 874.794 50.1875ZM895.765 21L895.453 44H891.828L891.515 21H895.765ZM893.64 53.25C892.869 53.25 892.208 52.974 891.656 52.4219C891.104 51.8698 890.828 51.2083 890.828 50.4375C890.828 49.6667 891.104 49.0052 891.656 48.4531C892.208 47.901 892.869 47.625 893.64 47.625C894.411 47.625 895.072 47.901 895.625 48.4531C896.177 49.0052 896.453 49.6667 896.453 50.4375C896.453 50.9479 896.322 51.4167 896.062 51.8437C895.812 52.2708 895.474 52.6146 895.046 52.875C894.63 53.125 894.161 53.25 893.64 53.25Z" fill="white"/>
<defs>
<clipPath id="clip0_2_2726">
<rect width="125.684" height="120.123" fill="white" transform="translate(629 205.981) rotate(-13.8006)"/>
</clipPath>
<clipPath id="clip1_2_2726">
<rect width="206" height="96" fill="white" transform="translate(730)"/>
</clipPath>
</defs>
</svg>
