<svg width="174" height="145" viewBox="0 0 174 145" fill="none" xmlns="http://www.w3.org/2000/svg">
<path d="M0.0625 52.9795L52.5338 18.957C52.5338 18.957 84.5992 70.4804 139.983 39.3721L173.02 91.8668C173.02 91.8668 144.838 115.196 98.2005 111.31L81.6863 144.361L71.4833 105.968C71.4833 105.968 33.5923 102.082 0.0704664 52.9875L0.0625 52.9795Z" fill="#00E13F"/>
<path d="M131.172 93.6226C128.202 93.8071 126.35 92.0262 126.184 89.3479C126.01 86.5495 127.619 84.7088 130.246 84.5456C132.718 84.392 134.324 85.8262 134.487 88.453C134.501 88.6762 134.511 89.1065 134.473 89.3329L128.103 89.7285C128.383 91.1761 129.458 92.109 131.243 91.9981C132.359 91.9287 133.123 91.4676 133.553 90.8895L134.655 91.9929C134.003 92.8607 132.751 93.5245 131.172 93.6226ZM130.326 86.109C129.021 86.1901 128.163 87.0879 128.034 88.3368L132.653 88.0499C132.439 86.8395 131.648 86.0269 130.326 86.109Z" fill="black"/>
<path d="M124.168 88.4574L124.402 92.2345L125.57 92.162L125.665 93.69L121.252 93.9641L121.158 92.4361L122.583 92.3476L122.37 88.931C122.279 87.4545 121.546 86.7589 120.155 86.8453C118.627 86.9402 117.837 87.8166 117.934 89.3789L118.136 92.6238L119.561 92.5353L119.656 94.0633L115.243 94.3374L115.149 92.8094L116.316 92.7368L115.975 87.2429L114.807 87.3154L114.712 85.7874L117.597 85.6082L117.673 86.8444C118.146 85.8499 119.142 85.2365 120.584 85.1469C122.833 85.0072 124.022 86.1053 124.168 88.4574Z" fill="black"/>
<path d="M107.371 95.1001C103.388 95.3475 100.605 92.7283 100.356 88.7109C100.107 84.7106 102.543 81.75 106.526 81.5026C110.509 81.2552 113.293 83.8916 113.541 87.8918C113.791 91.9093 111.354 94.8527 107.371 95.1001ZM107.253 93.1944C110 93.0238 111.643 90.9052 111.464 88.0209C111.286 85.1537 109.392 83.2377 106.645 83.4083C103.898 83.5789 102.255 85.7147 102.433 88.5818C102.612 91.4662 104.506 93.365 107.253 93.1944Z" fill="black"/>
<path d="M94.5702 90.2953L94.8048 94.0724L95.9722 93.9999L96.0672 95.5279L91.6548 95.802L91.5599 94.274L92.9849 94.1855L92.7727 90.7689C92.681 89.2924 91.9484 88.5968 90.5577 88.6832C89.0297 88.7781 88.2396 89.6545 88.3367 91.2168L88.5382 94.4617L89.9632 94.3732L90.0581 95.9012L85.6458 96.1752L85.5509 94.6472L86.7184 94.5747L86.3771 89.0808L85.2096 89.1533L85.1147 87.6253L87.999 87.4461L88.0758 88.6823C88.5483 87.6878 89.5443 87.0744 90.9865 86.9848C93.2356 86.8451 94.4241 87.9432 94.5702 90.2953Z" fill="black"/>
<path d="M83.6187 83.2023L83.7179 84.7989L82.2242 84.8917L82.8364 94.7465L84.33 94.6537L84.4292 96.2504L79.416 96.5618L79.3168 94.9651L80.8105 94.8723L80.1983 85.0176L78.7046 85.1104L78.6055 83.5137L83.6187 83.2023Z" fill="black"/>
<path d="M146.594 73.9211L142.439 74.1792L142.344 72.6512L143.512 72.5787L142.859 62.0715L141.657 62.1462L141.562 60.6182L144.584 60.4305L145.332 72.4657L146.499 72.3931L146.594 73.9211Z" fill="black"/>
<path d="M141.493 74.2405L137.338 74.4986L137.243 72.9706L138.41 72.898L137.758 62.3909L136.556 62.4655L136.461 60.9375L139.483 60.7498L140.23 72.785L141.398 72.7125L141.493 74.2405Z" fill="black"/>
<path d="M128.155 75.0695L123.279 75.3724L123.18 73.7757L124.382 73.701L127.98 61.9819L130.418 61.8305L135.473 73.0121L136.657 72.9385L136.757 74.5352L131.606 74.8551L131.507 73.2584L133.344 73.1443L132.241 70.6449L127.107 70.9637L126.322 73.5805L128.056 73.4728L128.155 75.0695ZM129.236 63.8859L127.548 69.4542L131.6 69.2025L129.236 63.8859Z" fill="black"/>
<path d="M122.435 71.4068L116.701 71.763L116.598 70.0977L122.332 69.7415L122.435 71.4068Z" fill="black"/>
<path d="M107.716 80.561C106.977 80.6069 106.435 80.4854 106.025 80.2524L106.501 78.7579C106.729 78.8299 107.097 78.9277 107.561 78.8989C108.608 78.8338 109.347 78.2536 109.892 77.0306L110.179 76.3751L106.572 69.3605L105.576 69.4223L105.481 67.8943L109.79 67.6267L109.885 69.1547L108.563 69.2368L111.009 74.2036L112.855 68.9702L111.516 69.0534L111.421 67.5253L115.576 67.2673L115.671 68.7953L114.675 68.8571L111.825 76.5141C110.82 79.2134 109.69 80.4384 107.716 80.561Z" fill="black"/>
<path d="M99.145 77.1458C96.6727 77.2994 94.8407 75.5518 94.6732 72.8563C94.5079 70.1952 96.1075 68.2 98.5969 68.0454C99.9876 67.959 101.088 68.4766 101.702 69.4726L101.618 68.1334L104.606 67.9479L104.701 69.4759L103.533 69.5484L103.875 75.0423L105.042 74.9698L105.137 76.4978L102.235 76.6781L102.148 75.2702C101.614 76.3892 100.57 77.0573 99.145 77.1458ZM99.4364 75.4559C101.085 75.3535 102.08 74.1714 101.97 72.4031C101.86 70.6347 100.726 69.5849 99.0781 69.6873C97.4299 69.7896 96.4348 70.9717 96.5446 72.7401C96.6545 74.5084 97.8054 75.5572 99.4364 75.4559Z" fill="black"/>
<path d="M93.9379 77.1936L89.7831 77.4517L89.6882 75.9237L90.8556 75.8512L90.203 65.344L89.0012 65.4186L88.9062 63.8906L91.9279 63.7029L92.6755 75.7381L93.843 75.6656L93.9379 77.1936Z" fill="black"/>
<path d="M77.4609 65.1182L82.9721 64.7758C86.3543 64.5657 88.0717 65.8551 88.237 68.5162C88.3991 71.1258 86.8576 72.6693 83.4754 72.8794L81.4839 73.0031L81.6918 76.351L83.5632 76.2348L83.6624 77.8314L78.2714 78.1663L78.1723 76.5696L79.6659 76.4768L79.0538 66.6221L77.5601 66.7148L77.4609 65.1182ZM81.3847 71.4064L83.1015 71.2998C85.4193 71.1558 86.2963 70.2913 86.1939 68.6431C86.0883 66.9434 85.1143 66.2456 82.7965 66.3896L81.0797 66.4962L81.3847 71.4064Z" fill="black"/>
<path d="M72.5907 23.4508C70.2792 21.2325 67.3851 19.3888 64.5854 17.6053C61.9273 15.9119 59.4162 14.313 58.0275 12.7186C55.3606 9.65707 52.6143 7.96897 51.0003 8.35166C48.5257 6.9844 45.2851 7.98134 44.3453 8.32162C42.9949 7.51204 40.8482 7.48552 38.705 8.38879C35.8064 9.61022 34.1362 12.0177 34.8087 13.9454C33.5679 14.6825 29.7331 17.0272 25.706 20.1445C19.1098 25.2503 15.1593 29.8948 13.9647 33.948C12.1538 40.094 13.5176 43.1874 14.9802 44.7005C16.4366 46.2074 18.6938 46.7669 21.0161 46.1968C23.0158 45.7054 25.0806 43.8697 27.0769 42.0932C29.6458 39.8077 32.3021 37.4444 34.4435 38.3238C37.6699 39.6486 41.9723 41.6902 42.1674 44.1313C40.8455 48.7016 39.2537 56.321 40.3297 64.0641C41.1938 70.2783 42.962 74.107 45.7349 75.7685C47.3508 76.7363 49.2953 76.9537 51.6389 76.4279C51.6692 76.4243 51.7004 76.4173 51.7307 76.4075C52.3168 76.2714 52.9279 76.0911 53.5648 75.8622C53.7741 75.7871 53.9808 75.7067 54.1847 75.6201C59.8598 73.2284 63.5227 66.674 68.9715 56.9264C71.9725 51.5572 74.2253 48.8032 76.0362 46.591C77.6227 44.651 78.77 43.2502 79.6349 41.0229C81.4646 36.3122 77.4695 28.1342 72.5907 23.4508Z" fill="#231F20" stroke="white" stroke-width="15" stroke-miterlimit="10"/>
<path d="M14.9574 34.2364C13.6524 38.6643 13.9259 42.1289 15.7261 43.992C16.942 45.2497 18.7797 45.6907 20.7679 45.2028C22.5182 44.7733 24.4851 43.0233 26.3868 41.3308C29.1937 38.8332 32.0967 36.2515 34.8385 37.3775C37.9098 38.6387 41.3669 40.3038 42.671 42.4816C43.2037 40.8332 43.6063 39.8637 43.6197 39.8301C43.7301 39.5685 44.0321 39.4456 44.2958 39.5544C44.5594 39.6639 44.6832 39.9636 44.5737 40.2252C44.5247 40.3418 39.6949 51.9985 41.3527 63.9248C42.1597 69.7315 43.8139 73.4205 46.2679 74.8921C47.6548 75.7229 49.3651 75.8961 51.4602 75.4171C57.8461 73.204 59.8762 64.3976 61.5072 57.3191C61.9847 55.2448 62.4363 53.2845 62.9547 51.6918C65.2271 44.7106 72.7808 36.491 73.2003 36.0385C74.8028 34.1569 75.2936 32.0384 74.6612 29.744C74.084 27.6502 72.5786 25.476 70.308 23.4573C68.1514 21.5403 65.4658 21.794 62.6224 22.0618C59.9875 22.3101 57.2636 22.5673 55.1248 20.8616C52.6057 18.8526 52.6503 16.6228 52.6895 14.6563C52.7189 13.1564 52.7474 11.7397 51.7613 10.3786C51.4771 9.98617 51.1467 9.6786 50.7859 9.43909C50.6639 9.41699 50.5507 9.35247 50.4715 9.25172C48.7095 8.30691 46.3962 8.77799 45.2284 9.12003C45.3424 9.27823 45.4404 9.44881 45.5188 9.63176C45.7406 10.1506 45.7833 10.7083 45.6738 11.2721C46.2243 11.5974 46.6331 12.0419 46.863 12.5775C47.6994 14.5308 46.0167 17.0461 43.0318 18.3038C40.0477 19.5615 37.0547 19.017 36.2183 17.0638C36.0054 16.5662 35.9573 16.0103 36.0686 15.4367C35.7853 15.2696 35.5377 15.0681 35.3311 14.8339C32.624 16.4469 17.4417 25.811 14.9583 34.2382L14.9574 34.2364ZM68.5612 30.5756C67.0015 31.2332 65.3455 30.8523 64.8627 29.7245C64.3799 28.5976 65.2529 27.1508 66.8126 26.4933C68.3724 25.8357 70.0283 26.2166 70.5111 27.3444C70.9939 28.4713 70.1209 29.9181 68.5612 30.5756ZM63.7181 36.088C63.2353 34.9611 64.1082 33.5143 65.668 32.8568C67.2277 32.1992 68.8837 32.5801 69.3665 33.7079C69.8493 34.8348 68.9763 36.2816 67.4166 36.9391C65.8568 37.5967 64.2009 37.2158 63.7181 36.088ZM61.0289 31.0555C59.4691 31.7131 57.8132 31.3322 57.3304 30.2044C56.8476 29.0776 57.7205 27.6307 59.2803 26.9732C60.84 26.3156 62.4959 26.6965 62.9787 27.8243C63.4615 28.9512 62.5886 30.398 61.0289 31.0555ZM55.9853 37.0602C55.5025 35.9333 56.3755 34.4865 57.9352 33.829C59.4949 33.1714 61.1509 33.5523 61.6337 34.6801C62.1165 35.807 61.2435 37.2538 59.6838 37.9113C58.1241 38.5689 56.4681 38.188 55.9853 37.0602ZM42.2969 34.156C41.7571 33.8369 41.342 33.395 41.1032 32.8373C40.2668 30.8841 41.9495 28.3687 44.9344 27.1111C47.9185 25.8534 50.9115 26.3978 51.7479 28.3511C51.9697 28.8699 52.0125 29.4275 51.9029 29.9914C52.4534 30.3167 52.8623 30.7612 53.0921 31.2968C53.9285 33.2501 52.2459 35.7654 49.2618 37.024C46.2777 38.2817 43.2847 37.7372 42.4483 35.784C42.2354 35.2864 42.1873 34.7305 42.2987 34.1569L42.2969 34.156ZM32.3042 26.7955L33.4515 25.9002C33.7731 25.6492 33.7446 25.156 33.3945 24.9439L32.9153 24.6532C32.5661 24.441 32.5367 23.9487 32.8583 23.6969L34.2951 22.5753C34.4884 22.4242 34.7556 22.4091 34.9658 22.5364L36.1889 23.2788C36.3982 23.4061 36.6663 23.3902 36.8596 23.2399L38.6919 21.809C38.8852 21.6579 39.1525 21.6429 39.3627 21.7701L40.1733 22.2624C40.5225 22.4745 40.5519 22.9668 40.2303 23.2187L39.083 24.114C38.7614 24.365 38.7899 24.8582 39.14 25.0703L39.6192 25.3611C39.9684 25.5732 39.9978 26.0655 39.6762 26.3174L38.2394 27.439C38.0461 27.5901 37.7789 27.6051 37.5687 27.4778L36.3456 26.7354C36.1363 26.6082 35.8682 26.6241 35.6749 26.7743L33.8426 28.2052C33.6493 28.3564 33.3821 28.3714 33.1718 28.2441L32.3612 27.7518C32.0121 27.5397 31.9827 27.0474 32.3042 26.7955Z" fill="#FAEA4E"/>
<path d="M65.4463 37.8206C69.9157 35.9364 72.5748 32.1575 71.3855 29.3803C70.1962 26.603 65.6089 25.879 61.1395 27.7632C56.6701 29.6474 54.011 33.4262 55.2003 36.2035C56.3896 38.9808 60.9769 39.7047 65.4463 37.8206Z" fill="#5FCDC8"/>
<path d="M44.2523 20.2187C48.4124 18.4649 50.8875 14.9476 49.7806 12.3626C48.6736 9.77764 44.4038 9.10384 40.2436 10.8576C36.0834 12.6115 33.6083 16.1287 34.7153 18.7137C35.8222 21.2987 40.0921 21.9725 44.2523 20.2187Z" fill="#5FCDC8"/>
<path d="M50.4821 21.0168C50.5775 20.9761 50.6683 20.9249 50.752 20.863C51.087 20.6146 51.2803 20.2178 51.2696 19.8033C51.2589 19.3888 51.0451 19.0026 50.6986 18.771L49.317 17.8492C48.9527 17.6061 48.4931 17.5619 48.0886 17.7325C47.9933 17.7732 47.9025 17.8244 47.8187 17.8863C47.4838 18.1346 47.2905 18.5315 47.3012 18.946C47.3119 19.3605 47.5257 19.7467 47.8722 19.9783L49.2538 20.9001C49.6181 21.1432 50.0777 21.1874 50.4821 21.0168Z" fill="#00001A"/>
<path d="M49.671 25.8317C50.9751 25.282 51.7011 24.1622 51.3243 23.2819C50.9475 22.4016 49.6309 22.1427 48.3268 22.6924C47.0227 23.2421 46.2968 24.3619 46.6736 25.2431C47.0504 26.1234 48.3669 26.3823 49.671 25.8326V25.8317Z" fill="#00001A"/>
<path d="M37.5423 28.1438C40.2187 27.0155 41.811 24.7526 41.0988 23.0895C40.3866 21.4264 37.6396 20.9928 34.9632 22.1211C32.2868 23.2494 30.6945 25.5123 31.4067 27.1754C32.1189 28.8385 34.8659 29.2721 37.5423 28.1438Z" fill="#5FCDC8"/>
<path d="M47.001 34.4065C47.001 34.4065 47.0019 34.4065 47.0028 34.4065C47.0955 34.3782 47.189 34.3491 47.2816 34.3173C47.2932 34.3137 47.3039 34.3102 47.3155 34.3058C47.3992 34.2775 47.483 34.2466 47.5667 34.2156C47.5845 34.2085 47.6023 34.2032 47.6201 34.1962C47.719 34.1582 47.8179 34.1193 47.9159 34.0777C48.0183 34.0344 48.119 33.9894 48.2178 33.9434C48.2241 33.9408 48.2303 33.9372 48.2365 33.9346C49.8016 33.2045 50.9703 32.1245 51.5511 30.9844C51.8219 31.1797 52.0196 31.4183 52.139 31.6976C52.7287 33.0737 51.2251 35.0809 48.8556 36.0796C46.4862 37.0783 43.9867 36.7584 43.3979 35.3823C43.2901 35.1313 43.2509 34.8573 43.2776 34.5647C44.3368 34.8555 45.6471 34.8157 47.0019 34.4074L47.001 34.4065Z" fill="#62D53F"/>
<path d="M55.7732 20.0612C53.6505 18.3678 53.6844 16.6567 53.7236 14.6752C53.7556 13.0737 53.7886 11.4174 52.6012 9.77882C52.5344 9.68602 52.4649 9.59852 52.3945 9.51367C53.5579 9.94763 55.2842 11.1381 57.2466 13.391C58.7324 15.0968 61.3049 16.7354 64.028 18.4694C65.3909 19.3373 66.776 20.2203 68.0988 21.15C66.3119 20.6852 64.3994 20.8646 62.5261 21.0413C59.9857 21.2808 57.5859 21.5071 55.7741 20.0629L55.7732 20.0612Z" fill="#62D53F"/>
<path d="M62.5164 57.5469C62.9894 55.4947 63.4357 53.5565 63.9398 52.0063C66.157 45.1929 73.8915 36.809 73.969 36.725L73.9833 36.7091C76.13 34.1929 76.5095 31.2153 75.2099 28.1855C78.0772 32.3961 79.8953 37.5001 78.6696 40.6554C77.8635 42.7314 76.7598 44.0802 75.233 45.9459C73.4942 48.0715 71.1123 50.9828 68.0668 56.4307C63.6815 64.2754 60.4765 70.007 56.5117 73.0606C59.8512 69.1099 61.2916 62.8587 62.5155 57.5469H62.5164Z" fill="#62D53F"/>
<path d="M44.557 11.4201C44.7316 10.9296 44.7476 10.4506 44.5686 10.0307C43.9789 8.65463 41.4794 8.33469 39.1108 9.3334C36.7414 10.3321 35.2378 12.3384 35.8275 13.7154C35.8408 13.7454 35.8551 13.7746 35.8702 13.8038C35.8934 13.8294 35.9148 13.8586 35.9326 13.8895C35.9495 13.9187 35.9638 13.9496 35.9744 13.9805C36.1873 14.2925 36.5143 14.5356 36.9213 14.7053C36.965 14.7238 37.0095 14.7415 37.0549 14.7574C37.0924 14.7707 37.1298 14.7839 37.169 14.7963C37.185 14.8016 37.2019 14.8069 37.2188 14.8122C37.9715 15.042 38.9345 15.0579 39.9455 14.8378C39.9508 14.8369 39.9562 14.8352 39.9615 14.8343C40.0292 14.8193 40.0969 14.8034 40.1646 14.7866C40.186 14.7813 40.2074 14.7751 40.2297 14.7698C40.3143 14.7477 40.3989 14.7238 40.4835 14.6991C40.5387 14.6823 40.5949 14.6655 40.6501 14.6478C40.6839 14.6372 40.7187 14.6248 40.7525 14.6133C40.814 14.5921 40.8755 14.5709 40.9369 14.5488C40.9645 14.5391 40.9921 14.5285 41.0198 14.5179C41.1088 14.4843 41.1988 14.449 41.2879 14.4109C41.3779 14.3729 41.4669 14.3332 41.5542 14.2925C41.5854 14.2784 41.6157 14.2633 41.646 14.2492C41.6985 14.2236 41.7502 14.1979 41.8019 14.1714C41.8437 14.1502 41.8847 14.129 41.9257 14.1078C41.9381 14.1016 41.9497 14.0945 41.9622 14.0875C43.2244 13.4052 44.1571 12.4418 44.5258 11.5103C44.5374 11.4793 44.5499 11.4493 44.5606 11.4183L44.557 11.4201ZM43.6493 10.4179C44.1562 11.6022 43.0222 13.2143 41.116 14.0176C39.2097 14.821 37.2527 14.5126 36.7459 13.3274C36.239 12.1431 37.373 10.531 39.2792 9.72759C41.1854 8.9242 43.1425 9.23265 43.6493 10.4179Z" fill="#5FCDC8"/>
<path d="M42.6255 17.359C40.2561 18.3577 37.7566 18.0386 37.1678 16.6617C37.06 16.4106 37.0199 16.1367 37.0475 15.8441C38.1806 16.1561 39.6022 16.0872 41.0586 15.5949C41.0667 15.5922 41.0756 15.5896 41.0836 15.5869C41.1718 15.5569 41.26 15.5251 41.3481 15.4924C41.3615 15.4871 41.3749 15.4826 41.3891 15.4773C41.488 15.4393 41.5878 15.3996 41.6866 15.358C41.79 15.3147 41.8906 15.2696 41.9904 15.2228C41.994 15.221 41.9966 15.2193 42.0002 15.2184C43.5688 14.4883 44.7402 13.4065 45.3219 12.2646C45.5927 12.46 45.7904 12.6986 45.9098 12.9779C46.4995 14.354 44.9958 16.3612 42.6264 17.3599L42.6255 17.359Z" fill="#62D53F"/>
<path d="M42.054 32.4372C42.2438 32.8808 42.633 33.2131 43.1506 33.4288C43.1933 33.4465 43.237 33.4633 43.2806 33.4801C43.318 33.4933 43.3563 33.5066 43.3955 33.5198C43.4116 33.5251 43.4276 33.5296 43.4436 33.5349C44.1972 33.7655 45.1619 33.7814 46.1747 33.5605C46.1774 33.5605 46.181 33.5596 46.1836 33.5587C46.2531 33.5437 46.3226 33.5269 46.3921 33.5092C46.409 33.5048 46.425 33.5004 46.442 33.496C46.5337 33.4721 46.6255 33.4465 46.7172 33.4191C46.7689 33.4032 46.8205 33.3881 46.8731 33.3713C46.9087 33.3599 46.9452 33.3475 46.9809 33.3351C47.0397 33.3148 47.0985 33.2945 47.1572 33.2732C47.1866 33.2626 47.2169 33.252 47.2463 33.2405C47.3354 33.207 47.4236 33.1725 47.5118 33.1354C47.6008 33.0974 47.689 33.0585 47.7754 33.0178C47.8084 33.0028 47.8414 32.9869 47.8734 32.971C47.9233 32.9471 47.9723 32.9224 48.0213 32.8976C48.0649 32.8755 48.1086 32.8534 48.1522 32.8305C48.1585 32.8269 48.1647 32.8234 48.1701 32.8207C49.4421 32.1375 50.3818 31.168 50.7506 30.2311C50.7622 30.2029 50.7729 30.1737 50.7836 30.1454C50.9591 29.654 50.976 29.1741 50.7951 28.7534C50.2055 27.3773 47.706 27.0573 45.3374 28.0561C42.968 29.0548 41.4643 31.061 42.054 32.438V32.4372ZM42.9733 32.0492C42.4665 30.8648 43.6004 29.2528 45.5067 28.4494C47.4129 27.646 49.3699 27.9544 49.8768 29.1396C50.3836 30.3239 49.2497 31.936 47.3434 32.7394C45.4372 33.5428 43.4802 33.2344 42.9733 32.0492Z" fill="#5FCDC8"/>
<path d="M67.416 36.9332C68.9759 36.2756 69.8491 34.8288 69.3664 33.7016C68.8837 32.5744 67.2279 32.1938 65.6681 32.8513C64.1082 33.5089 63.235 34.9557 63.7177 36.0829C64.2004 37.2101 65.8562 37.5908 67.416 36.9332Z" fill="#00001A"/>
<path d="M41.1023 32.8368C41.3411 33.3945 41.7562 33.8364 42.296 34.1554C42.1846 34.729 42.2327 35.285 42.4456 35.7825C43.2821 37.7358 46.275 38.2811 49.2591 37.0225C52.2432 35.7649 53.9259 33.2495 53.0894 31.2954C52.8596 30.7598 52.4516 30.3161 51.9002 29.99C52.0107 29.4261 51.9679 28.8684 51.7453 28.3496C50.9088 26.3964 47.9158 25.852 44.9318 27.1096C41.9477 28.3673 40.265 30.8827 41.1006 32.8359L41.1023 32.8368ZM43.3979 35.3822C43.2901 35.1312 43.2509 34.8572 43.2776 34.5646C44.3367 34.8554 45.647 34.8157 47.0019 34.4073C47.0019 34.4073 47.0028 34.4073 47.0037 34.4073C47.0963 34.379 47.1899 34.3499 47.2825 34.3181C47.2941 34.3145 47.3048 34.311 47.3164 34.3066C47.4001 34.2783 47.4838 34.2474 47.5675 34.2164C47.5854 34.2094 47.6032 34.204 47.621 34.197C47.7199 34.159 47.8187 34.1201 47.9167 34.0785C48.0192 34.0352 48.1198 33.9902 48.2187 33.9442C48.2249 33.9416 48.2312 33.938 48.2374 33.9354C49.8025 33.2053 50.9712 32.1253 51.552 30.9852C51.8228 31.1805 52.0205 31.4191 52.1399 31.6984C52.7296 33.0745 51.2259 35.0817 48.8565 36.0804C46.487 37.0791 43.9875 36.7592 43.3987 35.3831L43.3979 35.3822ZM42.0537 32.4364C41.464 31.0603 42.9676 29.0531 45.3371 28.0544C47.7065 27.0557 50.206 27.3748 50.7948 28.7518C50.9747 29.1725 50.9587 29.6524 50.7832 30.1438C50.7734 30.1721 50.7618 30.2012 50.7503 30.2295C50.3815 31.1655 49.4417 32.135 48.1697 32.8191C48.1635 32.8226 48.1572 32.8262 48.1519 32.8288C48.1091 32.8518 48.0646 32.8739 48.0209 32.896C47.972 32.9207 47.923 32.9455 47.8731 32.9694C47.8401 32.9853 47.8081 33.0012 47.7751 33.0162C47.6878 33.0569 47.6005 33.0966 47.5114 33.1337C47.4232 33.1709 47.3351 33.2053 47.246 33.2389C47.2166 33.2504 47.1863 33.261 47.1569 33.2716C47.0981 33.2928 47.0393 33.314 46.9805 33.3335C46.9449 33.3459 46.9084 33.3582 46.8727 33.3697C46.8211 33.3865 46.7694 33.4015 46.7169 33.4174C46.6251 33.4448 46.5334 33.4705 46.4416 33.4943C46.4247 33.4988 46.4087 33.5032 46.3917 33.5076C46.3223 33.5253 46.2519 33.5412 46.1833 33.5571C46.1806 33.5571 46.1771 33.558 46.1744 33.5589C45.1625 33.7798 44.1978 33.7639 43.4433 33.5332C43.4273 33.5279 43.4112 33.5235 43.3952 33.5182C43.356 33.5058 43.3177 33.4926 43.2803 33.4784C43.2357 33.4625 43.193 33.4448 43.1502 33.4272C42.6327 33.2115 42.2434 32.8792 42.0537 32.4355V32.4364Z" fill="#00001A"/>
<path d="M47.3433 32.7364C49.2495 31.9328 50.3836 30.321 49.8763 29.1363C49.369 27.9516 47.4124 27.6427 45.5062 28.4463C43.6 29.2499 42.4659 30.8617 42.9733 32.0464C43.4806 33.2311 45.4371 33.54 47.3433 32.7364Z" fill="#00001A"/>
<path d="M49.7335 25.5065C51.0376 24.9568 51.7636 23.837 51.3868 22.9567C51.01 22.0764 49.6934 21.8175 48.3893 22.3672C47.0852 22.9169 46.3593 24.0367 46.7361 24.9179C47.1129 25.7982 48.4294 26.0572 49.7335 25.5074V25.5065Z" fill="#00001A"/>
<path d="M49.5893 25.1692C50.6873 24.7063 51.3405 23.7779 51.0483 23.0955C50.7561 22.4131 49.6291 22.2351 48.5311 22.698C47.4331 23.1609 46.7799 24.0893 47.0721 24.7717C47.3643 25.4542 48.4913 25.6321 49.5893 25.1692Z" fill="#5FCDC8"/>
<path d="M32.3022 26.7949L33.4495 25.8996C33.7711 25.6486 33.7426 25.1554 33.3925 24.9433L32.9133 24.6525C32.5641 24.4404 32.5347 23.9481 32.8563 23.6963L34.2931 22.5747C34.4864 22.4236 34.7536 22.4085 34.9638 22.5358L36.1868 23.2782C36.3962 23.4055 36.6643 23.3896 36.8576 23.2393L38.6899 21.8084C38.8832 21.6573 39.1504 21.6423 39.3606 21.7695L40.1712 22.2618C40.5204 22.4739 40.5498 22.9662 40.2283 23.2181L39.0809 24.1134C38.7594 24.3644 38.7879 24.8576 39.138 25.0697L39.6172 25.3605C39.9664 25.5726 39.9958 26.0649 39.6742 26.3168L38.2374 27.4383C38.0441 27.5895 37.7769 27.6045 37.5666 27.4772L36.3436 26.7348C36.1343 26.6076 35.8662 26.6235 35.6729 26.7737L33.8406 28.2046C33.6473 28.3558 33.38 28.3708 33.1698 28.2435L32.3592 27.7512C32.01 27.5391 31.9806 27.0468 32.3022 26.7949Z" fill="#00001A"/>
<path d="M59.6817 37.9068C61.2415 37.2492 62.1147 35.8024 61.632 34.6752C61.1493 33.5481 59.4935 33.1674 57.9337 33.825C56.3739 34.4825 55.5007 35.9294 55.9834 37.0565C56.466 38.1837 58.1218 38.5644 59.6817 37.9068Z" fill="#00001A"/>
<path d="M41.1129 14.0167C43.0191 13.2131 44.1531 11.6012 43.6458 10.4166C43.1385 9.23189 41.1819 8.92297 39.2757 9.72658C37.3695 10.5302 36.2355 12.142 36.7428 13.3267C37.2501 14.5114 39.2066 14.8203 41.1129 14.0167Z" fill="#00001A"/>
<path d="M68.5606 30.5718C70.1204 29.9143 70.9936 28.4674 70.5109 27.3403C70.0282 26.2131 68.3725 25.8324 66.8126 26.49C65.2528 27.1476 64.3796 28.5944 64.8623 29.7216C65.3449 30.8488 67.0007 31.2294 68.5606 30.5718Z" fill="#00001A"/>
<path d="M61.0293 31.0513C62.5892 30.3938 63.4624 28.9469 62.9797 27.8198C62.497 26.6926 60.8412 26.3119 59.2814 26.9695C57.7215 27.6271 56.8483 29.0739 57.331 30.2011C57.8137 31.3282 59.4695 31.7089 61.0293 31.0513Z" fill="#00001A"/>
<path d="M13.9647 33.9489C12.1538 40.095 13.5176 43.1884 14.9802 44.7015C16.4366 46.2084 18.6938 46.7679 21.0161 46.1978C23.0158 45.7064 25.0806 43.8707 27.0769 42.0942C29.6458 39.8087 32.3021 37.4453 34.4435 38.3247C37.6699 39.6496 41.9723 41.6912 42.1674 44.1323C40.8455 48.7025 39.2537 56.3219 40.3297 64.0651C41.1938 70.2792 42.962 74.1079 45.7349 75.7695C47.3508 76.7373 49.2953 76.9547 51.6389 76.4288C51.6692 76.4253 51.7004 76.4182 51.7307 76.4085C52.3168 76.2724 52.9279 76.0921 53.5648 75.8632C53.7741 75.7881 53.9808 75.7076 54.1847 75.621C59.8598 73.2294 63.5227 66.675 68.9715 56.9274C71.9725 51.5582 74.2253 48.8042 76.0362 46.592C77.6227 44.652 78.77 43.2511 79.6349 41.0239C81.4646 36.3132 77.4695 28.1352 72.5907 23.4518C70.2792 21.2334 67.3851 19.3898 64.5854 17.6062C61.9273 15.9128 59.4162 14.314 58.0275 12.7196C55.3606 9.65804 52.6143 7.96995 51.0003 8.35264C48.5257 6.98537 45.2851 7.98232 44.3462 8.32259C42.9958 7.51301 40.849 7.4865 38.7059 8.38976C35.8073 9.6112 34.1371 12.0187 34.8096 13.9463C33.5688 14.6834 29.734 17.0282 25.7069 20.1454C19.1107 25.2513 15.1601 29.8957 13.9656 33.9489H13.9647ZM44.5671 10.031C44.7471 10.4508 44.731 10.9299 44.5555 11.4204C44.5448 11.4513 44.5324 11.4814 44.5208 11.5123C44.152 12.443 43.2194 13.4072 41.9572 14.0895C41.9447 14.0957 41.9331 14.1028 41.9206 14.1098C41.8797 14.1319 41.8378 14.1523 41.7968 14.1735C41.7452 14.2 41.6935 14.2256 41.6409 14.2513C41.6107 14.2663 41.5804 14.2804 41.5492 14.2946C41.461 14.3352 41.3728 14.375 41.2828 14.413C41.1938 14.4501 41.1047 14.4855 41.0147 14.5199C40.9871 14.5305 40.9595 14.5403 40.9319 14.5509C40.8704 14.573 40.809 14.5951 40.7475 14.6154C40.7136 14.6269 40.6789 14.6384 40.6451 14.6499C40.5898 14.6675 40.5337 14.6843 40.4785 14.7011C40.3939 14.7259 40.3092 14.7497 40.2246 14.7718C40.2032 14.7771 40.1819 14.7833 40.1596 14.7886C40.0919 14.8054 40.0242 14.8213 39.9565 14.8363C39.9511 14.8372 39.9458 14.839 39.9405 14.8399C38.9294 15.0599 37.9665 15.044 37.2138 14.8142C37.1969 14.8089 37.1809 14.8045 37.1639 14.7983C37.1256 14.786 37.0873 14.7727 37.0499 14.7594C37.0045 14.7427 36.9599 14.725 36.9163 14.7073C36.5092 14.5376 36.1823 14.2946 35.9694 13.9826C35.9587 13.9516 35.9454 13.9207 35.9275 13.8915C35.9097 13.8606 35.8883 13.8314 35.8652 13.8058C35.85 13.7766 35.8358 13.7475 35.8224 13.7174C35.2327 12.3413 36.7364 10.3342 39.1058 9.33545C41.4753 8.33673 43.9748 8.65579 44.5636 10.0328L44.5671 10.031ZM45.9104 12.9768C46.5001 14.3529 44.9965 16.36 42.627 17.3588C40.2576 18.3575 37.7581 18.0384 37.1693 16.6614C37.0615 16.4104 37.0214 16.1364 37.049 15.8439C38.1821 16.1559 39.6037 16.0869 41.0602 15.5947C41.0682 15.592 41.0771 15.5894 41.0851 15.5867C41.1733 15.5567 41.2615 15.5248 41.3497 15.4921C41.363 15.4868 41.3764 15.4824 41.3906 15.4771C41.4895 15.4391 41.5893 15.3993 41.6881 15.3578C41.7915 15.3145 41.8921 15.2694 41.9919 15.2226C41.9955 15.2208 41.9981 15.219 42.0017 15.2182C43.5703 14.4881 44.7417 13.4063 45.3234 12.2644C45.5942 12.4598 45.7919 12.6984 45.9113 12.9777L45.9104 12.9768ZM68.0977 21.1495C66.3108 20.6846 64.3983 20.864 62.525 21.0408C59.9845 21.2803 57.5848 21.5065 55.773 20.0624C53.6503 18.369 53.6841 16.6579 53.7233 14.6764C53.7554 13.0749 53.7884 11.4186 52.601 9.78001C52.5342 9.68721 52.4647 9.59971 52.3943 9.51486C53.5576 9.94882 55.284 11.1393 57.2463 13.3922C58.7321 15.098 61.3047 16.7366 64.0277 18.4706C65.3906 19.3385 66.7758 20.2215 68.0986 21.1512L68.0977 21.1495ZM56.5123 73.0597C59.8518 69.109 61.2922 62.8578 62.5161 57.546C62.9891 55.4938 63.4354 53.5556 63.9396 52.0054C66.1567 45.192 73.8912 36.8081 73.9687 36.7241L73.983 36.7082C76.1297 34.192 76.5092 31.2144 75.2096 28.1847C78.077 32.3952 79.895 37.4992 78.6693 40.6545C77.8632 42.7306 76.7595 44.0793 75.2327 45.945C73.494 48.0706 71.112 50.9819 68.0665 56.4298C63.6812 64.2746 60.4763 70.0061 56.5114 73.0597H56.5123ZM14.9571 34.2362C17.4405 25.809 32.6228 16.4458 35.3298 14.8319C35.5365 15.0661 35.7841 15.2676 36.0674 15.4347C35.956 16.0083 36.0042 16.5642 36.217 17.0618C37.0535 19.015 40.0465 19.5604 43.0305 18.3018C46.0146 17.0441 47.6973 14.5288 46.8617 12.5755C46.6319 12.0399 46.2239 11.5963 45.6726 11.2701C45.783 10.7063 45.7403 10.1486 45.5176 9.62976C45.4392 9.44681 45.3421 9.27623 45.2272 9.11803C46.3959 8.77599 48.7092 8.30492 50.4702 9.24972C50.5495 9.35047 50.6618 9.41499 50.7847 9.43709C51.1454 9.6766 51.4759 9.98417 51.7601 10.3766C52.7462 11.7386 52.7185 13.1544 52.6883 14.6543C52.6491 16.6217 52.6045 18.8506 55.1236 20.8596C57.2624 22.5653 59.9872 22.3082 62.6212 22.0598C65.4646 21.7911 68.1502 21.5383 70.3068 23.4553C72.5774 25.474 74.0828 27.6482 74.66 29.742C75.2924 32.0372 74.8007 34.1549 73.1991 36.0365C72.7804 36.489 65.2258 44.7086 62.9535 51.6898C62.4351 53.2825 61.9834 55.2419 61.506 57.3171C59.875 64.3956 57.8449 73.202 51.459 75.4151C49.3639 75.8941 47.6536 75.7209 46.2667 74.8901C43.8117 73.4194 42.1585 69.7295 41.3514 63.9228C39.6937 51.9965 44.5235 40.3398 44.5725 40.2232C44.682 39.9616 44.5582 39.6619 44.2945 39.5524C44.0309 39.4436 43.7289 39.5665 43.6184 39.8281C43.6042 39.8617 43.2016 40.8312 42.6698 42.4796C41.3648 40.3009 37.9086 38.6367 34.8372 37.3755C32.0955 36.2495 29.1924 38.832 26.3856 41.3288C24.4838 43.0213 22.517 44.7713 20.7666 45.2008C18.7776 45.6887 16.9399 45.2477 15.7249 43.99C13.9247 42.1269 13.6512 38.6623 14.9562 34.2344L14.9571 34.2362Z" fill="#00001A"/>
<path d="M66.5725 29.6618C66.5448 29.6468 66.5065 29.6211 66.4575 29.584C66.4086 29.5469 66.364 29.5071 66.3248 29.4656C66.242 29.3781 66.2001 29.2977 66.1992 29.2217C66.1983 29.1465 66.2625 29.0573 66.3916 28.9547L66.9172 28.5402C66.968 28.4174 67.0259 28.2822 67.0909 28.1346C67.155 27.987 67.2236 27.8394 67.2949 27.69C67.3661 27.5406 67.4392 27.3966 67.5149 27.2578C67.5897 27.119 67.6628 26.9971 67.7349 26.8901C67.8053 26.8778 67.8801 26.8778 67.9594 26.8901C68.0387 26.9016 68.1081 26.9396 68.1678 27.0015C68.2382 27.0757 68.2747 27.1518 68.2774 27.2313C68.2801 27.3108 68.2435 27.416 68.1696 27.5477L67.7438 28.2972L67.7599 28.314C67.8659 28.2769 67.9612 28.2424 68.0458 28.2097C68.1304 28.177 68.215 28.1443 68.2997 28.1116C68.3834 28.078 68.4716 28.0435 68.5624 28.0082C68.6533 27.9728 68.7584 27.9313 68.8769 27.8844C68.933 27.9003 68.9864 27.9233 69.039 27.9551C69.0916 27.987 69.1361 28.0214 69.1717 28.0594C69.235 28.1257 69.2644 28.2008 69.2599 28.2857C69.2563 28.3697 69.2056 28.4501 69.1103 28.5261C69.0791 28.5508 69.0372 28.5756 68.9838 28.6012C68.9303 28.6268 68.843 28.6578 68.721 28.694C68.599 28.7303 68.4306 28.7771 68.215 28.8319C67.9995 28.8876 67.7162 28.9565 67.3635 29.0396L66.5733 29.6636L66.5725 29.6618Z" fill="#5FCDC8"/>
<path d="M65.3074 35.6031C65.2771 35.5713 65.2424 35.5324 65.2032 35.4864C65.164 35.4405 65.1266 35.3919 65.0909 35.3388C65.0544 35.2867 65.0206 35.2328 64.9894 35.178C64.9582 35.1232 64.9342 35.0693 64.919 35.0145C64.8745 34.8669 64.919 34.7405 65.0544 34.6335L66.8716 33.1982C66.9259 33.1549 66.9785 33.1328 67.0292 33.131C67.08 33.1293 67.1317 33.1399 67.186 33.1638C67.2787 33.2035 67.3775 33.2663 67.4835 33.3511C67.5895 33.4369 67.6911 33.5305 67.7882 33.6322C68.0189 33.8743 68.14 34.105 68.1525 34.3242C68.165 34.5434 68.0545 34.7449 67.8211 34.9287C67.7044 35.0207 67.5806 35.0755 67.4497 35.0931C67.3187 35.1108 67.194 35.0931 67.0756 35.0401C67.129 35.1638 67.1379 35.2946 67.1023 35.4343C67.0667 35.5739 66.9758 35.7003 66.8306 35.8152C66.5741 36.0185 66.3175 36.0989 66.0619 36.0565C65.8062 36.015 65.5541 35.8629 65.3065 35.6013L65.3074 35.6031ZM66.6302 34.2358L66.827 34.4435C66.9045 34.5248 66.9811 34.5681 67.0578 34.5717C67.1344 34.5761 67.2127 34.546 67.2929 34.4824C67.3633 34.4267 67.3989 34.3613 67.3998 34.2862C67.4007 34.2111 67.3606 34.1306 67.2796 34.0449C67.2528 34.0166 67.2199 33.9848 67.1825 33.9504C67.145 33.9159 67.113 33.8894 67.088 33.8726L66.6284 34.2349L66.6302 34.2358ZM65.6806 34.9853C65.6958 35.0198 65.7207 35.0595 65.7563 35.1046C65.792 35.1497 65.8276 35.1903 65.8641 35.2284C65.9363 35.3044 66.0173 35.3503 66.1082 35.3662C66.1991 35.383 66.289 35.3547 66.3799 35.2831C66.4654 35.2151 66.5064 35.1462 66.5037 35.0763C66.5001 35.0056 66.4583 34.9279 66.3772 34.843L66.1563 34.6097L65.6815 34.9844L65.6806 34.9853Z" fill="#5FCDC8"/>
<path d="M60.2333 27.4231C60.2787 27.4036 60.3277 27.3886 60.3803 27.3771C60.4328 27.3656 60.4863 27.3603 60.5406 27.363C60.5949 27.3647 60.6475 27.3753 60.6992 27.3939C60.7508 27.4125 60.7971 27.4425 60.8363 27.4841C60.8889 27.5389 60.9156 27.6025 60.9174 27.6732C60.9192 27.7448 60.896 27.8376 60.8461 27.9534L60.5932 28.5411L61.565 28.3449C61.5899 28.352 61.6193 28.3652 61.655 28.3856C61.6897 28.4059 61.72 28.4289 61.7458 28.4554C61.8287 28.5429 61.8652 28.633 61.8545 28.7276C61.8438 28.8222 61.7975 28.9017 61.7146 28.9671C61.6416 29.0246 61.5641 29.0617 61.4813 29.0794C61.3984 29.097 61.2933 29.1138 61.1686 29.1297L60.3999 29.2243L59.9331 30.4033C59.8226 30.4643 59.7158 30.4908 59.6124 30.4855C59.5091 30.4793 59.4165 30.4334 59.3354 30.3485C59.2828 30.2937 59.257 30.231 59.257 30.162C59.257 30.0922 59.2819 30.0012 59.3336 29.888L59.6133 29.2641L58.5337 29.4903C58.5168 29.4771 58.5016 29.4647 58.4874 29.4523C58.4731 29.44 58.4598 29.4276 58.4473 29.4143C58.3449 29.3065 58.2994 29.2031 58.3101 29.105C58.3208 29.0069 58.3707 28.9229 58.4589 28.8531C58.5337 28.7939 58.6112 28.7541 58.6896 28.7338C58.768 28.7135 58.8651 28.6949 58.9818 28.679L59.7906 28.5623L60.2333 27.4222V27.4231Z" fill="#5FCDC8"/>
<path d="M59.6723 34.3437C59.7284 34.3551 59.7997 34.3843 59.8852 34.4312C59.9707 34.478 60.0446 34.5346 60.1079 34.6008C60.1978 34.6954 60.2584 34.7944 60.2905 34.8969C60.3217 34.9995 60.3074 35.0931 60.2468 35.1771C60.1444 35.3176 60.0224 35.4785 59.8816 35.6597C59.74 35.8408 59.593 36.0264 59.4407 36.2174C59.2875 36.4074 59.1369 36.5947 58.9873 36.7795C58.8376 36.9642 58.7049 37.1268 58.5891 37.2673C58.5312 37.2735 58.4698 37.262 58.4047 37.2346C58.3397 37.2063 58.2774 37.1613 58.2177 37.0985C58.1749 37.0534 58.1428 37.011 58.1241 36.9713C58.1045 36.9315 58.0956 36.8944 58.0983 36.8572C58.1001 36.821 58.1117 36.783 58.1339 36.7441C58.1562 36.7052 58.1847 36.6637 58.2194 36.6195L58.4395 36.3561L57.9513 35.8417C57.8587 35.8877 57.7643 35.9363 57.6672 35.9867C57.5701 36.0371 57.4748 36.0857 57.383 36.1316C57.3447 36.1157 57.3073 36.0963 57.2699 36.0742C57.2325 36.0521 57.1942 36.0203 57.155 35.9787C57.0632 35.8824 57.0178 35.7922 57.0196 35.71C57.0205 35.6278 57.0614 35.5545 57.1425 35.4917C57.179 35.4635 57.2191 35.4378 57.2619 35.4166C57.3055 35.3954 57.3563 35.3698 57.4142 35.3406C57.497 35.2982 57.6013 35.2487 57.7277 35.1904C57.8542 35.132 57.9914 35.0693 58.1384 35.003C58.2863 34.9358 58.4386 34.8686 58.5962 34.8006C58.7539 34.7325 58.9027 34.668 59.0425 34.607C59.1824 34.5461 59.308 34.493 59.4184 34.4471C59.5289 34.4011 59.6144 34.3666 59.6732 34.3428L59.6723 34.3437ZM59.4941 35.0808C59.3596 35.14 59.21 35.2063 59.0452 35.2787C58.8804 35.3512 58.7165 35.4281 58.5535 35.5103L58.8884 35.8629C59.0033 35.7259 59.1147 35.5907 59.2225 35.4573C59.3302 35.3247 59.4264 35.2045 59.5111 35.0976L59.495 35.0808H59.4941Z" fill="#5FCDC8"/>
<path d="M14.1758 40.0751C14.8385 41.0465 16.0589 41.9197 18.3054 41.7959C23.1432 41.529 29.4801 33.5013 34.0194 31.9104C37.1541 30.8118 40.3216 32.8835 42.2484 34.5053C42.2118 34.9552 42.2751 35.3882 42.4443 35.7842C42.822 36.6662 43.6398 37.2602 44.698 37.5315C44.8378 38.2103 44.8387 39.0596 44.6116 40.0133C44.6053 39.8188 44.4887 39.6359 44.2954 39.5554C44.0317 39.4467 43.7297 39.5696 43.6193 39.8312C43.605 39.8648 43.2024 40.8343 42.6706 42.4827C41.3656 40.304 37.9094 38.6398 34.8381 37.3786C32.0963 36.2526 29.1933 38.8351 26.3864 41.3319C24.4847 43.0244 22.5178 44.7744 20.7675 45.2039C18.7784 45.6918 16.9407 45.2508 15.7257 43.9931C14.8252 43.0616 14.3067 41.7296 14.1767 40.076L14.1758 40.0751Z" fill="#62D53F"/>
<path d="M44.5274 40.3408C44.4179 40.7244 44.2709 41.1221 44.082 41.5322C44.294 40.9347 44.4526 40.5273 44.5274 40.3408Z" fill="#62D53F"/>
<path d="M50.5446 20.6916C50.64 20.6509 50.7308 20.5997 50.8145 20.5378C51.1495 20.2895 51.3428 19.8926 51.3321 19.4781C51.3214 19.0636 51.1076 18.6774 50.7611 18.4458L49.3795 17.524C49.0152 17.2809 48.5556 17.2367 48.1511 17.4073C48.0558 17.448 47.965 17.4992 47.8812 17.5611C47.5463 17.8095 47.353 18.2063 47.3637 18.6208C47.3744 19.0353 47.5882 19.4215 47.9347 19.6531L49.3163 20.5749C49.6806 20.818 50.1402 20.8622 50.5446 20.6916Z" fill="#00001A"/>
<path d="M50.5954 20.2473C51.1067 19.8673 51.0871 19.101 50.5571 18.7475L49.1755 17.8257C48.8486 17.6074 48.4174 17.618 48.1021 17.8522C47.5908 18.2322 47.6104 18.9985 48.1404 19.352L49.522 20.2738C49.8489 20.4922 50.28 20.4815 50.5954 20.2473Z" fill="#5FCDC8"/>
<path d="M57.5242 26.0012C57.6195 25.9605 57.7104 25.9092 57.7932 25.8474C58.1282 25.5981 58.3215 25.2022 58.3117 24.7877C58.301 24.3732 58.0872 23.9869 57.7407 23.7554L56.3591 22.8335C55.9948 22.5905 55.5351 22.5463 55.1316 22.7169C55.0363 22.7575 54.9454 22.8088 54.8617 22.8707C54.5268 23.119 54.3335 23.5159 54.3442 23.9304C54.3549 24.3449 54.5678 24.7311 54.9152 24.9636L56.2967 25.8854C56.6611 26.1284 57.1207 26.1726 57.5251 26.002L57.5242 26.0012Z" fill="#00001A"/>
<path d="M57.4617 26.3264C57.557 26.2857 57.6479 26.2344 57.7307 26.1726C58.0657 25.9233 58.259 25.5274 58.2492 25.1129C58.2385 24.6984 58.0247 24.3121 57.6782 24.0806L56.2966 23.1587C55.9323 22.9157 55.4726 22.8715 55.0691 23.0421C54.9738 23.0827 54.8829 23.134 54.7992 23.1959C54.4643 23.4442 54.271 23.8411 54.2817 24.2556C54.2924 24.6701 54.5053 25.0563 54.8527 25.2887L56.2342 26.2106C56.5986 26.4536 57.0582 26.4978 57.4626 26.3272L57.4617 26.3264Z" fill="#00001A"/>
<path d="M57.5758 25.5549C58.0871 25.1749 58.0675 24.4086 57.5375 24.0551L56.156 23.1333C55.829 22.915 55.3979 22.9256 55.0826 23.1598C54.5713 23.5398 54.5909 24.3061 55.1209 24.6596L56.5025 25.5815C56.8294 25.7998 57.2605 25.7892 57.5758 25.5549Z" fill="#5FCDC8"/>
</svg>
