<svg width="121" height="114" viewBox="0 0 121 114" fill="none" xmlns="http://www.w3.org/2000/svg">
<path d="M65.2501 0.810583C77.2305 -0.0494543 90.3559 3.24617 99.5662 11.2845C100.076 11.7252 100.572 12.1802 101.054 12.6531C101.535 13.1259 102.001 13.613 102.449 14.1162C102.899 14.6194 103.331 15.1368 103.75 15.6685C104.166 16.2003 104.565 16.7445 104.948 17.303C105.636 18.32 106.197 19.4673 106.941 20.4344C107.437 21.0786 108.196 21.6192 108.791 22.1813C109.586 22.936 110.303 23.755 111.019 24.5847C116.356 30.7763 119.673 37.9813 120.266 46.2195C120.624 51.1888 119.848 55.8173 118.518 60.5832C115.742 70.5325 110.899 79.2881 104.224 87.107C92.0957 101.315 74.2327 111.72 55.5352 113.119C55.297 113.147 55.0535 113.161 54.8136 113.181C45.8697 113.852 35.8285 112.251 27.9398 107.767C25.8119 106.558 23.7704 105.016 21.9231 103.401C19.8781 101.613 17.8985 99.59 16.2276 97.4417C15.0736 95.9589 14.0573 94.3655 12.9263 92.8649C12.3088 92.0459 11.6454 91.2626 11.049 90.4276C10.5691 89.7584 10.1456 89.0287 9.62689 88.3917C8.74468 87.3086 7.75484 86.3344 6.95556 85.1817C3.16913 79.7235 1.22827 73.0858 0.757172 66.4875C-0.287362 51.8329 6.30802 37.4906 15.6188 26.6153C25.5278 15.0351 39.165 6.11534 53.9402 2.51103C55.7999 2.07387 57.6737 1.71344 59.5616 1.42974C61.4495 1.14603 63.3463 0.939054 65.2518 0.808799L65.2501 0.810583Z" fill="black"/>
<path d="M37.1602 104.299C39.2404 104.54 41.3242 104.602 43.4168 104.661C43.9743 104.715 44.5231 104.732 45.0824 104.738C43.0586 106.328 41.4742 106.153 39.0498 105.839C38.9581 105.826 38.8663 105.812 38.7746 105.798L37.1602 104.299Z" fill="#62D53F"/>
<path d="M18.3125 97.8623C18.9759 98.2459 19.5917 98.7223 20.2604 99.1095C21.1338 99.6145 22.1836 99.9892 22.967 100.623C23.7222 101.233 24.3644 102.059 25.0085 102.785C26.0336 103.945 27.0464 105.112 28.1191 106.227C26.1112 105.556 19.7064 99.6716 18.3125 97.8623Z" fill="#62D53F"/>
<path d="M25.527 102.16C25.1935 101.844 24.9147 101.501 24.6289 101.143C27.0938 102.095 29.5393 102.902 32.1224 103.459C33.3733 103.728 34.642 103.896 35.8947 104.149C36.2635 104.617 36.6957 105.029 37.1139 105.45C35.2895 105.678 28.7559 103.667 26.8415 102.939C26.3439 102.75 26.0387 102.302 25.5252 102.158L25.527 102.16Z" fill="#62D53F"/>
<path d="M43.4138 104.66C46.4345 104.64 49.5223 104.438 52.5024 103.921C53.3493 104.888 54.205 105.882 54.9514 106.931C52.7458 107.388 50.7344 107.011 48.6136 107.254L48.7318 107.268C48.6842 107.29 48.6383 107.309 48.5906 107.331C48.4054 107.416 48.476 107.374 48.333 107.488L48.5342 107.581C48.2095 108.155 47.7755 108.35 47.1579 108.523C45.427 109.01 43.4227 108.751 41.6424 108.696C41.0442 108.148 40.4743 107.57 39.8974 107.001C39.4986 106.647 39.1387 106.192 38.7734 105.8C38.8652 105.814 38.9569 105.828 39.0487 105.841C41.4712 106.155 43.0574 106.328 45.0812 104.74C44.5219 104.735 43.9732 104.717 43.4156 104.663L43.4138 104.66Z" fill="#62D53F"/>
<path d="M39.8984 106.998C41.8975 106.898 44.3465 107.305 46.4021 107.428C47.0302 107.466 47.7095 107.548 48.3359 107.485L48.537 107.578C48.2124 108.153 47.7783 108.347 47.1608 108.52C45.4299 109.007 43.4255 108.748 41.6452 108.693C41.0471 108.145 40.4772 107.567 39.9002 106.998H39.8984Z" fill="#62D53F"/>
<path d="M25.5273 102.159C26.0408 102.302 26.346 102.752 26.8436 102.941C28.7562 103.667 35.2916 105.678 37.116 105.451C37.9135 106.076 41.9576 110.301 42.6298 111.175C39.0339 110.515 35.5951 109.61 32.2215 108.167C31.5916 107.898 30.8841 107.664 30.3177 107.275C29.4144 106.657 26.2349 103.151 25.5291 102.159H25.5273Z" fill="#62D53F"/>
<path d="M54.9518 106.931L58.3341 111.37C55.9786 111.805 46.0026 112.401 44.1923 111.176C43.2572 110.542 42.3997 109.539 41.6445 108.695C43.4266 108.751 45.431 109.009 47.1601 108.522C47.7776 108.349 48.2117 108.155 48.5363 107.58L48.3352 107.487C48.4763 107.373 48.4075 107.416 48.5928 107.33C48.6387 107.309 48.6863 107.289 48.734 107.268L48.6157 107.254C50.7366 107.013 52.748 107.389 54.9535 106.931H54.9518Z" fill="#62D53F"/>
<path d="M96.575 86.5791C97.6089 87.6657 98.6234 88.772 99.6662 89.8497C97.6848 91.9124 95.5957 93.8573 93.4008 95.6844C92.1569 96.7176 90.853 97.6739 89.5896 98.6821C88.5045 97.6186 87.5059 96.4713 86.4102 95.4221C90.0043 92.7831 93.6425 89.98 96.575 86.5791Z" fill="#62D53F"/>
<path d="M106.265 74.4707C107.251 75.6162 108.225 76.776 109.25 77.8859C106.496 82.0754 103.682 85.6601 100.22 89.2698C99.2458 88.2295 98.2913 87.1661 97.2891 86.1544C98.0707 85.4032 98.7747 84.5289 99.4928 83.7134C102.007 80.8567 104.446 77.8395 106.265 74.4725V74.4707Z" fill="#62D53F"/>
<path d="M109.285 58.042C110.552 59.3142 111.78 60.6721 112.929 62.0531C112.16 63.5377 111.521 65.1096 110.827 66.6334C109.684 69.144 108.396 71.6616 106.815 73.9224C105.686 72.7679 104.493 71.6741 103.352 70.5322C105.928 66.8297 107.943 62.3547 109.284 58.042H109.285Z" fill="#62D53F"/>
<path d="M93.4221 83.2012C94.4878 84.311 95.5112 85.4637 96.5734 86.5789C93.6409 89.9798 90.0027 92.7829 86.4086 95.4219C85.2599 94.2425 84.1907 92.9506 83.125 91.6927C84.8418 90.4348 86.585 89.1947 88.2277 87.8404C90.0133 86.3665 91.7089 84.7624 93.4221 83.203V83.2012Z" fill="#62D53F"/>
<path d="M85.7355 95.8916C86.7535 96.9907 87.7751 98.0845 88.862 99.1159C84.6398 101.964 80.2552 104.711 75.5583 106.696C74.5826 105.504 73.6598 104.296 72.7617 103.043C73.3528 102.908 73.9968 102.529 74.5526 102.278C77.6933 100.861 80.6539 99.3282 83.5635 97.4761C84.2833 97.0175 85.1797 96.5482 85.7372 95.8916H85.7355Z" fill="#62D53F"/>
<path d="M68.8887 99.4111C69.9386 100.628 70.8825 101.968 71.8565 103.247C69.7074 104.643 58.9516 106.816 56.042 106.994C55.1193 105.951 54.2547 104.839 53.3672 103.763C54.4876 103.654 55.6133 103.388 56.7143 103.158C60.9083 102.277 64.88 100.912 68.8887 99.4111Z" fill="#62D53F"/>
<path d="M102.958 71.1406C104.075 72.2041 105.296 73.2622 106.263 74.4701C104.445 77.8389 102.005 80.8544 99.4909 83.7111C98.7727 84.5265 98.0687 85.4008 97.2871 86.152C96.1279 85.0493 95.0516 83.877 94 82.6708C97.4882 79.1486 100.384 75.3766 102.958 71.1406Z" fill="#62D53F"/>
<path d="M71.8613 103.248C72.8282 104.447 73.7422 105.708 74.642 106.961C70.6245 108.49 66.7039 109.839 62.4764 110.663C61.4636 110.862 60.412 111.095 59.3816 111.174C58.1801 109.855 57.1196 108.421 56.0469 106.993C58.9564 106.816 69.714 104.643 71.8613 103.246V103.248Z" fill="#62D53F"/>
<path d="M82.4125 92.1426C83.5417 93.3702 84.625 94.646 85.7331 95.8932C85.1755 96.5498 84.2792 97.0191 83.5593 97.4777C80.6498 99.3316 77.6891 100.863 74.5485 102.279C73.9927 102.529 73.3469 102.909 72.7576 103.045C71.7254 101.735 70.6491 100.461 69.6328 99.1389C74.065 97.0227 78.2608 94.7887 82.4107 92.1426H82.4125Z" fill="#62D53F"/>
<path d="M108.778 26.0947C109.2 26.7496 109.421 27.7024 109.631 28.4518C110.493 31.5333 110.989 34.5559 111.208 37.7498C111.395 40.4763 111.171 43.2259 110.825 45.9309C110.774 46.302 110.719 46.6732 110.663 47.0443C110.605 47.4154 110.545 47.7848 110.479 48.1542C110.416 48.5235 110.347 48.8929 110.276 49.2604C110.206 49.628 110.132 49.9956 110.054 50.3631C109.976 50.7307 109.895 51.0965 109.811 51.4605C109.726 51.8263 109.639 52.1903 109.548 52.5543C109.458 52.9183 109.362 53.2805 109.265 53.6427C109.168 54.0049 109.068 54.3653 108.964 54.7258C108.86 55.0862 108.752 55.4448 108.643 55.8035C108.531 56.1621 108.418 56.519 108.302 56.8741C108.186 57.2309 108.066 57.5842 107.942 57.9393C107.819 58.2926 107.691 58.6459 107.563 58.9974C107.434 59.3489 107.3 59.6986 107.164 60.0484C107.028 60.3981 106.889 60.7442 106.746 61.0922C106.603 61.4383 106.458 61.7845 106.31 62.1271C106.162 62.4715 106.01 62.8123 105.855 63.1549C105.699 63.4957 105.542 63.8347 105.382 64.1737C105.221 64.5109 105.057 64.8482 104.89 65.1836C104.722 65.5191 104.553 65.8527 104.38 66.1846C104.207 66.5165 104.03 66.8466 103.852 67.1749C103.674 67.5032 103.492 67.8297 103.307 68.1563C103.122 68.481 102.935 68.8058 102.744 69.1269C102.553 69.4481 102.359 69.7693 102.164 70.0869C101.968 70.4045 101.768 70.7221 101.565 71.0361C101.363 71.3502 101.158 71.6624 100.951 71.9747C100.743 72.2852 100.533 72.5939 100.32 72.9008C100.106 73.2077 99.891 73.5128 99.6722 73.8161C99.4534 74.1194 99.2311 74.4192 99.007 74.719C98.7829 75.0169 98.5553 75.3149 98.326 75.6093C98.0966 75.9037 97.8637 76.1964 97.629 76.4872C97.3943 76.7781 97.1562 77.0653 96.9162 77.3508C96.6762 77.6363 96.4327 77.92 96.1875 78.2019C93.5303 81.2799 90.6772 83.9135 87.5542 86.4865C85.9592 87.8015 84.3606 89.1076 82.6721 90.2996C82.3492 90.5297 82.0245 90.7563 81.6981 90.9812C81.3717 91.206 81.0435 91.4272 80.7136 91.6449C80.3836 91.8644 80.0519 92.0803 79.7184 92.2926C79.385 92.505 79.0497 92.7155 78.7127 92.9225C78.3757 93.1295 78.037 93.3347 77.6964 93.5363C77.3559 93.7379 77.0136 93.936 76.6695 94.1323C76.3255 94.3285 75.9796 94.5212 75.6338 94.7104C75.2862 94.8995 74.9386 95.0869 74.5875 95.2706C74.2382 95.4544 73.8853 95.6364 73.5324 95.8131C73.1795 95.9915 72.8249 96.1664 72.4685 96.3377C72.112 96.509 71.7556 96.6785 71.3957 96.8444C71.0375 97.0104 70.6758 97.1727 70.3141 97.3333C69.9524 97.4939 69.5889 97.6491 69.2255 97.8044C68.862 97.9578 68.495 98.1095 68.1298 98.2558C67.7628 98.4039 67.3958 98.5484 67.0252 98.6894C66.6565 98.8303 66.2859 98.9677 65.9137 99.1033C65.5431 99.239 65.1691 99.371 64.7968 99.4995C64.4227 99.6279 64.0487 99.7528 63.6728 99.876C63.297 99.9991 62.9212 100.117 62.5436 100.233C62.166 100.349 61.7867 100.461 61.4073 100.57C61.028 100.679 60.6469 100.786 60.2658 100.889C59.8846 100.993 59.5018 101.093 59.1189 101.189C58.736 101.286 58.3531 101.378 57.9685 101.469C57.5839 101.559 57.1992 101.646 56.8128 101.73C56.4264 101.814 56.04 101.894 55.6536 101.971C55.2672 102.047 54.879 102.121 54.4908 102.192C54.1027 102.262 53.7127 102.329 53.3246 102.394C52.9346 102.458 52.5447 102.519 52.1547 102.576C51.7648 102.633 51.3731 102.686 50.9814 102.736C50.5897 102.786 50.198 102.834 49.8063 102.877C49.4146 102.922 49.0211 102.961 48.6294 102.998C48.236 103.036 47.8425 103.07 47.449 103.1C39.3733 103.655 32.4021 102.808 24.8434 99.8099C21.7945 98.6002 19.0525 97.2655 16.5665 95.0726C15.8766 94.4231 15.2202 93.7736 14.6133 93.0438C15.222 93.5113 15.8431 93.961 16.4765 94.3928C26.6784 101.355 40.3843 102.519 52.213 100.188C52.6452 100.103 53.0758 100.015 53.5063 99.9223C53.9368 99.8296 54.3656 99.7332 54.7943 99.6333C55.2231 99.5334 55.6501 99.4299 56.077 99.3228C56.504 99.2158 56.9293 99.1051 57.3545 98.9891C57.7797 98.8749 58.2032 98.7554 58.6266 98.6341C59.0501 98.5127 59.4718 98.386 59.8935 98.2558C60.3152 98.1255 60.7333 97.9935 61.1533 97.8561C61.5714 97.7187 61.9896 97.5795 62.406 97.435C62.8224 97.2905 63.237 97.1424 63.6517 96.9925C64.0663 96.8408 64.4774 96.6856 64.8885 96.5268C65.2996 96.368 65.709 96.2056 66.1183 96.0397C66.5259 95.8737 66.9335 95.7042 67.3393 95.5312C67.7451 95.3581 68.1492 95.1814 68.5515 95.0012C68.9537 94.821 69.3543 94.6372 69.7548 94.4516C70.1535 94.2643 70.5523 94.0752 70.9475 93.8807C71.3428 93.6862 71.738 93.4899 72.1297 93.2883C72.5231 93.0884 72.9131 92.8832 73.303 92.6763C73.693 92.4693 74.0794 92.2569 74.4658 92.0428C74.8522 91.8287 75.2351 91.611 75.6179 91.3898C75.9991 91.1685 76.3802 90.9437 76.7578 90.7171C77.1353 90.4887 77.5112 90.2585 77.8852 90.0248C78.2593 89.791 78.6316 89.5537 79.0021 89.3128C79.3726 89.072 79.7396 88.8275 80.1066 88.5813C80.4718 88.335 80.8371 88.0834 81.1988 87.8301C81.5605 87.5767 81.9204 87.3198 82.2768 87.061C82.635 86.8005 82.9897 86.5382 83.3426 86.2724C83.6954 86.0065 84.0465 85.7371 84.3941 85.4659C84.7417 85.1946 85.0876 84.9181 85.4316 84.6415C85.7757 84.3632 86.1162 84.083 86.455 83.7993C86.7937 83.5156 87.1307 83.2283 87.4642 82.9393C87.7977 82.6502 88.1294 82.3558 88.4576 82.0614C88.7858 81.7652 89.1122 81.4672 89.4368 81.1657C90.8325 79.8738 92.2458 78.5981 93.5285 77.1902C95.974 74.5031 98.146 71.5215 100.15 68.4917C106.594 58.753 110.439 46.9426 109.969 35.1644C109.849 32.1346 109.364 29.0692 108.784 26.1001L108.778 26.0947Z" fill="#62D53F"/>
<path d="M14.1292 90.8878C12.9224 90.092 10.8439 87.9633 9.90521 86.8267C3.62742 79.2309 1.38661 69.2852 2.25294 59.5714C3.668 43.6803 13.037 29.0633 24.9645 19.0247C38.337 7.76575 56.1999 0.739131 73.74 2.36999C82.2656 3.16222 90.8654 6.01534 97.5825 11.4985C98.8776 12.5548 100.127 13.6468 101.196 14.944C107.116 21.3533 108.861 30.0982 108.58 38.629C108.051 54.6842 100.153 69.3923 88.674 80.2034C75.7479 92.3777 57.3556 100.536 39.5227 99.8932C31.6622 99.6095 23.68 97.6985 17.0917 93.1967C16.3559 92.6936 14.6779 91.5784 14.161 90.9449C14.1469 90.9271 14.138 90.9057 14.1257 90.886L14.1292 90.8878Z" fill="#FAEA4E"/>
<path d="M42.5147 90.9668C40.6445 90.6385 38.7759 90.3262 36.9498 89.7909C36.7151 89.7213 36.4822 89.6499 36.2493 89.5768C36.0164 89.5036 35.7835 89.4269 35.5524 89.3484C35.3212 89.2699 35.0901 89.1878 34.8607 89.1039C34.6313 89.0201 34.402 88.9344 34.1743 88.8452C33.9467 88.756 33.7191 88.665 33.4933 88.5722C33.2674 88.4794 33.0416 88.3831 32.8193 88.2849C32.5952 88.1868 32.3729 88.0851 32.1506 87.9834C31.9282 87.8799 31.7077 87.7746 31.4889 87.6676C31.2684 87.5605 31.0513 87.4499 30.8343 87.3375C30.6173 87.2251 30.4003 87.1109 30.1868 86.9931C29.9715 86.8753 29.758 86.7558 29.5463 86.6345C29.3346 86.5131 29.1228 86.3882 28.9129 86.2633C28.7029 86.1366 28.4947 86.0082 28.2883 85.8779C28.0818 85.7477 27.8754 85.6138 27.6707 85.48C27.466 85.3444 27.2631 85.207 27.062 85.0678C26.8608 84.9287 26.6597 84.7877 26.4621 84.6432C26.2627 84.4986 26.0669 84.3541 25.871 84.206C25.6752 84.0579 25.4811 83.908 25.2887 83.7564C25.0964 83.6047 24.9059 83.4495 24.7171 83.2942C24.5283 83.1372 24.3413 82.9802 24.1542 82.8196C23.969 82.659 23.7837 82.4966 23.602 82.3325C23.4202 82.1683 23.2385 82.0024 23.0603 81.8347C22.8821 81.6669 22.7039 81.4974 22.5292 81.3244C22.3545 81.1531 22.1799 80.9782 22.0087 80.8033C21.8376 80.6285 21.6682 80.45 21.4988 80.2716C21.3312 80.0932 21.1653 79.9112 21.0012 79.7292C20.8371 79.5472 20.6748 79.3616 20.5142 79.176C20.3537 78.9905 20.1949 78.8013 20.0396 78.6122C19.8826 78.4231 19.7291 78.2321 19.5773 78.0377C19.4256 77.8449 19.2739 77.6505 19.1256 77.4542C18.9774 77.2579 18.831 77.0599 18.6863 76.8618C18.5416 76.6619 18.4005 76.4621 18.2611 76.2587C13.2078 69.0001 11.6992 59.7342 13.2131 51.0928C15.0269 40.742 20.5813 31.7544 28.2424 24.776C29.7615 23.3932 31.3089 22.0335 32.9851 20.8487C43.891 13.1334 57.2211 8.86708 70.5266 11.2848C79.3434 12.8871 87.4579 17.6298 92.6083 25.1382C97.651 32.4931 99.4877 42.3265 97.898 51.0946C95.5601 63.988 87.862 74.6136 77.2825 81.9846C70.142 86.9592 61.7804 90.4547 53.0906 91.1862C49.9676 91.4503 46.8481 91.345 43.7234 91.1648C43.3158 91.1166 42.917 91.0506 42.5147 90.9703V90.9668Z" fill="black"/>
<path d="M22.9203 80.7674C20.4431 78.6565 18.0682 75.1093 16.669 72.2027C12.5332 63.6041 12.4079 54.0027 15.4957 45.0419C19.8626 32.3644 29.5986 22.3491 41.459 16.575C52.3243 11.2846 64.8217 9.5413 76.3609 13.6309C76.2745 13.6666 76.1951 13.7291 76.1033 13.738C75.5881 13.7862 73.0421 12.9922 72.3222 12.8209C69.9085 12.2445 67.3571 11.9573 64.8834 11.8787C48.9102 11.372 32.6687 19.6673 22.9203 32.3341C20.8013 35.0873 18.8692 38.0581 17.5318 41.2895C16.2932 44.2818 15.1481 47.2741 14.4829 50.4573C13.1861 56.6649 13.8724 64.4517 16.2597 70.3434C17.4471 73.2733 19.1904 76.0836 21.2141 78.4942C21.6076 78.9634 22.9486 80.1821 22.9203 80.7692V80.7674Z" fill="#62D53F"/>
<path d="M22.9208 80.7677C22.9473 80.1807 21.6081 78.962 21.2146 78.4927C19.1908 76.0821 17.4476 73.2719 16.2601 70.342C13.8711 64.4502 13.1848 56.6635 14.4834 50.4559C15.1485 47.2709 16.2937 44.2786 17.5323 41.2881C18.8715 38.0567 20.8017 35.0876 22.9208 32.3326C32.671 19.6658 48.9106 11.3724 64.8839 11.8773C67.3594 11.9558 69.9107 12.2431 72.3227 12.8194C73.0425 12.9907 75.5886 13.7847 76.1038 13.7366C76.1956 13.7276 76.275 13.6652 76.3614 13.6295C83.9466 16.1472 90.5861 21.9944 94.1838 29.1655C98.5595 37.8872 98.6354 47.9543 95.6659 57.1167C92.2429 67.6745 84.6983 76.323 75.5762 82.3094C73.99 83.3514 72.4038 84.356 70.7135 85.2196C60.0212 90.6867 47.4197 92.6084 35.8822 88.7579C31.8029 87.3965 28.2123 85.2267 24.8511 82.5449C24.2423 82.0596 23.3196 81.4297 22.919 80.7642L22.9208 80.7677Z" fill="#62D53F"/>
<path d="M60.8673 13.7151C70.2928 13.3511 79.2578 16.1275 86.266 22.6652C91.9757 27.9914 94.8799 35.4034 95.1816 43.1652C95.4622 50.3863 93.4895 57.9535 89.8901 64.1861C88.0851 67.3122 85.772 70.2599 83.3406 72.9114C75.0514 81.9507 62.4852 87.9567 50.2931 88.4295C43.7824 88.8488 37.2453 87.2073 31.5197 84.1329C29.6477 83.1283 27.9062 82.0435 26.3077 80.6214C20.1957 75.1757 16.3828 67.7583 15.8694 59.513C15.2218 49.139 19.49 38.6009 26.2265 30.8837C26.5 30.5715 26.7752 30.261 27.0558 29.9559C27.3363 29.6508 27.6204 29.3475 27.908 29.0495C28.1956 28.7515 28.4867 28.4553 28.7814 28.1645C29.076 27.8736 29.3742 27.5846 29.6759 27.3009C29.9776 27.0171 30.2829 26.737 30.5917 26.4587C30.9004 26.1821 31.2127 25.9091 31.5268 25.6397C31.8426 25.3702 32.1602 25.1062 32.4813 24.8456C32.8025 24.5851 33.1271 24.3282 33.4553 24.0748C33.7835 23.8215 34.1134 23.5734 34.4487 23.329C34.7821 23.0845 35.1192 22.8436 35.4597 22.6081C35.7985 22.3708 36.1425 22.1388 36.4866 21.9122C36.8324 21.6838 37.18 21.4608 37.5311 21.2413C37.8822 21.0219 38.2351 20.8078 38.5915 20.5972C38.9479 20.3867 39.3061 20.1815 39.6678 19.9798C40.0295 19.7782 40.3912 19.5801 40.7582 19.3892C41.1235 19.1965 41.4922 19.0092 41.8627 18.8254C42.2333 18.6416 42.6056 18.4632 42.9796 18.2883C43.3537 18.1134 43.7313 17.9439 44.1106 17.7798C44.49 17.6156 44.8693 17.455 45.2522 17.2998C45.6351 17.1446 46.0197 16.9929 46.4061 16.8484C46.7925 16.7021 47.1807 16.5611 47.5706 16.4255C47.9606 16.2899 48.3523 16.1578 48.744 16.0312C49.1374 15.9045 49.5309 15.7831 49.9261 15.6654C50.3214 15.5494 50.7183 15.437 51.1171 15.3299C51.5159 15.2229 51.9146 15.1212 52.3169 15.023C52.7174 14.9267 53.1197 14.8339 53.5238 14.7464C53.9278 14.659 54.3319 14.5769 54.7359 14.5002C55.1417 14.4235 55.5476 14.3503 55.9551 14.2843C56.3627 14.2165 56.7703 14.1558 57.1779 14.0987C57.5872 14.0416 57.9948 13.9899 58.4059 13.9435C58.8152 13.8971 59.2264 13.8543 59.6375 13.8186C60.0486 13.7811 60.4597 13.7508 60.8708 13.724L60.8673 13.7151Z" fill="black"/>
<path d="M82.4739 20.8182C85.7557 23.004 88.4588 26.2407 90.5866 29.5595C90.2708 30.052 89.955 30.6854 89.5721 31.1172C89.5333 30.9638 89.4892 30.8121 89.4539 30.6587C89.3992 30.4231 89.348 30.2126 89.2528 29.9878C88.1818 27.4879 83.8413 22.863 81.2617 21.846C81.6517 21.4802 82.0292 21.1162 82.4756 20.8164L82.4739 20.8182Z" fill="white"/>
<path d="M18.5752 61.7734C19.3233 69.7761 22.2999 74.5009 27.5243 80.1893L27.3285 80.3838L27.1221 80.3802C26.1022 79.6005 25.1512 78.4657 24.2902 77.5021C20.3661 73.1074 18.3159 69.0962 17.1055 63.2705L18.5752 61.7734Z" fill="white"/>
<path d="M81.2568 21.8477C83.8364 22.8629 88.1769 27.4896 89.2479 29.9895C89.3449 30.2143 89.3943 30.4231 89.449 30.6604C89.4843 30.8138 89.5284 30.9655 89.5672 31.1189C88.4662 33.3261 86.6365 35.5565 84.9533 37.348C82.896 33.1013 80.5917 29.4649 76.6094 26.7973C77.7809 24.9845 79.7236 23.3697 81.2533 21.8494L81.2568 21.8477Z" fill="white"/>
<path d="M18.5742 61.7731C20.4269 59.9085 22.3342 58.0493 24.3827 56.4023C24.4374 58.0564 24.5326 59.6873 24.8361 61.3199C25.6548 65.7164 27.9115 70.1754 31.1492 73.2498C31.4933 73.5781 31.8444 73.8975 32.2008 74.2098C30.7575 76.0922 28.7955 78.2798 27.5233 80.1872C22.3007 74.4988 19.3241 69.774 18.5742 61.7713V61.7731Z" fill="white"/>
<path d="M16.8375 62.1567C15.9747 52.2288 17.8414 44.1423 23.4364 35.8221C27.6092 29.6144 33.2748 24.5113 39.7378 20.8446C44.4665 18.1609 49.6221 16.2464 54.9347 15.2329C64.0973 13.4825 73.8457 14.6494 81.6762 20.0487C81.1963 20.4806 80.757 20.9659 80.3123 21.4334C79.0543 20.5555 77.761 19.7276 76.3636 19.0924C70.3328 16.3534 63.1993 16.4427 56.8191 17.6167C44.9799 19.7936 32.4755 27.5518 25.6366 37.5921C21.8202 43.1966 19.32 50.0305 18.7466 56.8127C18.6513 57.9368 18.4872 59.2661 18.6637 60.3759C18.6689 60.4063 18.676 60.4348 18.6813 60.4634C18.1114 61.0718 17.4639 61.6089 16.8375 62.1585V62.1567Z" fill="#62D53F"/>
<path d="M18.6779 60.4634C18.6726 60.4348 18.6637 60.4045 18.6602 60.376C18.4838 59.2661 18.6479 57.9386 18.7431 56.8127C19.3183 50.0305 21.8168 43.1966 25.6332 37.5921C32.4721 27.55 44.9765 19.7936 56.8157 17.6167C63.1958 16.4427 70.3294 16.3535 76.3601 19.0924C77.7575 19.7276 79.0526 20.5555 80.3089 21.4334C78.8056 22.9768 77.2406 24.4917 75.8061 26.0994C69.7736 22.0329 61.4261 21.5369 54.4743 22.934C44.68 24.9039 35.3304 31.1722 29.8007 39.5852C26.5824 44.4831 24.8921 49.4756 24.4352 55.3299C22.3761 56.8484 20.5093 58.6809 18.6761 60.4652L18.6779 60.4634Z" fill="#62D53F"/>
<path d="M90.9652 30.1592C90.9934 30.1752 91.0252 30.1859 91.0499 30.2074C91.8597 30.8979 93.2148 35.3854 93.5324 36.6898C95.3039 43.9573 94.3899 51.4067 91.7874 58.3317C91.0305 60.3461 90.1782 62.3481 89.0719 64.1949C82.5507 75.081 71.1896 83.4226 58.9816 86.4399C51.474 88.2956 42.8849 88.226 35.6402 85.3033C33.3905 84.3951 31.3421 83.1585 29.2777 81.8917C28.8313 81.6008 28.4096 81.285 27.9844 80.9621C28.6743 79.945 29.493 78.9975 30.2516 78.0304C31.1162 76.9295 31.9437 75.7983 32.8418 74.7277C34.2692 75.9428 35.7337 76.8992 37.4099 77.7271C45.9991 81.9648 54.3059 81.8828 63.2568 78.7602C71.7383 75.8018 79.7964 68.4755 83.7046 60.3176C87.1452 53.1357 87.7204 45.3954 85.1426 37.8246C87.4293 35.4354 89.2255 32.9713 90.9634 30.1592H90.9652Z" fill="#FAEA4E"/>
<path d="M57.5653 53.903C57.5141 53.6496 57.3871 53.3695 57.507 53.1375C58.8886 52.7967 60.7571 52.9484 61.9939 53.6996C62.8162 54.1974 63.4125 54.9754 63.6102 55.93C63.8466 57.0666 63.5519 58.2603 62.9009 59.206C62.3133 60.0624 61.1135 61.1009 60.076 61.2651C59.8519 61.3007 59.7002 61.3007 59.492 61.1937C59.3791 61.0081 59.3156 60.8529 59.2591 60.6423C58.6098 58.4173 58.1987 56.1298 57.5635 53.903H57.5653Z" fill="#49262E"/>
<path d="M70.427 72.1264C84.6898 61.8153 89.5765 44.0131 81.3417 32.3641C73.107 20.7151 54.8691 19.6304 40.6063 29.9415C26.3435 40.2526 21.4568 58.0547 29.6916 69.7038C37.9263 81.3528 56.1642 82.4375 70.427 72.1264Z" fill="#FAEA4E"/>
<path d="M51.2547 42.0259L50.4395 44.788C50.8065 45.0235 54.3918 47.534 53.1814 50.4782C51.6658 53.9843 46.4467 53.4936 44.8887 53.0083C43.8036 52.73 42.2156 51.9966 40.9576 50.8814C39.4261 49.5236 38.805 47.998 39.4561 46.1423C40.8182 42.7824 44.5393 43.6139 44.5393 43.6139L45.4039 40.7269C41.2028 39.9971 37.5011 43.4373 37.007 45.4089C37.007 45.4089 36.0931 49.4682 36.0119 50.1713C36.0119 50.1713 35.4755 56.3414 43.1807 58.7467C50.346 61.0698 53.8519 55.5759 53.8519 55.5759C54.2489 54.9389 55.6093 51.0456 55.6093 51.0456C56.4756 48.7474 55.6781 44.5382 51.2547 42.0259Z" fill="black"/>
<path d="M74.2477 58.5401L71.6152 57.3107C71.3276 57.6497 68.3087 60.9364 65.5527 59.277C62.2832 57.225 63.5272 51.9827 64.2347 50.4661C64.6705 49.4026 65.6303 47.8913 66.9236 46.7726C68.4975 45.4093 70.1067 44.999 71.8587 45.9321C75.0064 47.8075 73.639 51.4742 73.639 51.4742L76.388 52.7732C77.7236 48.6033 74.8353 44.3352 72.9438 43.5447C72.9438 43.5447 69.0339 42.0245 68.3475 41.8407C68.3475 41.8407 62.2832 40.399 58.772 47.8967C55.4197 54.8555 60.383 59.2217 60.383 59.2217C60.9599 59.7177 64.6387 61.668 64.6387 61.668C66.8019 62.8831 71.1071 62.6815 74.2495 58.5419L74.2477 58.5401Z" fill="black"/>
</svg>
