<svg width="108" height="110" viewBox="0 0 108 110" fill="none" xmlns="http://www.w3.org/2000/svg">
<path d="M44.3523 101.344C43.3232 98.7835 37.2812 83.783 35.1193 78.7759C33.7689 75.6458 33.8846 72.978 34.2766 71.1826C30.5761 72.0134 25.8499 73.2891 21.293 75.14L34.6962 106.844L44.3523 101.345V101.344Z" fill="#5FCDC8"/>
<path d="M48.6093 102.179L45.047 102.024L35.4375 107.497C36.4079 107.941 38.2349 108.512 40.0463 107.664C43.0733 106.246 46.8359 103.519 48.6093 102.179Z" fill="#47707C"/>
<path d="M35.3038 70.9565C34.8773 72.5902 34.6165 75.2563 35.9755 78.4021C38.1685 83.4822 44.3452 98.8251 45.2587 101.095L49.213 101.267L41.774 82.8895C41.6583 82.966 41.5375 83.0338 41.4045 83.0825C41.2025 83.1572 40.9918 83.192 40.7794 83.192C39.4481 83.192 37.9786 81.8033 37.2205 79.709C36.3399 77.2793 36.7992 74.9556 38.267 74.4169C38.4742 74.3404 38.6883 74.3091 38.9059 74.3109C38.7815 73.0647 38.8212 71.6152 39.265 70.1953C38.26 70.3656 36.9028 70.6159 35.3073 70.9565H35.3038Z" fill="#66DD59"/>
<path d="M5.85778 70.2197L6.59857 69.9503C5.98729 68.9388 5.37083 67.7275 4.78718 66.2728C3.56981 63.2383 3.13639 60.447 3.0725 58.1338L2.20738 58.4327C1.97945 59.2357 1.29564 62.2824 2.7565 65.9234C3.95833 68.9162 5.40537 69.9556 5.85951 70.2197H5.85778Z" fill="#49A29A"/>
<path d="M11.4556 73.7984L13.7073 72.9815C11.7439 71.2209 9.64417 68.4767 8.17123 64.2169C6.47209 59.3036 6.76218 54.7066 7.51333 51.2637L4.72114 52.2248C4.37405 53.3649 2.89939 59.062 5.65187 65.9236C7.95711 71.6659 10.7838 73.4456 11.4556 73.8001V73.7984Z" fill="white"/>
<path d="M73.7756 1.87305C72.5081 1.87305 71.2579 2.04858 70.0371 2.41008C68.5693 2.84632 67.1983 3.53804 65.936 4.46264C65.9325 4.46438 65.9308 4.46786 65.9274 4.47133C64.8153 5.28992 63.8034 6.28579 62.8865 7.43286C62.8606 7.46588 62.833 7.49716 62.8071 7.53018C62.605 7.78741 62.4082 8.05332 62.2148 8.32618C62.1785 8.37658 62.1423 8.42698 62.1077 8.47738C61.9212 8.74503 61.7399 9.02137 61.5638 9.30293C61.5258 9.36202 61.4895 9.42285 61.4533 9.48194C61.2789 9.76523 61.1097 10.0555 60.9456 10.3509C60.9128 10.41 60.8817 10.4709 60.8489 10.5299C60.6814 10.8376 60.5174 11.1487 60.3602 11.4702C60.3464 11.498 60.3343 11.5275 60.3205 11.5554C59.8059 12.6155 59.3466 13.747 58.9443 14.9392C58.9339 14.9705 58.9218 15 58.9115 15.0296C58.801 15.3581 58.6991 15.6935 58.5972 16.0307C58.5609 16.1488 58.5247 16.267 58.4901 16.3869C58.3934 16.7224 58.3019 17.0648 58.2138 17.4089C58.1845 17.5219 58.1551 17.6348 58.1275 17.7495C58.0343 18.1301 57.9427 18.5142 57.8599 18.9053C57.8512 18.947 57.8426 18.9904 57.8322 19.0339C56.4767 25.4297 56.4767 33.0785 57.9686 41.042C57.9704 41.0542 57.9738 41.0646 57.9756 41.0767C58.074 41.5999 58.181 42.1265 58.2916 42.6531C58.3226 42.7974 58.3537 42.9416 58.3865 43.0841C58.4798 43.5082 58.5747 43.934 58.6749 44.3581C58.744 44.6466 58.8182 44.9368 58.8907 45.2271C58.9667 45.5295 59.0392 45.8319 59.1204 46.1343C59.2827 46.7443 59.4502 47.3561 59.6298 47.9679C59.8042 48.5605 59.9872 49.1479 60.1737 49.7302C60.248 49.9613 60.324 50.1907 60.4017 50.4219C60.5087 50.7452 60.6192 51.0667 60.7298 51.3882C60.8385 51.701 60.9473 52.0139 61.0596 52.3232C61.1097 52.4605 61.1615 52.5944 61.2115 52.7317C66.378 66.6512 75.3935 77.4719 84.5351 80.3448C84.5524 80.35 84.5662 80.3604 84.5834 80.3673C87.4223 81.2485 90.2438 81.358 92.922 80.5637C98.7102 78.8466 102.989 73.1964 104.975 64.6542C106.981 56.0182 106.396 45.4895 103.328 35.0077C97.6569 15.6448 85.0203 1.87478 73.7756 1.87826V1.87305ZM103.338 61.7727C101.737 69.5032 98.054 74.592 92.9669 76.1006C92.6509 76.1945 92.3297 76.2692 92.0068 76.3335C91.9464 76.3456 91.886 76.3561 91.8238 76.3665C91.5233 76.4221 91.2194 76.4638 90.9155 76.4951C90.8983 76.4951 90.8827 76.5003 90.8654 76.5021C90.8568 76.5021 90.8482 76.5021 90.8378 76.5021C90.4942 76.5334 90.1488 76.5559 89.8 76.5559C85.5349 76.5559 80.9296 74.2097 76.5315 69.7239C72.9881 66.1089 69.8489 61.3747 67.3364 55.9435C67.307 55.8792 67.276 55.8131 67.2466 55.7488C67.0325 55.2813 66.8236 54.8103 66.6181 54.3341C66.5576 54.1933 66.4972 54.0525 66.4368 53.9118C66.2658 53.5051 66.0983 53.0949 65.9343 52.6813C65.8583 52.4918 65.7823 52.3024 65.7081 52.1112C65.5613 51.7323 65.4197 51.3482 65.2798 50.9641C65.2021 50.7504 65.1209 50.5366 65.045 50.3211C64.9051 49.9248 64.7704 49.5251 64.6375 49.1236C64.5701 48.9237 64.501 48.7256 64.4371 48.5257C64.2437 47.9244 64.0555 47.3196 63.8759 46.7078C63.6946 46.0908 63.5254 45.4756 63.3631 44.8586C63.3631 44.8517 63.3596 44.8464 63.3579 44.8395C63.332 44.7439 63.3096 44.65 63.2871 44.5545L63.2629 44.4537C63.1369 43.9635 63.0143 43.4734 62.9003 42.9833C62.9003 42.9764 62.8969 42.9711 62.8951 42.9642L62.8554 42.7835C61.025 34.8183 60.7453 27.013 62.1043 20.459C63.5392 13.5314 66.6491 8.73461 70.9402 6.7255C71.0662 6.66641 71.1923 6.60905 71.3201 6.55517C71.4375 6.50477 71.5549 6.45611 71.6741 6.40918C71.9383 6.30664 72.2025 6.21279 72.4701 6.13284C72.4718 6.13284 72.4736 6.13285 72.477 6.13111C72.8016 6.03552 73.1297 5.95383 73.4595 5.88953C74.1192 5.75918 74.7874 5.69314 75.4626 5.68445C84.9133 5.58017 95.678 17.1969 101.017 33.7338C101.207 34.3247 101.392 34.9208 101.568 35.5239C104.291 44.8204 104.92 54.1429 103.34 61.7692L103.338 61.7727Z" fill="#5FCDC8"/>
<path d="M56.8767 27.0498L61.4889 24.5315C61.6305 23.1306 61.8326 21.7698 62.1037 20.4611C62.1917 20.0353 62.2867 19.6164 62.3869 19.208C60.7084 20.0857 58.9437 21.0103 57.3378 21.8515C57.0978 23.5217 56.9441 25.2579 56.875 27.0515L56.8767 27.0498Z" fill="white"/>
<path d="M62.0234 38.5256C61.5123 35.3573 61.255 32.248 61.2567 29.2656C59.8201 29.9921 58.3471 30.7394 56.8828 31.4833C56.9968 34.4396 57.3318 37.5002 57.8947 40.6147L62.0234 38.5256Z" fill="white"/>
<path d="M90.6667 75.5727C98.691 70.5221 101.039 54.1155 96.1198 37.3179C91.0086 19.8633 79.8743 7.36723 70.1992 8.18756C66.7647 10.3531 64.2574 14.665 63.0176 20.6506C62.3407 23.9215 62.0782 27.5122 62.2215 31.2836L81.5113 28.8418C83.1673 28.376 85.0357 29.0955 86.7814 30.8769C87.5153 31.626 88.1888 32.5332 88.7897 33.55C89.6254 34.744 90.342 36.2299 90.8394 37.9262C91.2883 39.4591 91.4973 40.9503 91.4904 42.3007C91.7787 46.5466 90.4698 49.9322 87.9436 50.7351C87.2425 51.1627 77.8471 56.8893 70.9469 60.812C72.8222 63.956 74.9237 66.7472 77.1944 69.0639C81.7168 73.6748 86.4223 75.9255 90.665 75.5727H90.6667Z" fill="#66DD59" stroke="black" stroke-miterlimit="10"/>
<path d="M72.7391 7.03315C72.5215 7.09746 72.3057 7.17045 72.0898 7.2504C81.6942 8.0603 92.1187 20.3287 97.0158 37.0516C101.718 53.1106 99.827 68.888 92.7352 75.1882C97.4596 73.7683 100.898 68.9367 102.422 61.5798C103.971 54.1012 103.348 44.9421 100.668 35.7916C95.1647 16.9988 82.6353 4.09943 72.7391 7.03315Z" fill="#49A29A"/>
<path d="M58.7376 48.2327C53.8854 31.6611 55.4412 15.2128 62.2326 6.7627C59.0484 9.46005 55.9903 13.6608 52.8044 18.0387C48.4322 24.0452 43.4764 30.8529 37.1736 35.2309C34.3383 37.2 31.3492 38.9484 28.4517 40.4692C27.552 46.2393 27.1721 58.6519 38.1199 66.9143C40.2749 66.6137 42.4023 66.459 44.5003 66.459C52.4193 66.4572 59.9135 68.5915 66.9277 72.86L67.3715 73.1293C71.678 75.705 75.7291 77.4761 78.8114 78.6301C70.3847 73.2093 62.7126 61.8099 58.7376 48.2345V48.2327Z" fill="white"/>
<path d="M19.1121 75.0462C27.2262 71.4243 36.3937 69.7054 39.7367 69.1631C24.099 59.3974 26.9828 42.2348 27.9791 37.9941L10.385 45.8238C9.8048 46.9291 5.92646 54.87 9.05192 63.9075C12.129 72.8077 18.1296 74.7803 19.1104 75.0462H19.1121Z" fill="#5FCDC8"/>
<path d="M70.4792 59.9987C75.9393 56.8964 82.9707 52.6574 86.0012 50.8204C84.8616 50.5875 83.6822 49.8888 82.5546 48.7383C80.8641 47.0142 79.4688 44.4802 78.6262 41.6004C77.1981 36.7218 77.6902 32.1892 79.6519 30.0254L62.2771 32.2257C62.303 32.6654 62.3306 33.0895 62.3634 33.5153L61.9023 33.6039L62.3686 33.5674C62.4117 34.1236 62.4653 34.6832 62.5257 35.248L62.5309 35.295L62.5395 35.3749C62.5982 35.9085 62.6656 36.4472 62.7398 36.9878L62.7692 37.205C62.84 37.7125 62.9211 38.2217 63.0058 38.7327L63.0576 39.0507C63.1404 39.5287 63.2302 40.0084 63.3235 40.4898L63.4029 40.9C63.4944 41.3553 63.5963 41.8141 63.6982 42.273L63.8035 42.7492C63.9089 43.2063 64.0245 43.6651 64.142 44.1239L64.2594 44.5966C64.42 45.2084 64.5892 45.8237 64.7705 46.4389C66.2003 51.3244 68.1205 55.8831 70.4792 59.9969V59.9987Z" fill="white"/>
<path d="M81.7278 29.7573C78.9373 30.5846 77.9289 35.8872 79.5244 41.3357C80.3239 44.0678 81.638 46.4628 83.2214 48.0774C84.7323 49.619 86.2916 50.2499 87.6126 49.8588C88.678 49.5425 89.481 48.571 89.9817 47.191C89.5742 47.6359 89.0907 47.9609 88.533 48.126C88.2498 48.2095 87.9597 48.2512 87.6679 48.2512C85.1433 48.2512 82.3857 45.2167 81.0975 40.8161C80.4275 38.5254 80.2721 36.2226 80.6641 34.3317C81.0768 32.3382 82.0507 31.0191 83.4045 30.6159C83.9208 30.4629 84.4578 30.4542 84.9965 30.5724C84.1452 29.9641 83.3026 29.6426 82.5169 29.6426C82.2458 29.6426 81.9816 29.6791 81.726 29.7555L81.7278 29.7573Z" fill="#55AAAE"/>
<path d="M84.262 31.4336C84.06 31.4336 83.8631 31.4614 83.6714 31.5188C82.663 31.8177 81.9205 32.8848 81.5803 34.5237C81.2194 36.2652 81.3662 38.4064 81.9947 40.5511C83.2415 44.8074 86.1131 47.8628 88.2698 47.2249C90.4249 46.5853 91.1915 42.4489 89.9465 38.1926C88.8103 34.3152 86.3255 31.4336 84.262 31.4336Z" fill="#66DD59"/>
<path d="M38.8788 75.2508C38.7752 75.2508 38.675 75.2664 38.5852 75.3012C37.7633 75.6036 37.3609 77.3555 38.0965 79.3872C38.8322 81.4206 40.2619 82.4999 41.0839 82.1992C41.2876 82.1245 41.4655 81.9611 41.6071 81.7248C40.6953 81.3737 39.8043 80.357 39.2984 78.9614C38.7907 77.5588 38.8252 76.1962 39.3053 75.3377C39.1568 75.2855 39.0135 75.249 38.8805 75.249L38.8788 75.2508Z" fill="#66DD59"/>
<path d="M40.1727 78.6401C40.7563 80.2495 41.8667 81.1115 42.5004 80.8821C43.1324 80.6492 43.4311 79.2693 42.8475 77.6582C42.326 76.2209 41.3849 75.3779 40.7391 75.3779C40.6614 75.3779 40.5871 75.3901 40.5198 75.4144C39.8878 75.6473 39.589 77.0273 40.1727 78.6384V78.6401Z" fill="#66DD59"/>
<path d="M11.0866 70.0131C10.7706 69.5647 10.4598 69.0884 10.1576 68.5723C9.27521 68.9286 8.39455 69.2831 7.51562 69.6446C7.86789 70.2112 8.21497 70.703 8.55169 71.1341C9.38054 70.7256 10.2301 70.3607 11.0883 70.0131H11.0866Z" fill="#F8DDDC"/>
<path d="M10.4744 73.1327C10.9268 73.4959 11.2722 73.701 11.4552 73.7983L13.7069 72.9815C13.4151 72.7208 13.1215 72.4375 12.8263 72.1299C12.0337 72.4479 11.2463 72.7747 10.4727 73.131L10.4744 73.1327Z" fill="#F8DDDC"/>
<path d="M6.26908 67.3242C7.167 66.9558 8.06665 66.5943 8.9663 66.231C8.68829 65.5984 8.42064 64.931 8.17371 64.215C7.95959 63.5963 7.77828 62.9845 7.6246 62.3779C6.51083 62.7811 5.36597 63.2069 4.82031 63.4433C5.04134 64.2463 5.3159 65.0753 5.65435 65.9199C5.85465 66.4205 6.06186 66.881 6.26908 67.3242Z" fill="#F8DDDC"/>
<path d="M85.4544 15.192L88.6765 13.6139C87.6266 12.5033 86.5526 11.5022 85.463 10.6367C84.3406 11.1268 83.2441 11.603 82.2305 12.041C83.327 12.9743 84.4062 14.0258 85.4544 15.192Z" fill="white"/>
<path d="M102.424 61.5801C102.702 60.2349 102.907 58.8359 103.047 57.3916C101.79 57.9026 100.545 58.4101 99.3899 58.8811C99.2034 60.871 98.8944 62.7655 98.4609 64.5295L102.047 63.1808C102.182 62.6594 102.31 62.1293 102.424 61.5784V61.5801Z" fill="white"/>
<path d="M88.2087 18.6102C88.9668 19.653 89.7024 20.7532 90.4087 21.9089L93.7413 20.1953C93.0299 19.0725 92.2908 18.0124 91.5328 17.0078L88.207 18.6102H88.2087Z" fill="white"/>
<path d="M27.9794 37.9941L10.3852 45.8238C10.2281 46.1244 9.8275 46.9309 9.39062 48.1214C11.3989 47.3271 21.9011 42.7649 27.5321 40.3126C27.6824 39.3446 27.8481 38.5555 27.9794 37.9941Z" fill="white"/>
<path d="M69.7726 1.50835C68.2685 1.95501 66.8647 2.64846 65.5679 3.57133C65.5299 3.57655 65.4902 3.57655 65.4539 3.59219C60.6828 5.61868 56.4885 11.3818 52.0489 17.4822C47.7199 23.4295 42.8141 30.1694 36.6426 34.4553C35.1645 35.4807 33.645 36.447 32.1168 37.3508C31.7196 36.9858 31.2862 36.7234 30.8148 36.5739C29.6302 36.2002 28.6494 36.6573 28.4871 36.739L9.86208 45.0275C9.77056 45.0674 9.69631 45.137 9.64623 45.2239C9.62378 45.2638 8.56354 47.16 7.77095 50.1788L4.19653 51.4093C4.06356 51.4545 3.95823 51.5588 3.90988 51.6926C3.85462 51.8421 3.11902 53.9225 3.06549 57.143L1.67889 57.6209C1.54593 57.6661 1.44059 57.7704 1.39224 57.9025C1.33699 58.0554 0.0488112 61.6913 1.88783 66.2743C3.49373 70.2769 5.56586 71.132 5.65392 71.1667C5.70918 71.1876 5.76617 71.1998 5.82488 71.1998C5.87841 71.1998 5.93194 71.1911 5.98374 71.172L7.11478 70.7618C9.23008 73.9041 11.1503 74.7018 11.259 74.7435C11.3143 74.7644 11.3713 74.7765 11.43 74.7765C11.4835 74.7765 11.537 74.7678 11.5889 74.7487L14.5399 73.6781C16.9125 75.5273 18.9069 75.9688 19.0641 76.0018C19.0951 76.0088 19.1262 76.0122 19.1573 76.0122C19.2229 76.0122 19.2868 75.9983 19.3473 75.9705C19.7047 75.8089 20.0656 75.6525 20.4282 75.4995L34.0404 107.696C34.0456 107.706 34.0525 107.715 34.0577 107.724C34.0611 107.73 34.0611 107.736 34.0646 107.743C34.0715 107.757 34.0836 107.765 34.0922 107.779C34.1043 107.795 34.1146 107.81 34.1267 107.826C34.144 107.845 34.163 107.861 34.182 107.876C34.1923 107.885 34.1993 107.896 34.2096 107.903C34.3029 107.965 35.9398 109.051 38.0344 109.051C38.7942 109.051 39.6161 108.907 40.4433 108.52C44.6324 106.556 49.9837 102.318 50.2082 102.139C50.2099 102.139 50.2116 102.134 50.2134 102.132C50.2462 102.106 50.2755 102.075 50.2997 102.04C50.3049 102.032 50.3083 102.023 50.3135 102.016C50.3204 102.006 50.3256 101.993 50.3325 101.981C50.3532 101.941 50.3671 101.9 50.3757 101.856C50.3757 101.847 50.3809 101.84 50.3809 101.833C50.3878 101.783 50.3843 101.733 50.3757 101.682C50.374 101.67 50.3688 101.658 50.3671 101.648C50.3619 101.63 50.3601 101.611 50.3532 101.594L42.4688 82.1178C42.5189 82.0257 42.5638 81.9283 42.6069 81.8275C42.6795 81.8119 42.7537 81.7945 42.8245 81.7684C44.066 81.3131 44.4632 79.3683 43.7293 77.3401C42.9954 75.3136 41.4483 74.0831 40.205 74.5367C40.1411 74.561 40.0807 74.5906 40.0219 74.6219C39.9753 74.5975 39.9287 74.5767 39.8821 74.5541C39.7146 73.2106 39.7215 71.5595 40.3103 70.0266C40.5054 69.9953 40.666 69.9727 40.7973 69.9536C40.925 69.9397 41.0442 69.9241 41.153 69.9032C41.1564 69.9032 41.1651 69.9032 41.1668 69.9015C41.1668 69.9015 41.1668 69.9015 41.1685 69.9015C41.1772 69.9015 41.1875 69.898 41.1961 69.8963C42.12 69.7138 42.7779 69.2393 43.1509 68.4885C43.3132 68.1635 43.403 67.802 43.4496 67.4266C51.5931 67.2285 59.2789 69.3054 66.4468 73.666L66.8975 73.9388C76.1461 79.4691 84.2464 81.3479 84.3258 81.3652C84.3604 81.3722 84.3949 81.3774 84.4294 81.3774C84.4968 81.3774 84.5607 81.36 84.6211 81.334C86.17 81.791 87.7138 82.0344 89.235 82.0344C90.5767 82.0344 91.9012 81.8484 93.1928 81.4643C99.316 79.6481 103.826 73.7529 105.89 64.8666C107.933 56.0741 107.344 45.3751 104.229 34.7403C97.7688 12.6957 82.3159 -2.21442 69.7726 1.50835ZM104.976 64.6493C102.991 73.1915 98.7116 78.8417 92.9234 80.5588C90.2452 81.3531 87.4219 81.2436 84.5848 80.3624C84.5693 80.3555 84.5538 80.345 84.5365 80.3398C75.3949 77.4687 66.3794 66.6462 61.2129 52.7267C61.1629 52.5912 61.1111 52.4556 61.061 52.3183C60.9487 52.0089 60.8399 51.6961 60.7312 51.3833C60.6206 51.0635 60.5101 50.742 60.4031 50.417C60.3271 50.1875 60.2494 49.9581 60.1751 49.7252C59.9886 49.143 59.8056 48.5573 59.6312 47.9629C59.4516 47.3512 59.2841 46.7411 59.1218 46.1293C59.0424 45.8269 58.9681 45.5245 58.8921 45.2221C58.8196 44.9319 58.7454 44.6434 58.6763 44.3531C58.5744 43.9273 58.4794 43.5033 58.3879 43.0792C58.3568 42.9349 58.324 42.7907 58.293 42.6482C58.1807 42.1216 58.0754 41.5967 57.977 41.0718C57.9752 41.0596 57.9718 41.0492 57.97 41.0371C56.4781 33.0736 56.4781 25.4265 57.8336 19.029C57.8423 18.9855 57.8509 18.9438 57.8613 18.9004C57.9459 18.5093 58.0357 18.1252 58.1289 17.7446C58.1565 17.6299 58.1859 17.5169 58.2152 17.4039C58.3033 17.0598 58.3948 16.7174 58.4915 16.382C58.5261 16.2621 58.5641 16.1439 58.5986 16.0257C58.7005 15.6886 58.8024 15.3514 58.9129 15.0246C58.9232 14.9934 58.9353 14.9638 58.9457 14.9343C59.348 13.742 59.8073 12.6106 60.3219 11.5504C60.3357 11.5226 60.3478 11.4931 60.3616 11.4653C60.5188 11.1437 60.6828 10.8326 60.8503 10.525C60.8831 10.4659 60.9142 10.4051 60.947 10.346C61.1111 10.0488 61.282 9.76029 61.4547 9.477C61.4909 9.41617 61.5289 9.35708 61.5652 9.29799C61.7413 9.01644 61.9226 8.7401 62.1091 8.47245C62.1454 8.42205 62.1799 8.37165 62.2162 8.32124C62.4096 8.04838 62.6047 7.78247 62.8085 7.52525C62.8344 7.49223 62.862 7.46094 62.8879 7.42792C63.8031 6.28085 64.8167 5.28672 65.9288 4.46639C65.9322 4.46466 65.9339 4.46118 65.9374 4.4577C67.1997 3.5331 68.569 2.84138 70.0385 2.40515C71.2593 2.04365 72.5095 1.86811 73.7769 1.86811C85.0234 1.86637 97.6583 15.6364 103.329 34.9976C106.399 45.4793 106.983 56.0063 104.976 64.6441V64.6493ZM78.8105 78.6279C75.7282 77.4739 71.6772 75.7029 67.3706 73.1272L66.9268 72.8578C59.9127 68.5893 52.4185 66.4551 44.4995 66.4568C42.4032 66.4568 40.274 66.6115 38.119 66.9122C27.173 58.648 27.5529 46.2371 28.4508 40.467C31.3483 38.9463 34.3374 37.1978 37.1728 35.2287C43.4755 30.8525 48.4313 24.043 52.8035 18.0366C55.9912 13.6586 59.0493 9.45615 62.2317 6.76053C55.4403 15.2123 53.8828 31.6589 58.7367 48.2306C62.7118 61.806 70.3838 73.2071 78.8105 78.6262V78.6279ZM38.903 74.3108C38.6854 74.3108 38.4713 74.342 38.2641 74.4168C36.798 74.9555 36.3387 77.2792 37.2177 79.7089C37.9757 81.8015 39.4452 83.1919 40.7765 83.1919C40.9889 83.1919 41.1996 83.1554 41.4016 83.0824C41.5346 83.0337 41.6555 82.9659 41.7712 82.8894L49.2101 101.267L45.2558 101.095C44.3423 98.825 38.1657 83.4838 35.9727 78.402C34.6154 75.258 34.8761 72.5901 35.3009 70.9564C36.8982 70.6158 38.2537 70.3655 39.2587 70.1952C38.8149 71.6151 38.7769 73.0664 38.8995 74.3108H38.903ZM40.742 75.3779C41.3878 75.3779 42.3289 76.2208 42.8504 77.6581C43.434 79.2692 43.1353 80.6492 42.5033 80.8821C41.8696 81.1115 40.7593 80.2495 40.1756 78.6401C39.592 77.029 39.8907 75.649 40.5227 75.4161C40.59 75.3918 40.6643 75.3796 40.742 75.3796V75.3779ZM39.2967 78.9616C39.8026 80.3572 40.6937 81.3739 41.6054 81.725C41.4638 81.9596 41.2859 82.1247 41.0822 82.1995C40.262 82.5001 38.8305 81.4208 38.0949 79.3874C37.3593 77.3557 37.7616 75.6021 38.5835 75.3014C38.6751 75.2684 38.7735 75.251 38.8771 75.251C39.01 75.251 39.1551 75.2875 39.3019 75.3396C38.8218 76.1982 38.7873 77.5608 39.295 78.9633L39.2967 78.9616ZM2.20555 58.4325L3.07067 58.1336C3.13456 60.4451 3.56625 63.2381 4.78536 66.2726C5.36901 67.7273 5.98547 68.9387 6.59674 69.9502L5.85596 70.2195C5.40182 69.9554 3.95478 68.9178 2.75294 65.9232C1.29209 62.2822 1.97589 59.2355 2.20383 58.4325H2.20555ZM5.6522 65.9215C2.89799 59.0599 4.37438 53.3628 4.72147 52.2227L7.51366 51.2616C6.76251 54.7046 6.47242 59.3015 8.17156 64.2148C9.6445 68.4746 11.7443 71.2206 13.7076 72.9795L11.4559 73.7963C10.7842 73.4418 7.95744 71.6603 5.6522 65.9198V65.9215ZM9.05222 63.9072C5.92675 54.8697 9.80509 46.9288 10.3853 45.8235L27.9794 37.9938C26.9813 42.2345 24.0976 59.3954 39.737 69.1628C36.394 69.7051 27.2265 71.424 19.1124 75.0459C18.1299 74.7783 12.1311 72.8074 9.05395 63.9072H9.05222ZM34.2735 71.1824C33.8815 72.9777 33.7658 75.6473 35.1162 78.7756C37.2781 83.7828 43.3201 98.7833 44.3492 101.343L34.6931 106.842L21.2899 75.138C25.8468 73.2871 30.573 72.0114 34.2735 71.1806V71.1824ZM35.4391 107.498L45.0486 102.025L48.6109 102.179C46.8358 103.519 43.0749 106.244 40.0478 107.664C38.2382 108.513 36.4095 107.939 35.4391 107.498Z" fill="#1C1C1B"/>
<path d="M101.014 33.7366C95.6746 17.1996 84.9116 5.58123 75.4592 5.68724C74.7841 5.69419 74.1158 5.76198 73.4562 5.89233C73.1264 5.95663 72.8 6.03832 72.4736 6.1339C72.4719 6.1339 72.4702 6.13391 72.4667 6.13564C72.1991 6.21559 71.9332 6.30944 71.6707 6.41198C71.5515 6.45717 71.4341 6.50757 71.3167 6.55797C71.1889 6.61185 71.0629 6.6692 70.9368 6.7283C66.6475 8.73741 63.5358 13.5342 62.1009 20.4618C60.7436 27.0158 61.0217 34.8211 62.852 42.7862L62.8918 42.967C62.8918 42.967 62.8952 42.9792 62.8969 42.9861C63.0109 43.4762 63.1335 43.9663 63.2596 44.4565L63.2837 44.5573C63.3062 44.6528 63.3304 44.7467 63.3545 44.8423C63.3545 44.8492 63.358 44.8544 63.3597 44.8614C63.522 45.4766 63.6913 46.0936 63.8726 46.7106C64.0522 47.3224 64.2386 47.9272 64.4338 48.5285C64.4994 48.7302 64.5685 48.9265 64.6341 49.1264C64.767 49.5279 64.9017 49.9276 65.0416 50.3239C65.1176 50.5394 65.1987 50.7532 65.2764 50.9669C65.4163 51.351 65.5579 51.7351 65.7047 52.114C65.7789 52.3052 65.8549 52.4946 65.9309 52.6841C66.0949 53.0977 66.2624 53.5079 66.4334 53.9146C66.4938 54.0553 66.5525 54.1961 66.6147 54.3369C66.8202 54.8131 67.0291 55.2858 67.2432 55.7516C67.2726 55.8159 67.3037 55.882 67.333 55.9463C69.8455 61.3775 72.9848 66.1117 76.5281 69.7267C80.9262 74.2125 85.5298 76.5605 89.7966 76.5588C90.1455 76.5588 90.4908 76.5379 90.8344 76.5049C90.8431 76.5049 90.8517 76.5049 90.8621 76.5049C90.8793 76.5049 90.8949 76.4997 90.9121 76.4979C91.2178 76.4684 91.52 76.4249 91.8204 76.3693C91.8809 76.3589 91.943 76.3485 92.0035 76.3363C92.3264 76.272 92.6458 76.1973 92.9636 76.1034C98.0506 74.5948 101.734 69.506 103.335 61.7755C104.915 54.1475 104.284 44.8266 101.563 35.5302C101.387 34.9271 101.202 34.331 101.012 33.74L101.014 33.7366ZM102.423 61.5808C100.898 68.9394 97.4601 73.7693 92.7356 75.1892C99.8275 68.889 101.718 53.1116 97.0163 37.0526C92.1192 20.3298 81.6963 8.05959 72.0903 7.25143C72.3044 7.17148 72.522 7.09849 72.7396 7.03418C82.6374 4.10046 95.1652 16.9998 100.668 35.7926C103.348 44.9431 103.972 54.1023 102.423 61.5808ZM64.7739 46.4412C64.5944 45.826 64.4234 45.2125 64.2628 44.599L64.1454 44.1262C64.028 43.6674 63.9123 43.2086 63.8069 42.7515L63.7016 42.2753C63.598 41.8165 63.4979 41.3576 63.4063 40.9023L63.3269 40.4921C63.2337 40.0107 63.1421 39.5293 63.061 39.0531L63.0092 38.735C62.9246 38.224 62.8451 37.7148 62.7726 37.2073L62.7433 36.9901C62.669 36.4496 62.6017 35.9108 62.5429 35.3772L62.5343 35.2973L62.5291 35.2504C62.4687 34.6855 62.4152 34.1259 62.372 33.5697L61.9058 33.6062L62.3668 33.5176C62.334 33.0918 62.3047 32.6677 62.2805 32.228L79.6553 30.0277C77.6937 32.1915 77.2015 36.7242 78.6296 41.6027C79.4723 44.4808 80.8675 47.0165 82.558 48.7406C83.6856 49.8911 84.865 50.5915 86.0047 50.8227C82.9742 52.6597 75.9445 56.8987 70.4827 60.001C68.1239 55.8872 66.2037 51.3284 64.7739 46.443V46.4412ZM88.2702 47.2251C86.1134 47.8629 83.2418 44.8075 81.9951 40.5512C81.3665 38.4065 81.2198 36.2653 81.5807 34.5239C81.9208 32.885 82.6633 31.8178 83.6718 31.5189C83.8635 31.4615 84.062 31.4337 84.2623 31.4337C86.3258 31.4337 88.8107 34.3153 89.9469 38.1928C91.1936 42.4491 90.4252 46.5872 88.2702 47.2251ZM83.4059 30.6186C82.0521 31.0201 81.0782 32.3392 80.6655 34.3344C80.2735 36.2254 80.4272 38.5282 81.0989 40.8189C82.3871 45.2177 85.1447 48.2539 87.6693 48.2539C87.9611 48.2539 88.2512 48.2122 88.5344 48.1288C89.0921 47.9637 89.5739 47.637 89.9831 47.1938C89.4824 48.5737 88.6794 49.5453 87.614 49.8616C86.293 50.2526 84.732 49.62 83.2228 48.0802C81.6376 46.4656 80.3253 44.0706 79.5258 41.3385C77.9302 35.8899 78.9387 30.5891 81.7292 29.7601C81.9847 29.6836 82.2489 29.6471 82.52 29.6471C83.3057 29.6471 84.1501 29.9686 84.9997 30.5769C84.4609 30.4587 83.9256 30.4674 83.4076 30.6204L83.4059 30.6186ZM87.9455 50.7375C90.4718 49.9346 91.7807 46.549 91.4923 42.3031C91.4992 40.9527 91.2903 39.4615 90.8413 37.9286C90.344 36.2323 89.6274 34.7481 88.7917 33.5523C88.1907 32.5374 87.5173 31.6284 86.7834 30.8793C85.0377 29.0979 83.1693 28.3784 81.5133 28.8441L62.2235 31.286C62.0802 27.5146 62.3426 23.9222 63.0195 20.653C64.2594 14.6674 66.7666 10.3555 70.2012 8.18994C79.8763 7.36787 91.0106 19.8657 96.1218 37.3203C101.041 54.1162 98.693 70.5245 90.6687 75.5751C86.4243 75.9279 81.7188 73.6789 77.1981 69.0663C74.9274 66.7496 72.8242 63.9584 70.9506 60.8144C77.8508 56.8917 87.2462 51.1651 87.9473 50.7375H87.9455Z" fill="#1C1C1B"/>
</svg>
