<svg width="146" height="88" viewBox="0 0 146 88" fill="none" xmlns="http://www.w3.org/2000/svg">
<path d="M138.807 45.856C86.3897 -16.718 22.6826 16.7924 12.1124 23.016C11.9218 23.1286 11.7312 23.2413 11.5406 23.354C10.9168 23.7267 10.5789 23.9521 10.5789 23.9521V23.9694C4.19342 28.3554 0 35.7145 0 44.0531C0 57.4971 10.8908 68.3927 24.3288 68.3927C28.7908 68.3927 32.9669 67.1879 36.5625 65.0902C36.5625 65.0902 36.6231 65.0555 36.6491 65.0382C37.1863 64.7262 37.6975 64.3881 38.2087 64.0414C76.9198 39.9098 103.657 80.0424 103.657 80.0424L103.926 79.7824C108.362 84.4978 114.652 87.4536 121.644 87.4536C135.082 87.4536 145.973 76.5579 145.973 63.1139C145.973 56.3703 143.235 50.268 138.799 45.8647L138.807 45.856Z" fill="url(#paint0_linear_463_9756)"/>
<path d="M36.1168 10.2579L32.8438 11.7842L35.7475 18.0113L39.0206 16.485L36.1168 10.2579Z" fill="black"/>
<path d="M43.6051 26.3175L40.332 27.8438L43.2358 34.0709L46.5088 32.5446L43.6051 26.3175Z" fill="black"/>
<path d="M42.2926 14.9591L39.0195 16.4854L40.5473 19.7617L43.8204 18.2354L42.2926 14.9591Z" fill="black"/>
<path d="M45.3512 21.5148L42.0781 23.041L43.6059 26.3173L46.879 24.7911L45.3512 21.5148Z" fill="black"/>
<path d="M38.8004 24.5685L35.5273 26.0947L37.0551 29.3711L40.3282 27.8448L38.8004 24.5685Z" fill="black"/>
<path d="M37.2731 21.2921L34 22.8184L35.5278 26.0947L38.8008 24.5684L37.2731 21.2921Z" fill="#00E13F"/>
<path d="M43.8238 18.2384L40.5508 19.7646L42.0786 23.041L45.3516 21.5147L43.8238 18.2384Z" fill="#FFEA00"/>
<path d="M40.5504 19.7648L37.2773 21.291L38.8051 24.5673L42.0782 23.0411L40.5504 19.7648Z" fill="#FF89FD"/>
<path d="M39.0231 16.4855L35.75 18.0117L37.2778 21.288L40.5508 19.7618L39.0231 16.4855Z" fill="#FFEA00"/>
<path d="M42.0777 23.0411L38.8047 24.5674L40.3325 27.8437L43.6055 26.3175L42.0777 23.0411Z" fill="#00E13F"/>
<path d="M35.7457 18.0128L32.4727 19.5391L34.0004 22.8154L37.2735 21.2891L35.7457 18.0128Z" fill="black"/>
<path d="M50.049 15.3365L43.8281 18.2373L45.3559 21.5136L51.5768 18.6128L50.049 15.3365Z" fill="black"/>
<path d="M34.0021 22.8189L27.7812 25.7197L29.309 28.9961L35.5299 26.0952L34.0021 22.8189Z" fill="black"/>
<path d="M56.2652 24.4025L52.9922 25.9287L55.8959 32.1558L59.169 30.6296L56.2652 24.4025Z" fill="black"/>
<path d="M63.7535 40.462L60.4805 41.9883L63.3842 48.2154L66.6573 46.6891L63.7535 40.462Z" fill="black"/>
<path d="M62.441 29.1036L59.168 30.6299L60.6957 33.9062L63.9688 32.38L62.441 29.1036Z" fill="black"/>
<path d="M65.4996 35.6593L62.2266 37.1855L63.7543 40.4619L67.0274 38.9356L65.4996 35.6593Z" fill="black"/>
<path d="M58.9527 38.712L55.6797 40.2383L57.2075 43.5146L60.4805 41.9884L58.9527 38.712Z" fill="black"/>
<path d="M57.4254 35.4327L54.1523 36.959L55.6801 40.2353L58.9532 38.7091L57.4254 35.4327Z" fill="#00E13F"/>
<path d="M63.9723 32.38L60.6992 33.9062L62.227 37.1826L65.5 35.6563L63.9723 32.38Z" fill="#FFEA00"/>
<path d="M60.6988 33.9064L57.4258 35.4326L58.9536 38.7089L62.2266 37.1827L60.6988 33.9064Z" fill="#FF89FD"/>
<path d="M59.1715 30.63L55.8984 32.1562L57.4262 35.4326L60.6993 33.9063L59.1715 30.63Z" fill="#FFEA00"/>
<path d="M62.2262 37.1857L58.9531 38.7119L60.4809 41.9882L63.754 40.462L62.2262 37.1857Z" fill="#00E13F"/>
<path d="M55.8981 32.1564L52.625 33.6826L54.1528 36.9589L57.4258 35.4327L55.8981 32.1564Z" fill="black"/>
<path d="M70.1935 29.4781L63.9727 32.3789L65.5004 35.6552L71.7213 32.7544L70.1935 29.4781Z" fill="black"/>
<path d="M54.1467 36.9605L47.9258 39.8613L49.4536 43.1377L55.6744 40.2368L54.1467 36.9605Z" fill="black"/>
<path d="M23.0348 27.9327L19.7617 29.459L22.6655 35.6861L25.9385 34.1599L23.0348 27.9327Z" fill="black"/>
<path d="M30.5231 43.9923L27.25 45.5186L30.1538 51.7457L33.4268 50.2194L30.5231 43.9923Z" fill="black"/>
<path d="M29.2106 32.6339L25.9375 34.1602L27.4653 37.4365L30.7383 35.9102L29.2106 32.6339Z" fill="black"/>
<path d="M32.2691 39.1896L28.9961 40.7158L30.5239 43.9922L33.7969 42.4659L32.2691 39.1896Z" fill="black"/>
<path d="M25.7184 42.2433L22.4453 43.7695L23.9731 47.0459L27.2461 45.5196L25.7184 42.2433Z" fill="black"/>
<path d="M24.191 38.964L20.918 40.4902L22.4457 43.7666L25.7188 42.2403L24.191 38.964Z" fill="#00E13F"/>
<path d="M30.7418 35.9103L27.4688 37.4365L28.9965 40.7129L32.2696 39.1866L30.7418 35.9103Z" fill="#FFEA00"/>
<path d="M27.4684 37.4366L24.1953 38.9629L25.7231 42.2392L28.9961 40.713L27.4684 37.4366Z" fill="#FF89FD"/>
<path d="M25.941 34.1603L22.668 35.6865L24.1957 38.9629L27.4688 37.4366L25.941 34.1603Z" fill="#FFEA00"/>
<path d="M28.9957 40.7159L25.7227 42.2422L27.2504 45.5185L30.5235 43.9923L28.9957 40.7159Z" fill="#00E13F"/>
<path d="M22.6637 35.6876L19.3906 37.2139L20.9184 40.4902L24.1915 38.9639L22.6637 35.6876Z" fill="black"/>
<path d="M36.9592 33.0093L30.7383 35.9102L32.2661 39.1865L38.4869 36.2856L36.9592 33.0093Z" fill="black"/>
<path d="M20.9162 40.4908L14.6953 43.3916L16.2231 46.6679L22.444 43.7671L20.9162 40.4908Z" fill="black"/>
<defs>
<linearGradient id="paint0_linear_463_9756" x1="1.64487e-06" y1="47.9709" x2="127.712" y2="73.1414" gradientUnits="userSpaceOnUse">
<stop stop-color="#00DED5"/>
<stop offset="1" stop-color="#007873" stop-opacity="0.3"/>
</linearGradient>
</defs>
</svg>
