<svg width="222" height="297" viewBox="0 0 222 297" fill="none" xmlns="http://www.w3.org/2000/svg">
<path d="M182.584 13.7951C182.147 12.2 180.853 11.3573 179.242 11.1165C177.737 10.8908 176.442 11.3723 175.719 12.7417C174.982 14.1111 174.365 15.5558 173.793 17.0155C172.995 19.0621 172.287 21.1388 171.55 23.1854C171.384 23.1403 171.219 23.0951 171.068 23.05C171.58 19.7092 172.212 16.3684 172.558 12.9976C172.829 10.3189 172.89 7.61018 172.769 4.91649C172.679 2.96018 171.083 1.54561 169.202 1.36503C167.275 1.1694 166.04 2.31309 165.468 3.93833C164.821 5.8194 164.475 7.80581 164.083 9.76212C163.707 11.6281 163.451 13.5243 163.15 15.4053C162.955 15.3752 162.759 15.3451 162.563 15.315C162.413 12.7417 162.277 10.1835 162.112 7.61018C162.036 6.36115 161.976 5.09707 161.78 3.84804C161.434 1.77134 159.823 0.131049 158.153 0.0106606C156.316 -0.124776 154.72 1.03396 154.088 3.27619C153.697 4.64561 153.531 6.12037 153.486 7.54998C153.396 10.8155 153.471 14.0961 153.426 17.3767C153.396 19.3932 153.426 21.4247 153.17 23.4111C152.854 25.9092 152.357 26.0747 150.174 24.8558C147.435 23.3359 144.56 22.6587 141.444 23.366C139.637 23.7723 138.087 24.5398 137.726 26.6165C137.394 28.5277 138.267 30.0777 140.315 31.1912C142.859 32.5757 145.448 33.8548 147.947 35.3145C149.888 36.4432 151.635 37.933 153.622 38.9563C154.645 39.483 155.052 39.9796 154.946 41.048C154.585 44.5544 154.434 48.0908 153.832 51.5369C152.327 60.0995 149.211 68 143.461 74.6665C142.648 75.5995 141.775 76.4723 140.691 77.6311C140.616 77.4053 140.525 77.1946 140.45 76.9689C137.861 80.5354 134.248 83.3344 130.169 85.1252C130.937 89.3689 131.193 93.5675 130.982 97.7058H144.876C150.671 93.8383 155.609 89.0378 159.748 83.4247C167.967 72.3039 171.896 59.6781 172.799 45.999C172.995 42.9291 173.702 40.1903 175.313 37.3461C178.835 31.1762 181.078 24.3743 182.825 17.467C183.111 16.3233 182.9 14.9388 182.584 13.765V13.7951Z" fill="black"/>
<path d="M15.3897 231.954C17.8885 231.006 19.1981 228.854 18.7315 226.1C18.5101 224.807 18.1264 223.551 17.7409 222.288C17.6284 221.919 17.5157 221.55 17.4068 221.179C16.5036 218.034 16.9402 215.055 18.6562 212.301C18.9874 211.774 19.6497 211.052 20.1164 211.097C20.5981 211.127 21.2454 211.895 21.426 212.466C21.9762 214.214 22.4371 215.992 22.8973 217.768C23.0036 218.178 23.1099 218.588 23.2173 218.997C23.7141 220.909 24.9183 222.037 26.5741 221.992C28.3956 221.947 29.4192 220.758 29.5848 219.148C29.6302 218.709 29.6765 218.27 29.7229 217.83C30.0915 214.339 30.4611 210.839 30.3675 207.35C30.2471 203.272 28.4407 199.735 25.4301 196.831C24.8581 196.289 24.5721 195.13 24.6323 194.303C24.9635 189.909 25.4151 185.529 25.9269 181.165C26.1182 179.508 26.3995 177.858 26.6967 176.115C26.8205 175.389 26.947 174.647 27.0709 173.882C27.2863 174.068 27.4724 174.216 27.6344 174.345C27.8915 174.549 28.0881 174.706 28.245 174.89C32.4749 179.826 37.4274 183.663 42.997 186.538C43.4336 182.234 43.7647 177.915 43.9905 173.581C36.193 168.194 31.1352 160.669 29.0729 151.053C26.83 140.61 27.2515 130.136 30.5632 120.053C27.0558 118.428 23.4732 116.788 19.8454 115.479C19.3035 117.149 18.8218 118.849 18.4304 120.595C17.4369 125.049 16.6993 129.639 16.5338 134.184C16.3941 137.933 15.4283 141.458 14.464 144.977C13.9731 146.768 13.4825 148.559 13.1017 150.376C9.8803 165.846 6.74927 181.316 6.26757 197.192C6.22241 198.787 5.59018 200.488 4.82247 201.917C1.88713 207.335 0.411929 213.083 0.0205496 219.223C-0.280512 223.948 2.77526 226.326 5.98156 228.674C6.26769 228.879 6.68661 228.883 7.11527 228.887C7.40825 228.89 7.70577 228.892 7.96856 228.96C8.0647 228.985 8.16537 229.009 8.26818 229.034C8.84145 229.174 9.48136 229.329 9.77493 229.712C11.506 231.954 13.3124 232.722 15.4198 231.924L15.3897 231.954Z" fill="black"/>
<path d="M15.3897 231.954C17.8885 231.006 19.1981 228.854 18.7315 226.1C18.5101 224.807 18.1264 223.551 17.7409 222.288C17.6284 221.919 17.5157 221.55 17.4068 221.179C16.5036 218.034 16.9402 215.055 18.6562 212.301C18.9874 211.774 19.6497 211.052 20.1164 211.097C20.5981 211.127 21.2454 211.895 21.426 212.466C21.9762 214.214 22.4371 215.992 22.8973 217.768C23.0036 218.178 23.1099 218.588 23.2173 218.997C23.7141 220.909 24.9183 222.037 26.5741 221.992C28.3956 221.947 29.4192 220.758 29.5848 219.148C29.6302 218.709 29.6765 218.27 29.7229 217.83C30.0915 214.339 30.4611 210.839 30.3675 207.35C30.2471 203.272 28.4407 199.735 25.4301 196.831C24.8581 196.289 24.5721 195.13 24.6323 194.303C24.9635 189.909 25.4151 185.529 25.9269 181.165C26.1182 179.508 26.3995 177.858 26.6967 176.115C26.8205 175.389 26.947 174.647 27.0709 173.882C27.2863 174.068 27.4724 174.216 27.6344 174.345C27.8915 174.549 28.0881 174.706 28.245 174.89C32.4749 179.826 37.4274 183.663 42.997 186.538C43.4336 182.234 43.7647 177.915 43.9905 173.581C36.193 168.194 31.1352 160.669 29.0729 151.053C26.83 140.61 27.2515 130.136 30.5632 120.053C27.0558 118.428 23.4732 116.788 19.8454 115.479C19.3035 117.149 18.8218 118.849 18.4304 120.595C17.4369 125.049 16.6993 129.639 16.5338 134.184C16.3941 137.933 15.4283 141.458 14.464 144.977C13.9731 146.768 13.4825 148.559 13.1017 150.376C9.8803 165.846 6.74927 181.316 6.26757 197.192C6.22241 198.787 5.59018 200.488 4.82247 201.917C1.88713 207.335 0.411929 213.083 0.0205496 219.223C-0.280512 223.948 2.77526 226.326 5.98156 228.674C6.26769 228.879 6.68661 228.883 7.11527 228.887C7.40825 228.89 7.70577 228.892 7.96856 228.96C8.0647 228.985 8.16537 229.009 8.26818 229.034C8.84145 229.174 9.48136 229.329 9.77493 229.712C11.506 231.954 13.3124 232.722 15.4198 231.924L15.3897 231.954Z" stroke="white"/>
<path d="M150.671 145.5L128.288 144.928C127.279 148.179 115.793 180.443 91.2419 177.238C61.8584 172.843 54.8286 132.303 55.2651 119.511C55.1297 110.723 57.3726 97.2095 63.1529 85.4114C70.1827 71.0551 80.3586 63.2449 95.5923 64.4338C123.576 67.9551 124.961 97.8415 124.961 97.8415L148.368 98.5488C145.222 65.2313 111.85 44.1483 96.0589 44.4042C96.0589 44.4042 63.7551 45.6983 58.3209 46.511C58.3209 46.511 10.964 54.9381 8.73614 118.217C5.99648 177.223 54.377 192.662 54.377 192.662C59.9617 194.378 91.9494 196.801 91.9494 196.801C110.961 198.712 140.872 184.13 150.641 145.53" fill="black"/>
<path d="M107.455 94.3051C102.457 93.5677 97.2036 95.8852 94.2983 100.054C91.1071 104.613 91.649 110.332 93.7414 115.223C96.1348 120.821 99.9131 125.711 102.066 131.46C102.833 133.492 104.805 138.051 103.285 139.993C101.087 142.792 95.9993 141.272 93.3048 140.354C91.4232 139.707 90.6103 142.686 92.4769 143.333C96.6767 144.778 103.962 145.937 106.386 140.88C107.425 138.728 106.597 135.839 106.01 133.672C105.212 130.723 103.962 127.893 102.593 125.17C100.034 120.113 96.0294 115.192 95.2015 109.459C94.2682 102.973 99.7325 96.2915 106.642 97.3148C108.584 97.6008 109.427 94.6362 107.47 94.3352" fill="black"/>
<path d="M77.0924 118.834C65.5015 116.547 53.9859 113.823 42.5908 110.663C40.679 110.136 39.8511 113.116 41.7628 113.642C53.158 116.787 64.6585 119.511 76.2644 121.814C78.2063 122.19 79.0342 119.225 77.0924 118.834Z" fill="black"/>
<path d="M111.278 150.316C102.411 156.922 90.2335 158.607 79.9974 154.243C78.191 153.476 76.6104 156.124 78.4319 156.907C89.6464 161.677 102.998 160.308 112.828 152.979C114.409 151.805 112.858 149.127 111.263 150.316" fill="black"/>
<path d="M94.0871 118.955C94.0419 122.311 92.085 125.546 88.8486 126.735C85.7025 127.894 82.165 126.84 80.0727 124.222C77.9201 121.513 77.6943 117.6 79.4254 114.636C81.0662 111.837 84.3628 110.181 87.5992 110.829C91.4678 111.596 94.0268 115.117 94.072 118.955C94.1021 120.941 97.188 120.941 97.1579 118.955C97.0977 114.26 94.3279 109.986 89.9023 108.285C85.5971 106.63 80.5694 108.12 77.7244 111.701C74.774 115.418 74.3374 120.715 76.761 124.839C79.1394 128.872 83.8209 131.009 88.412 130.061C93.6054 128.992 97.0826 124.116 97.1579 118.955C97.188 116.968 94.1021 116.968 94.072 118.955" fill="black"/>
<path d="M115.312 115.719C115.267 119.135 113.159 122.31 109.908 123.484C106.596 124.673 102.833 123.65 100.605 120.911C98.4523 118.247 98.2115 114.41 99.9576 111.49C101.704 108.586 105.166 106.976 108.523 107.593C112.452 108.33 115.267 111.761 115.312 115.734C115.342 117.721 118.428 117.721 118.398 115.734C118.337 110.994 115.417 106.78 110.976 105.095C106.566 103.424 101.327 104.824 98.3319 108.466C95.3213 112.138 94.8245 117.42 97.2782 121.528C99.7318 125.636 104.519 127.698 109.2 126.87C114.529 125.907 118.322 121.046 118.398 115.734C118.428 113.748 115.342 113.748 115.312 115.734" fill="black"/>
<path d="M109.351 115.719C109.351 118.307 110.886 120.414 112.768 120.414C114.649 120.414 116.185 118.307 116.185 115.719C116.185 113.131 114.649 111.024 112.768 111.024C110.886 111.024 109.351 113.131 109.351 115.719Z" fill="black"/>
<path d="M87.5234 118.954C87.5234 121.543 89.0588 123.65 90.9405 123.65C92.8221 123.65 94.3575 121.543 94.3575 118.954C94.3575 116.366 92.8221 114.259 90.9405 114.259C89.0588 114.259 87.5234 116.366 87.5234 118.954Z" fill="black"/>
<g clip-path="url(#clip0_2_2733)">
<path d="M80.1504 183.789L125.459 177.167C135.752 175.421 143.557 173.953 152.865 180.766C162.991 188.142 165.131 224.013 165.131 224.013C165.131 224.013 198.223 206.037 213.075 231.432L151.755 252.533C151.755 252.533 150.805 189.339 130.858 191.577C107.144 194.225 94.7682 193.705 94.7682 193.705L80.1504 183.789Z" fill="black"/>
<path d="M77.6052 178.359L119.718 189.872C126.537 191.824 137.152 194.905 138.813 209.302C142.846 225.179 125.044 249.596 125.044 249.596C125.044 249.596 159.904 253.542 155.204 282.992L95.5739 259.214C95.5739 259.214 142.971 209.944 109.435 202.063C96.2781 198.974 74.3795 193.74 74.3795 193.74L77.6052 178.359Z" fill="black"/>
</g>
<defs>
<clipPath id="clip0_2_2733">
<rect width="125.684" height="120.123" fill="white" transform="translate(71 179.981) rotate(-13.8006)"/>
</clipPath>
</defs>
</svg>
