<svg width="55" height="55" viewBox="0 0 55 55" fill="none" xmlns="http://www.w3.org/2000/svg">
<path d="M49.1429 9.23044C49.0675 9.14799 48.9509 9.11967 48.8489 9.15618L48.7602 9.19834C47.4866 9.83841 45.9138 10.6138 44.3513 10.3029C43.1942 10.0725 42.2355 9.34373 41.3528 8.61618C41.2039 8.49345 41.055 8.36883 40.9061 8.24359C40.1438 7.60352 39.3556 6.94205 38.4406 6.49205C37.0852 5.82555 35.5264 5.77268 34.1634 6.34855C33.6964 6.54555 33.2529 6.79855 32.8239 7.04338C32.656 7.13904 32.4823 7.23785 32.31 7.33163C31.7727 7.62492 31.1434 7.94086 30.4813 7.98051C29.7494 8.02394 29.1316 7.67716 28.5734 7.29639C28.0335 6.9282 27.4214 6.5103 26.7136 6.23778C25.4095 5.73555 23.9369 5.64995 22.567 5.99674C21.0931 6.36995 19.9113 7.30394 18.8265 8.22911C17.4832 9.3752 16.2938 10.206 15.0823 10.8435C13.7256 11.5579 12.2999 12.0928 10.8438 12.4352C10.4858 12.5195 10.1132 12.5938 9.73744 12.6561C9.62655 12.6744 9.55115 12.753 9.53594 12.8537C9.53467 12.8594 9.53277 12.8644 9.5315 12.8701C9.51439 12.9563 9.54481 13.0407 9.61451 13.1017C10.3648 13.7544 11.198 14.3158 12.0845 14.7733C12.0915 14.7853 12.0997 14.7972 12.1086 14.8079C13.3771 16.3272 14.4632 18.1669 15.4283 20.4326C15.6298 20.9065 15.837 21.4226 16.0587 22.0048C15.254 22.6587 14.4886 23.4297 13.7744 24.3045C12.9976 25.2567 12.3741 26.2801 11.9204 27.3456C11.4787 28.3828 11.1562 29.5358 10.9344 30.8707C10.6341 32.6745 10.5143 34.3417 10.572 35.9044C10.5606 35.9107 10.5491 35.9176 10.5371 35.9233C10.3388 36.0202 10.1816 35.8918 10.0175 35.7905C9.861 35.6936 9.69815 35.6074 9.53023 35.5325C9.36865 35.4607 9.20327 35.3978 9.03409 35.3468C8.90989 35.3097 8.73754 35.2404 8.61714 35.3254C8.38523 35.489 8.53477 35.9743 8.5956 36.1914C8.63742 36.34 8.68748 36.4866 8.7293 36.6351C8.77429 36.7937 8.85856 37.0323 8.81231 37.1972C8.77809 37.3211 8.60764 37.4508 8.52273 37.5439C8.41057 37.6667 8.29462 37.7869 8.18753 37.914C8.04052 38.089 7.75791 38.4452 7.91949 38.6837C7.99807 38.7989 8.14127 38.8222 8.2699 38.8436C8.4562 38.8751 8.64502 38.8889 8.83385 38.8895C8.9327 38.8895 9.03155 38.8858 9.1304 38.8801C9.20581 38.8751 9.31923 38.8455 9.39463 38.8612C9.4618 38.8757 9.49475 38.933 9.53277 38.9827C9.63415 39.1155 9.73427 39.2495 9.83439 39.383C9.94338 39.5277 10.053 39.6725 10.162 39.8172C10.2551 39.9412 10.3584 40.0809 10.5358 40.0595C10.6626 40.0444 10.7373 39.9462 10.7994 39.8449C10.8913 39.6939 10.9667 39.5315 11.0282 39.366C11.4927 41.3126 12.3354 43.1095 13.4766 44.5809C14.4189 45.7956 15.5569 46.8139 16.8578 47.6069C18.5876 48.6611 20.5786 49.215 22.6284 49.215C22.6943 49.215 22.7602 49.215 22.8255 49.2131C25.6414 49.1646 28.3725 48.0846 30.5782 46.1594C30.5827 46.1619 30.5884 46.1632 30.5928 46.1657C30.7069 46.2318 30.6771 46.4483 30.6866 46.5647C30.7233 47.0078 30.7544 47.4804 30.8659 47.9116C30.9331 48.1721 31.1834 48.14 31.3614 48.0148C31.5578 47.8763 31.7549 47.7372 31.9513 47.5988C32.1231 47.4779 32.31 47.3124 32.5058 47.2356C32.7497 47.14 33.0533 47.2677 33.2991 47.3155C33.5424 47.3628 33.7889 47.3993 34.0354 47.4257C34.2141 47.4452 34.4688 47.5094 34.6374 47.4175C34.8142 47.3218 34.8237 47.1116 34.7521 46.948C34.7489 46.9386 34.7445 46.9291 34.7388 46.919C34.6057 46.7088 34.4726 46.498 34.3396 46.2878C34.2173 46.0939 34.0411 45.8869 33.9822 45.6634C33.9226 45.4362 34.0722 45.2783 34.2021 45.1109C34.332 44.9435 34.4517 44.7691 34.5588 44.5866C34.6602 44.4135 34.7508 44.2341 34.83 44.0497C34.8985 43.8905 35.0436 43.6469 34.9358 43.4764C34.8509 43.3423 34.6615 43.3354 34.5202 43.3279C34.3117 43.3172 34.102 43.3467 33.8973 43.3839C33.7002 43.4197 33.5051 43.4669 33.3074 43.5016C33.1946 43.5211 33.0818 43.5362 32.9671 43.5412C32.9398 43.5425 32.9063 43.545 32.8701 43.5462C33.1863 43.066 33.462 42.572 33.6901 42.0723C34.2775 40.7877 34.612 39.3049 34.7115 37.5389C34.7819 36.2896 34.7318 35.0202 34.6767 33.7866C36.25 33.2422 37.5446 32.3579 38.4273 31.2194C39.3714 30.0016 39.8745 28.5345 40.3618 27.1153C40.4226 26.9378 40.4835 26.7609 40.5449 26.5847C41.7634 23.0923 43.2329 19.6956 44.9127 16.4883C45.8765 14.6481 46.9201 12.8544 48.015 11.1557C48.0163 11.1538 48.0176 11.1513 48.0188 11.1488C48.4111 10.6579 48.7824 10.1411 49.129 9.59862L49.1911 9.49478C49.2291 9.40478 49.2126 9.30534 49.1442 9.23044H49.1429Z" fill="black" stroke="white" stroke-width="10" stroke-miterlimit="10"/>
<path d="M8.2116 23.435C8.29905 23.5049 8.37382 23.5968 8.45492 23.6742C8.62284 23.8359 8.79456 23.9933 8.97072 24.1456C9.12913 24.2828 9.29134 24.4496 9.47193 24.5585C9.70005 24.6957 9.84135 24.4515 9.88634 24.2652C9.94654 24.0197 10.0067 23.7749 10.0669 23.5294C10.1233 23.2985 10.155 22.9882 10.3337 22.8227C10.4972 22.671 10.738 22.5841 10.93 22.4734C11.1587 22.3406 11.3818 22.1977 11.5972 22.0441C11.7315 21.9485 11.9356 21.839 11.973 21.664C12.0122 21.4827 11.8811 21.3418 11.7284 21.2731C11.7201 21.2687 11.7113 21.265 11.7011 21.2618C11.4616 21.1894 11.2227 21.1171 10.9832 21.0453C10.776 20.983 10.5428 20.9396 10.3521 20.8338C10.1373 20.7149 10.1259 20.5148 10.1132 20.2932C10.1005 20.0666 10.0745 19.8407 10.0327 19.6173C9.98899 19.3857 9.92816 19.1578 9.85086 18.935C9.8008 18.7915 9.75011 18.5788 9.57839 18.5329C9.41997 18.4901 9.26727 18.6191 9.15321 18.7104C9.0138 18.8224 8.89278 18.9539 8.77999 19.0918C8.55377 19.3687 8.35798 19.6758 8.08741 19.9143C8.02341 19.9704 7.93153 20.0622 7.84345 20.0748C7.76044 20.0868 7.64575 20.0522 7.56211 20.0427C7.37011 20.0207 7.17812 19.9993 6.98612 19.9766C6.77005 19.9515 6.5527 19.9276 6.33473 19.9521C6.17061 19.971 5.9501 20.0056 5.84618 20.1504C5.7448 20.2907 5.80816 20.4518 5.87216 20.5928C5.96974 20.8062 6.09267 21.0082 6.22891 21.1989C6.34043 21.3556 6.46209 21.5035 6.58629 21.6501C6.6769 21.7571 6.71048 21.8138 6.67056 21.9522C6.66613 21.9686 6.66042 21.9843 6.65536 22.0007C6.59769 22.1838 6.5394 22.3664 6.48173 22.5495L6.2777 23.1927C6.22384 23.3627 6.1497 23.5584 6.28784 23.7126C6.37401 23.8089 6.50201 23.824 6.62431 23.8164C6.84735 23.8032 7.07166 23.7623 7.28711 23.7038C7.48544 23.6503 7.6787 23.5779 7.86436 23.4917C7.97905 23.4382 8.09438 23.34 8.2116 23.4338V23.435Z" fill="black" stroke="white" stroke-width="10" stroke-miterlimit="10"/>
<path d="M43.0153 35.111C43.0153 35.111 43.0134 35.111 43.0127 35.1104C43.0045 35.106 42.995 35.1016 42.9848 35.0985C42.8835 35.0676 42.7821 35.0374 42.6807 35.0066C42.5945 34.9808 42.4608 34.9663 42.3924 34.9033C42.3252 34.841 42.3455 34.6919 42.3354 34.6044C42.3233 34.4993 42.3043 34.3942 42.2777 34.2916C42.2422 34.1557 42.1959 33.9064 42.0116 33.9102C41.8588 33.9133 41.7232 34.0801 41.6352 34.1884C41.5813 34.2551 41.5312 34.3256 41.4767 34.3923C41.4318 34.4471 41.3633 34.5465 41.2943 34.5717C41.2284 34.5956 41.1105 34.5603 41.0427 34.5528C40.9502 34.5421 40.8577 34.5282 40.7652 34.5245C40.6207 34.5182 40.3995 34.5339 40.34 34.6925C40.2842 34.8429 40.4388 35.0487 40.5199 35.1639C40.5839 35.2545 40.729 35.3634 40.7037 35.4767C40.6841 35.5654 40.6479 35.6536 40.6201 35.7404C40.5719 35.8927 40.4325 36.1558 40.5757 36.2905C40.6936 36.4019 40.921 36.3345 41.0579 36.2987C41.1473 36.2754 41.2341 36.242 41.3183 36.2043C41.338 36.1954 41.3716 36.1678 41.388 36.1665C41.4109 36.1646 41.3912 36.1659 41.4153 36.1759C41.4533 36.1917 41.4983 36.2584 41.5293 36.2873C41.6009 36.3553 41.6738 36.4214 41.7486 36.4862C41.8164 36.5447 41.8924 36.6278 41.9748 36.6668C42.1034 36.7273 42.208 36.6247 42.2416 36.5089C42.2713 36.4063 42.2929 36.3005 42.3182 36.1967C42.3411 36.1042 42.3544 35.9645 42.4222 35.8952C42.4982 35.8172 42.6414 35.7712 42.7352 35.714C42.8321 35.6548 42.9265 35.5912 43.0172 35.5239C43.0843 35.4736 43.1509 35.4182 43.1566 35.3282C43.1623 35.2319 43.0976 35.1519 43.0146 35.1123L43.0153 35.111Z" fill="black" stroke="white" stroke-width="10" stroke-miterlimit="10"/>
<path d="M18.2074 13.206L13.5703 13.8744L16.551 19.6672L20.095 23.787L26.7471 28.6728L32.635 28.9384L37.6567 28.4513C37.6567 28.4513 38.6528 23.1287 39.1819 22.6485C39.711 22.1683 41.3489 18.3235 41.3489 18.3235L42.3197 16.227L42.103 13.7353L34.2273 9.798L23.4451 8.9043L19.9094 9.92262L18.2067 13.206H18.2074Z" fill="#FAEA4E"/>
<path d="M36.4924 12.9588L35.149 14.3723L34.5217 15.0319L34.5965 13.3974C34.3937 13.6183 34.1865 13.8386 33.9761 14.0526C33.5224 14.5133 33.0415 14.952 32.5206 15.3195C31.9884 15.6978 31.4137 16.0049 30.7825 16.1893C29.9493 16.431 29.0653 16.4474 28.1998 16.4102C26.9578 16.3567 25.6956 16.1881 24.5873 15.6349C24.031 15.356 23.5139 14.9677 23.1116 14.4957L23.1832 14.6386C21.056 15.6902 18.6114 16.0962 16.2561 15.7903C14.4964 15.5625 12.7894 14.9375 11.2971 13.9853C10.7902 13.6637 10.3093 13.3049 9.85938 12.9103L10.2617 12.8725L13.5517 12.561L18.2331 11.1663L20.461 10.7056L23.3637 10.6836L28.5432 11.1726C28.5432 11.1726 33.85 11.2846 34.0553 11.2941C34.2606 11.3035 35.3245 11.605 35.3245 11.605L36.4943 12.9581L36.4924 12.9588Z" fill="#EB6564"/>
<path d="M49.0131 9.39892C48.4954 10.2221 47.9029 11.0082 47.249 11.7333C47.249 11.7351 47.2464 11.7351 47.2445 11.737C45.8087 13.3337 44.0604 14.6479 42.0739 15.4648C39.1807 16.6581 35.7736 16.7305 32.9582 15.3679L32.5236 15.32L30.4072 15.0872L24.7601 14.4672L23.0055 14.274L22.9345 14.2646L21.057 14.0594L10.264 12.8724L9.96875 12.8397C12.9488 12.3507 15.7983 11.0819 18.1479 9.19563C19.2099 8.34535 20.1857 7.35976 21.3998 6.73731C23.3717 5.7278 25.8766 5.83416 27.7534 7.00857C28.4416 7.43906 29.0752 8.01367 29.8679 8.18675C31.5281 8.55178 32.969 7.09039 34.5607 6.49815C35.5467 6.13185 36.6562 6.10479 37.658 6.42514C40.2852 7.26535 41.9333 10.2737 44.6707 10.6054C46.1876 10.7898 47.6526 10.0843 49.0143 9.39766L49.0131 9.39892Z" fill="#EB6564"/>
<path d="M47.8469 11.1816C44.7242 16.0228 42.1858 21.2339 40.3039 26.6705C39.7532 28.2533 39.2387 29.8998 38.1735 31.1994C37.0349 32.5903 35.3576 33.4475 33.5846 33.8428C33.4313 33.8786 33.2741 33.9107 33.1195 33.9359C32.899 33.9774 32.6772 34.0083 32.4548 34.0347C30.2839 34.2827 28.0902 33.9409 25.9504 33.5073C24.6597 33.243 23.3537 32.939 22.2176 32.275C20.4617 31.2479 19.356 29.5435 18.5113 27.6636C18.3111 27.2142 18.1242 26.7567 17.9487 26.2928C17.6819 25.5974 17.4392 24.8944 17.1997 24.209C15.9843 20.7305 14.5599 17.2469 12.1875 14.4172L14.8577 15.552C16.8733 16.6119 18.1476 18.6598 19.1627 20.6889C19.4739 21.3114 19.7742 21.9458 20.0872 22.5726C20.7931 23.9887 21.5605 25.3683 22.6675 26.4886C24.1749 28.0179 26.2267 28.9507 28.3475 29.3277C29.4893 29.5297 30.6926 29.575 31.7819 29.1772C33.0936 28.6989 34.1074 27.6227 34.8196 26.43C35.5318 25.2374 35.9862 23.9119 36.5146 22.6293C37.7198 19.6983 39.4934 16.778 42.3544 15.3852L43.0742 14.8351L47.8456 11.1816H47.8469Z" fill="#EB6564"/>
<path d="M47.2414 11.737C45.8055 13.3337 44.0573 14.6478 42.0708 15.4647C39.1775 16.658 35.7704 16.7304 32.9551 15.3678L32.5204 15.32C31.9881 15.6982 31.4134 16.0054 30.7823 16.1898C29.949 16.4314 29.0651 16.4478 28.1995 16.4107C26.9576 16.3572 25.6953 16.1885 24.5871 15.6353C24.0307 15.3565 23.5137 14.9681 23.1113 14.4961L23.1829 14.639C21.0557 15.6907 18.6111 16.0966 16.2558 15.7907C14.4962 15.5629 12.7891 14.9379 11.2969 13.9857C11.2969 13.9857 16.4466 15.5478 21.0545 14.06C21.5398 13.9014 22.0227 13.71 22.4897 13.4797C22.4897 13.4797 22.5467 13.5143 22.6563 13.5753C22.9706 13.7465 23.7152 14.1216 24.7575 14.4672C26.1877 14.9398 28.1837 15.3502 30.4046 15.0871C31.5509 14.9518 32.758 14.6346 33.9765 14.053C33.9765 14.053 34.1831 14.1292 34.5595 14.2274C34.7242 14.2733 34.9232 14.3212 35.15 14.3721C37.3311 14.8467 42.2045 15.3647 46.7661 12.0781C46.9404 11.9528 47.0994 11.8395 47.2426 11.7363L47.2414 11.737Z" fill="#EB6564"/>
<path d="M44.0375 14.4508C44.0375 14.4508 38.4994 21.2461 37.7834 27.161C37.2062 31.9297 34.5797 33.4383 33.5855 33.843C33.3472 33.9399 33.2027 33.9739 33.2027 33.9739L33.1204 33.9355L24.3823 29.9226L18.5134 27.6638L17.7461 27.3668L17.9508 26.2931L18.4571 23.6377L20.0893 22.5722C20.7952 23.9883 21.5626 25.3679 22.6696 26.4882C24.177 28.0175 26.2288 28.9503 28.3496 29.3273C29.4915 29.5293 30.6948 29.5746 31.784 29.1768C33.0957 28.6985 34.1095 27.6223 34.8217 26.4296C35.534 25.237 35.9883 23.9115 36.5167 22.6289C37.7219 19.6979 39.4955 16.7776 42.3565 15.3848L43.0763 14.8347L44.0375 14.4502V14.4508Z" fill="#EB6564"/>
<path d="M35.0406 25.8555C33.3475 30.7073 35.559 36.3521 33.8316 41.1933C33.4394 42.2934 32.8393 43.313 32.1157 44.2325C30.5607 46.2106 28.4069 47.7362 25.9915 48.4656C23.5735 49.197 20.9007 49.1151 18.5689 48.1528C15.969 47.0817 10.1172 43.2651 10.9758 33.2349C11.2711 29.7985 11.9168 27.3156 13.6467 24.9819V24.98C13.6511 24.9782 13.6536 24.9738 13.6581 24.9675C14.2505 24.1669 14.9748 23.3846 15.8524 22.5884C17.7755 20.8419 20.2569 19.767 22.8175 19.2786C25.3781 18.7902 28.0185 18.8638 30.6013 19.2144L30.2103 19.5731C30.2458 19.5574 30.2832 19.5423 30.3187 19.5284C32.6651 18.6114 35.3347 18.5271 37.7356 19.3019L38.1367 19.4233L35.0406 25.8561V25.8555Z" fill="#66DD59"/>
<path d="M16.433 30.4C18.967 29.8141 21.4382 29.5391 23.9722 28.9531C24.315 31.9414 25.0082 34.89 26.0335 37.7196C23.7023 38.8198 21.2633 39.6933 18.7617 40.3227C18.6305 40.3561 18.4848 40.3869 18.3644 40.3252C18.2326 40.2579 18.1768 40.1037 18.1325 39.9633C17.1623 36.8763 16.5363 33.6822 16.2695 30.4592L16.4324 30.4H16.433Z" fill="#EB6564"/>
<path d="M9.77147 12.9989C11.1395 14.189 12.7686 15.0701 14.5188 15.5623C16.345 16.0765 18.2801 16.1476 20.1424 15.7901C21.219 15.5837 22.2633 15.23 23.2461 14.7473C23.3912 14.6761 23.2638 14.4603 23.1187 14.5314C21.4268 15.3621 19.5417 15.7863 17.6541 15.7643C15.8431 15.7429 14.0467 15.2986 12.4315 14.4861C11.5381 14.0367 10.7029 13.4778 9.94952 12.8226C9.82786 12.7169 9.64917 12.8931 9.77147 12.9995V12.9989Z" fill="black"/>
<path d="M17.8064 16.1482C16.6785 16.1482 15.5557 15.9959 14.481 15.6938C12.7207 15.1985 11.0605 14.3017 9.68109 13.1015C9.57337 13.0077 9.56449 12.856 9.65891 12.7484C9.74699 12.6483 9.91364 12.6099 10.0397 12.7194C10.7817 13.3645 11.6074 13.9184 12.4932 14.364C14.0945 15.1696 15.8801 15.607 17.6556 15.6277C19.5211 15.6504 21.3897 15.2281 23.0575 14.4093C23.2076 14.3356 23.3591 14.4149 23.4186 14.5345C23.4826 14.6629 23.4338 14.8064 23.3065 14.8694C22.3047 15.3615 21.2484 15.7165 20.168 15.9235C19.3886 16.0733 18.5959 16.1476 17.8064 16.1476V16.1482ZM9.86041 12.8956L9.77106 12.9989L9.86104 12.8963C9.86104 12.8963 9.86104 12.8963 9.86041 12.8956Z" fill="#031107"/>
<path d="M22.1908 12.9099C22.3568 13.7696 22.8662 14.5268 23.5316 15.0894C24.2774 15.72 25.1949 16.0945 26.1454 16.2972C27.1865 16.5193 28.2935 16.5923 29.3561 16.5382C30.3883 16.486 31.3578 16.2091 32.2348 15.6621C33.1681 15.08 33.9488 14.2907 34.6857 13.4858C34.7947 13.3668 34.6173 13.1893 34.5077 13.3089C33.8816 13.9924 33.2283 14.6646 32.4692 15.2046C31.6708 15.7723 30.7786 16.1474 29.7984 16.2537C28.7757 16.3645 27.6978 16.3047 26.6834 16.1436C25.7417 15.9938 24.8065 15.7049 24.0214 15.1536C23.2344 14.601 22.6166 13.7954 22.4328 12.8432C22.4024 12.6852 22.1597 12.7519 22.1901 12.9099H22.1908Z" fill="black"/>
<path d="M28.6908 16.6914C27.8031 16.6914 26.9242 16.6027 26.1163 16.4302C25.0416 16.2005 24.1418 15.7845 23.4423 15.1929C22.7098 14.5736 22.2174 13.7717 22.0558 12.9353C22.0375 12.8409 22.0698 12.7478 22.142 12.6855C22.2162 12.6219 22.3213 12.6005 22.4101 12.6307C22.4931 12.659 22.5507 12.7276 22.5678 12.8176C22.7332 13.6748 23.2775 14.4647 24.1006 15.0424C24.785 15.5227 25.6372 15.8392 26.7056 16.0092C27.7885 16.1816 28.8524 16.2194 29.7839 16.1187C30.6963 16.0199 31.5726 15.675 32.3901 15.0941C33.1422 14.5591 33.8037 13.8762 34.407 13.2173C34.4703 13.1487 34.5565 13.1197 34.644 13.1386C34.7365 13.1587 34.8157 13.2311 34.8455 13.3236C34.874 13.4124 34.8524 13.5074 34.7884 13.5773C34.0642 14.3678 33.2626 15.1822 32.309 15.7769C31.4434 16.3169 30.453 16.619 29.3637 16.6738C29.1401 16.6851 28.9151 16.6908 28.6914 16.6908L28.6908 16.6914Z" fill="#031107"/>
<path d="M32.7548 15.4302C35.0461 16.5303 37.7157 16.733 40.1863 16.1867C42.5992 15.6523 44.7822 14.3414 46.5456 12.6408C47.5303 11.6911 48.3889 10.6161 49.1195 9.46311C49.1905 9.35109 49.0536 9.23843 48.9471 9.29192C47.5537 9.99304 45.9981 10.7577 44.3912 10.438C43.2158 10.2039 42.2349 9.46626 41.3326 8.72297C40.4163 7.96773 39.5229 7.14514 38.4469 6.61584C37.1416 5.97388 35.6297 5.90717 34.2838 6.47549C33.6419 6.74675 33.0526 7.11997 32.4424 7.4529C31.8601 7.77074 31.2303 8.07787 30.5554 8.11815C29.8001 8.16283 29.1652 7.82234 28.5613 7.41011C27.9733 7.00857 27.3992 6.62402 26.7294 6.36598C25.4457 5.87129 23.999 5.79262 22.6658 6.12997C21.2274 6.49374 20.0856 7.39122 18.9811 8.33402C17.8057 9.33661 16.5847 10.2429 15.2122 10.9654C13.8638 11.6754 12.426 12.2204 10.9407 12.5691C10.5713 12.6559 10.1994 12.7295 9.82552 12.7919C9.66584 12.8183 9.73364 13.0593 9.89269 13.0329C12.8867 12.5357 15.7546 11.2442 18.1295 9.36997C19.3075 8.44039 20.3733 7.31822 21.7679 6.70143C23.0802 6.12116 24.5997 6.02549 25.9843 6.38927C26.6711 6.56927 27.3124 6.8657 27.9011 7.25969C28.491 7.6543 29.0651 8.12255 29.7691 8.29689C31.1156 8.62983 32.3455 7.78836 33.462 7.16717C34.1165 6.80276 34.7895 6.48934 35.5391 6.3792C36.3229 6.26402 37.1302 6.35654 37.8697 6.63661C39.009 7.06773 39.9449 7.8922 40.8643 8.66004C41.7552 9.40395 42.6829 10.1699 43.8032 10.5419C45.2225 11.0133 46.666 10.6268 47.9846 10.0346C48.3528 9.86969 48.7133 9.68969 49.0739 9.50843C49.0162 9.45116 48.9592 9.39451 48.9015 9.33724C47.6393 11.3317 45.9747 13.0958 43.959 14.3527C41.8636 15.6599 39.4329 16.334 36.9547 16.2156C35.548 16.1483 34.1514 15.8254 32.8816 15.2156C32.7364 15.1457 32.6084 15.3616 32.7542 15.4314L32.7548 15.4302Z" fill="black"/>
<path d="M37.5208 16.6161C35.8169 16.6161 34.1618 16.2567 32.6949 15.5525C32.5669 15.4908 32.5175 15.3486 32.5803 15.2202C32.6392 15.0993 32.79 15.0181 32.9414 15.0911C34.1606 15.6765 35.5134 16.0088 36.962 16.078C39.3749 16.1938 41.7695 15.5569 43.8865 14.2358C45.5308 13.21 47.025 11.7781 48.2485 10.0618C48.1795 10.0939 48.1104 10.1254 48.0413 10.1569C46.9787 10.6339 45.3781 11.206 43.7598 10.6692C42.5964 10.2827 41.6288 9.47527 40.7759 8.76219L40.582 8.59981C39.7342 7.88925 38.8578 7.15352 37.8205 6.76142C37.0956 6.48702 36.3137 6.40079 35.5584 6.51156C34.7885 6.62485 34.1004 6.96534 33.5282 7.28317C33.4046 7.35177 33.2798 7.42352 33.1537 7.4959C32.1373 8.07743 30.986 8.73576 29.7358 8.42674C29.1338 8.27757 28.6282 7.92702 28.1396 7.58715C28.0344 7.51415 27.9293 7.44114 27.8241 7.37065C27.2379 6.97855 26.6068 6.69156 25.9491 6.51911C24.5791 6.15974 23.0749 6.27051 21.8234 6.82436C20.821 7.26743 19.9719 7.99373 19.1513 8.69548C18.8471 8.95541 18.5328 9.22415 18.2148 9.47527C15.7879 11.3911 12.9181 12.6668 9.91519 13.1659C9.74727 13.1936 9.62371 13.0721 9.60153 12.9387C9.57809 12.7983 9.663 12.6794 9.80303 12.6561C10.1794 12.5938 10.552 12.5195 10.9094 12.4352C12.3655 12.0934 13.7919 11.5579 15.1485 10.8435C16.3594 10.206 17.5494 9.3752 18.8928 8.22911C19.9769 7.30394 21.1593 6.36932 22.6332 5.99674C24.0032 5.64995 25.4758 5.73555 26.7798 6.23778C27.4882 6.5103 28.0997 6.9282 28.6396 7.29639C29.1978 7.67715 29.815 8.02457 30.5475 7.98051C31.2103 7.94086 31.8389 7.62492 32.3762 7.33163C32.5479 7.23785 32.7222 7.13904 32.8901 7.04275C33.3191 6.79855 33.7626 6.54555 34.2296 6.34855C35.5926 5.77331 37.1514 5.82555 38.5068 6.49205C39.4224 6.94205 40.2107 7.60415 40.973 8.24359C41.1219 8.3682 41.2701 8.49282 41.4191 8.61555C42.3017 9.34247 43.2604 10.0719 44.4175 10.3023C45.9801 10.6132 47.5528 9.83841 48.8264 9.19771L48.9151 9.15555C49.0165 9.11904 49.1338 9.14736 49.2092 9.22981C49.2776 9.30408 49.2941 9.40415 49.2561 9.49415L49.1946 9.59799C48.4475 10.7674 47.5889 11.8234 46.6416 12.7367C44.74 14.57 42.5184 15.8086 40.2164 16.3178C39.3179 16.5167 38.413 16.6148 37.5215 16.6148L37.5208 16.6161ZM32.8141 15.3064L32.7551 15.4291L32.8147 15.3064C32.8147 15.3064 32.8147 15.3064 32.8141 15.3064Z" fill="#031107"/>
<path d="M12.2809 14.7209C13.6965 16.4158 14.7604 18.358 15.6209 20.3796C15.8667 20.9561 16.0961 21.5395 16.3173 22.1254C16.3737 22.2746 16.617 22.2104 16.5599 22.0587C15.7742 19.978 14.8675 17.9294 13.616 16.0797C13.2567 15.5485 12.8702 15.0362 12.459 14.544C12.3557 14.4201 12.1782 14.5975 12.2809 14.7209Z" fill="black"/>
<path d="M16.4428 22.3459C16.3395 22.3459 16.2343 22.2912 16.19 22.1728C15.9441 21.5208 15.7166 20.9512 15.4955 20.432C14.5305 18.1663 13.445 16.326 12.1758 14.8073C12.1137 14.733 12.0966 14.6349 12.1302 14.5449C12.1644 14.4536 12.2455 14.3844 12.3374 14.3686C12.4229 14.3542 12.5059 14.3863 12.5649 14.4568C12.9799 14.954 13.3721 15.4744 13.7301 16.0037C14.8112 17.6011 15.7236 19.4533 16.6887 22.0111C16.7387 22.1445 16.6779 22.2779 16.5423 22.3283C16.5106 22.3402 16.4764 22.3459 16.4422 22.3459H16.4428Z" fill="#031107"/>
<path d="M34.5048 33.723C36.0084 33.2365 37.4088 32.3919 38.3827 31.1363C39.4289 29.7863 39.9257 28.1266 40.4795 26.54C41.6904 23.0696 43.149 19.6836 44.8555 16.4254C45.8116 14.5996 46.847 12.8153 47.9642 11.082C48.0516 10.9461 47.8336 10.8202 47.7468 10.9555C45.7787 14.008 44.0653 17.2203 42.5902 20.5352C41.8564 22.1835 41.1809 23.8576 40.565 25.5531C39.9871 27.1429 39.5442 28.8252 38.6622 30.2854C37.7098 31.8613 36.1821 32.918 34.4389 33.4819C34.2855 33.5317 34.3508 33.7733 34.506 33.723H34.5048Z" fill="black"/>
<path d="M34.4666 33.8661C34.3601 33.8661 34.2651 33.7994 34.229 33.6893C34.1821 33.5464 34.2556 33.3985 34.3969 33.3532C36.2288 32.761 37.6633 31.6759 38.5454 30.2158C39.205 29.1245 39.6239 27.8846 40.0294 26.685C40.1606 26.2973 40.2955 25.8964 40.4368 25.5075C41.0515 23.8163 41.7339 22.1252 42.4658 20.4807C43.9764 17.0865 45.7145 13.8572 47.6326 10.8828C47.6839 10.8028 47.7701 10.7582 47.8639 10.7619C47.9608 10.7663 48.0521 10.8236 48.0958 10.9073C48.137 10.9866 48.1319 11.0773 48.0812 11.1559C46.9863 12.854 45.9426 14.6483 44.9788 16.4886C43.299 19.6959 41.8296 23.0926 40.6111 26.5849C40.5496 26.7612 40.4888 26.938 40.428 27.1155C39.9407 28.5347 39.4376 30.0018 38.4934 31.2196C37.5746 32.4047 36.211 33.3154 34.5496 33.8529C34.5217 33.8617 34.4945 33.8661 34.4672 33.8661H34.4666ZM34.464 33.5942C34.464 33.5942 34.4634 33.5942 34.4628 33.5942L34.5065 33.7233L34.464 33.5936V33.5942Z" fill="#031107"/>
<path d="M35.203 26.0108C36.0559 24.3946 36.5736 22.6298 37.3955 20.9985C38.1254 19.549 39.0277 18.1619 40.2139 17.0379C40.8691 16.4173 41.608 15.8911 42.4209 15.4928C42.566 15.4216 42.4387 15.2058 42.2936 15.2769C40.8286 15.995 39.6272 17.126 38.6647 18.425C37.6781 19.7567 36.938 21.2528 36.3189 22.7834C35.8969 23.8269 35.511 24.8874 34.9844 25.8849C34.909 26.0272 35.1263 26.1537 35.2018 26.0114L35.203 26.0108Z" fill="black"/>
<path d="M35.1036 26.2099C35.0124 26.2099 34.9224 26.1602 34.8724 26.0815C34.8223 26.0029 34.8185 25.9059 34.8629 25.8216C35.2779 25.0355 35.6112 24.1934 35.9337 23.3784C36.0193 23.1625 36.1048 22.9473 36.1916 22.732C36.9203 20.9301 37.6706 19.5361 38.5539 18.344C39.6235 16.9003 40.861 15.8272 42.2329 15.1544C42.383 15.0808 42.5345 15.1601 42.594 15.2796C42.658 15.408 42.6092 15.5515 42.4819 15.6145C41.7025 15.9965 40.9713 16.5088 40.3091 17.1363C39.261 18.1294 38.3479 19.4127 37.5185 21.0592C37.1301 21.8295 36.8037 22.6464 36.4882 23.4357C36.1378 24.3124 35.7753 25.2199 35.3248 26.0733C35.2811 26.1558 35.205 26.2049 35.1157 26.2087C35.1125 26.2087 35.1087 26.2087 35.1055 26.2087L35.1036 26.2099Z" fill="#031107"/>
<path d="M14.7974 15.6603C16.3086 16.4627 17.3953 17.8203 18.2514 19.2634C18.4992 19.6813 18.7298 20.1093 18.951 20.5423C19.0245 20.6858 19.2418 20.5593 19.1683 20.4158C18.3864 18.8852 17.4612 17.3577 16.1179 16.2462C15.7478 15.9397 15.3493 15.6697 14.9241 15.4438C14.7815 15.3676 14.6542 15.5835 14.7967 15.6596L14.7974 15.6603Z" fill="black"/>
<path d="M16.3021 30.5583C18.2893 30.1008 20.31 29.8119 22.3117 29.4286C22.8775 29.3204 23.4421 29.2039 24.0035 29.0743C23.9503 29.034 23.8971 28.9937 23.8438 28.9534C24.1131 31.2846 24.5884 33.5906 25.2715 35.8375C25.4673 36.4813 25.6808 37.1201 25.9095 37.7533C25.9286 37.7061 25.9482 37.6589 25.9672 37.6123C23.8584 38.6055 21.6628 39.4142 19.4115 40.0241C19.2689 40.0625 19.1263 40.1002 18.9831 40.1374C18.8462 40.1726 18.6986 40.2286 18.556 40.2355C18.2588 40.25 18.2094 39.8 18.1448 39.5873C17.9756 39.0334 17.8178 38.4758 17.6708 37.9157C17.3692 36.7664 17.1151 35.6046 16.9079 34.4346C16.6747 33.118 16.5043 31.7919 16.3927 30.4601C16.3794 30.3009 16.1272 30.2997 16.1412 30.4601C16.3478 32.9285 16.7584 35.3793 17.3755 37.7791C17.5295 38.3789 17.6968 38.9749 17.8761 39.5678C17.9484 39.8063 17.9965 40.1059 18.1537 40.3079C18.3076 40.5062 18.5421 40.5036 18.7683 40.4508C19.9627 40.1688 21.142 39.7956 22.2984 39.3884C23.5898 38.9334 24.8571 38.4116 26.0952 37.8288C26.1421 37.8068 26.1706 37.7357 26.1529 37.6878C25.3614 35.4995 24.7658 33.2426 24.3786 30.9492C24.2665 30.2871 24.1727 29.6218 24.096 28.9547C24.0865 28.8729 24.0232 28.8143 23.9364 28.8339C21.9492 29.2914 19.9285 29.5803 17.9268 29.9636C17.361 30.0718 16.7964 30.1883 16.235 30.3179C16.0772 30.3544 16.1437 30.5955 16.3021 30.559V30.5583Z" fill="black"/>
<path d="M30.8524 19.1036C27.6271 18.6694 24.2554 18.6241 21.1131 19.5662C19.6627 20.0011 18.2662 20.638 17.0223 21.5003C15.8672 22.3008 14.8324 23.3047 13.9466 24.391C13.1995 25.3067 12.5747 26.3125 12.1121 27.3994C11.6363 28.5178 11.334 29.6978 11.135 30.8936C10.6909 33.5634 10.5806 36.3421 11.1509 39.0018C11.5767 40.9862 12.4004 42.8869 13.6506 44.4981C14.572 45.6857 15.7081 46.7066 16.9951 47.4908C18.7636 48.5683 20.8122 49.1133 22.8893 49.0768C25.92 49.0246 28.812 47.7394 30.9861 45.6631C32.0753 44.6227 33.0049 43.3854 33.6316 42.0165C34.2766 40.6067 34.5542 39.0704 34.641 37.5322C34.8165 34.4118 34.2424 31.2694 34.6929 28.1609C34.8 27.4208 34.9692 26.6901 35.2138 25.9827C35.2664 25.8304 35.0237 25.7649 34.9711 25.916C33.9611 28.8362 34.3121 31.9686 34.404 34.9927C34.4502 36.5183 34.4395 38.0603 34.1448 39.5632C33.8445 41.0945 33.2216 42.5112 32.3041 43.7769C30.6116 46.1112 28.0877 47.8728 25.2579 48.5336C22.7898 49.1101 20.1151 48.8458 17.8594 47.6884C16.6656 47.076 15.582 46.2553 14.6581 45.2867C13.3788 43.9455 12.4302 42.3192 11.8409 40.5702C11.0134 38.1157 10.8886 35.4987 11.1281 32.9372C11.3537 30.5211 11.834 28.1036 13.1101 26.0009C13.7571 24.9354 14.5713 23.9825 15.4686 23.1171C16.5439 22.0799 17.7542 21.229 19.1114 20.5927C22.0091 19.2346 25.2528 18.9249 28.4179 19.1137C29.2099 19.1609 29.9995 19.239 30.7858 19.3453C30.9442 19.3667 31.0127 19.1257 30.853 19.1043L30.8524 19.1036Z" fill="black"/>
<path d="M22.6936 49.214C20.6431 49.214 18.6522 48.6595 16.9223 47.6059C15.6208 46.8129 14.4834 45.7952 13.5412 44.5799C12.3347 43.0247 11.4615 41.1051 11.0161 39.0289C10.4952 36.5995 10.4895 33.9309 10.999 30.8703C11.2207 29.5361 11.5439 28.383 11.9849 27.3452C12.4386 26.2797 13.0621 25.257 13.839 24.3047C14.7914 23.1372 15.8356 22.1554 16.9432 21.3882C18.1491 20.5524 19.5387 19.8954 21.0727 19.4353C23.8393 18.6058 27.0449 18.4535 30.8703 18.9683C30.9602 18.9802 31.0299 19.0319 31.0623 19.1099C31.0971 19.1936 31.08 19.2981 31.0198 19.3755C30.959 19.4535 30.8646 19.4926 30.7663 19.4793C29.9736 19.373 29.1809 19.2949 28.4085 19.249C24.7612 19.0312 21.7387 19.5102 19.1686 20.7148C17.8589 21.3284 16.6454 22.1693 15.5625 23.2134C14.5842 24.1568 13.82 25.0908 13.2262 26.0695C12.1465 27.8481 11.5414 29.9697 11.2632 32.9479C10.9933 35.8361 11.2245 38.3145 11.9697 40.5255C12.5647 42.2903 13.5279 43.904 14.7565 45.1917C15.6861 46.1665 16.7512 46.9652 17.921 47.5656C20.0823 48.6746 22.7449 48.9786 25.2251 48.3989C27.9453 47.7633 30.4844 46.0489 32.1914 43.695C33.1026 42.4388 33.7134 41.0391 34.0087 39.5349C34.3091 38.0042 34.3097 36.4478 34.2654 34.9946C34.2508 34.5163 34.2292 34.0254 34.2083 33.5508C34.0968 30.9943 33.9809 28.3509 34.8394 25.8693C34.8939 25.7126 35.0574 25.6635 35.1835 25.707C35.3204 25.7535 35.3882 25.8901 35.3419 26.0242C35.11 26.6938 34.937 27.4189 34.8268 28.1779C34.5682 29.9602 34.6513 31.7905 34.7311 33.5602C34.79 34.8643 34.8509 36.2124 34.7761 37.5379C34.6766 39.3039 34.3427 40.7867 33.7546 42.0712C33.152 43.3879 32.2269 44.6636 31.0794 45.7593C28.8033 47.9332 25.8948 49.1592 22.8901 49.2114C22.8242 49.2127 22.7583 49.2133 22.693 49.2133L22.6936 49.214Z" fill="#031107"/>
<path d="M38.1006 19.2996C36.0526 18.6444 33.7867 18.528 31.6849 18.9912C29.6908 19.4305 27.8614 20.5055 26.4325 21.9461C25.6367 22.7486 24.9643 23.6706 24.4486 24.6738C24.3751 24.8167 24.5924 24.9438 24.6659 24.8003C25.5644 23.0526 26.942 21.5628 28.6173 20.5225C29.4721 19.9913 30.3973 19.5772 31.3737 19.3235C32.4009 19.0567 33.4667 18.9497 34.5274 18.9705C35.7161 18.9938 36.9017 19.1794 38.0334 19.5413C38.188 19.591 38.2539 19.3493 38.1006 19.3003V19.2996Z" fill="black"/>
<path d="M24.5672 24.9988C24.5273 24.9988 24.4861 24.9893 24.4468 24.9692C24.3112 24.9006 24.2586 24.7432 24.3264 24.6111C24.8479 23.5965 25.5234 22.6676 26.3344 21.8494C27.8235 20.3477 29.7131 19.2853 31.6546 18.8574C33.7589 18.3935 36.0629 18.5043 38.1419 19.1695C38.2325 19.1985 38.2984 19.2702 38.3181 19.3609C38.3383 19.4553 38.3067 19.5572 38.2357 19.6208C38.1692 19.6806 38.0798 19.6988 37.9905 19.6699C36.893 19.3187 35.7264 19.1292 34.5238 19.1053C33.4275 19.0839 32.3795 19.201 31.4081 19.454C30.4792 19.6957 29.5648 20.0934 28.6897 20.6366C27.0264 21.6694 25.6774 23.1302 24.7877 24.8609C24.7427 24.949 24.6578 24.9981 24.5672 24.9981V24.9988Z" fill="#031107"/>
<path d="M18.3125 34.5866L19.0792 34.6961C19.0951 34.8125 19.2991 35.9718 20.1552 36.0052C21.1829 36.026 21.6588 34.6923 21.7177 34.2568C21.7735 33.9597 21.7754 33.4883 21.6468 33.0553C21.4903 32.5279 21.1886 32.205 20.6621 32.1572C19.6869 32.115 19.4657 33.1195 19.4657 33.1195L18.6629 33.0081C18.9639 31.8973 20.2249 31.3749 20.7622 31.475C20.7622 31.475 21.8571 31.7053 22.0377 31.7645C22.0377 31.7645 23.6041 32.3234 23.3126 34.4815C23.063 36.4974 21.3223 36.7415 21.3223 36.7415C21.1215 36.7674 20.0164 36.6648 20.0164 36.6648C19.3568 36.6201 18.4215 35.9529 18.3125 34.5878V34.5866Z" fill="black"/>
<path d="M20.6675 34.933C20.3982 35.159 19.9901 35.2037 19.6904 35.0067C19.6378 34.9721 19.6873 34.8877 19.7399 34.9223C20.0009 35.0942 20.3615 35.0627 20.5984 34.8638C20.6466 34.8235 20.7163 34.8921 20.6675 34.9324V34.933Z" fill="black"/>
<path d="M19.763 34.9644C19.763 34.9688 19.7643 34.9826 19.763 34.9669C19.7643 34.9763 19.7662 34.9851 19.7681 34.994C19.7744 35.0216 19.7826 35.0493 19.7921 35.0764C19.8194 35.1519 19.8612 35.2243 19.9176 35.2822C19.9886 35.354 20.0824 35.3993 20.185 35.3898C20.2908 35.3798 20.3852 35.3275 20.453 35.2476C20.5354 35.1507 20.5728 35.0223 20.5829 34.8983C20.588 34.836 20.6862 34.836 20.6812 34.8983C20.6602 35.1507 20.5291 35.4144 20.2617 35.4754C20.1337 35.505 20.0114 35.4798 19.9062 35.4012C19.8226 35.3382 19.7611 35.2514 19.7193 35.157C19.6958 35.1035 19.6584 35.0248 19.6648 34.9637C19.6711 34.9027 19.7693 34.9014 19.763 34.9637V34.9644Z" fill="black"/>
<path d="M19.9634 35.2374L19.9888 35.2204L19.9584 35.1978C19.8133 35.172 19.7404 35.1116 19.7322 35.0996C19.7347 35.1034 19.7322 35.1128 19.7227 35.1191V35.1317L19.7461 35.1556C19.7493 35.1852 19.7607 35.1764 19.805 35.194C19.8405 35.2085 19.8925 35.2261 19.9571 35.2368C19.959 35.2368 19.9609 35.2368 19.9634 35.2374Z" fill="black"/>
<path d="M20.5511 35.0635C20.4769 35.1239 20.4022 35.1623 20.3318 35.1862L20.3242 35.2126L20.3502 35.2214C20.4237 35.1963 20.4997 35.156 20.5758 35.0937L20.5511 35.0641V35.0635Z" fill="black"/>
<path d="M19.9498 33.1686C20.0861 33.1516 20.2286 33.2214 20.3161 33.3234C20.4092 33.4323 20.4308 33.5764 20.3972 33.713C20.3636 33.8495 20.2806 33.9635 20.2084 34.0805C20.1272 34.2114 20.048 34.3486 20.0132 34.5003C20.0062 34.5293 19.9929 34.5695 20.0043 34.5991C20.0145 34.6262 20.0449 34.6438 20.0709 34.6539C20.1539 34.686 20.2476 34.6646 20.3287 34.6394C20.3889 34.6211 20.4149 34.7149 20.3547 34.7332C20.2274 34.7722 20.0588 34.7949 19.953 34.6935C19.8529 34.5972 19.9245 34.4273 19.9695 34.3203C20.029 34.1787 20.112 34.0497 20.1931 33.92C20.2654 33.8049 20.3357 33.6702 20.3097 33.5298C20.28 33.3687 20.1127 33.246 19.9492 33.2661C19.8865 33.2737 19.8871 33.1761 19.9492 33.1686H19.9498Z" fill="black"/>
<path d="M20.8713 33.9804C21.242 33.9225 21.6108 33.8508 21.9758 33.7652C22.0372 33.7507 22.0632 33.8445 22.0018 33.859C21.6361 33.9439 21.268 34.0157 20.8973 34.0742C20.8358 34.0836 20.8092 33.9899 20.8713 33.9804Z" fill="black"/>
<path d="M20.3334 33.9612C20.3308 34.0676 20.3872 34.1714 20.488 34.2142C20.5868 34.2564 20.6996 34.2262 20.7699 34.1475C20.8403 34.0688 20.8555 33.9417 20.8042 33.8467C20.7554 33.756 20.6546 33.6994 20.5507 33.7145C20.4278 33.7321 20.3397 33.841 20.3334 33.9612C20.3302 34.0235 20.232 34.0242 20.2351 33.9612C20.2427 33.8133 20.334 33.6811 20.4766 33.6327C20.6179 33.5842 20.7737 33.6402 20.8618 33.7567C20.9505 33.8744 20.9556 34.0443 20.8758 34.1683C20.7959 34.2923 20.6451 34.3565 20.5 34.3212C20.3372 34.2816 20.2301 34.1249 20.2345 33.9618C20.2364 33.8995 20.334 33.8989 20.3327 33.9618L20.3334 33.9612Z" fill="black"/>
<path d="M19.6653 33.8327C19.6628 33.9416 19.7243 34.0441 19.8276 34.0863C19.9308 34.1285 20.05 34.0995 20.1247 34.0177C20.197 33.9378 20.2109 33.8157 20.159 33.7219C20.107 33.6281 20.0005 33.5721 19.8928 33.5866C19.768 33.603 19.6717 33.7093 19.6653 33.8333C19.6622 33.8956 19.564 33.8962 19.5671 33.8333C19.5754 33.6841 19.6704 33.5539 19.8143 33.5054C19.9581 33.4569 20.1209 33.5085 20.2128 33.6275C20.3041 33.7452 20.3129 33.9139 20.2306 34.0385C20.1482 34.1644 19.9942 34.2267 19.8466 34.1939C19.6793 34.1574 19.5627 34.0013 19.5665 33.8327C19.5684 33.7704 19.666 33.7697 19.6647 33.8327H19.6653Z" fill="black"/>
<path d="M19.8492 34.0795C19.9134 34.0517 19.9342 33.9581 19.8957 33.8705C19.8573 33.7829 19.7741 33.7344 19.7099 33.7622C19.6458 33.79 19.6249 33.8835 19.6634 33.9711C19.7019 34.0588 19.7851 34.1073 19.8492 34.0795Z" fill="black"/>
<path d="M20.7733 34.1871C20.755 34.1871 20.7359 34.1833 20.7176 34.1751C20.5541 34.1027 20.4217 34.1373 20.416 34.1386C20.3437 34.1581 20.2677 34.1159 20.2474 34.0442C20.2271 33.9725 20.2677 33.8982 20.3399 33.8768C20.3634 33.8699 20.5737 33.8132 20.8285 33.9259C20.8975 33.9561 20.9286 34.0366 20.8982 34.1052C20.8753 34.1562 20.8253 34.1864 20.7727 34.1864L20.7733 34.1871Z" fill="black"/>
<path d="M20.3833 34.1374C20.3332 34.1374 20.2851 34.1103 20.261 34.0631C20.2268 33.9964 20.2534 33.9139 20.3212 33.88C20.3427 33.8693 20.5398 33.7755 20.811 33.8397C20.8845 33.8573 20.9301 33.9303 20.9124 34.0039C20.8946 34.0769 20.8211 34.1223 20.747 34.1046C20.574 34.0637 20.4467 34.1223 20.4454 34.1229C20.4257 34.133 20.4042 34.138 20.3833 34.138V34.1374Z" fill="black"/>
<path d="M7.953 20.2054C8.58475 19.8687 8.84455 19.0738 9.45222 18.6962C9.49974 18.6666 9.55551 18.6389 9.60937 18.6534C9.67463 18.671 9.70822 18.7402 9.73293 18.8025C9.91859 19.2783 10.0269 19.7831 10.0523 20.2929C10.0605 20.4559 10.0631 20.6296 10.1524 20.7662C10.2608 20.9311 10.4661 20.9997 10.6555 21.0569C10.9774 21.1539 11.2993 21.2514 11.6212 21.3483C11.7663 21.3924 11.945 21.4881 11.9152 21.6353C11.9006 21.7065 11.8392 21.7574 11.7809 21.8015C11.4191 22.0746 11.0351 22.3182 10.6333 22.529C10.4914 22.6033 10.3431 22.6776 10.2443 22.8034C10.1518 22.9211 10.1138 23.0716 10.0783 23.2163C9.99146 23.5694 9.90528 23.9231 9.81847 24.2762C9.79503 24.3718 9.73166 24.4933 9.63598 24.4669C9.6119 24.4599 9.59162 24.4442 9.57198 24.4291C9.16138 24.1025 8.77041 23.7525 8.40099 23.3806C8.3541 23.334 8.30468 23.2843 8.24068 23.2673C8.1469 23.2421 8.05185 23.2912 7.96504 23.3346C7.56901 23.536 7.13242 23.6575 6.68823 23.6909C6.60903 23.6972 6.52032 23.6972 6.46075 23.6443C6.37204 23.5656 6.40056 23.4234 6.43604 23.3107C6.57608 22.8683 6.71612 22.4258 6.85615 21.9834C6.8777 21.916 6.89861 21.8455 6.88403 21.7763C6.86883 21.7083 6.82067 21.6536 6.77505 21.6013C6.4766 21.2609 6.20413 20.8927 6.0229 20.4785C5.98995 20.4037 5.9608 20.3168 5.99756 20.2438C6.0267 20.1853 6.0907 20.1532 6.1528 20.1311C6.43731 20.0304 6.7497 20.0644 7.05005 20.0997C7.29971 20.1292 7.54937 20.1588 7.79903 20.1884L7.9511 20.2035L7.953 20.2054Z" fill="#FAEA4E"/>
<path d="M11.7675 21.2618C11.528 21.1894 11.2891 21.1171 11.0496 21.0453C10.8424 20.983 10.6092 20.9396 10.4185 20.8338C10.2037 20.7149 10.1923 20.5148 10.1796 20.2932C10.1669 20.0666 10.1409 19.8407 10.0991 19.6173C10.0554 19.3857 9.99457 19.1578 9.91726 18.935C9.86721 18.7915 9.81651 18.5788 9.64479 18.5329C9.48638 18.4901 9.33367 18.6191 9.21961 18.7104C9.08021 18.8224 8.95918 18.9539 8.84639 19.0917C8.62018 19.3687 8.42438 19.6758 8.15381 19.9143C8.08981 19.9704 7.99793 20.0622 7.90986 20.0748C7.82685 20.0868 7.71216 20.0522 7.62852 20.0427C7.43652 20.0207 7.24452 19.9993 7.05253 19.9766C6.83645 19.9515 6.61911 19.9276 6.40113 19.9521C6.23702 19.971 6.01651 20.0056 5.91259 20.1504C5.8112 20.2907 5.87457 20.4518 5.93857 20.5928C6.03615 20.8062 6.15908 21.0082 6.29531 21.1989C6.40684 21.3556 6.5285 21.5035 6.65269 21.6501C6.74331 21.7571 6.77689 21.8138 6.73697 21.9522C6.73253 21.9686 6.72683 21.9843 6.72176 22.0007C6.6641 22.1838 6.6058 22.3664 6.54814 22.5495C6.48034 22.7641 6.41254 22.9787 6.34411 23.1927C6.29025 23.3627 6.21611 23.5584 6.35424 23.7126C6.44042 23.8089 6.56842 23.824 6.69071 23.8164C6.91376 23.8032 7.13807 23.7623 7.35351 23.7038C7.55184 23.6503 7.74511 23.5779 7.93077 23.4917C8.04546 23.4382 8.16078 23.34 8.27801 23.4338C8.36545 23.5036 8.44022 23.5955 8.52133 23.6729C8.68925 23.8347 8.86097 23.992 9.03712 24.1443C9.19554 24.2815 9.35775 24.4483 9.53834 24.5572C9.76645 24.6944 9.90776 24.4502 9.95275 24.2639C10.0129 24.0185 10.0731 23.7736 10.1333 23.5282C10.1897 23.2972 10.2214 22.9869 10.4001 22.8214C10.5636 22.6697 10.8044 22.5829 10.9964 22.4715C11.2251 22.3387 11.4482 22.1958 11.6636 22.0422C11.7979 21.9466 12.002 21.8371 12.0394 21.6621C12.0805 21.4708 11.9323 21.3235 11.7675 21.2606C11.6161 21.2027 11.5508 21.4443 11.7004 21.5016C11.9551 21.5992 11.5324 21.8301 11.4431 21.8918C11.272 22.0101 11.0971 22.1222 10.9178 22.2273C10.6162 22.4048 10.2208 22.5319 10.0605 22.8667C9.98633 23.0215 9.95465 23.1959 9.9141 23.362C9.86277 23.571 9.81208 23.7793 9.76075 23.9883C9.74174 24.0663 9.7221 24.145 9.70309 24.223C9.69865 24.2419 9.69675 24.2677 9.68788 24.2853C9.68661 24.2878 9.68725 24.2916 9.68598 24.2935C9.64289 24.3697 9.63085 24.3149 9.57192 24.2671C9.24686 24.0046 8.9351 23.7264 8.63666 23.435C8.51943 23.3205 8.40411 23.1613 8.22922 23.1392C8.0575 23.1178 7.90289 23.2311 7.75335 23.2978C7.56072 23.3841 7.35731 23.4489 7.15201 23.4955C7.0614 23.5162 6.97015 23.5332 6.87891 23.5458C6.79907 23.5565 6.6679 23.5905 6.58933 23.5659C6.4626 23.5263 6.58363 23.2689 6.61087 23.1827C6.67424 22.9831 6.73697 22.7843 6.80033 22.5848C6.85356 22.4161 6.90742 22.2468 6.96065 22.0781C6.97269 22.041 6.98599 22.0032 6.9955 21.9655C7.04999 21.7534 6.96508 21.6287 6.83075 21.472C6.57856 21.1781 6.34664 20.8641 6.17936 20.5141C6.1274 20.4059 6.0672 20.2951 6.21547 20.2429C6.32003 20.2064 6.43092 20.1931 6.54117 20.19C6.74014 20.1843 6.93847 20.2114 7.13554 20.2347C7.29965 20.2536 7.46377 20.2718 7.62852 20.2907C7.81798 20.3121 7.96562 20.353 8.13227 20.2429C8.38763 20.0736 8.58153 19.8382 8.76655 19.599C8.88441 19.4467 8.99784 19.2913 9.12583 19.1471C9.18476 19.0804 9.24686 19.0162 9.31276 18.9571C9.35838 18.9155 9.48828 18.7777 9.55355 18.7815C9.63529 18.7865 9.67077 18.9911 9.69232 19.0559C9.7297 19.1679 9.76265 19.2806 9.7918 19.3951C9.85136 19.6317 9.89382 19.8728 9.91473 20.1157C9.94831 20.5009 9.9312 20.8748 10.331 21.0692C10.5173 21.1599 10.7245 21.2077 10.9216 21.2669C11.1808 21.3449 11.4399 21.4236 11.6991 21.5016C11.8543 21.5488 11.9209 21.3071 11.7663 21.2606L11.7675 21.2618Z" fill="black"/>
<path d="M41.3791 34.7074C41.6535 34.5614 41.7662 34.2158 42.0298 34.0522C42.0508 34.0396 42.0748 34.0277 42.0983 34.034C42.1268 34.0415 42.1414 34.0717 42.1515 34.0988C42.232 34.3052 42.2789 34.5249 42.2903 34.7458C42.2941 34.8169 42.2947 34.8918 42.334 34.9516C42.3809 35.0233 42.4702 35.0529 42.5526 35.0781C42.6926 35.1203 42.832 35.1624 42.9721 35.2046C43.0348 35.2235 43.1128 35.265 43.1001 35.3292C43.0937 35.36 43.0671 35.3821 43.0418 35.4016C42.8846 35.5199 42.718 35.6256 42.5437 35.7175C42.4823 35.7496 42.4176 35.7823 42.3752 35.8365C42.3353 35.8875 42.3188 35.9529 42.3029 36.0158C42.2656 36.1694 42.2275 36.3223 42.1902 36.4759C42.18 36.5175 42.1521 36.5703 42.111 36.559C42.1008 36.5558 42.0919 36.5496 42.0831 36.5426C41.905 36.401 41.7352 36.2487 41.5749 36.0876C41.5546 36.0675 41.5331 36.0461 41.5052 36.0385C41.4646 36.0278 41.4228 36.0486 41.3854 36.0681C41.2137 36.1556 41.0236 36.2084 40.831 36.2229C40.7968 36.2254 40.7581 36.2254 40.7321 36.2028C40.6935 36.1688 40.7061 36.1071 40.7214 36.058C40.7822 35.8661 40.843 35.6741 40.9038 35.4821C40.9134 35.4532 40.9222 35.4223 40.9159 35.3921C40.9096 35.3626 40.8886 35.3386 40.8684 35.316C40.7391 35.1681 40.6206 35.0082 40.542 34.8282C40.5281 34.7955 40.5148 34.7577 40.5306 34.7263C40.5433 34.7011 40.5712 34.6866 40.5978 34.6772C40.7214 34.6337 40.857 34.6482 40.9875 34.664C41.0958 34.6765 41.2042 34.6898 41.3126 34.7023L41.3785 34.7086L41.3791 34.7074Z" fill="#FAEA4E"/>
<path d="M43.0512 35.0985C42.9499 35.0676 42.8485 35.0374 42.7471 35.0066C42.6609 34.9808 42.5272 34.9663 42.4588 34.9033C42.3916 34.841 42.4119 34.6919 42.4018 34.6044C42.3897 34.4993 42.3707 34.3942 42.3441 34.2916C42.3086 34.1557 42.2624 33.9064 42.078 33.9102C41.9252 33.9133 41.7896 34.0801 41.7016 34.1884C41.6477 34.2551 41.5977 34.3256 41.5432 34.3923C41.4982 34.4471 41.4297 34.5465 41.3607 34.5717C41.2948 34.5956 41.1769 34.5603 41.1091 34.5528C41.0166 34.5421 40.9241 34.5282 40.8316 34.5245C40.6871 34.5182 40.4659 34.5339 40.4064 34.6925C40.3506 34.8429 40.5052 35.0487 40.5863 35.1639C40.6503 35.2545 40.7954 35.3634 40.7701 35.4767C40.7505 35.5654 40.7143 35.6536 40.6865 35.7404C40.6383 35.8921 40.4989 36.1558 40.6421 36.2905C40.76 36.4019 40.9874 36.3345 41.1243 36.2987C41.2137 36.2754 41.3005 36.242 41.3847 36.2043C41.4044 36.1954 41.438 36.1678 41.4544 36.1665C41.4773 36.1646 41.4576 36.1659 41.4817 36.1759C41.5197 36.1917 41.5647 36.2584 41.5958 36.2873C41.6674 36.3553 41.7402 36.4214 41.815 36.4862C41.8828 36.5447 41.9588 36.6278 42.0412 36.6668C42.1698 36.7273 42.2744 36.6247 42.308 36.5089C42.3378 36.4063 42.3593 36.3005 42.3846 36.1967C42.4075 36.1042 42.4208 35.9645 42.4886 35.8952C42.5646 35.8172 42.7078 35.7712 42.8016 35.714C42.8985 35.6548 42.9929 35.5912 43.0836 35.5239C43.1507 35.4736 43.2173 35.4182 43.223 35.3275C43.2287 35.2312 43.164 35.1513 43.081 35.1117C42.9353 35.0431 42.8073 35.2589 42.9537 35.3275C42.9866 35.2829 42.9815 35.2803 42.9385 35.3206C42.9137 35.3382 42.8897 35.3559 42.8643 35.3735C42.8269 35.3993 42.7895 35.4245 42.7509 35.449C42.6616 35.5063 42.5697 35.5585 42.4765 35.6089C42.3067 35.7014 42.225 35.7989 42.1768 35.9859C42.1559 36.0689 42.1363 36.152 42.1153 36.2357C42.1014 36.2917 42.0913 36.4302 42.0482 36.4667C42.078 36.4547 42.1077 36.4422 42.1369 36.4302C42.1179 36.4321 42.0241 36.3364 42.0095 36.3238C41.9576 36.2798 41.9062 36.2345 41.8562 36.1879C41.7687 36.108 41.6838 35.9884 41.5774 35.9361C41.4697 35.8826 41.3771 35.9336 41.2777 35.9796C41.144 36.0412 40.9963 36.0834 40.8493 36.096C40.8417 36.0966 40.8347 36.0973 40.8271 36.0979C40.7866 36.0929 40.7872 36.1017 40.8284 36.1243C40.829 36.1231 40.8297 36.1205 40.8297 36.1193C40.8354 36.1086 40.8347 36.0935 40.8411 36.0834C40.8728 36.0318 40.8835 35.9487 40.9019 35.8915C40.9393 35.7725 40.9792 35.6536 41.0153 35.534C41.0806 35.3168 40.9323 35.2187 40.8151 35.0557C40.7783 35.0047 40.7441 34.9512 40.7131 34.8964C40.6972 34.8687 40.6852 34.8272 40.6643 34.8033C40.6611 34.7964 40.6586 34.7894 40.6554 34.7825C40.6478 34.7498 40.6396 34.7542 40.6313 34.797C40.6896 34.7951 40.7473 34.7731 40.8088 34.7743C40.8842 34.7756 40.9596 34.7869 41.0337 34.7951C41.1376 34.8071 41.2517 34.8354 41.3562 34.8316C41.4671 34.8278 41.5622 34.7397 41.6357 34.6654C41.7079 34.5924 41.7681 34.5094 41.8302 34.4288C41.8689 34.3791 41.9069 34.3294 41.95 34.2828C41.962 34.2696 42.0894 34.1613 42.0894 34.1619C42.0792 34.1575 42.0685 34.1531 42.0583 34.1494C42.0197 34.1248 42.0146 34.1343 42.0431 34.1783C42.0482 34.2198 42.0754 34.2733 42.0875 34.3136C42.1096 34.3898 42.1267 34.4672 42.1401 34.5452C42.1629 34.685 42.1401 34.8486 42.2028 34.9789C42.2573 35.094 42.3644 35.1488 42.4803 35.1891C42.6457 35.2457 42.8162 35.291 42.9834 35.3414C43.1387 35.3886 43.2052 35.1469 43.0506 35.1003L43.0512 35.0985Z" fill="black"/>
<path d="M32.6158 43.6329C33.3148 43.7903 34.0365 43.3585 34.7443 43.4693C34.7994 43.4781 34.8602 43.4932 34.8913 43.5398C34.9287 43.5952 34.9084 43.6701 34.8862 43.733C34.7126 44.2132 34.461 44.6651 34.1436 45.066C34.0422 45.1944 33.9294 45.3272 33.9072 45.4889C33.88 45.684 33.9896 45.8697 34.0954 46.0365C34.2741 46.3197 34.4534 46.6023 34.6321 46.8855C34.7126 47.0133 34.7848 47.2021 34.6651 47.294C34.6074 47.3387 34.5269 47.3368 34.4541 47.3317C34.001 47.3022 33.5498 47.2361 33.1076 47.1341C32.9517 47.0982 32.7901 47.0573 32.633 47.0882C32.4853 47.1171 32.358 47.2059 32.235 47.2921C31.9366 47.5023 31.6381 47.7131 31.339 47.9233C31.2579 47.9806 31.1299 48.0303 31.0754 47.9485C31.0615 47.9278 31.0571 47.9026 31.0526 47.8787C30.9582 47.3651 30.8936 46.8459 30.86 46.3247C30.8556 46.2593 30.8511 46.1894 30.8137 46.1347C30.7599 46.0547 30.6553 46.0296 30.5609 46.0063C30.1288 45.8999 29.7188 45.708 29.3614 45.4443C29.2974 45.3971 29.2302 45.3398 29.2201 45.2611C29.2049 45.144 29.3202 45.0547 29.4216 44.993C29.8195 44.7501 30.2168 44.5071 30.6148 44.2642C30.675 44.2271 30.7383 44.188 30.7719 44.1257C30.8055 44.0647 30.8055 43.9923 30.8049 43.9224C30.8049 43.4712 30.8416 43.0155 30.9779 42.585C31.0026 42.5076 31.0381 42.4226 31.1135 42.3912C31.1743 42.366 31.244 42.3836 31.3055 42.4075C31.5868 42.5164 31.8003 42.7461 32.0037 42.9683C32.1729 43.1533 32.3421 43.3384 32.5113 43.5228L32.6165 43.6329H32.6158Z" fill="#FAEA4E"/>
<path d="M34.8017 46.9193C34.6686 46.7091 34.5355 46.4982 34.4025 46.288C34.2802 46.0942 34.104 45.8871 34.0451 45.6637C33.9855 45.4365 34.1351 45.2785 34.265 45.1111C34.3948 44.9437 34.5146 44.7694 34.6217 44.5868C34.7231 44.4138 34.8137 44.2344 34.8929 44.05C34.9613 43.8908 35.1064 43.6472 34.9987 43.4766C34.9138 43.3426 34.7243 43.3356 34.583 43.3281C34.3746 43.3174 34.1648 43.347 33.9602 43.3841C33.7631 43.42 33.5679 43.4672 33.3702 43.5018C33.2574 43.5213 33.1447 43.5364 33.03 43.5415C32.9394 43.5452 32.7784 43.5641 32.6929 43.5219C32.6263 43.4892 32.5674 43.3954 32.5173 43.3413C32.4483 43.2664 32.3792 43.1915 32.3101 43.1166C32.1802 42.9763 32.0535 42.8315 31.9192 42.6956C31.7284 42.503 31.3102 42.1065 31.015 42.3035C30.8813 42.3929 30.8445 42.5779 30.8077 42.722C30.7469 42.9605 30.7127 43.2066 30.6943 43.4521C30.6874 43.5503 30.6829 43.6484 30.6804 43.7466C30.6779 43.8542 30.7108 44.0185 30.6297 44.1028C30.5942 44.14 30.5283 44.1708 30.4827 44.1985C30.3173 44.2992 30.1519 44.4005 29.9865 44.5012C29.7964 44.617 29.607 44.7329 29.4169 44.8487C29.2749 44.9355 29.1159 45.0211 29.0956 45.2055C29.0785 45.3603 29.1812 45.4667 29.2971 45.5523C29.4752 45.6845 29.6678 45.7984 29.8687 45.8921C30.0474 45.9759 30.233 46.0463 30.4231 46.0998C30.4941 46.12 30.591 46.1275 30.6563 46.1659C30.7704 46.232 30.7406 46.4485 30.7501 46.5649C30.7868 47.008 30.8179 47.4807 30.9294 47.9118C30.9966 48.1724 31.2469 48.1403 31.4249 48.015C31.6214 47.8766 31.8184 47.7375 32.0149 47.599C32.1866 47.4782 32.3735 47.3126 32.5693 47.2359C32.8133 47.1402 33.1168 47.268 33.3626 47.3158C33.6066 47.363 33.8524 47.3995 34.0989 47.4259C34.2776 47.4454 34.5323 47.5096 34.7009 47.4177C34.8878 47.3164 34.8878 47.0867 34.8017 46.9193C34.7275 46.7758 34.5102 46.9023 34.5843 47.0458C34.654 47.1805 34.5596 47.2107 34.4525 47.2063C34.3442 47.2012 34.2358 47.1899 34.1281 47.1786C33.9038 47.1553 33.6801 47.1219 33.4583 47.0798C33.0857 47.0087 32.7169 46.8626 32.3596 47.0603C32.0383 47.2377 31.743 47.4845 31.4439 47.6953C31.3863 47.7356 31.3292 47.7765 31.2716 47.8168C31.2589 47.8256 31.2462 47.835 31.2336 47.8438C31.2241 47.8501 31.2133 47.8608 31.2044 47.8627C31.1797 47.8898 31.1689 47.8835 31.1715 47.8451C31.1645 47.8054 31.1569 47.7658 31.1499 47.7261C31.0758 47.3019 31.0232 46.874 30.9915 46.4441C30.9807 46.2968 30.9877 46.1269 30.8743 46.0149C30.7615 45.9035 30.5834 45.8871 30.4377 45.8437C30.081 45.738 29.702 45.5699 29.415 45.3301C29.2528 45.1942 29.4917 45.096 29.5975 45.0312C29.7692 44.9261 29.9409 44.8216 30.1126 44.7165C30.271 44.6196 30.4295 44.5226 30.5879 44.4263C30.7292 44.3401 30.8736 44.2602 30.9161 44.0865C30.9598 43.9071 30.9294 43.695 30.9414 43.5106C30.9554 43.2866 30.9839 43.0638 31.0359 42.8454C31.0549 42.7648 31.0663 42.649 31.1119 42.5798C31.1822 42.4722 31.2811 42.5263 31.3761 42.5798C31.5428 42.6729 31.6809 42.8082 31.8108 42.9454C32.0402 43.1884 32.2499 43.4628 32.4964 43.6887C32.6073 43.7907 32.7809 43.7907 32.9241 43.7926C33.1142 43.7951 33.3043 43.7674 33.4913 43.7328C33.7061 43.6931 33.919 43.6396 34.1351 43.6063C34.2491 43.5887 34.744 43.5031 34.7801 43.6503C34.7959 43.7164 34.6965 43.8769 34.6699 43.9386C34.6287 44.0342 34.5843 44.128 34.5368 44.2205C34.4367 44.4156 34.3232 44.6032 34.1978 44.7826C33.964 45.1168 33.6585 45.3949 33.8398 45.8305C33.9259 46.0375 34.066 46.2251 34.1851 46.4139C34.3182 46.6241 34.4512 46.8349 34.5843 47.0452C34.6705 47.1811 34.8885 47.0559 34.8017 46.9187V46.9193Z" fill="black"/>
<path d="M8.9942 37.2825C9.07151 36.6997 8.65963 36.1433 8.69765 35.5568C8.70082 35.5108 8.70906 35.4605 8.74454 35.4315C8.78763 35.3963 8.851 35.4076 8.90486 35.4215C9.31546 35.5266 9.70833 35.6978 10.0644 35.9268C10.1785 35.9999 10.297 36.0817 10.4326 36.088C10.5961 36.0955 10.7412 35.9917 10.8717 35.8929C11.0922 35.7254 11.3127 35.558 11.5339 35.39C11.6334 35.3145 11.7842 35.2415 11.8697 35.3321C11.9109 35.3761 11.9153 35.4416 11.9172 35.5014C11.9274 35.874 11.9065 36.2472 11.8558 36.616C11.838 36.7463 11.8165 36.881 11.8539 37.0075C11.8887 37.1258 11.9717 37.2233 12.0528 37.3171C12.2499 37.545 12.4463 37.7728 12.6434 38.0006C12.6966 38.0623 12.748 38.163 12.684 38.214C12.6681 38.2266 12.6472 38.2329 12.6276 38.2379C12.2093 38.3537 11.7848 38.4456 11.3558 38.5129C11.302 38.5211 11.2449 38.5306 11.2025 38.5652C11.1404 38.6155 11.1277 38.7024 11.1157 38.781C11.0605 39.1417 10.9325 39.4916 10.7418 39.8031C10.7076 39.8592 10.6651 39.9183 10.6011 39.9322C10.5055 39.9536 10.4231 39.8661 10.3642 39.788C10.1329 39.4815 9.90159 39.1757 9.67031 38.8692C9.63546 38.8226 9.59744 38.7741 9.54421 38.7515C9.49098 38.7288 9.43079 38.7345 9.37376 38.7395C9.00054 38.7741 8.62035 38.7785 8.25346 38.6999C8.18756 38.6854 8.11406 38.6634 8.08238 38.6036C8.05703 38.5557 8.0659 38.4978 8.08111 38.4456C8.15018 38.2077 8.3238 38.0157 8.49235 37.8332C8.63239 37.6809 8.77306 37.5292 8.9131 37.3769L8.99674 37.2825H8.9942Z" fill="#FAEA4E"/>
<path d="M11.545 35.2243C11.3809 35.3489 11.2168 35.4735 11.0527 35.5981C10.9076 35.7083 10.7644 35.8417 10.5996 35.9223C10.4013 36.0192 10.2441 35.8908 10.08 35.7895C9.9235 35.6925 9.76065 35.6063 9.59273 35.5314C9.43115 35.4597 9.26577 35.3967 9.09659 35.3458C8.97239 35.3086 8.80004 35.2394 8.67964 35.3244C8.44773 35.488 8.59727 35.9732 8.6581 36.1904C8.69992 36.3389 8.74998 36.4855 8.7918 36.6341C8.83679 36.7927 8.92106 37.0312 8.87481 37.1961C8.84059 37.3201 8.67014 37.4497 8.58523 37.5429C8.47307 37.6656 8.35712 37.7858 8.25003 37.913C8.10302 38.0879 7.82041 38.4441 7.98199 38.6827C8.06057 38.7979 8.20377 38.8211 8.3324 38.8425C8.5187 38.874 8.70752 38.8879 8.89635 38.8885C8.9952 38.8885 9.09405 38.8847 9.1929 38.879C9.26831 38.874 9.38173 38.8444 9.45713 38.8602C9.5243 38.8746 9.55725 38.9319 9.59527 38.981C9.69665 39.1138 9.79677 39.2479 9.89689 39.3813C10.0059 39.526 10.1155 39.6708 10.2245 39.8155C10.3176 39.9389 10.4209 40.0793 10.5983 40.0579C10.7251 40.0427 10.7998 39.9446 10.8619 39.8432C10.9576 39.6859 11.0356 39.5172 11.0989 39.3441C11.1553 39.19 11.1978 39.0307 11.2263 38.869C11.239 38.7985 11.2333 38.6915 11.3068 38.6506C11.3847 38.6065 11.5355 38.6103 11.6217 38.5952C11.7966 38.5644 11.9708 38.5291 12.1438 38.4895C12.3231 38.4486 12.5348 38.4215 12.7027 38.3447C12.9036 38.2522 12.8421 38.0426 12.7268 37.9073C12.5962 37.7544 12.4638 37.6027 12.332 37.451C12.2135 37.3138 12.0266 37.1483 11.974 36.9752C11.9138 36.7782 11.9955 36.5258 12.0145 36.3251C12.0348 36.1104 12.045 35.8946 12.0443 35.6787C12.0443 35.5409 12.0646 35.3577 11.9601 35.2476C11.8492 35.1299 11.6717 35.145 11.5456 35.2249C11.4094 35.3111 11.5355 35.5276 11.673 35.4408C11.77 35.3797 11.789 35.4477 11.7909 35.532C11.7934 35.6202 11.7934 35.7083 11.7915 35.797C11.7883 35.9732 11.7788 36.1495 11.7624 36.3257C11.7332 36.6372 11.635 36.9563 11.8264 37.2358C11.9987 37.4881 12.2275 37.7134 12.4271 37.9451C12.467 37.991 12.5037 38.0432 12.5481 38.0848C12.5532 38.0892 12.5772 38.1125 12.5785 38.12C12.5791 38.1251 12.5931 38.1263 12.5931 38.1194C12.5931 38.1269 12.4302 38.1634 12.422 38.1653C12.0976 38.2497 11.7693 38.3202 11.4386 38.3755C11.3125 38.3963 11.175 38.4039 11.0856 38.5065C11.0013 38.6027 10.9982 38.7381 10.9747 38.8576C10.9449 39.01 10.9025 39.1597 10.848 39.3045C10.8163 39.3882 10.7796 39.47 10.739 39.55C10.7111 39.6047 10.6623 39.7407 10.6104 39.7746C10.5052 39.8426 10.419 39.6569 10.3709 39.5934C10.2676 39.4568 10.1643 39.3196 10.061 39.183C9.90956 38.9823 9.72073 38.6109 9.43686 38.6116C9.08645 38.6128 8.75125 38.6613 8.40084 38.6027C8.32987 38.5908 8.2025 38.5864 8.19553 38.5039C8.18983 38.4397 8.257 38.3378 8.28741 38.2862C8.36725 38.1521 8.47371 38.0376 8.57889 37.923C8.66951 37.8248 8.75948 37.726 8.84946 37.6272C8.9312 37.5372 9.0535 37.4416 9.10356 37.3295C9.20494 37.1023 9.08645 36.7417 9.02055 36.5189C8.97239 36.3546 8.916 36.1923 8.87481 36.0255C8.85326 35.938 8.83425 35.8493 8.82602 35.7599C8.82285 35.724 8.79877 35.5522 8.81968 35.5346C8.84819 35.51 9.04589 35.5925 9.08265 35.6038C9.17072 35.6315 9.25753 35.6623 9.34308 35.6963C9.52113 35.7668 9.69349 35.8524 9.85887 35.9487C10.1453 36.1155 10.3905 36.31 10.727 36.1388C10.8822 36.0595 11.0178 35.938 11.1553 35.8329C11.3277 35.702 11.5 35.5711 11.6724 35.4402C11.7991 35.3439 11.6743 35.1261 11.545 35.2243Z" fill="black"/>
</svg>
