<svg width="67" height="91" viewBox="0 0 67 91" fill="none" xmlns="http://www.w3.org/2000/svg">
<path d="M58.9972 74.9143C58.5532 71.4701 56.1756 67.8441 55.0335 66.2691C54.774 65.9111 54.3451 65.7325 53.9218 65.7766C51.6193 61.452 50.169 57.4743 49.2593 51.7415C48.9303 49.6693 48.6523 47.6372 48.3832 45.672C47.5286 39.4302 46.8538 34.4998 45.2229 32.8941C44.1999 31.8871 40.8088 29.3571 36.8131 26.816L36.2908 11.0596C36.2653 10.2847 35.9346 9.5656 35.3604 9.03614C34.7838 8.50432 34.0354 8.22976 33.2496 8.25336L16.1944 8.8017C15.4077 8.82687 14.6778 9.15258 14.1403 9.71823C13.602 10.2839 13.3201 11.0226 13.3456 11.7975L13.5932 19.2619C13.0797 19.4672 12.7307 19.7615 12.5773 20.1485C11.9408 21.7542 12.9455 22.8076 13.7306 23.4063L13.7833 24.9931C12.7299 24.5659 11.0679 24.0546 9.85072 24.4487C9.27809 24.6336 8.8588 24.9971 8.60483 25.5281C8.23905 26.2912 8.22308 27.0583 8.55611 27.8072C9.19583 29.2446 11.1669 30.5733 13.9765 31.4655L14.0021 31.5725L14.0963 34.4031C12.8089 33.994 10.6941 33.4858 9.37074 34.0247C8.86759 34.23 8.51378 34.5683 8.32131 35.0309C7.92758 35.9741 7.89643 36.6995 8.22387 37.3131C8.8021 38.3964 10.536 39.191 14.284 40.0548L14.2912 40.268C12.4847 39.7976 11.2196 39.7472 10.7708 40.8667C10.5759 41.3529 10.6166 41.8808 10.8922 42.4355C11.8002 44.2614 15.0779 46.1 19.8842 47.4799C25.5378 49.1037 26.8971 49.6945 27.1519 49.8188C27.3763 50.2216 28.6062 52.5227 29.1804 55.5178C29.6157 57.7882 30.9399 64.6972 34.664 68.0706C36.3371 69.5859 37.8178 71.4598 39.0885 73.6587C39.0302 73.809 39.003 73.971 39.011 74.1378C39.0781 75.5272 39.6523 79.1012 43.4555 83.2527C43.9754 83.82 59.2624 76.9551 58.9988 74.9143H58.9972Z" fill="black" stroke="white" stroke-width="15" stroke-miterlimit="10"/>
<path d="M54.9813 72.9661C56.1864 72.4917 56.6744 71.0701 56.0123 69.971C52.4016 63.9747 50.2093 59.4369 48.9946 51.7829C47.6425 43.2667 47.105 35.1194 45.0325 33.0795C42.96 31.0395 32.3619 23.6546 25.6269 21.2378C18.8927 18.821 13.4778 18.585 12.8198 20.245C12.1617 21.9049 13.4427 22.9174 14.3548 23.5319L14.6638 25.6875C14.6638 25.6875 10.0069 23.2038 8.83928 25.6411C7.67245 28.0783 10.5931 30.1497 14.195 31.2629L15.0927 35.0384C15.0927 35.0384 9.55088 32.7585 8.56055 35.1312C7.56943 37.504 8.79535 38.6353 15.4968 40.0584C15.4968 40.0584 26.4902 42.7821 27.0405 43.2328C27.0405 43.2328 24.6997 43.45 19.9054 42.1999C15.1111 40.9498 11.7248 39.1852 11.0116 40.964C10.2984 42.7427 13.3548 45.3365 19.9533 47.2309C26.5517 49.1254 27.3408 49.6273 27.3408 49.6273C27.3408 49.6273 28.7896 52.0976 29.4357 55.471C30.0826 58.8445 31.469 64.8283 34.8377 67.8807C37.6051 70.388 39.4699 73.4766 40.7685 76.3906C41.2269 77.4189 42.4233 77.9106 43.4815 77.4936L54.9805 72.9676L54.9813 72.9661Z" fill="#FAEA4E"/>
<path d="M42.7004 77.9028C41.7859 77.9028 40.9218 77.3765 40.528 76.4938C38.9866 73.0354 37.0124 70.2016 34.6603 68.0712C30.9362 64.6977 29.6121 57.7888 29.1768 55.5183C28.6026 52.5233 27.3727 50.2221 27.1482 49.8193C26.8927 49.695 25.5342 49.1042 19.8805 47.4804C15.0735 46.1005 11.7958 44.2612 10.8885 42.436C10.613 41.8814 10.5723 41.3535 10.7671 40.8673C11.3853 39.3261 13.5512 40.0027 16.5486 40.9397C17.5716 41.2598 18.7313 41.6225 19.9748 41.9467C22.4226 42.5855 24.2316 42.8372 25.4024 42.9316C23.0743 42.2472 18.5316 41.0781 15.4344 40.3111C10.8805 39.3442 8.85517 38.5032 8.22024 37.3145C7.89279 36.7008 7.92314 35.9755 8.31767 35.0322C8.51095 34.5696 8.86395 34.2313 9.3671 34.026C10.9404 33.3848 13.6327 34.2242 14.7228 34.6176L13.9737 31.4668C11.1641 30.5746 9.19299 29.2459 8.55328 27.8085C8.22024 27.0596 8.23621 26.2933 8.60199 25.5294C8.85596 24.9984 9.27526 24.6349 9.84789 24.4501C11.3094 23.978 13.4115 24.8088 14.3331 25.2336L14.1103 23.6822C13.346 23.163 11.8261 22.038 12.5745 20.1506C13.3412 18.2169 18.9916 18.5788 25.7187 20.9932C32.6701 23.4879 43.2658 30.9719 45.2201 32.8955C46.8509 34.5012 47.5258 39.4315 48.3803 45.6733C48.6495 47.6386 48.9274 49.6714 49.2565 51.7429C50.4409 59.2025 52.5373 63.6892 56.2399 69.8382C56.5953 70.4282 56.6711 71.1394 56.4467 71.7892C56.2231 72.4375 55.7247 72.9551 55.0794 73.2092L43.5805 77.7352C43.2906 77.8493 42.9919 77.9036 42.6988 77.9036L42.7004 77.9028ZM12.37 40.4731C11.7958 40.4731 11.4252 40.6462 11.2599 41.0584C11.1217 41.403 11.1569 41.7885 11.3645 42.2063C11.6752 42.8317 13.2198 45.0243 20.0299 46.9801C26.59 48.8635 27.4533 49.3859 27.4869 49.4071L27.5404 49.4409L27.5723 49.4952C27.6322 49.5975 29.0506 52.0426 29.6983 55.4208C30.1256 57.6495 31.425 64.4303 35.0197 67.6865C37.4261 69.8665 39.4427 72.7585 41.0136 76.2837C41.4177 77.19 42.46 77.6141 43.3864 77.249L54.8853 72.7231C55.3869 72.5256 55.7742 72.1236 55.9476 71.6201C56.1217 71.115 56.0634 70.5619 55.787 70.1033C52.0493 63.8969 49.9329 59.3654 48.7357 51.8223C48.4059 49.7454 48.1272 47.7101 47.858 45.7418C47.0506 39.8406 46.3526 34.7443 44.8479 33.2629C42.9136 31.359 32.4249 23.9528 25.539 21.4818C18.157 18.8329 13.5536 19.1161 13.0688 20.3387C12.5154 21.7351 13.4849 22.6264 14.5064 23.3156L14.603 23.3809L15.0016 26.1619L14.54 25.9165C14.512 25.9015 11.676 24.4084 10.0132 24.9457C9.57874 25.0865 9.27366 25.3501 9.08118 25.7521C8.78409 26.3728 8.76971 26.9943 9.03886 27.5993C9.62746 28.9225 11.537 30.1671 14.2764 31.0144L14.4202 31.0593L15.4704 35.4759L14.9928 35.2792C14.9561 35.2643 11.3286 33.79 9.56916 34.5082C9.19539 34.6609 8.94621 34.8969 8.80645 35.2312C8.47261 36.0313 8.43587 36.5993 8.68825 37.0729C9.23293 38.0933 11.2224 38.8847 15.5542 39.8044C17.4087 40.2639 26.6435 42.5682 27.2113 43.0331L27.7009 43.4343L27.0668 43.4933C26.9693 43.502 24.6245 43.7002 19.839 42.4525C18.5835 42.1252 17.4175 41.7602 16.388 41.4384C14.5815 40.8736 13.2406 40.4747 12.3692 40.4747L12.37 40.4731Z" fill="black"/>
<path d="M36.6946 65.3441C36.6195 65.3441 36.5469 65.3048 36.5077 65.2355C36.4934 65.2104 35.0542 62.659 32.9953 58.0819C30.8669 53.3498 30.5722 48.0788 30.4532 43.0847C30.4508 42.9683 30.5442 42.8715 30.6624 42.8691C30.779 42.8691 30.8788 42.9588 30.8812 43.0753C30.9994 48.0269 31.2902 53.2507 33.3866 57.9112C35.4359 62.4686 36.8671 65.005 36.8815 65.0302C36.939 65.1317 36.9023 65.2607 36.7992 65.3173C36.7665 65.3354 36.7306 65.3441 36.6954 65.3441H36.6946Z" fill="black"/>
<path d="M28.7964 52.2775C28.7254 52.2775 28.6551 52.2421 28.6144 52.1784C28.5521 52.0793 28.5824 51.9495 28.683 51.8881C28.6966 51.8795 30.0455 51.0518 30.5503 50.7277C30.6493 50.664 30.7819 50.6915 30.8466 50.7891C30.9113 50.8866 30.8833 51.0172 30.7843 51.0809C30.2763 51.4074 28.9234 52.2374 28.9099 52.2461C28.8747 52.2681 28.8356 52.2783 28.7972 52.2783L28.7964 52.2775Z" fill="black"/>
<path d="M27.8431 49.3456C27.7816 49.3456 27.7201 49.3196 27.6778 49.2685C27.6027 49.1788 27.6155 49.0458 27.7065 48.9719C28.6154 48.2347 29.7167 45.6095 30.1073 44.4538C30.1448 44.3436 30.2654 44.2831 30.378 44.3208C30.4898 44.3578 30.5505 44.4774 30.513 44.5875C30.1919 45.5363 29.0371 48.4385 27.9781 49.2976C27.9382 49.3298 27.8902 49.3456 27.8423 49.3456H27.8431Z" fill="black"/>
<path d="M36.0273 11.0688C36.0042 10.3631 35.7031 9.70932 35.1799 9.22706C34.6576 8.74481 33.9788 8.48991 33.2592 8.5143L16.204 9.06264C15.4876 9.08545 14.824 9.38205 14.3344 9.89735C13.8448 10.4126 13.5877 11.0845 13.6108 11.7894L14.6091 41.9057C14.6323 42.6114 14.9334 43.2652 15.4565 43.7475C15.9572 44.21 16.605 44.461 17.2878 44.461C17.3173 44.461 17.3477 44.461 17.3772 44.4594L34.4324 43.9111C35.1488 43.8883 35.8125 43.5917 36.3021 43.0764C36.7916 42.5611 37.0488 41.8892 37.0256 41.1843L36.0273 11.068V11.0688Z" fill="#66DD59"/>
<path d="M17.2867 44.7226C16.5368 44.7226 15.8228 44.4441 15.2741 43.9383C14.6999 43.408 14.3692 42.6898 14.3437 41.9148L13.3453 11.7985C13.3198 11.0236 13.6017 10.2849 14.14 9.7192C14.6783 9.15355 15.4075 8.82785 16.1941 8.80268L33.2493 8.25433C34.0352 8.23073 34.7835 8.5053 35.3601 9.03712C35.9344 9.56737 36.265 10.2856 36.2906 11.0606L37.2889 41.1769C37.3144 41.9518 37.0325 42.6905 36.4942 43.2562C35.9559 43.8218 35.2268 44.1475 34.4401 44.1727L17.3849 44.7211C17.3522 44.7218 17.3194 44.7226 17.2867 44.7226ZM33.3523 8.77278C33.3236 8.77278 33.2948 8.77278 33.2669 8.77435L16.2109 9.3227C15.5656 9.34315 14.9666 9.61063 14.5258 10.0748C14.0841 10.539 13.8525 11.1447 13.8741 11.7804L14.8724 41.8967C14.8931 42.5324 15.1647 43.1225 15.6359 43.5567C16.1055 43.9902 16.7204 44.2191 17.3665 44.1987L34.4217 43.6503C35.067 43.6299 35.666 43.3624 36.1069 42.8982C36.5485 42.4341 36.7801 41.8283 36.7586 41.1926L35.7603 11.0763C35.7395 10.4406 35.4679 9.85058 34.9967 9.41632C34.5447 8.99936 33.9633 8.77278 33.3515 8.77278H33.3523Z" fill="black"/>
<path d="M25.0354 13.1082L21.9263 13.2082C21.6283 13.2178 21.3946 13.4636 21.4043 13.7571L21.5155 17.1107C21.5252 17.4042 21.7747 17.6345 22.0727 17.6249L25.1818 17.5249C25.4798 17.5153 25.7135 17.2695 25.7038 16.976L25.5926 13.6224C25.5829 13.3289 25.3334 13.0987 25.0354 13.1082Z" fill="#FBEBD8"/>
<path d="M24.6212 16.3631L25.6826 16.3293L25.6802 16.2672L24.6116 16.3018C24.5669 16.076 24.38 15.9021 24.15 15.8722L24.114 14.7983C24.3417 14.7535 24.5158 14.5678 24.5461 14.3397L25.6147 14.3051L25.6123 14.2429L24.5509 14.2768C24.5509 14.2681 24.5509 14.2602 24.5509 14.2516L24.5134 13.125L24.4511 13.1274L24.4886 14.2539C24.4974 14.5167 24.2897 14.7378 24.0254 14.7464L23.5087 14.7629L23.4551 13.1596L23.3929 13.162L23.4464 14.7653L22.9296 14.7818C22.6653 14.7905 22.4433 14.5836 22.4345 14.3208L22.3969 13.1942L22.3346 13.1966L22.3722 14.3232C22.3722 14.3318 22.3722 14.3405 22.3738 14.3483L21.4258 14.379L21.4282 14.4412L22.3834 14.4105C22.4321 14.6552 22.6461 14.8385 22.9017 14.8448L22.9368 15.906C22.6829 15.9289 22.4808 16.1255 22.4481 16.3726L21.4929 16.4033L21.4953 16.4654L22.4433 16.4347C22.4433 16.4434 22.4433 16.4512 22.4433 16.4599L22.4816 17.6132L22.5439 17.6109L22.5056 16.4575C22.4968 16.1948 22.7044 15.9737 22.9688 15.9651L23.4855 15.9485L23.5398 17.5786L23.6021 17.5762L23.5478 15.9462L24.0645 15.9296C24.3289 15.921 24.5509 16.1279 24.5597 16.3907L24.598 17.544L24.6603 17.5416L24.622 16.3883C24.622 16.3797 24.6212 16.371 24.6204 16.3631H24.6212ZM24.0629 15.8667L22.9983 15.9013L22.9632 14.8424L24.0278 14.8078C24.0366 14.8078 24.0446 14.807 24.0533 14.8062L24.0885 15.8667C24.0797 15.8667 24.0717 15.8667 24.0629 15.8667Z" fill="#D9BB9E"/>
<path d="M23.7176 32.477C23.4029 32.477 23.1425 32.2308 23.1322 31.9185L22.9612 26.7521C22.9509 26.4335 23.204 26.1668 23.5275 26.1566C23.8485 26.1463 24.1217 26.3957 24.1321 26.7143L24.303 31.8807C24.3134 32.1993 24.0602 32.466 23.7367 32.4763C23.7303 32.4763 23.724 32.4763 23.7176 32.4763V32.477Z" fill="white"/>
<path d="M23.9606 39.6959C23.6459 39.6959 23.3855 39.4496 23.3751 39.1373L23.2034 33.9709C23.1931 33.6523 23.4462 33.3856 23.7697 33.3754C24.0899 33.3636 24.3639 33.6146 24.3743 33.9332L24.546 39.0996C24.5563 39.4182 24.3032 39.6849 23.9797 39.6951C23.9733 39.6951 23.9669 39.6951 23.9606 39.6951V39.6959Z" fill="white"/>
<path d="M22.3501 11.4404C22.3333 11.4404 22.3165 11.4357 22.3013 11.4255C22.263 11.3987 22.2542 11.3468 22.2814 11.3099C22.5457 10.9417 22.9299 10.723 23.3356 10.7104C23.7597 10.6994 24.179 10.9102 24.4713 11.2957C24.4992 11.3327 24.4912 11.3846 24.4537 11.4121C24.4162 11.4397 24.3635 11.4318 24.3355 11.3948C24.0767 11.0534 23.715 10.863 23.3404 10.8756C22.9826 10.8874 22.6551 11.0754 22.4179 11.405C22.4012 11.4279 22.3756 11.4404 22.3493 11.4404H22.3501Z" fill="white"/>
<path d="M22.635 11.8466C22.6191 11.8466 22.6031 11.8419 22.5887 11.8333C22.5496 11.8081 22.5392 11.7562 22.5648 11.7184C22.7732 11.4084 23.0647 11.2456 23.3858 11.2542C23.6853 11.2645 23.9879 11.4328 24.1213 11.6633C24.1445 11.7035 24.1301 11.7538 24.0902 11.7766C24.0494 11.7994 23.9983 11.7853 23.9752 11.7459C23.8857 11.5909 23.6525 11.4297 23.3802 11.4202C23.1997 11.4147 22.9297 11.4769 22.7061 11.8097C22.6901 11.834 22.663 11.8466 22.6358 11.8466H22.635Z" fill="white"/>
<path d="M23.0098 12.1041C22.9939 12.1041 22.9779 12.0993 22.9635 12.0899C22.9244 12.0647 22.914 12.0128 22.9404 11.975C23.0306 11.8413 23.1648 11.7634 23.3181 11.7571C23.4754 11.7516 23.6432 11.8248 23.7446 11.9507C23.7733 11.9868 23.767 12.0388 23.731 12.0671C23.6943 12.0954 23.6416 12.0891 23.6128 12.0537C23.5457 11.9695 23.4291 11.9192 23.3261 11.9231C23.2574 11.9263 23.1584 11.953 23.0817 12.0671C23.0657 12.0915 23.0386 12.1041 23.0114 12.1041H23.0098Z" fill="white"/>
<path d="M26.8706 26.75C27.2612 27.6374 27.9624 28.1008 28.9232 28.2046C29.0414 28.2172 29.162 28.2141 29.2818 28.2109C31.1354 28.1629 32.9883 28.1142 34.842 28.0662C34.8755 28.0654 34.9091 28.0662 34.9418 28.0638C34.9929 28.0607 35.0225 28.0796 35.0177 28.1338C34.9817 28.1378 34.9466 28.1449 34.9107 28.1456C33.0163 28.196 31.1227 28.2487 29.2283 28.2935C28.5254 28.3101 27.9017 28.0984 27.3922 27.6067C27.1502 27.3731 26.9737 27.0962 26.8555 26.7823C26.8603 26.7712 26.8651 26.761 26.8698 26.75H26.8706Z" fill="#FDFDFD"/>
<path d="M28.3719 35.1496C29.387 35.1229 30.4029 35.0954 31.4179 35.0686C31.874 35.056 32.3324 35.0655 32.786 35.0269C33.5416 34.9624 34.1948 34.6768 34.6756 34.0718C34.8226 33.887 34.9312 33.6801 35.0119 33.459C35.0167 33.4692 35.0222 33.4794 35.027 33.4897C34.8465 34.0467 34.4903 34.4628 33.9792 34.75C33.5639 34.9829 33.1151 35.1048 32.6359 35.1174C31.2558 35.1528 29.8765 35.1898 28.4965 35.226C28.4581 35.2267 28.4198 35.2283 28.3735 35.2291L28.3711 35.1489L28.3719 35.1496Z" fill="white"/>
<path d="M28.2656 30.6506C29.7407 30.6121 31.215 30.5727 32.6901 30.5358C33.0671 30.5263 33.4105 30.6262 33.7068 30.8638C33.8562 30.9842 33.9688 31.1321 34.0407 31.3091C34.0566 31.3492 34.0606 31.3941 34.0694 31.4366C34.0247 31.3555 33.988 31.269 33.9352 31.1935C33.6909 30.8449 33.3402 30.6774 32.9234 30.6278C32.8243 30.616 32.7237 30.6168 32.6239 30.6192C31.1719 30.6561 29.7208 30.6939 28.2688 30.7317C28.268 30.7041 28.2664 30.6774 28.2656 30.6498V30.6506Z" fill="white"/>
<path d="M27.8563 14.3623C27.881 14.452 27.9002 14.5433 27.9329 14.6306C28.0048 14.8233 28.0807 15.0153 28.1606 15.2049C28.2939 15.5219 28.5615 15.7265 28.8091 15.946C29.0526 16.1623 29.3042 16.3692 29.5518 16.5808C29.9112 16.8877 30.3313 17.0482 30.8025 17.0851C31.6371 17.152 32.3575 16.8735 33.0052 16.3763C33.0267 16.3598 33.0507 16.3456 33.0738 16.3307C33.125 16.359 33.1034 16.3881 33.0715 16.4125C32.8406 16.5919 32.6002 16.7563 32.3335 16.8806C32.1003 16.9892 31.8591 17.0741 31.6059 17.1237C31.3575 17.1717 31.1084 17.1921 30.8552 17.1725C30.5861 17.152 30.3217 17.1072 30.0797 16.9892C29.92 16.9113 29.7626 16.82 29.6237 16.7107C29.3378 16.4864 29.0598 16.2512 28.7883 16.0097C28.6134 15.8547 28.4289 15.6989 28.2955 15.5109C28.0655 15.1884 27.9329 14.8162 27.8579 14.4276C27.8539 14.4064 27.8563 14.3835 27.8555 14.3623H27.8563Z" fill="#E0E0E0"/>
<path d="M30.4594 41.9484C30.4865 41.9595 30.5169 41.9657 30.54 41.9831C31.1071 42.3992 31.7508 42.5408 32.4448 42.4976C32.7834 42.4763 33.1101 42.4047 33.4224 42.2702C33.6108 42.1892 33.777 42.079 33.9159 41.9272C34.2601 41.5535 34.6203 41.194 34.9494 40.8085C35.082 40.6535 35.1498 40.445 35.2465 40.2617C35.2521 40.2719 35.2569 40.283 35.2625 40.2932C35.177 40.5662 35.0476 40.8148 34.8464 41.0256C34.5181 41.3694 34.1963 41.7179 33.8672 42.0609C33.6532 42.2844 33.3728 42.3929 33.0813 42.4724C32.6165 42.5991 32.1477 42.6211 31.6701 42.5377C31.2389 42.4622 30.8507 42.3001 30.5065 42.0358C30.4809 42.0161 30.4258 42.0035 30.4602 41.9492L30.4594 41.9484Z" fill="white"/>
<path d="M29.3906 38.2707C29.4066 38.0976 29.4873 37.9497 29.5943 37.8191C29.8451 37.5147 30.1781 37.362 30.571 37.3321C30.8945 37.3077 31.2036 37.3746 31.4999 37.4942C32.5006 37.8978 33.2034 38.5909 33.5811 39.5955C33.5931 39.6262 33.6011 39.6585 33.6115 39.6899C33.6059 39.6954 33.5995 39.7017 33.5939 39.7072C33.1994 38.6444 32.4574 37.9237 31.3841 37.5351C30.9975 37.3951 30.599 37.3518 30.1997 37.4895C29.8291 37.6177 29.5535 37.8482 29.4194 38.2235C29.413 38.2408 29.4002 38.2557 29.3906 38.2715V38.2707Z" fill="#FEFEFE"/>
<path d="M30.1414 25.2601C30.1606 25.0705 30.2588 24.9203 30.3898 24.7897C30.599 24.5804 30.8642 24.4805 31.1501 24.4302C31.2995 24.4042 31.4528 24.3979 31.6045 24.3822C31.6517 24.3853 31.698 24.3916 31.7451 24.39C32.745 24.3649 33.7457 24.3381 34.7456 24.3121C34.7792 24.3114 34.8119 24.3114 34.8455 24.3106C34.8926 24.3098 34.9197 24.3287 34.9158 24.379C34.8798 24.3822 34.8439 24.3877 34.8079 24.3885C33.7737 24.416 32.7386 24.4459 31.7044 24.4679C31.4448 24.4734 31.1877 24.4876 30.9385 24.5631C30.5783 24.6725 30.294 24.8699 30.1606 25.2358C30.1574 25.2452 30.1478 25.2523 30.1406 25.2601H30.1414Z" fill="#FCFCFC"/>
<path d="M29.7969 13.8946C29.9933 13.2597 30.3376 12.72 30.8503 12.2865C31.1961 11.9947 31.5707 11.7523 32.0179 11.6398C32.696 11.4691 33.4076 11.857 33.6264 12.5131C33.6352 12.5391 33.6376 12.5666 33.6432 12.5933C33.6272 12.5658 33.6088 12.5391 33.5953 12.51C33.3525 12.0096 32.9643 11.7106 32.3917 11.6808C32.1305 11.6674 31.8837 11.739 31.6521 11.8515C30.7856 12.27 30.181 12.9238 29.8512 13.8206C29.84 13.8513 29.828 13.882 29.8168 13.9135C29.8105 13.9072 29.8049 13.9017 29.7985 13.8954L29.7969 13.8946Z" fill="#FEFEFE"/>
<path d="M28.5573 39.7627C28.6364 40.0058 28.7442 40.2355 28.8816 40.4684C28.9671 40.3921 29.0413 40.3236 29.1172 40.2568C29.2817 40.1096 29.447 39.9633 29.6124 39.817C29.61 39.8429 29.618 39.8807 29.6036 39.8941C29.3696 40.112 29.1324 40.3268 28.8832 40.5541C28.7402 40.3055 28.6212 40.0585 28.543 39.7926C28.5478 39.7824 28.5526 39.7729 28.5573 39.7627Z" fill="#FDFDFD"/>
<path d="M34.9167 24.3796C34.9207 24.3293 34.8935 24.3104 34.8464 24.3112C34.8128 24.312 34.7793 24.3112 34.7466 24.3127C33.7467 24.3387 32.7467 24.3655 31.746 24.3906C31.6997 24.3922 31.6526 24.3859 31.6055 24.3828C32.6365 24.3552 33.6684 24.3277 34.6994 24.2994C34.8416 24.2957 34.9108 24.2238 34.9071 24.0838C34.8911 23.4835 34.8751 22.8833 34.8592 22.2822C34.8656 22.3279 34.8775 22.3735 34.8783 22.4191C34.8967 23.0461 34.9143 23.6731 34.931 24.3002C34.931 24.3261 34.9223 24.3529 34.9175 24.3788L34.9167 24.3796Z" fill="#9E9E9E"/>
<path d="M33.4588 13.9307C33.7263 14.1305 33.9939 14.3303 34.2758 14.5404C34.3389 14.4043 34.3964 14.28 34.4539 14.1565C34.4595 14.1667 34.4651 14.1777 34.4707 14.1879C34.41 14.3303 34.3485 14.4735 34.2822 14.6277C34.0825 14.4774 33.9012 14.3413 33.7207 14.2052C33.6369 14.1423 33.5538 14.077 33.4684 14.0156C33.4292 13.9873 33.4284 13.9621 33.4596 13.9307H33.4588Z" fill="#FDFDFD"/>
<path d="M28.0613 22.5464C28.0469 22.4733 28.0924 22.4662 28.1491 22.4646C28.4302 22.4583 28.7106 22.4504 28.9917 22.4434L28.9941 22.522C28.6794 22.5299 28.3704 22.5386 28.0621 22.5464H28.0613Z" fill="white"/>
<path d="M34.2961 30.5779C34.2642 30.5566 34.233 30.5354 34.1875 30.5055C34.2178 30.5 34.2322 30.4953 34.2474 30.4953C34.4982 30.4882 34.7482 30.4827 34.9989 30.4748C35.0604 30.4724 35.0892 30.4913 35.078 30.5543C34.8168 30.5621 34.5565 30.5708 34.2953 30.5786L34.2961 30.5779Z" fill="#FEFEFE"/>
<path d="M29.1512 25.7344C29.3125 26.1938 29.6048 26.5518 30.0177 26.8256C29.9834 26.824 29.9498 26.8224 29.9155 26.8208C29.5329 26.551 29.2686 26.197 29.1328 25.7517C29.1384 25.7462 29.1448 25.7399 29.1504 25.7344H29.1512Z" fill="#FCFCFC"/>
<path d="M34.7926 19.8499C34.7742 19.1733 34.7567 18.4967 34.7383 17.8193C34.7447 17.865 34.7566 17.9106 34.7574 17.9562C34.7758 18.5864 34.7934 19.2165 34.8094 19.8475C34.8094 19.8766 34.8014 19.9057 34.7966 19.9348L34.7934 19.9285C34.7934 19.9026 34.7934 19.8758 34.7926 19.8499Z" fill="#9C9C9C"/>
<path d="M28.2628 30.6511C28.2636 30.6787 28.2652 30.7054 28.266 30.733C28.2588 30.7078 28.246 30.6826 28.2452 30.6566C28.2341 30.2633 28.2237 29.8691 28.2149 29.4758C28.2141 29.438 28.2229 29.401 28.2277 29.3633C28.2397 29.7928 28.2508 30.2216 28.2628 30.6511Z" fill="#9F9F9F"/>
<path d="M35.2621 40.2922C35.2565 40.2819 35.2517 40.2709 35.2461 40.2607C35.2908 40.075 35.3355 39.8901 35.3811 39.7045C35.3835 39.695 35.3922 39.6864 35.3978 39.6777C35.3531 39.8823 35.3076 40.0868 35.2629 40.2922H35.2621Z" fill="#DDDDDD"/>
<path d="M28.5571 39.7626C28.5523 39.7728 28.5475 39.7822 28.5427 39.7925C28.4988 39.573 28.4541 39.3543 28.4102 39.1348C28.4589 39.344 28.5076 39.5533 28.5571 39.7618V39.7626Z" fill="#CACACA"/>
<path d="M34.4699 14.1878C34.4643 14.1775 34.4587 14.1665 34.4531 14.1563C34.4978 13.9848 34.5418 13.8141 34.5865 13.6426C34.5865 13.8322 34.5386 14.0123 34.4699 14.1878Z" fill="#DDDDDD"/>
<path d="M26.87 26.7499C26.8652 26.7609 26.8604 26.7711 26.8556 26.7821C26.8061 26.6248 26.7565 26.4674 26.707 26.3093C26.7126 26.3038 26.7182 26.2975 26.7238 26.292C26.7725 26.4446 26.8212 26.5972 26.87 26.7499Z" fill="#DDDDDD"/>
<path d="M35.0269 33.4911C35.0221 33.4808 35.0165 33.4706 35.0117 33.4604C35.0469 33.3274 35.082 33.1945 35.1171 33.0615C35.1227 33.067 35.1283 33.0718 35.1347 33.0773C35.0988 33.2149 35.0628 33.3534 35.0277 33.4911H35.0269Z" fill="#E3E3E3"/>
<path d="M29.796 13.8945C29.8024 13.9008 29.808 13.9063 29.8144 13.9126C29.7793 14.0456 29.7449 14.1785 29.7098 14.3115L29.6914 14.295C29.7265 14.1612 29.7617 14.0283 29.796 13.8945Z" fill="#E3E3E3"/>
<path d="M26.7239 26.2928C26.7184 26.2983 26.7128 26.3046 26.7072 26.3101C26.6808 26.1449 26.6553 25.9797 26.6289 25.8145C26.6609 25.9734 26.692 26.1331 26.7239 26.292V26.2928Z" fill="#C1C1C1"/>
<path d="M29.1512 25.734C29.1456 25.7395 29.1393 25.7458 29.1337 25.7513C29.1089 25.6246 29.0834 25.4987 29.0586 25.3721C29.0897 25.4924 29.1201 25.6128 29.1512 25.734Z" fill="#C8C8C8"/>
<path d="M33.5938 39.7068C33.5993 39.7013 33.6057 39.695 33.6113 39.6895C33.6353 39.7886 33.6584 39.8869 33.6824 39.986C33.6528 39.8932 33.6233 39.8004 33.5938 39.7075V39.7068Z" fill="#D4D4D4"/>
<path d="M35.1348 33.077C35.1292 33.0715 35.1236 33.0668 35.1172 33.0613C35.1364 32.9504 35.1563 32.8394 35.1755 32.7285C35.1619 32.8449 35.1483 32.9606 35.1348 33.077Z" fill="#C1C1C1"/>
<path d="M29.6927 14.2939L29.7111 14.3105C29.6967 14.4143 29.6823 14.5174 29.668 14.6212C29.676 14.5119 29.6839 14.4033 29.6927 14.2939Z" fill="#C2C2C2"/>
<path d="M34.7909 19.8496C34.7909 19.8756 34.7909 19.9023 34.7917 19.9283C33.4699 19.9637 32.1482 19.9983 30.8264 20.0337C30.2362 20.0494 29.6468 20.0644 29.0566 20.0801C29.0318 20.0801 29.0055 20.0856 28.9815 20.0801C28.9639 20.0762 28.9496 20.0597 28.9336 20.0487C28.9488 20.0337 28.9623 20.0101 28.9807 20.0062C29.0151 19.9983 29.0526 20.0014 29.0885 20.0007C30.9893 19.9503 32.8901 19.9007 34.7901 19.8504L34.7909 19.8496Z" fill="#FDFDFD"/>
<path d="M27.8633 17.848C27.9128 17.8464 27.9583 17.8456 28.0046 17.844C30.1754 17.7874 32.3453 17.7299 34.516 17.6749C34.5663 17.6733 34.6175 17.6977 34.6678 17.7103C34.6167 17.7244 34.5655 17.7496 34.5136 17.7512C32.3749 17.8094 30.2353 17.8653 28.0965 17.9211C27.9873 17.9237 27.9344 17.9799 27.9376 18.0895C27.9751 19.4796 28.0126 20.8697 28.0494 22.2599C28.051 22.3071 28.039 22.3543 28.0326 22.4015C28.0174 22.3999 28.0022 22.3975 27.9871 22.396C27.9463 20.8863 27.9056 19.3765 27.8641 17.8472L27.8633 17.848Z" fill="black"/>
<path d="M33.9635 31.1855C34.1128 31.398 34.1535 31.6356 34.1352 31.8857C34.0888 32.5426 33.6089 32.8203 33.1089 32.9092C32.9076 32.9446 32.7 32.9478 32.4947 32.9533C31.1522 32.9911 29.8105 33.0265 28.4679 33.0579C28.3521 33.0603 28.3138 33.091 28.3178 33.2098C28.3394 33.7943 28.3521 34.3796 28.3673 34.9649C28.3681 35.0082 28.3569 35.0515 28.3513 35.0947C28.3378 35.094 28.3242 35.0924 28.3106 35.0916C28.2914 34.3969 28.2731 33.7023 28.2539 32.9903C28.289 32.9895 28.3338 32.9879 28.3785 32.9871C29.8304 32.9494 31.2816 32.9171 32.7327 32.8668C32.9603 32.8589 33.1968 32.7991 33.4084 32.7134C33.9259 32.5033 34.1112 32.0564 34.0441 31.5286C34.0297 31.4129 33.9898 31.2996 33.9619 31.1855H33.9635Z" fill="black"/>
<path d="M29.2412 25.9822C29.1062 25.7926 29.028 25.5786 29 25.3528C28.9297 24.7848 28.9529 24.2223 29.1789 23.685C29.4936 22.9376 30.0862 22.5096 30.8593 22.309C31.0717 22.254 31.2961 22.2256 31.5158 22.2185C32.5612 22.1839 33.6074 22.1603 34.6529 22.1328C34.688 22.132 34.7239 22.1289 34.7583 22.1328C34.7719 22.1344 34.7926 22.1556 34.7926 22.1674C34.7926 22.18 34.7727 22.2012 34.7591 22.2036C34.7247 22.2099 34.6896 22.2091 34.6545 22.2099C33.5971 22.2374 32.538 22.2453 31.4822 22.2988C30.3418 22.3562 29.2732 23.0525 29.0887 24.3867C29.0152 24.917 29.0096 25.4449 29.238 25.9492C29.242 25.9586 29.2404 25.9704 29.242 25.9814L29.2412 25.9822Z" fill="black"/>
<path d="M28.158 15.1903C27.9926 14.9653 27.896 14.7112 27.8305 14.4469C27.5765 13.4289 27.8169 12.5131 28.4287 11.6776C28.8432 11.112 29.3312 10.625 29.9773 10.3174C30.6897 9.97834 31.4244 9.91619 32.1776 10.1758C32.2319 10.1947 32.283 10.2206 32.3285 10.2608C32.1808 10.2222 32.0346 10.1742 31.8845 10.1451C31.0898 9.99171 30.3527 10.1546 29.693 10.6006C28.8416 11.1757 28.2187 11.9357 27.9264 12.9254C27.7067 13.6665 27.793 14.3918 28.1124 15.0936C28.1268 15.1258 28.1428 15.1581 28.158 15.1903Z" fill="black"/>
<path d="M28.7901 40.3501C28.5992 40.0684 28.4739 39.7553 28.3988 39.4233C28.2582 38.7995 28.2989 38.1929 28.5825 37.6107C28.7158 37.3354 28.9043 37.1041 29.1479 36.9145C29.5001 36.6415 29.8507 36.3661 30.1981 36.0861C30.4705 35.8658 30.7963 35.7769 31.1302 35.7187C31.7547 35.6093 32.3657 35.6636 32.9519 35.9146C32.9902 35.9311 33.027 35.95 33.0573 35.9854C32.9263 35.9429 32.7969 35.8965 32.6644 35.8595C31.9616 35.662 31.2667 35.7022 30.5943 35.9728C30.4042 36.0491 30.2397 36.1939 30.0743 36.3205C29.7629 36.5581 29.4546 36.7996 29.1543 37.0514C28.7334 37.4046 28.5226 37.8727 28.4355 38.4006C28.3269 39.0536 28.4659 39.668 28.7478 40.258C28.7622 40.2879 28.7757 40.3186 28.7901 40.3493V40.3501Z" fill="black"/>
<path d="M28.1813 30.5853C28.1669 30.1345 28.1557 29.6837 28.1445 29.2313C30.4295 29.1715 32.6984 29.1117 34.9674 29.0527C34.9722 29.0598 34.9762 29.0677 34.981 29.0748C34.9626 29.0905 34.9466 29.1157 34.9259 29.1196C34.8843 29.1283 34.8404 29.1259 34.7973 29.1267C32.6633 29.1825 30.5285 29.2384 28.3945 29.295C28.2816 29.2982 28.2265 29.354 28.2292 29.4626C28.238 29.7899 28.2476 30.1172 28.2547 30.4444C28.2555 30.4916 28.2468 30.5388 28.2428 30.586C28.222 30.586 28.2012 30.586 28.1805 30.586L28.1813 30.5853Z" fill="black"/>
<path d="M33.3733 39.2059C33.5482 39.4796 33.6616 39.7739 33.7152 40.0917C33.7719 40.4268 33.7335 40.7431 33.5506 41.0342C33.1577 41.6589 32.3271 41.872 31.673 41.5188C31.6602 41.5117 31.649 41.5015 31.6211 41.4803C31.7776 41.5204 31.9134 41.5629 32.0516 41.5896C32.9708 41.7666 33.815 40.95 33.6377 40.0445C33.5882 39.7904 33.4859 39.5473 33.4077 39.2987C33.3981 39.2672 33.3853 39.2365 33.3733 39.2051V39.2059Z" fill="black"/>
<path d="M34.9571 26.7023C34.9291 26.7062 34.9012 26.7109 34.874 26.7133C34.8429 26.7164 34.8117 26.718 34.7806 26.7188C33.6992 26.7471 32.6179 26.7786 31.5373 26.8022C31.241 26.8085 30.9575 26.7447 30.7227 26.6016C30.9024 26.6385 31.1028 26.6826 31.3049 26.7196C31.3696 26.7314 31.4374 26.7282 31.5029 26.7267C32.5883 26.6991 33.6729 26.67 34.7582 26.6417C34.8077 26.6401 34.8573 26.6393 34.906 26.6378C34.9228 26.659 34.9403 26.681 34.9571 26.7023Z" fill="black"/>
<path d="M27.6718 25.0763C27.6367 25.0865 27.6023 25.1046 27.5672 25.1054C27.302 25.1148 27.0361 25.1203 26.7709 25.1274C26.6008 25.1321 26.6032 25.1321 26.604 25.2942C26.608 25.8378 26.691 26.3649 26.9171 26.8653C26.9211 26.8747 26.9211 26.8865 26.9235 26.9007C26.695 26.6772 26.4666 25.59 26.5361 25.066C26.9107 25.0566 27.286 25.0464 27.6614 25.0361C27.6646 25.0495 27.6678 25.0621 27.6718 25.0755V25.0763Z" fill="black"/>
<path d="M32.3168 15.6702C31.6491 16.1651 30.7898 16.3381 30.3633 16.047C30.5022 16.0675 30.6492 16.1045 30.7977 16.1092C31.3065 16.1234 31.7425 15.9149 32.1602 15.6568C32.2441 15.6049 32.2433 15.6041 32.3176 15.6702H32.3168Z" fill="black"/>
<path d="M33.5128 12.2832C33.8346 12.8229 33.7276 13.3461 33.4553 13.8661C33.3682 13.8417 33.3634 13.8031 33.4018 13.7316C33.536 13.4853 33.6342 13.2233 33.6278 12.9425C33.6238 12.7537 33.5759 12.5656 33.5447 12.3776C33.5391 12.3454 33.5232 12.3147 33.512 12.2832H33.5128Z" fill="black"/>
<path d="M31.1442 41.1582C31.1769 41.1857 31.1993 41.2054 31.228 41.2298C31.0284 41.4107 30.8343 41.587 30.6402 41.7632C30.5971 41.8025 30.5524 41.8395 30.5125 41.8812C30.4558 41.9402 30.415 41.9237 30.3711 41.8576C30.6275 41.6255 30.8814 41.3958 31.1442 41.1582Z" fill="black"/>
<path d="M30.0063 26.8434C29.4648 26.86 28.9249 26.871 28.4258 26.6074C28.6374 26.6546 28.8483 26.7207 29.0639 26.7435C29.3267 26.7718 29.5926 26.7616 29.8578 26.7711C29.9105 26.7734 29.9624 26.7915 30.0143 26.8033C30.0119 26.8167 30.0087 26.8301 30.0063 26.8434Z" fill="black"/>
<path d="M19.1852 9.25781L20.2929 44.1826L17.3675 44.2644C17.3675 44.2644 16.0217 44.0528 15.6424 43.5768C15.263 43.1 14.7335 42.5785 14.7335 41.2749C14.7335 39.9713 14.4109 29.4607 14.4109 29.4607L13.9429 16.9456L13.8047 11.7824C13.8047 11.7824 13.9924 10.5315 14.1641 10.3246C14.3358 10.1177 15.39 9.32468 15.7893 9.33019C16.1887 9.3357 19.1844 9.25781 19.1844 9.25781H19.1852Z" fill="black"/>
<path d="M42.0982 43.1387C40.0201 41.0917 37.6441 40.0383 34.9726 36.4705C32.3004 32.902 26.3624 22.1389 23.3339 23.9523C20.3054 25.7657 22.5616 30.8258 24.4025 33.4432C26.2434 36.0606 29.2128 39.5702 30.1624 42.2615C31.1128 44.9521 32.4785 48.2862 32.8938 49.4569C33.309 50.6267 42.0982 43.1395 42.0982 43.1395V43.1387Z" fill="#FAEA4E"/>
<path d="M29.9722 42.3253C29.267 40.3271 27.4054 37.8347 25.7634 35.6366C25.2131 34.8995 24.6932 34.2032 24.2363 33.5542C23.4537 32.4418 22.7429 31.1044 22.286 29.8857C21.695 28.3084 21.5137 26.9592 21.7469 25.8766C21.945 24.9577 22.4434 24.2544 23.2268 23.7847C25.7674 22.2632 29.9563 28.6144 33.0143 33.2521C33.8417 34.5069 34.5565 35.5902 35.1283 36.3541L34.8089 36.5862C34.2298 35.8129 33.5119 34.7248 32.6813 33.4653C29.8788 29.2162 25.6444 22.7958 23.4329 24.1191C22.7461 24.5306 22.3092 25.1489 22.1351 25.9584C21.6878 28.0322 23.032 31.1563 24.5622 33.3324C25.015 33.9767 25.5333 34.6706 26.0828 35.4054C27.7416 37.6263 29.6216 40.1438 30.3468 42.1971L29.9714 42.3253H29.9722Z" fill="black"/>
<path d="M38.4169 39.1381C38.377 39.1381 38.3355 39.1271 38.2995 39.1034C38.2013 39.0397 38.1733 38.9091 38.238 38.8116C38.2995 38.7195 39.7738 36.5348 41.9853 35.1801C42.0859 35.1187 42.2177 35.1494 42.28 35.2477C42.3423 35.3469 42.3111 35.4767 42.2113 35.538C40.0821 36.8424 38.6102 39.0208 38.595 39.0429C38.5543 39.1042 38.4856 39.1381 38.4161 39.1381H38.4169Z" fill="black"/>
<path d="M36.6945 32.8785C36.641 32.8785 36.5882 32.8597 36.5467 32.8203C36.4613 32.7401 36.4581 32.6063 36.5395 32.5222C36.5882 32.471 37.7583 31.2674 38.953 30.5019C39.0521 30.4382 39.1847 30.4665 39.2493 30.564C39.314 30.6616 39.2853 30.7922 39.1863 30.8559C38.033 31.5946 36.8606 32.8015 36.8494 32.8133C36.8071 32.8565 36.7512 32.8785 36.6945 32.8785Z" fill="black"/>
<path d="M41.4268 42.7276C41.3789 42.7276 41.3309 42.7118 41.2918 42.6804C38.4614 40.4052 37.051 39.2943 37.0374 39.2833C36.9447 39.2109 36.9304 39.078 37.0038 38.9867C37.0773 38.8955 37.2123 38.8805 37.3049 38.9537C37.3185 38.9647 38.7305 40.0771 41.5633 42.3539C41.6552 42.4278 41.6688 42.56 41.5937 42.6505C41.5514 42.7016 41.4899 42.7283 41.4276 42.7283L41.4268 42.7276Z" fill="black"/>
<path d="M39.5355 73.0951C39.1889 73.3303 38.9892 73.7229 39.0092 74.1375C39.0763 75.5268 39.6505 79.1009 43.4537 83.2524C43.9736 83.8196 59.2605 76.9547 58.997 74.914C58.5529 71.4697 56.1754 67.8438 55.0333 66.2687C54.6899 65.7944 54.0494 65.6354 53.5175 65.8903C50.6599 67.2608 41.862 71.5177 39.5355 73.0951Z" fill="black"/>
</svg>
