<svg width="85" height="66" viewBox="0 0 85 66" fill="none" xmlns="http://www.w3.org/2000/svg">
<path d="M76.6733 37.1051L76.3965 37.0429L76.0192 36.9576C70.8727 35.7951 64.6982 33.5651 59.735 31.0853C59.8417 31.0693 59.944 31.056 60.04 31.0453L61.2257 30.9156L60.2031 30.2978C58.2231 29.1024 56.2053 27.923 54.2041 26.7924C52.3643 25.7525 50.6867 24.8824 48.7808 24.7704C48.4334 24.7509 48.0887 24.7571 47.7476 24.7855C47.7291 24.7704 47.7097 24.7553 47.685 24.7411C47.231 24.486 46.8105 24.174 46.412 23.8381C46.3027 23.7456 46.1951 23.6514 46.0894 23.5563C46.0717 23.5412 45.9809 23.4594 46.0559 23.5261C46.1299 23.5927 46.0285 23.5003 46.0082 23.4816C45.9509 23.4283 45.8945 23.3741 45.8381 23.3199C45.6071 23.0977 45.3823 22.8684 45.1628 22.6346C44.1746 21.5814 43.2807 20.4375 42.4353 19.2661C41.9751 18.6288 41.5299 17.9809 41.0962 17.3258C40.9842 17.157 40.874 16.9881 40.7638 16.8183C40.7383 16.7792 40.7127 16.7401 40.688 16.701C40.6801 16.6886 40.6448 16.6344 40.6334 16.6166C40.6184 16.5935 40.5999 16.5641 40.5937 16.5552C40.5646 16.509 40.5355 16.4637 40.5055 16.4175C40.294 16.0851 40.085 15.75 39.8788 15.414C39.1003 14.1466 38.3572 12.857 37.6502 11.5478C37.0913 10.5114 36.5509 9.46264 36.0616 8.39075C36.0149 8.28854 35.969 8.18633 35.9232 8.08323C35.7901 7.78193 35.4154 7.66994 35.128 7.80148C32.4666 9.01913 29.7761 10.1728 27.0591 11.2607C24.3421 12.3477 21.5996 13.3689 18.8341 14.3235C17.2879 14.8568 15.8086 15.3438 14.2156 15.8442C13.8516 15.9589 13.6153 16.3126 13.7916 16.6948C13.9036 16.9365 14.0164 17.1765 14.131 17.4165C13.6426 17.6769 13.1393 17.9107 12.6235 18.1133C12.4455 18.1835 12.2665 18.2493 12.0867 18.3124C12.047 18.3257 12.0065 18.3382 11.9677 18.3533C11.9518 18.3586 11.9368 18.3631 11.9209 18.3684C11.8301 18.3977 11.7393 18.4262 11.6477 18.4537C11.2756 18.5657 10.8992 18.6626 10.5201 18.7444C10.0979 18.835 9.6712 18.9061 9.24277 18.9586C9.23307 18.9603 9.22249 18.9621 9.21279 18.9639C9.18635 18.9683 9.1599 18.9754 9.13433 18.9843C9.13257 18.9843 9.12993 18.9861 9.12816 18.987C9.10172 18.9968 9.07615 19.0092 9.05147 19.0243C9.0453 19.0279 9.04001 19.0305 9.03472 19.0341C8.91835 19.1079 8.82491 19.227 8.78259 19.3505C8.09145 21.345 7.86312 23.4985 7.9839 25.6014C8.01475 26.1392 8.05795 26.6787 8.14522 27.211C8.15051 27.2404 8.15404 27.2706 8.16021 27.2999C8.2228 27.5941 8.50931 27.7665 8.7297 27.9443C9.06645 28.2145 9.40585 28.482 9.74702 28.7469C11.2862 29.9388 12.866 31.0764 14.4687 32.1803C16.3358 33.4673 18.2329 34.7072 20.1503 35.9168C22.304 37.2749 24.4832 38.593 26.68 39.8791C26.9701 40.0488 27.2601 40.2177 27.5501 40.3866C27.6312 40.4337 27.7229 40.4648 27.8164 40.4781C28.3585 41.1865 29.092 41.8895 30.0194 42.5926C32.9629 44.8235 36.8056 46.6233 39.825 47.9431L40.4703 48.2249C43.1952 49.7492 45.9236 51.2672 48.6573 52.7755C50.1428 53.595 51.6291 54.4127 53.1171 55.2277C53.8391 55.6232 54.5611 56.0187 55.284 56.4125C55.6499 56.6125 56.0148 56.8116 56.3807 57.0107C56.5491 57.1022 56.7174 57.1937 56.8858 57.2853C56.974 57.3333 57.0621 57.3822 57.1512 57.4293C57.4112 57.5679 57.6061 57.5502 57.8617 57.4204C60.8088 55.9201 63.6641 54.2429 66.4552 52.4653C69.2603 50.678 72.0037 48.7955 74.7401 46.9041C75.0839 46.6668 75.4277 46.4286 75.7715 46.1904C75.9434 46.0713 76.1259 45.9602 76.2898 45.8322C76.4618 45.698 76.5429 45.5354 76.5481 45.3123C76.5508 45.2012 76.5402 45.0892 76.5376 44.9781C76.5138 44.1426 76.5094 43.3072 76.5243 42.4717C76.549 41.0674 76.631 39.6658 76.7033 38.2632C76.72 37.9468 76.735 37.6304 76.7483 37.3131C76.7544 37.1745 76.7421 37.1149 76.6768 37.1069L76.6733 37.1051Z" fill="black" stroke="white" stroke-width="15" stroke-miterlimit="10"/>
<path d="M57.4879 56.9345C64.1304 53.565 69.8192 49.577 75.9522 45.3365C75.8314 42.024 76.0535 39.5736 76.1496 37.2707L49.1069 34.6914C49.1069 34.6914 41.3924 38.7239 39.1153 41.5511C36.8382 44.3784 39.7147 47.1195 39.7147 47.1195C45.9059 50.5884 51.8935 53.8903 57.487 56.9345H57.4879Z" fill="#66DD59"/>
<path d="M58.9944 31.0488C51.4667 32.4807 44.5941 36.0679 39.332 41.7908C45.4703 45.2874 50.393 47.1121 57.1951 49.5216C63.7142 45.7647 69.8464 41.6566 75.9538 37.2526C70.4952 36.0199 63.9778 33.6103 58.9944 31.0488Z" fill="#66DD59"/>
<path d="M57.2224 49.853L57.0928 49.8068C50.2193 47.3715 45.2596 45.5166 39.1821 42.0538L38.8516 41.8654L39.1099 41.5846C44.2591 35.9842 51.115 32.238 58.937 30.751L59.0375 30.7314L59.1283 30.7786C64.1876 33.3792 70.6591 35.7469 76.0164 36.9566L76.6705 37.1041L76.1248 37.4979C69.2442 42.4591 63.2752 46.3636 57.3397 49.7837L57.2206 49.8522L57.2224 49.853ZM39.8107 41.7161C45.6651 45.018 50.3145 46.7627 57.1625 49.19C62.8838 45.8872 68.6448 42.1276 75.2344 37.3965C69.9971 36.1451 63.8306 33.8645 58.9476 31.3652C51.4261 32.8157 44.8197 36.3904 39.8107 41.7161Z" fill="black"/>
<path d="M29.9298 35.6724L14.9512 17.6387C13.2375 18.6555 11.313 19.3105 9.33921 19.5478C8.01687 23.343 8.74063 27.1861 8.74063 27.1861C13.1678 30.7902 19.806 35.2004 27.8846 39.8897L29.9298 35.6715V35.6724Z" fill="#66DD59"/>
<path d="M47.3443 25.2344C43.1322 22.8791 37.2196 12.4899 35.3851 8.34277C28.5406 11.4758 21.504 14.1795 14.3281 16.4335C17.5925 23.5039 21.9907 30.001 28.233 34.6059L47.3443 25.2344Z" fill="#66DD59"/>
<path fill-rule="evenodd" clip-rule="evenodd" d="M35.718 7.45312L35.9907 8.06967C36.8913 10.1054 38.8097 13.7074 41.0263 17.091C42.1337 18.7813 43.3076 20.405 44.458 21.746C45.6177 23.0978 46.7156 24.1171 47.6651 24.648L48.7837 25.2734L28.1618 35.3856L27.8384 35.1471C21.4751 30.453 17.0161 23.8484 13.7233 16.7165L13.4023 16.0214L14.1285 15.7933C21.2781 13.5476 28.2889 10.8537 35.1083 7.73221L35.718 7.45312ZM15.2536 16.843C18.3957 23.4571 22.5507 29.4757 28.303 33.825L46.0093 25.1425C45.1643 24.4874 44.3005 23.6126 43.4518 22.6233C42.2516 21.2243 41.0429 19.5499 39.9163 17.8301C37.8694 14.7056 36.0673 11.3913 35.055 9.22825C28.6079 12.1509 21.9929 14.6948 15.2536 16.843Z" fill="black"/>
<path d="M29.7367 33.2947L44.6589 25.6502C40.9449 22.0257 38.0375 18.9513 35.4122 14.4629C34.0114 14.2949 33.1722 13.4123 32.6565 12.1191C28.5651 13.6692 24.4747 15.2193 20.3834 16.7693C20.6637 18.2981 20.394 19.649 19.6094 20.8329C22.3598 25.9435 25.4682 29.3867 29.7376 33.2947H29.7367Z" fill="#66DD59"/>
<path d="M29.6876 33.658L29.5342 33.5176C25.3476 29.686 22.1828 26.2516 19.3442 20.9757L19.2578 20.8149L19.3583 20.6629C20.1138 19.5234 20.3518 18.2676 20.0874 16.8224L20.0415 16.5735L32.8241 11.7305L32.9335 12.0051C33.4633 13.3347 34.262 14.0191 35.4459 14.1613L35.594 14.1791L35.6698 14.308C38.3789 18.9386 41.4379 22.0858 44.8671 25.4313L45.1695 25.7264L29.6876 33.6571V33.658ZM19.9569 20.8451C22.6994 25.8926 25.762 29.2353 29.7845 32.9301L44.1469 25.5726C40.8384 22.3338 37.8746 19.2337 35.2264 14.7426C33.9834 14.548 33.086 13.8138 32.4927 12.5037L20.7186 16.9646C20.9275 18.3876 20.6718 19.6905 19.9569 20.8451Z" fill="black"/>
<path d="M57.5755 45.9773C61.2948 43.6522 65.0141 41.3271 68.7334 39.002C67.5345 38.6838 66.7014 38.131 66.5357 36.6395C62.9557 35.4121 58.9084 33.5759 55.5506 31.8223C49.5648 33.8238 44.5311 36.4591 41.0859 40.1494C44.5752 42.4736 49.0438 44.3819 53.0002 45.7479C54.5324 44.6983 56.0592 44.6281 57.5755 45.9781V45.9773Z" fill="#66DD59"/>
<path d="M57.5457 46.3531L57.3791 46.2047C56.0585 45.0297 54.6824 44.9631 53.1705 45.9985L53.0462 46.0838L52.9043 46.035C49.5631 44.8804 44.7719 42.9668 40.9221 40.4026L40.625 40.2044L40.8692 39.9422C44.0931 36.4902 48.8658 33.7393 55.4581 31.5351L55.578 31.4951L55.69 31.5538C59.404 33.4931 63.3931 35.2423 66.6337 36.3533L66.8144 36.4155L66.8356 36.6066C66.9863 37.9576 67.7347 38.4251 68.812 38.7104L69.4864 38.889L57.5457 46.3531ZM55.2201 44.66C56.0426 44.66 56.8395 44.9746 57.6047 45.6048L68.0257 39.0908C67.2067 38.7655 66.4706 38.1762 66.2652 36.8661C63.0625 35.7551 59.1677 34.0451 55.5278 32.1502C49.2616 34.2593 44.6855 36.8608 41.555 40.096C45.2453 42.4913 49.7465 44.2974 52.9598 45.4137C53.7312 44.9115 54.4867 44.66 55.221 44.66H55.2201Z" fill="black"/>
<path d="M39.8169 26.3884C38.3985 26.4408 36.9669 26.8914 35.8887 27.822C35.0221 28.5695 34.4121 29.6485 34.2852 30.7817L42.6115 26.7768C41.7308 26.4648 40.5874 26.3608 39.8178 26.3893L39.8169 26.3884Z" fill="#FAEA4E"/>
<path fill-rule="evenodd" clip-rule="evenodd" d="M41.285 23.028L41.1746 22.917L39.692 22.9718C37.6898 23.0458 35.4628 23.6838 33.6739 25.2274C33.6736 25.2277 33.6733 25.2279 33.6731 25.2281C32.2174 26.484 31.1373 28.328 30.9053 30.3993L30.2188 36.5282L51.4899 26.2969L43.7419 23.5523C42.9426 23.2691 42.0775 23.1072 41.285 23.028Z" fill="black"/>
<path d="M52.1204 33.2236L43.043 38.3671C45.9389 39.295 48.8287 38.3458 50.9391 36.1416C51.9785 35.0563 52.2006 34.004 52.1204 33.2236Z" fill="#FAEA4E" stroke="black" stroke-width="9.12" stroke-miterlimit="10"/>
<path d="M13.4409 22.7559C13.4409 22.7559 13.4374 22.7532 13.4365 22.7514C13.3589 22.6803 13.5547 22.859 13.4771 22.7879C13.4656 22.7772 13.4533 22.7665 13.4418 22.7559H13.4409Z" fill="black"/>
<path d="M13.418 22.7354L13.4955 22.8065L13.418 22.7354Z" fill="#66DD59"/>
<path d="M27.9899 35.3716C27.9009 35.3716 27.8198 35.3387 27.7087 35.281C27.6003 35.2259 27.4936 35.1681 27.3869 35.1085C26.1669 34.4331 25.0244 33.6145 23.9577 32.8341C22.653 31.8787 21.2954 30.8228 19.6847 29.5118C18.2434 28.3377 16.7747 27.0987 15.321 25.8277C13.8664 24.5567 12.5988 23.4084 11.4457 22.3161C10.6197 21.5339 9.76454 20.7251 8.99758 19.8363C8.82303 19.6337 8.88915 19.3537 9.05488 19.1991C9.14392 19.1155 9.25059 19.0986 9.32376 19.0986C9.45952 19.0986 9.59616 19.1591 9.67991 19.2568C9.74779 19.3351 9.81567 19.4124 9.88531 19.4888C10.7096 20.4007 11.6088 21.2549 12.5353 22.1214C12.6807 22.2583 12.8271 22.3943 12.9743 22.5294L13.3199 22.8476L13.5403 22.6405L13.3357 22.8627C13.3463 22.8725 13.3745 22.8974 13.3745 22.8974L13.3772 22.9C13.6769 23.1738 13.9775 23.4457 14.2799 23.7177C14.9411 24.3114 15.6349 24.922 16.341 25.5344C17.8264 26.8214 19.3066 28.0595 20.7391 29.214C22.34 30.5037 23.6738 31.5276 24.9397 32.4368C26.0258 33.2172 27.0969 33.9664 28.2535 34.5619C28.324 34.5984 28.3893 34.7077 28.421 34.8419C28.4536 34.9797 28.3866 35.1148 28.3443 35.1832C28.2923 35.2659 28.1759 35.3414 28.0657 35.3627C28.0402 35.3681 28.0146 35.3699 27.9908 35.3699L27.9899 35.3716Z" fill="black"/>
<path d="M9.32457 19.2512C9.41801 19.2512 9.51146 19.2921 9.56788 19.357C9.63576 19.4361 9.7054 19.5143 9.77505 19.5916C10.6011 20.5071 11.5038 21.363 12.4338 22.2332C12.5802 22.37 12.7265 22.506 12.8728 22.642L13.1091 22.8598L13.1541 22.9015L13.1973 22.9415C13.2255 22.9753 13.266 23.018 13.318 23.0517C13.6045 23.313 13.8919 23.5735 14.1811 23.833C14.8423 24.4258 15.536 25.0382 16.2439 25.6515C17.7302 26.9393 19.2113 28.1783 20.6456 29.3338C22.2465 30.6234 23.5829 31.6491 24.8524 32.561C25.9429 33.344 27.0175 34.0968 28.1847 34.6977C28.2032 34.7074 28.2499 34.7732 28.2746 34.8781C28.2887 34.9385 28.2675 35.0229 28.2173 35.1038C28.1882 35.15 28.1045 35.2025 28.0375 35.2149C28.0207 35.2185 28.0057 35.2194 27.9907 35.2194C27.9387 35.2194 27.8832 35.1998 27.7774 35.1456C27.6707 35.0905 27.5649 35.0336 27.4591 34.9758C26.2461 34.3039 25.108 33.4889 24.0466 32.7112C22.7437 31.7566 21.3878 30.7025 19.7799 29.3942C18.3403 28.2219 16.8734 26.9838 15.4197 25.7137C13.9651 24.4418 12.6983 23.2953 11.5487 22.2065C10.7254 21.427 9.87378 20.6209 9.11123 19.7374C8.99751 19.6059 9.04688 19.4139 9.15707 19.3108C9.21085 19.261 9.27785 19.2503 9.32457 19.2503M9.32457 18.949C9.18969 18.949 9.05657 18.9935 8.95343 19.0895C8.71894 19.3081 8.66604 19.6832 8.88467 19.9365C9.64722 20.8191 10.4979 21.627 11.3433 22.4269C12.611 23.6268 13.9096 24.7938 15.2231 25.9421C16.6583 27.1962 18.1137 28.4263 19.5912 29.6297C20.992 30.7701 22.4122 31.8891 23.8694 32.9565C24.9793 33.7689 26.1104 34.575 27.3146 35.2416C27.4221 35.3011 27.5314 35.3598 27.6407 35.4158C27.7589 35.4762 27.8655 35.5225 27.9907 35.5225C28.0242 35.5225 28.0586 35.5189 28.0948 35.5118C28.2358 35.4842 28.3936 35.3891 28.4712 35.2647C28.5549 35.1314 28.6043 34.9661 28.5664 34.8079C28.5329 34.6674 28.4553 34.4968 28.3213 34.4283C27.1629 33.8329 26.0839 33.0738 25.0269 32.3148C23.5962 31.2864 22.205 30.203 20.8333 29.0973C19.347 27.8992 17.8828 26.6718 16.4396 25.4213C15.7485 24.8222 15.0618 24.2178 14.3803 23.6063C14.0665 23.3246 13.7535 23.0411 13.4415 22.7558C13.4529 22.7664 13.4653 22.7771 13.4767 22.7878C13.4899 22.8002 13.4952 22.8046 13.4952 22.8046L13.4177 22.7335C13.4177 22.7335 13.4229 22.738 13.4362 22.7504C13.4379 22.7522 13.4397 22.7531 13.4406 22.7549C13.4335 22.7487 13.4274 22.7424 13.4203 22.7362C13.3833 22.7024 13.3471 22.6687 13.3101 22.6349C13.2316 22.5629 13.1532 22.49 13.0747 22.418C12.9284 22.2829 12.782 22.1469 12.6366 22.011C11.7321 21.1639 10.8276 20.308 9.99544 19.3872C9.92667 19.3117 9.85879 19.2352 9.79268 19.157C9.67631 19.0228 9.49912 18.9473 9.3228 18.9473L9.32457 18.949Z" fill="#66DD59"/>
<path d="M59.9953 30.6439C58.0153 29.4485 56.0186 28.2815 54.006 27.1438C52.3619 26.215 50.6367 25.2836 48.7545 25.1725C47.024 25.0703 45.335 25.6747 43.7243 26.3208C39.1728 28.1464 34.7871 30.3808 30.5732 32.8988C29.0146 33.8303 27.3229 35.0328 27.0849 36.8433C26.7755 39.1968 28.6303 41.0349 30.2559 42.2667C33.158 44.4656 36.9989 46.2663 39.9804 47.5693C39.9804 47.5693 38.1379 45.5037 38.5161 43.4977C39.1323 40.2323 46.1627 36.2211 49.1063 34.6906C53.8596 32.2198 57.8566 30.8777 59.9953 30.6439Z" fill="#FAEA4E"/>
<path d="M41.5042 48.6754L39.8204 47.9394C36.8011 46.6205 32.9583 44.8198 30.0148 42.5889C27.5121 40.6931 26.4233 38.7964 26.6869 36.7904C26.9434 34.8403 28.6916 33.5534 30.3683 32.5517C34.7911 29.9093 39.2342 27.6864 43.5758 25.9452C45.2059 25.2911 46.9496 24.6645 48.7779 24.7694C50.6839 24.8822 52.3615 25.7515 54.2013 26.7914C56.2024 27.9219 58.2212 29.1014 60.2003 30.2968L61.2229 30.9145L60.0372 31.0443C58.1727 31.2478 54.3697 32.4068 49.2884 35.0483C44.5861 37.4925 39.3902 41.0157 38.908 43.5728C38.5703 45.361 40.2594 47.2799 40.2762 47.2995L41.5033 48.6754H41.5042ZM48.3671 25.5648C46.8279 25.5648 45.3064 26.1203 43.8721 26.6954C39.57 28.4205 35.164 30.6248 30.7765 33.2458C29.1897 34.1942 27.691 35.2927 27.4803 36.8961C27.2582 38.5875 28.2446 40.2389 30.4953 41.9445C32.9645 43.8154 36.1055 45.3877 38.8295 46.6187C38.3544 45.7779 37.8995 44.6047 38.1225 43.4226C38.7793 39.9438 45.8944 35.9069 48.9225 34.3319C53.2571 32.0779 56.7067 30.8807 58.8507 30.4257C57.181 29.4276 55.4893 28.4445 53.8099 27.4953C52.0582 26.5052 50.467 25.6768 48.7303 25.5746C48.6087 25.5675 48.4879 25.5639 48.3662 25.5639L48.3671 25.5648Z" fill="black"/>
<path d="M67.3398 50.4727C67.3748 50.4499 67.3703 50.4527 67.3569 50.4618C67.3515 50.4654 67.3452 50.469 67.3398 50.4727Z" fill="black"/>
<path d="M57.2266 56.3919C57.4258 56.4079 57.625 56.4239 57.8243 56.4399C57.7123 56.3786 57.6003 56.3173 57.4884 56.2568C57.4011 56.3013 57.3138 56.3475 57.2266 56.3919Z" fill="black"/>
<path d="M75.3485 45.0281C75.3512 45.117 75.3538 45.2059 75.3565 45.2948C75.4261 45.1561 75.4958 45.0166 75.5654 44.8779C75.4931 44.9277 75.4208 44.9784 75.3477 45.0281H75.3485Z" fill="black"/>
<path d="M67.6469 50.2722C67.579 50.3166 67.5111 50.361 67.4432 50.4055C67.415 50.4241 67.3868 50.4428 67.3586 50.4615C67.3718 50.4526 67.3753 50.4508 67.3418 50.4721C67.3471 50.4686 67.3533 50.465 67.3586 50.4615C67.3445 50.4704 67.3207 50.4864 67.3163 50.489C67.1629 50.5886 67.0104 50.6881 66.857 50.7877C66.269 51.1681 65.6783 51.5449 65.0851 51.9173C63.8932 52.6648 62.6881 53.3927 61.4689 54.094C60.1607 54.8477 58.8339 55.5694 57.4904 56.2573C57.6024 56.3186 57.7143 56.38 57.8263 56.4404C57.627 56.4244 57.4278 56.4084 57.2286 56.3924C57.3159 56.348 57.4031 56.3018 57.4904 56.2573C55.3553 55.0948 53.2228 53.9278 51.0929 52.7555C48.7665 51.4756 46.4436 50.1895 44.1233 48.8981C42.7657 48.1426 41.409 47.3845 40.054 46.6254C39.7825 46.4734 39.407 46.4832 39.2245 46.7765C39.0667 47.0298 39.0825 47.4502 39.3743 47.6129C42.4616 49.3425 45.555 51.0632 48.6528 52.7732C50.1382 53.5927 51.6245 54.4104 53.1126 55.2254C53.8346 55.6209 54.5566 56.0165 55.2795 56.4102C55.6453 56.6102 56.0103 56.8093 56.3761 57.0084C56.5445 57.0999 56.7129 57.1914 56.8813 57.2839C56.9694 57.3319 57.0576 57.3808 57.1466 57.4279C57.4067 57.5665 57.6015 57.5487 57.8571 57.419C60.8042 55.9187 63.6596 54.2415 66.4506 52.4639C69.2557 50.6766 71.9991 48.7941 74.7355 46.9027C75.0793 46.6654 75.4231 46.4272 75.7669 46.189C75.9388 46.0699 76.1213 45.9588 76.2853 45.8308C76.4572 45.6966 76.5383 45.534 76.5436 45.3109C76.5462 45.1998 76.5356 45.0878 76.533 44.9767C76.5092 44.1412 76.5048 43.3058 76.5198 42.4703C76.5445 41.066 76.6264 39.6644 76.6987 38.2618C76.7155 37.9454 76.7305 37.629 76.7437 37.3117C76.7569 36.998 76.6035 37.1215 76.2756 37.1126C75.96 37.1046 75.5677 36.8922 75.5536 37.2282C75.4698 39.2244 75.327 41.2162 75.3217 43.2151C75.32 43.8195 75.3297 44.423 75.3482 45.0274C75.4205 44.9776 75.4928 44.9269 75.5659 44.8772C75.4963 45.0158 75.4266 45.1554 75.357 45.294C75.3535 45.2051 75.3517 45.1162 75.3491 45.0274C73.079 46.597 70.8117 48.1719 68.5134 49.6989C68.2252 49.89 67.9369 50.0811 67.6486 50.2704L67.6469 50.2722Z" fill="black"/>
<path d="M56.9674 56.67C56.9771 56.8095 57.104 56.9739 57.2125 57.0495C57.3341 57.1348 57.5192 57.181 57.6656 57.1455C57.8128 57.1099 57.9591 57.0308 58.042 56.8984C58.1328 56.7526 58.1496 56.6113 58.1372 56.4416C58.0076 54.5929 57.878 52.7442 57.7484 50.8946C57.7114 50.3711 57.6753 49.8476 57.6383 49.3241C57.6286 49.1845 57.5016 49.6254 57.3932 49.5498C57.2715 49.4645 57.0864 49.4183 56.9401 49.4538C56.7928 49.4894 56.6465 48.9632 56.5636 49.0956C56.4728 49.2414 56.4561 49.3827 56.4684 49.5525C56.598 51.4012 56.7276 53.2499 56.8572 55.0995C56.8942 55.623 56.9304 56.1465 56.9674 56.67Z" fill="black"/>
<path d="M70.044 44.2178C70.0368 44.2223 70.0305 44.2269 70.0234 44.2314C70.0162 44.236 70.0171 44.2351 70.044 44.2178Z" fill="black"/>
<path d="M59.6835 50.9584C61.6793 50.0038 63.6417 48.9782 65.5644 47.8832C67.4959 46.7837 69.3877 45.6132 71.2381 44.3786C72.2766 43.6863 73.3001 42.9726 74.3103 42.2384C74.4796 42.1158 74.4937 41.8234 74.3562 41.6731C74.2001 41.5034 73.9762 41.4954 73.7955 41.6269C72.9042 42.274 72.0024 42.9059 71.0891 43.5218C70.8555 43.6792 70.6219 43.8356 70.3865 43.9902C70.279 44.0613 70.1723 44.1316 70.0647 44.2018C70.0568 44.2071 70.0321 44.2231 70.0224 44.2293C70.0295 44.2249 70.0356 44.2204 70.0427 44.216C70.0171 44.2329 70.0154 44.2338 70.0224 44.2293C69.9986 44.2453 69.9739 44.2604 69.9501 44.2764C69.8884 44.3164 69.8267 44.3564 69.7659 44.3964C69.3039 44.6959 68.8394 44.991 68.3721 45.2817C66.5032 46.446 64.5938 47.5428 62.6482 48.5711C61.5559 49.1479 60.4531 49.7025 59.3397 50.2349C59.1519 50.3247 59.0523 50.5789 59.1537 50.77C59.255 50.962 59.4834 51.0535 59.6844 50.9575L59.6835 50.9584Z" fill="black"/>
<path d="M59.7279 53.4421C61.5395 52.4902 63.3291 51.4956 65.0948 50.4602C66.8553 49.4274 68.592 48.3546 70.3031 47.241C71.2843 46.6019 72.2584 45.9513 73.2228 45.2883C73.3956 45.1701 73.4036 44.8705 73.2687 44.723C73.1091 44.5497 72.8922 44.5506 72.708 44.6768C71.0031 45.85 69.4074 46.8943 67.6531 47.9849C65.9253 49.0594 64.1719 50.0931 62.3964 51.0859C61.3993 51.6432 60.3944 52.188 59.3832 52.7195C59.199 52.8164 59.0932 53.059 59.1972 53.2546C59.2959 53.4412 59.5304 53.5461 59.7279 53.4421Z" fill="black"/>
<path d="M45.3164 46.6211C45.3496 46.6384 45.3487 46.6375 45.3388 46.6329C45.3316 46.6293 45.3245 46.6256 45.3164 46.6211Z" fill="black"/>
<path d="M45.8118 47.7583C47.1667 48.4223 48.5534 49.0204 49.9657 49.5492C50.7626 49.8479 51.5675 50.1234 52.3794 50.3776C52.5778 50.4398 52.8228 50.3447 52.8863 50.1323C52.9471 49.9305 52.8554 49.6879 52.643 49.6212C51.2166 49.1742 49.8114 48.6596 48.4335 48.0765C47.7389 47.7823 47.0513 47.4721 46.3716 47.1451C46.0348 46.9824 45.6998 46.8162 45.3666 46.6464C45.3569 46.6411 45.3463 46.6358 45.3366 46.6313C45.3463 46.6367 45.3472 46.6367 45.3146 46.6198C45.3216 46.6233 45.3287 46.6269 45.3366 46.6313C45.3278 46.6269 45.3119 46.6189 45.3066 46.6162C45.267 46.5958 45.2264 46.5744 45.1868 46.554C45.1012 46.5096 45.0148 46.4642 44.9293 46.4189C44.7636 46.3318 44.5988 46.2429 44.4348 46.154C43.6925 45.7505 42.9608 45.3266 42.2415 44.8831C42.0643 44.7737 41.8068 44.7933 41.6878 44.9835C41.5785 45.1586 41.5979 45.4243 41.7875 45.5417C43.0922 46.346 44.4365 47.0846 45.8118 47.7583Z" fill="black"/>
<path d="M46.7515 48.8822C46.7442 48.8785 46.7378 48.8748 46.7305 48.8711C46.7469 48.8794 46.7524 48.8822 46.7515 48.8822Z" fill="black"/>
<path d="M47.3706 50.08C48.8357 50.7972 50.3326 51.4496 51.8559 52.0327C52.7137 52.3615 53.5803 52.6682 54.4539 52.9535C54.6514 53.0184 54.8973 52.9188 54.9608 52.7082C55.0216 52.5046 54.9291 52.2664 54.7175 52.1971C53.18 51.6949 51.6646 51.1252 50.1766 50.4888C49.4264 50.168 48.6841 49.8302 47.9489 49.4765C47.5874 49.3023 47.2277 49.1236 46.8698 48.9423C46.8302 48.9219 46.7914 48.9023 46.7517 48.8819C46.7517 48.8819 46.7473 48.8792 46.7314 48.8712C46.7385 48.8748 46.7447 48.8783 46.7517 48.8819C46.7491 48.8801 46.6847 48.8472 46.6706 48.8401C46.5727 48.7895 46.4749 48.7388 46.3779 48.6872C46.1999 48.5939 46.0227 48.4997 45.8463 48.4046C45.0424 47.9718 44.249 47.5185 43.4679 47.0456C43.2898 46.9381 43.0342 46.955 42.9143 47.1461C42.8058 47.3194 42.8235 47.5887 43.0139 47.7042C44.4306 48.5601 45.8851 49.3521 47.3706 50.08Z" fill="black"/>
<path d="M46.0067 23.4807C45.9494 23.4273 45.893 23.3731 45.8366 23.3189C45.6056 23.0967 45.3808 22.8674 45.1613 22.6336C44.1731 21.5804 43.2792 20.4365 42.4338 19.2651C41.9736 18.6278 41.5284 17.9799 41.0947 17.3249C40.9827 17.156 40.8725 16.9871 40.7623 16.8174C40.7368 16.7782 40.7112 16.7391 40.6865 16.7C40.6786 16.6876 40.6433 16.6334 40.6319 16.6156C40.6486 16.6423 40.6601 16.66 40.6389 16.6272C40.6257 16.6067 40.6257 16.6067 40.6319 16.6156C40.6169 16.5925 40.5984 16.5632 40.5922 16.5543C40.5631 16.5081 40.534 16.4627 40.504 16.4165C40.2925 16.0841 40.0835 15.749 39.8773 15.4131C39.0988 14.1456 38.3557 12.856 37.6487 11.5468C37.0898 10.5104 36.5494 9.46166 36.0601 8.38977C36.0134 8.28756 35.9675 8.18535 35.9217 8.08225C35.7886 7.78095 35.4139 7.66896 35.1265 7.8005C32.4651 9.01815 29.7746 10.1718 27.0576 11.2597C24.3406 12.3467 21.5981 13.3679 18.8326 14.3225C17.2864 14.8558 15.8071 15.3428 14.2142 15.8432C13.8501 15.9579 13.6138 16.3116 13.7901 16.6938C15.0798 19.4846 16.5512 22.1884 18.2482 24.7499C19.9108 27.2589 21.8017 29.6196 23.9483 31.726C25.1852 32.9393 26.4996 34.0725 27.8916 35.1008C28.1428 35.2866 28.0688 35.0022 28.2371 34.732C28.4134 34.4502 28.841 34.3116 28.5712 34.1125C27.9621 33.6627 27.367 33.1934 26.7878 32.7046C26.4996 32.462 26.2148 32.214 25.9345 31.9625C25.8719 31.9056 25.8093 31.8487 25.7458 31.7918C25.7414 31.7874 25.7379 31.7847 25.7344 31.782C25.6877 31.7403 25.8208 31.862 25.7344 31.782C25.7282 31.7767 25.722 31.7705 25.7141 31.7634C25.6868 31.7376 25.6586 31.7127 25.6312 31.6869C25.4867 31.5527 25.343 31.4176 25.2002 31.2808C24.1291 30.256 23.1179 29.1672 22.1676 28.0278C21.2093 26.8794 20.3119 25.6796 19.4709 24.4415C19.2637 24.1366 19.061 23.83 18.8609 23.5207C18.852 23.5073 18.8238 23.4638 18.8168 23.4522C18.8229 23.4629 18.83 23.4727 18.8362 23.4833C18.815 23.4504 18.8115 23.4451 18.8168 23.4522C18.8027 23.4309 18.7894 23.4087 18.7753 23.3873C18.7242 23.3074 18.674 23.2282 18.6237 23.1483C18.5223 22.9883 18.4227 22.8274 18.3231 22.6665C17.9255 22.0213 17.5412 21.3671 17.17 20.705C16.4524 19.4269 15.7842 18.1212 15.1565 16.7969C14.9176 16.8733 14.6796 16.9489 14.4407 17.0244C14.5818 16.7409 14.7237 16.4574 14.8647 16.1739C14.9608 16.3818 15.0587 16.5898 15.1565 16.7969C17.7536 15.9694 20.3331 15.086 22.8913 14.1439C25.6471 13.1288 28.3782 12.0463 31.0819 10.898C32.4254 10.3274 33.7619 9.73897 35.0913 9.13636C35.0093 8.95949 34.9264 8.78262 34.848 8.60397C35.1133 8.69819 35.3787 8.79151 35.6431 8.88572C35.4598 8.97016 35.2755 9.05282 35.0913 9.13636C35.4853 9.98606 35.9102 10.8215 36.3493 11.6481C37.0422 12.9538 37.7739 14.239 38.539 15.5028C39.3783 16.8902 40.2572 18.2554 41.1925 19.5797C42.0485 20.7929 42.9513 21.9777 43.9457 23.0798C44.7646 23.9873 45.6559 24.8805 46.6882 25.5409C46.7922 25.6076 46.9377 25.1934 47.0452 25.2529C47.3167 25.4058 47.4622 25.748 47.6456 25.4547C47.8034 25.2014 47.9762 24.9063 47.6852 24.7428C47.2312 24.4877 46.8107 24.1757 46.4123 23.8397C46.303 23.7473 46.1954 23.6531 46.0896 23.558C46.072 23.5429 45.9812 23.4611 46.0561 23.5278C46.1302 23.5944 46.0288 23.502 46.0085 23.4833L46.0067 23.4807Z" fill="black"/>
<path d="M34.8477 8.60254C34.927 8.78119 35.009 8.95806 35.091 9.13493C35.2752 9.05138 35.4595 8.96872 35.6428 8.88429C35.3775 8.79008 35.1121 8.69675 34.8477 8.60254Z" fill="black"/>
<path d="M25.737 31.7817C25.6895 31.7389 25.8249 31.8635 25.737 31.7817V31.7817Z" fill="black"/>
<path d="M40.6326 16.6161C40.6272 16.6071 40.6263 16.6071 40.6398 16.6278C40.6613 16.6611 40.6496 16.6431 40.6326 16.6161Z" fill="black"/>
<path d="M14.4414 17.0234C14.6803 16.9488 14.9192 16.8723 15.1572 16.7959C15.0594 16.5888 14.9615 16.3808 14.8654 16.1729C14.7244 16.4564 14.5825 16.7399 14.4414 17.0234Z" fill="black"/>
<path d="M18.838 23.4827C18.8317 23.4719 18.8245 23.462 18.8182 23.4512C18.8138 23.444 18.8165 23.4485 18.838 23.4827Z" fill="black"/>
<path d="M9.08203 26.6924C9.16402 26.8186 9.246 26.9457 9.3271 27.0719C9.31388 27.0026 9.3033 26.9324 9.29272 26.863C9.2222 26.8061 9.15167 26.7493 9.08203 26.6924Z" fill="black"/>
<path d="M9.16797 25.6875C9.16797 25.6875 9.16898 25.6944 9.17 25.6954C9.17 25.6934 9.17 25.6895 9.16797 25.6875Z" fill="black"/>
<path d="M11.9663 18.3513C11.9609 18.3532 11.9546 18.355 11.9492 18.3577C11.9492 18.3577 12.0622 18.3204 11.9976 18.3413C11.9869 18.345 11.9761 18.3486 11.9654 18.3513H11.9663Z" fill="black"/>
<path d="M9.45312 20.1381C9.56508 20.1248 9.67704 20.1097 9.78812 20.0928C9.82514 19.9773 9.86217 19.8617 9.90272 19.7471C9.75286 19.8777 9.60299 20.0075 9.45312 20.1381Z" fill="black"/>
<path d="M15.2114 18.1811C15.4803 18.022 15.6513 17.6816 15.4909 17.3794C15.349 17.1119 14.9822 16.9279 14.6957 17.0977C14.0319 17.4905 13.3381 17.831 12.6205 18.1127C12.4424 18.1829 12.2635 18.2487 12.0837 18.3118C12.044 18.3251 12.0034 18.3376 11.9646 18.3527C11.9752 18.3491 11.9858 18.3456 11.9964 18.3429C12.0599 18.3225 11.9488 18.3589 11.9488 18.3589C11.9541 18.3571 11.9594 18.3553 11.9655 18.3527C11.9497 18.358 11.9347 18.3625 11.9188 18.3678C11.828 18.3971 11.7372 18.4256 11.6455 18.4531C11.2735 18.5651 10.8971 18.662 10.518 18.7437C10.0913 18.8353 9.66113 18.9064 9.22828 18.9597C9.02464 18.9846 8.8448 19.1624 8.77868 19.3508C8.08754 21.3453 7.85922 23.4988 7.97999 25.6017C8.01085 26.1394 8.05404 26.6789 8.14132 27.2113C8.14661 27.2407 8.15013 27.2709 8.1563 27.3002C8.21889 27.5944 8.5054 27.7668 8.72579 27.9446C9.06255 28.2148 9.40195 28.4823 9.74311 28.7472C11.2823 29.939 12.8621 31.0767 14.4647 32.1806C16.3319 33.4676 18.229 34.7074 20.1464 35.9171C22.3001 37.2752 24.4793 38.5933 26.6761 39.8794C26.9662 40.0491 27.2562 40.218 27.5462 40.3869C27.816 40.5433 28.1951 40.5264 28.3758 40.2358C28.5362 39.9798 27.9253 39.3399 27.6361 39.1719C26.1058 38.2831 25.1739 37.6076 23.663 36.6868C22.2533 35.8282 20.8525 34.9545 19.4632 34.0622C18.1902 33.2445 16.9278 32.4117 15.6778 31.5593C14.5423 30.7843 13.4175 29.9933 12.3085 29.1791C11.3264 28.4583 10.3567 27.7206 9.40636 26.9571C9.36845 26.9269 9.33142 26.8958 9.29352 26.8656C9.30409 26.9358 9.31467 27.0051 9.3279 27.0745C9.24591 26.9482 9.16393 26.8211 9.08282 26.6949C9.15335 26.7518 9.22299 26.8087 9.29352 26.8656C9.28382 26.8007 9.275 26.7349 9.26619 26.67C9.24591 26.5136 9.22828 26.3581 9.21241 26.2008C9.20272 26.1012 9.1939 26.0026 9.18597 25.903C9.18156 25.8506 9.17803 25.799 9.17451 25.7466C9.17274 25.7217 9.17098 25.6968 9.16922 25.6719C9.16922 25.6595 9.16745 25.6462 9.16657 25.6337C9.1604 25.5431 9.16393 25.6577 9.16922 25.6915C9.16922 25.6941 9.16922 25.6968 9.17098 25.6986C9.17098 25.6968 9.17098 25.6933 9.16922 25.6915C9.15687 25.647 9.16393 25.583 9.16216 25.5386C9.15864 25.4737 9.15599 25.4088 9.15335 25.3431C9.14806 25.2098 9.14453 25.0764 9.14189 24.9431C9.1366 24.6498 9.13924 24.3565 9.14806 24.0632C9.16922 23.4037 9.22652 22.746 9.32525 22.0936C9.35523 21.8936 9.38961 21.6946 9.42751 21.4964C9.43104 21.4759 9.43545 21.4564 9.43897 21.4359C9.43897 21.4324 9.44338 21.4128 9.44779 21.3933C9.43809 21.4404 9.44162 21.4244 9.44779 21.3933C9.45484 21.3595 9.46101 21.3284 9.44779 21.3933C9.45396 21.3639 9.46278 21.323 9.46542 21.3106C9.48746 21.2084 9.51126 21.1071 9.53506 21.0048C9.60823 20.6991 9.69374 20.396 9.78807 20.0965C9.67611 20.1125 9.56504 20.1276 9.45308 20.1418C9.60294 20.0112 9.75281 19.8814 9.90267 19.7508C9.863 19.8654 9.8251 19.981 9.78807 20.0965C11.2559 19.8832 12.6955 19.445 14.0363 18.8086C14.4365 18.6184 14.8288 18.4096 15.2105 18.1838L15.2114 18.1811Z" fill="black"/>
<path d="M9.44747 21.3904C9.45458 21.3566 9.46079 21.3255 9.44747 21.3904C9.4377 21.4375 9.44126 21.4215 9.44747 21.3904Z" fill="black"/>
<path d="M13.3252 25.693C13.3197 25.6884 13.3142 25.6829 13.3097 25.6782C13.3014 25.6709 13.3014 25.6709 13.3252 25.693Z" fill="black"/>
<path d="M15.1215 28.2786C16.1917 29.1372 17.2998 29.9478 18.4406 30.7068C19.0841 31.1352 19.7373 31.5467 20.4012 31.9422C20.5792 32.0489 20.834 32.0338 20.9548 31.8418C21.0623 31.6694 21.0465 31.3983 20.8552 31.2836C19.6889 30.5886 18.5525 29.842 17.4506 29.0465C16.3442 28.2475 15.2722 27.3996 14.2391 26.5055C13.9517 26.2566 13.6669 26.0042 13.3848 25.7482C13.3707 25.7358 13.3575 25.7233 13.3434 25.71C13.3381 25.7047 13.3169 25.686 13.3072 25.6771C13.3125 25.6816 13.3178 25.6869 13.3222 25.6913C13.2984 25.67 13.2993 25.67 13.3072 25.6771C13.2799 25.6522 13.2535 25.6273 13.2261 25.6024C13.1574 25.5393 13.0886 25.4754 13.0199 25.4114C12.8735 25.2754 12.7289 25.1376 12.5844 24.9998C12.4336 24.8559 12.193 24.7963 12.0237 24.9536C11.88 25.0878 11.8165 25.3643 11.9778 25.5189C12.9855 26.4832 14.0336 27.4049 15.1206 28.2768L15.1215 28.2786Z" fill="black"/>
<path d="M16.1 30.9437C17.7582 32.108 19.4429 33.2333 21.1522 34.3203C22.121 34.9362 23.0978 35.5397 24.0816 36.1307C24.2597 36.2374 24.5154 36.2223 24.6353 36.0303C24.7437 35.857 24.7261 35.5868 24.5356 35.4721C22.7884 34.4234 21.0649 33.3346 19.3671 32.2067C17.6797 31.0859 16.018 29.926 14.3827 28.7288C13.4562 28.0498 12.5376 27.3592 11.6287 26.657C11.4639 26.5291 11.1862 26.5806 11.0751 26.7575C10.9561 26.9486 10.9984 27.1788 11.1747 27.3156C12.7889 28.5626 14.4312 29.7723 16.1 30.9437Z" fill="black"/>
<path d="M32.777 38.4726C32.6377 38.3988 32.4993 38.3224 32.3635 38.2433C31.8284 37.9313 31.3189 37.5767 30.8411 37.1821C30.7062 37.0701 30.574 36.9554 30.4435 36.8381C30.4461 36.8399 30.4479 36.8425 30.4505 36.8443C30.4523 36.8461 30.4541 36.847 30.455 36.8488C30.4638 36.8568 30.4691 36.8621 30.455 36.8488C30.4497 36.8434 30.4435 36.8381 30.4408 36.8363C30.4408 36.8363 30.4426 36.8372 30.4426 36.8381C30.4267 36.8239 30.4118 36.8096 30.3959 36.7945C30.3606 36.7617 30.3254 36.7279 30.2901 36.6941C30.224 36.631 30.1596 36.567 30.0953 36.5021C29.9481 36.3546 29.7012 36.3004 29.5346 36.4559C29.3874 36.5928 29.3318 36.863 29.4888 37.0212C30.4356 37.9713 31.5243 38.7481 32.7259 39.3374C33.0529 39.4974 33.387 39.6414 33.7273 39.7693C33.9221 39.8422 34.1725 39.7285 34.2342 39.524C34.2977 39.3125 34.1998 39.0921 33.9909 39.013C33.7017 38.9045 33.4161 38.7846 33.1367 38.6521C33.0653 38.6184 32.9947 38.5837 32.9242 38.549C32.8978 38.5357 32.8722 38.5224 32.8457 38.5099C32.8422 38.5081 32.8369 38.5055 32.8264 38.5001C32.8325 38.5037 32.8396 38.5064 32.8457 38.5099C32.8669 38.5206 32.7946 38.4833 32.7761 38.4735L32.777 38.4726Z" fill="black"/>
<path d="M32.8483 38.5092C32.8419 38.5055 32.8345 38.5027 32.8281 38.499C32.8382 38.5046 32.8446 38.5073 32.8483 38.5092Z" fill="#221F20"/>
<path d="M30.4432 36.8378C30.4432 36.8378 30.4414 36.8369 30.4414 36.8359C30.4432 36.8378 30.4496 36.8433 30.456 36.8489C30.4542 36.847 30.4533 36.8461 30.4515 36.8442C30.4487 36.8424 30.4469 36.8396 30.4441 36.8378H30.4432Z" fill="#221F20"/>
<path d="M31.7602 17.1887L31.3397 18.1219C31.4578 18.2223 32.6029 19.2827 32.0343 20.2595C31.3308 21.4193 29.5113 20.9909 28.9841 20.7438C28.6148 20.5928 28.0893 20.2568 27.6979 19.8026C27.2219 19.2498 27.0764 18.6818 27.3956 18.0606C28.0382 16.9442 29.3121 17.4197 29.3121 17.4197L29.7555 16.4456C28.3071 15.9834 26.8349 17.0127 26.5651 17.6828C26.5651 17.6828 26.0468 19.0676 25.9851 19.3102C25.9851 19.3102 25.4993 21.4558 28.1043 22.6805C30.5224 23.8493 32.0246 22.0868 32.0246 22.0868C32.1956 21.8824 32.863 20.5776 32.863 20.5776C33.28 19.8106 33.1997 18.2899 31.7584 17.1887H31.7602Z" fill="black"/>
<path d="M59.4791 41.5634L58.7861 41.055C58.6583 41.0923 57.3474 41.4345 56.6625 40.8292C55.8594 40.0942 56.8273 39.1867 57.217 38.9592C57.4709 38.7939 57.939 38.593 58.4688 38.5033C59.1132 38.3939 59.6651 38.4757 60.1138 38.8366C60.8984 39.5245 60.0644 40.1093 60.0644 40.1093L60.7864 40.6435C61.6653 39.9564 61.2263 38.8232 60.7176 38.4766C60.7176 38.4766 59.6554 37.7816 59.4588 37.6758C59.4588 37.6758 57.7098 36.7781 55.78 37.9007C53.9605 38.9325 55.0413 40.296 55.0413 40.296C55.1682 40.4524 56.1115 41.2088 56.1115 41.2088C56.6581 41.6674 58.0351 42.0629 59.4791 41.5652V41.5634Z" fill="black"/>
</svg>
