<svg width="396" height="158" viewBox="0 0 396 158" fill="none" xmlns="http://www.w3.org/2000/svg">
<path d="M269.218 57.1195C257.802 57.6786 251.017 65.8979 249.665 68.9372V57.6042H233.07V139.79H249.665V86.8159C249.453 77.7014 255.432 69.7333 263.731 69.567C280.404 68.7108 278.957 88.1215 278.957 88.1215V139.836H304.598V87.3714C304.598 87.3714 304.598 55.3893 269.214 57.1195" fill="#00E13F"/>
<path d="M119.914 128.337V57.5723H94.2734V139.535H112.51H119.914H149.708V128.337H119.914Z" fill="#00E13F"/>
<path d="M369.7 135.485L361.677 126.317C360 127.113 342.86 134.423 335.092 123.416C325.685 110.215 339.644 92.2687 344.926 87.7256C348.393 84.4315 354.633 80.3413 361.486 78.2998C369.828 75.8159 376.698 77.0083 381.845 83.5434C390.756 96.0405 379.312 107.621 379.312 107.621L387.664 117.245C399.837 103.697 395.971 82.5633 390.045 76.3361C390.045 76.3361 377.61 63.885 375.286 62.0097C375.286 62.0097 354.449 46.1726 328.303 68.6227C303.681 89.3001 315.341 114.354 315.341 114.354C316.717 117.224 327.539 130.917 327.539 130.917C333.783 139.228 350.65 145.816 369.704 135.481" fill="#00E13F"/>
<path d="M203.589 57.5974V98.7612C203.797 107.876 197.822 115.844 189.523 116.01C172.85 116.866 174.297 97.4556 174.297 97.4556V57.5479H148.656V98.2092C148.656 98.2092 148.656 130.188 184.04 128.461C195.456 127.906 202.241 119.686 203.592 116.643V122.269C203.146 138.075 197.193 143.835 181.783 144.171V157.903C221.188 159.644 220.187 127.98 220.187 127.98V57.5974H203.592H203.589Z" fill="#00E13F"/>
<path d="M75.9578 76.6476L68.3448 86.1619C69.4237 87.6692 79.6334 103.262 70.1666 112.847C58.5986 124.141 38.71 113.845 33.3115 109.443C29.4591 106.609 24.3366 101.185 21.1208 94.7987C17.2118 87.0252 17.1728 80.0478 22.6986 73.8312C33.4283 62.8591 46.843 72.0904 46.843 72.0904L54.8487 62.1727C39.3715 52.5735 19.253 60.0957 14.1658 67.0271C14.1658 67.0271 4.09773 81.4596 2.66499 84.0814C2.66499 84.0814 -9.25685 107.381 17.4417 129.173C42.1238 149.779 64.7328 133.886 64.7328 133.886C67.3153 132.028 78.8905 118.961 78.8905 118.961C85.9728 111.351 89.4892 93.5851 75.9648 76.6441" fill="#00E13F"/>
<path d="M190.885 11.1282C190.773 10.7167 190.439 10.4993 190.023 10.4372C189.635 10.3789 189.301 10.5032 189.114 10.8565C188.924 11.2097 188.765 11.5824 188.617 11.959C188.412 12.487 188.229 13.0227 188.039 13.5507C187.996 13.5391 187.953 13.5274 187.914 13.5158C188.046 12.6539 188.21 11.7921 188.299 10.9224C188.369 10.2314 188.384 9.53261 188.353 8.83769C188.33 8.333 187.918 7.96807 187.433 7.92149C186.936 7.87102 186.617 8.16607 186.47 8.58535C186.303 9.07063 186.214 9.58308 186.113 10.0878C186.015 10.5692 185.949 11.0583 185.872 11.5436C185.821 11.5358 185.771 11.5281 185.72 11.5203C185.682 10.8565 185.647 10.1965 185.604 9.53261C185.584 9.21039 185.569 8.88428 185.518 8.56205C185.429 8.02631 185.014 7.60314 184.583 7.57209C184.109 7.53715 183.697 7.83608 183.534 8.41453C183.433 8.76781 183.39 9.14827 183.379 9.51708C183.355 10.3595 183.375 11.2059 183.363 12.0522C183.355 12.5724 183.363 13.0965 183.297 13.609C183.216 14.2534 183.087 14.2961 182.524 13.9816C181.818 13.5895 181.076 13.4148 180.272 13.5973C179.806 13.7021 179.406 13.9001 179.313 14.4359C179.227 14.9289 179.453 15.3288 179.981 15.6161C180.637 15.9732 181.305 16.3032 181.95 16.6798C182.451 16.971 182.901 17.3553 183.414 17.6193C183.678 17.7552 183.783 17.8833 183.755 18.1589C183.662 19.0635 183.623 19.9758 183.468 20.8648C183.08 23.0738 182.276 25.112 180.792 26.8318C180.583 27.0725 180.357 27.2977 180.078 27.5966C180.058 27.5384 180.035 27.484 180.016 27.4258C179.348 28.3459 178.416 29.068 177.363 29.53C177.561 30.6248 177.627 31.7079 177.573 32.7755H181.157C182.652 31.7778 183.926 30.5393 184.994 29.0913C187.114 26.2223 188.128 22.9651 188.361 19.4362C188.412 18.6442 188.594 17.9376 189.01 17.2039C189.918 15.6122 190.497 13.8574 190.947 12.0755C191.021 11.7804 190.967 11.4233 190.885 11.1204V11.1282Z" fill="black"/>
<path d="M147.751 67.4088C148.396 67.1642 148.734 66.6091 148.614 65.8986C148.556 65.565 148.457 65.2408 148.358 64.915C148.329 64.82 148.3 64.7247 148.272 64.6291C148.039 63.8177 148.151 63.049 148.594 62.3386C148.68 62.2027 148.85 62.0164 148.971 62.028C149.095 62.0358 149.262 62.2338 149.309 62.3813C149.451 62.8323 149.57 63.2909 149.688 63.7489C149.716 63.8547 149.743 63.9605 149.771 64.0662C149.899 64.5592 150.21 64.8504 150.637 64.8388C151.107 64.8271 151.371 64.5204 151.414 64.105C151.425 63.9918 151.437 63.8784 151.449 63.7651C151.544 62.8644 151.64 61.9614 151.615 61.0614C151.584 60.0093 151.118 59.0969 150.342 58.3477C150.194 58.2079 150.12 57.909 150.136 57.6955C150.221 56.5619 150.338 55.4321 150.47 54.3063C150.519 53.8787 150.592 53.4531 150.668 53.0034C150.7 52.8162 150.733 52.6247 150.765 52.4273C150.821 52.4753 150.869 52.5135 150.91 52.5467C150.977 52.5994 151.027 52.6398 151.068 52.6874C152.159 53.9608 153.437 54.9507 154.874 55.6922C154.986 54.5819 155.072 53.4677 155.13 52.3496C153.118 50.9598 151.814 49.0187 151.281 46.5379C150.703 43.8437 150.812 41.1416 151.666 38.5405C150.761 38.1213 149.837 37.6981 148.901 37.3604C148.761 37.7913 148.637 38.23 148.536 38.6803C148.28 39.8294 148.089 41.0135 148.047 42.186C148.011 43.1532 147.761 44.0625 147.513 44.9703C147.386 45.4325 147.259 45.8944 147.161 46.3632C146.33 50.3542 145.522 54.3451 145.398 58.4408C145.387 58.8524 145.223 59.2911 145.025 59.6599C144.268 61.0575 143.888 62.5405 143.787 64.1244C143.709 65.3434 144.497 65.9568 145.324 66.5625C145.398 66.6155 145.506 66.6165 145.617 66.6175C145.692 66.6182 145.769 66.6189 145.837 66.6362C145.862 66.6427 145.888 66.649 145.914 66.6555C146.062 66.6914 146.227 66.7316 146.303 66.8303C146.75 67.4088 147.216 67.6068 147.759 67.401L147.751 67.4088Z" fill="black"/>
<path d="M147.751 67.4088C148.396 67.1642 148.734 66.6091 148.614 65.8986C148.556 65.565 148.457 65.2408 148.358 64.915C148.329 64.82 148.3 64.7247 148.272 64.6291C148.039 63.8177 148.151 63.049 148.594 62.3386C148.68 62.2027 148.85 62.0164 148.971 62.028C149.095 62.0358 149.262 62.2338 149.309 62.3813C149.451 62.8323 149.57 63.2909 149.688 63.7489C149.716 63.8547 149.743 63.9605 149.771 64.0662C149.899 64.5592 150.21 64.8504 150.637 64.8388C151.107 64.8271 151.371 64.5204 151.414 64.105C151.425 63.9918 151.437 63.8784 151.449 63.7651C151.544 62.8644 151.64 61.9614 151.615 61.0614C151.584 60.0093 151.118 59.0969 150.342 58.3477C150.194 58.2079 150.12 57.909 150.136 57.6955C150.221 56.5619 150.338 55.4321 150.47 54.3063C150.519 53.8787 150.592 53.4531 150.668 53.0034C150.7 52.8162 150.733 52.6247 150.765 52.4273C150.821 52.4753 150.869 52.5135 150.91 52.5467C150.977 52.5994 151.027 52.6398 151.068 52.6874C152.159 53.9608 153.437 54.9507 154.874 55.6922C154.986 54.5819 155.072 53.4677 155.13 52.3496C153.118 50.9598 151.814 49.0187 151.281 46.5379C150.703 43.8437 150.812 41.1416 151.666 38.5405C150.761 38.1213 149.837 37.6981 148.901 37.3604C148.761 37.7913 148.637 38.23 148.536 38.6803C148.28 39.8294 148.089 41.0135 148.047 42.186C148.011 43.1532 147.761 44.0625 147.513 44.9703C147.386 45.4325 147.259 45.8944 147.161 46.3632C146.33 50.3542 145.522 54.3451 145.398 58.4408C145.387 58.8524 145.223 59.2911 145.025 59.6599C144.268 61.0575 143.888 62.5405 143.787 64.1244C143.709 65.3434 144.497 65.9568 145.324 66.5625C145.398 66.6155 145.506 66.6165 145.617 66.6175C145.692 66.6182 145.769 66.6189 145.837 66.6362C145.862 66.6427 145.888 66.649 145.914 66.6555C146.062 66.6914 146.227 66.7316 146.303 66.8303C146.75 67.4088 147.216 67.6068 147.759 67.401L147.751 67.4088Z" stroke="white"/>
<path d="M182.649 45.1058L176.875 44.9583C176.615 45.7968 173.652 54.1203 167.318 53.2934C159.737 52.1598 157.924 41.7011 158.036 38.4012C158.001 36.134 158.58 32.6477 160.071 29.6041C161.885 25.9004 164.51 23.8856 168.44 24.1923C175.659 25.1007 176.016 32.8108 176.016 32.8108L182.055 32.9933C181.244 24.398 172.634 18.959 168.56 19.025C168.56 19.025 160.227 19.3589 158.825 19.5685C158.825 19.5685 146.608 21.7426 146.033 38.0673C145.326 53.2895 157.807 57.2727 157.807 57.2727C159.248 57.7153 167.5 58.3403 167.5 58.3403C172.405 58.8334 180.121 55.0715 182.642 45.1136" fill="black"/>
<path d="M171.5 31.8983C170.211 31.7081 168.855 32.3059 168.106 33.3813C167.283 34.5576 167.422 36.0329 167.962 37.2946C168.58 38.7388 169.554 40.0005 170.11 41.4835C170.308 42.0076 170.816 43.1839 170.424 43.6847C169.857 44.4068 168.545 44.0147 167.85 43.7779C167.364 43.611 167.154 44.3796 167.636 44.5466C168.719 44.9193 170.599 45.2182 171.224 43.9138C171.492 43.3586 171.279 42.6132 171.127 42.0542C170.921 41.2933 170.599 40.5634 170.246 39.8607C169.585 38.5563 168.552 37.2868 168.339 35.8077C168.098 34.1344 169.508 32.4107 171.29 32.6747C171.791 32.7485 172.009 31.9837 171.504 31.906" fill="black"/>
<path d="M163.672 38.2266C160.681 37.6365 157.711 36.9338 154.771 36.1186C154.278 35.9827 154.064 36.7514 154.557 36.8873C157.497 37.6986 160.464 38.4013 163.458 38.9953C163.959 39.0924 164.173 38.3276 163.672 38.2266Z" fill="black"/>
<path d="M172.487 46.3483C170.199 48.0526 167.058 48.4874 164.417 47.3615C163.951 47.1635 163.543 47.8468 164.013 48.0487C166.906 49.2793 170.351 48.9261 172.887 47.0354C173.294 46.7326 172.894 46.0416 172.483 46.3483" fill="black"/>
<path d="M168.054 38.2574C168.042 39.1232 167.537 39.9579 166.702 40.2645C165.891 40.5635 164.978 40.2917 164.438 39.6162C163.883 38.9174 163.825 37.908 164.271 37.1432C164.695 36.4211 165.545 35.9941 166.38 36.161C167.378 36.359 168.038 37.2675 168.05 38.2574C168.058 38.7699 168.854 38.7699 168.846 38.2574C168.831 37.0462 168.116 35.9436 166.974 35.5049C165.864 35.0779 164.567 35.4622 163.833 36.3862C163.071 37.3451 162.959 38.7117 163.584 39.7754C164.198 40.8158 165.405 41.3671 166.59 41.1225C167.93 40.8469 168.827 39.589 168.846 38.2574C168.854 37.745 168.058 37.745 168.05 38.2574" fill="black"/>
<path d="M173.532 37.4222C173.521 38.3035 172.977 39.1227 172.138 39.4255C171.284 39.7322 170.313 39.4682 169.738 38.7616C169.183 38.0745 169.121 37.0845 169.571 36.3313C170.022 35.5821 170.915 35.1667 171.781 35.3258C172.794 35.5161 173.521 36.4012 173.532 37.4261C173.54 37.9386 174.336 37.9386 174.328 37.4261C174.313 36.2032 173.559 35.1162 172.414 34.6814C171.276 34.2505 169.925 34.6115 169.152 35.551C168.375 36.4983 168.247 37.8609 168.88 38.9208C169.513 39.9806 170.748 40.5125 171.956 40.299C173.33 40.0505 174.309 38.7965 174.328 37.4261C174.336 36.9137 173.54 36.9137 173.532 37.4261" fill="black"/>
<path d="M171.992 37.4222C171.992 38.0899 172.388 38.6334 172.874 38.6334C173.359 38.6334 173.755 38.0899 173.755 37.4222C173.755 36.7544 173.359 36.2109 172.874 36.2109C172.388 36.2109 171.992 36.7544 171.992 37.4222Z" fill="black"/>
<path d="M166.363 38.2572C166.363 38.9249 166.759 39.4684 167.245 39.4684C167.73 39.4684 168.126 38.9249 168.126 38.2572C168.126 37.5894 167.73 37.0459 167.245 37.0459C166.759 37.0459 166.363 37.5894 166.363 38.2572Z" fill="black"/>
<g clip-path="url(#clip0_463_4852)">
<path d="M164.457 54.9834L176.146 53.2752C178.801 52.8247 180.815 52.4459 183.216 54.2035C185.828 56.1065 186.38 65.3605 186.38 65.3605C186.38 65.3605 194.918 60.7229 198.749 67.2745L182.93 72.7181C182.93 72.7181 182.684 56.4153 177.539 56.9927C171.421 57.6758 168.228 57.5417 168.228 57.5417L164.457 54.9834Z" fill="black"/>
<path d="M163.802 53.5824L174.666 56.5527C176.425 57.056 179.164 57.851 179.592 61.5651C180.632 65.661 176.04 71.9602 176.04 71.9602C176.04 71.9602 185.033 72.9783 183.821 80.5757L168.437 74.4413C168.437 74.4413 180.665 61.7308 172.013 59.6976C168.619 58.9006 162.97 57.5504 162.97 57.5504L163.802 53.5824Z" fill="black"/>
</g>
<g clip-path="url(#clip1_463_4852)">
<path d="M233.242 0.862305H201.963C197.531 0.862305 193.904 4.48725 193.904 8.91702V11.8287C193.904 12.9476 194.133 14.0076 194.552 14.976L188.156 25.6284L199.285 19.4189C200.123 19.7133 201.02 19.8835 201.956 19.8835H233.235C237.667 19.8835 241.294 16.2585 241.294 11.8287V8.91702C241.294 4.48725 237.667 0.862305 233.235 0.862305L233.242 0.862305Z" fill="#00DED5"/>
</g>
<path d="M203.366 15.0371V6.30984H204.423V10.1962H209.076V6.30984H210.133V15.0371H209.076V11.1337H204.423V15.0371H203.366ZM214.449 15.1735C213.818 15.1735 213.274 15.0343 212.817 14.7559C212.362 14.4746 212.011 14.0826 211.764 13.5797C211.52 13.074 211.398 12.486 211.398 11.8155C211.398 11.1451 211.52 10.5542 211.764 10.0428C212.011 9.52859 212.355 9.12802 212.795 8.84109C213.238 8.55131 213.755 8.40643 214.346 8.40643C214.687 8.40643 215.024 8.46325 215.356 8.57688C215.689 8.69052 215.991 8.87518 216.264 9.13086C216.537 9.3837 216.754 9.71893 216.916 10.1365C217.078 10.5542 217.159 11.0684 217.159 11.6792V12.1053H212.113V11.236H216.136C216.136 10.8667 216.062 10.5371 215.915 10.2473C215.77 9.95756 215.562 9.72887 215.292 9.56126C215.025 9.39364 214.71 9.30984 214.346 9.30984C213.946 9.30984 213.599 9.40927 213.307 9.60813C213.017 9.80415 212.794 10.0598 212.638 10.3752C212.481 10.6905 212.403 11.0286 212.403 11.3894V11.9689C212.403 12.4632 212.488 12.8823 212.659 13.226C212.832 13.5669 213.072 13.8269 213.379 14.0059C213.686 14.182 214.042 14.2701 214.449 14.2701C214.713 14.2701 214.951 14.2331 215.165 14.1593C215.38 14.0826 215.567 13.9689 215.723 13.8184C215.879 13.665 216 13.4746 216.085 13.2473L217.057 13.5201C216.954 13.8496 216.782 14.1394 216.541 14.3894C216.3 14.6365 216.001 14.8297 215.646 14.9689C215.291 15.1053 214.892 15.1735 214.449 15.1735ZM219.286 6.30984V15.0371H218.281V6.30984H219.286ZM221.726 6.30984V15.0371H220.72V6.30984H221.726ZM225.819 15.1735C225.228 15.1735 224.71 15.0328 224.264 14.7516C223.821 14.4703 223.474 14.0769 223.224 13.5712C222.977 13.0655 222.853 12.4746 222.853 11.7985C222.853 11.1167 222.977 10.5215 223.224 10.013C223.474 9.50444 223.821 9.10955 224.264 8.8283C224.71 8.54705 225.228 8.40643 225.819 8.40643C226.41 8.40643 226.927 8.54705 227.37 8.8283C227.816 9.10955 228.163 9.50444 228.41 10.013C228.66 10.5215 228.785 11.1167 228.785 11.7985C228.785 12.4746 228.66 13.0655 228.41 13.5712C228.163 14.0769 227.816 14.4703 227.37 14.7516C226.927 15.0328 226.41 15.1735 225.819 15.1735ZM225.819 14.2701C226.268 14.2701 226.637 14.155 226.927 13.9249C227.217 13.6948 227.431 13.3922 227.571 13.0172C227.71 12.6422 227.779 12.236 227.779 11.7985C227.779 11.361 227.71 10.9533 227.571 10.5755C227.431 10.1976 227.217 9.89222 226.927 9.65927C226.637 9.42631 226.268 9.30984 225.819 9.30984C225.37 9.30984 225.001 9.42631 224.711 9.65927C224.421 9.89222 224.207 10.1976 224.068 10.5755C223.928 10.9533 223.859 11.361 223.859 11.7985C223.859 12.236 223.928 12.6422 224.068 13.0172C224.207 13.3922 224.421 13.6948 224.711 13.9249C225.001 14.155 225.37 14.2701 225.819 14.2701ZM231.242 6.30984L231.156 12.5826H230.168L230.083 6.30984H231.242ZM230.662 15.1053C230.452 15.1053 230.272 15.03 230.121 14.8794C229.97 14.7289 229.895 14.5485 229.895 14.3382C229.895 14.128 229.97 13.9476 230.121 13.7971C230.272 13.6465 230.452 13.5712 230.662 13.5712C230.872 13.5712 231.053 13.6465 231.203 13.7971C231.354 13.9476 231.429 14.128 231.429 14.3382C231.429 14.4775 231.394 14.6053 231.323 14.7218C231.255 14.8382 231.162 14.932 231.046 15.003C230.932 15.0712 230.804 15.1053 230.662 15.1053Z" fill="black"/>
<defs>
<clipPath id="clip0_463_4852">
<rect width="32.4241" height="30.9894" fill="white" transform="translate(162.098 54.001) rotate(-13.8006)"/>
</clipPath>
<clipPath id="clip1_463_4852">
<rect width="53.1439" height="24.7661" fill="white" transform="translate(188.156 0.862305)"/>
</clipPath>
</defs>
</svg>
