<svg width="104" height="79" viewBox="0 0 104 79" fill="none" xmlns="http://www.w3.org/2000/svg">
<g clip-path="url(#clip0_2_2781)">
<path d="M87.6592 75.6624L82.6078 69.8783C81.5518 70.38 70.7559 74.9898 65.8641 68.0496C59.9418 59.7242 68.731 48.4032 72.0586 45.5384C74.2432 43.4625 78.1697 40.8813 82.488 39.5943C87.739 38.0274 92.0683 38.78 95.3089 42.9027C100.919 50.7845 93.7122 58.0883 93.7122 58.0883L98.974 64.1596C106.638 55.6161 104.203 42.2846 100.473 38.3546C100.473 38.3546 92.6453 30.5019 91.1792 29.3167C91.1792 29.3167 78.0572 19.3263 61.593 33.4866C46.0868 46.5309 53.4316 62.3345 53.4316 62.3345C54.2989 64.145 61.1139 72.783 61.1139 72.783C65.0477 78.0255 75.6657 82.1809 87.6664 75.6624" fill="black"/>
<path d="M47.8283 12.0008L43.0346 18.003C43.7132 18.9555 50.1435 28.7896 44.1813 34.8355C36.8945 41.9611 24.3712 35.4644 20.971 32.6905C18.5469 30.9019 15.3172 27.4808 13.2959 23.4527C10.8319 18.5483 10.8065 14.1493 14.2902 10.2266C21.0472 3.30457 29.4952 9.12868 29.4952 9.12868L34.5357 2.87194C24.7922 -3.18484 12.1202 1.56315 8.91586 5.93306C8.91586 5.93306 2.57621 15.0364 1.67262 16.6906C1.67262 16.6906 -5.83553 31.389 10.9771 45.1349C26.5195 58.132 40.7593 48.1088 40.7593 48.1088C42.385 46.9345 49.6718 38.6964 49.6718 38.6964C54.1317 33.8975 56.3453 22.6892 47.8283 12.0044" fill="black"/>
</g>
<defs>
<clipPath id="clip0_2_2781">
<rect width="104" height="79" fill="white"/>
</clipPath>
</defs>
</svg>
