<svg width="47" height="38" viewBox="0 0 47 38" fill="none" xmlns="http://www.w3.org/2000/svg">
<path d="M21.5412 5.75652L19.3686 8.58318C19.6708 9.0367 22.5328 13.7134 19.8346 16.558C16.5385 19.91 10.9272 16.796 9.40575 15.4713C8.32052 14.6182 6.87993 12.9882 5.98195 11.0731C4.88821 8.74258 4.89034 6.65907 6.46712 4.81355C9.52491 1.55583 13.3062 4.33983 13.3062 4.33983L15.5894 1.39193C11.2251 -1.50657 5.51594 0.702664 4.06258 2.76372C4.06258 2.76372 1.18566 7.05422 0.774971 7.83553C0.774971 7.83553 -2.64245 14.7731 4.87544 21.3334C11.8273 27.5346 18.2557 22.8332 18.2557 22.8332C18.9898 22.2831 22.2902 18.4035 22.2902 18.4035C24.3096 16.1449 25.3374 10.844 21.5391 5.75876L21.5412 5.75652Z" fill="#00E13F"/>
<path d="M39.704 36.2245L37.3208 33.5078C36.8441 33.7638 31.967 36.1257 29.6433 32.8477C26.9238 28.8603 30.7094 23.3507 32.1925 21.9273C33.165 20.899 34.929 19.6035 36.8867 18.9277C39.2678 18.1038 41.2553 18.4091 42.7895 20.3512C45.4536 24.0714 42.249 27.6839 42.249 27.6839L44.7301 30.5375C48.1284 26.3211 46.8474 19.9358 45.0919 18.0925C45.0919 18.0925 41.4149 14.415 40.7297 13.8649C40.7297 13.8649 34.6056 9.22866 27.2558 16.265C20.3295 22.749 23.8852 30.2613 23.8852 30.2613C24.3044 31.1212 27.5282 35.1894 27.5282 35.1894C29.3922 37.6614 34.2992 39.5226 39.7019 36.2245H39.704Z" fill="#00E13F"/>
</svg>
