<svg width="154" height="110" viewBox="0 0 154 110" fill="none" xmlns="http://www.w3.org/2000/svg">
<path d="M152.8 2.96351C155.669 6.70513 152.074 12.379 150.748 16.0335C148.269 22.7018 145.791 29.3625 143.331 35.9612C141.514 40.9356 134.256 37.0587 136.057 32.1438C137.211 29.1341 138.315 26.0422 139.468 23.0338C122.138 39.9715 101.747 53.4618 79.38 62.787C74.4687 64.8057 69.4225 66.4793 64.2782 67.7955C57.1791 83.1763 44.4792 96.5027 32.5175 108.368C28.7609 112.062 22.7167 106.5 26.4713 102.808C36.4773 92.839 47.282 82.1794 54.2959 69.6846C38.6944 71.6545 22.917 68.876 11.4602 56.6787C4.36681 49.1047 -0.305837 38.9341 0.926231 28.413C2.21972 17.1411 10.3326 7.76957 20.5911 3.53876C31.6359 -1.03664 44.4554 1.43361 53.9433 8.33245C62.7934 14.7792 67.9014 24.8655 69.4526 35.5761C70.5572 43.2049 70.0064 50.9821 67.8377 58.3791C71.2415 57.2874 74.6157 56.0479 77.7323 54.7406C100.217 45.1358 120.548 31.1214 137.524 13.5255C138.244 12.7696 139.23 12.3232 140.274 12.2804C141.317 12.2376 142.337 12.6019 143.116 13.2963C143.268 12.9906 143.371 12.6042 143.52 12.2977C143.861 11.2825 144.25 10.3506 144.586 9.33401C138.253 10.2637 120.085 11.7532 118.025 11.9613C112.75 12.5513 112.533 4.33583 117.808 3.74452C124.705 3.03534 131.553 2.24517 138.45 1.53852C142.671 1.00823 149.632 -1.20351 152.8 2.96351ZM61.359 48.7605C62.4985 39.8713 61.1855 30.3231 56.2622 22.6424C50.6788 13.8124 40.146 8.22769 29.6417 9.49064C20.0032 10.6394 11.0976 18.0698 9.183 27.7886C7.39402 36.7808 11.8736 45.8634 18.3121 52.0153C29.3577 62.652 44.1631 63.6462 58.3496 60.7443C59.8338 56.8861 60.8443 52.8621 61.359 48.7605Z" fill="#231F20"/>
</svg>
